<?xml version="1.0" encoding="UTF-8" standalone="no"?>
<!DOCTYPE svg PUBLIC "-//W3C//DTD SVG 1.1//EN" "http://www.w3.org/Graphics/SVG/1.1/DTD/svg11.dtd">
<svg width="100%" height="100%" viewBox="0 0 1779 1520" version="1.1" xmlns="http://www.w3.org/2000/svg" xmlns:xlink="http://www.w3.org/1999/xlink" xml:space="preserve" xmlns:serif="http://www.serif.com/" style="fill-rule:evenodd;clip-rule:evenodd;stroke-linejoin:round;stroke-miterlimit:2;">
    <g transform="matrix(1,0,0,1,0.000808542,-1.66664)">
        <g transform="matrix(4.16667,0,0,4.16667,0,0)">
            <path d="M126.176,241.849C122.065,243.229 116.998,243.994 111.401,240.681C105.389,237.114 101.444,230.384 97.998,224.192C93.482,216.07 89.317,209.218 81.455,204.937C75.789,201.851 69.756,200.126 64.362,195.068C58.087,189.183 55.125,180.897 54.155,173.997C53.033,165.953 54.221,158.67 51.5,150.098C49.851,144.911 46.996,140.325 42.702,136.314C39.592,133.415 36.254,131.009 33.164,128.084C23.188,118.651 20.012,105.453 25.168,99.423C28.421,92.328 37.537,90.895 47.625,97.946C55.696,103.587 60.183,112.536 65.938,120.587C72.158,129.298 78.866,132.802 86.75,135.882C92.114,137.974 97.822,140.005 103.012,144.571C108.23,149.157 111.419,155.343 114.007,161.344C117.177,168.675 119.963,177.262 126.661,182.991C130.253,186.058 134.194,187.866 137.759,191.084C140.182,193.279 142.316,195.913 144.087,198.711C153.634,213.784 149.781,226.998 142.249,233.441C137.752,237.296 131.983,239.9 126.176,241.849Z" style="fill:rgb(190,213,239);fill-rule:nonzero;"/>
            <path d="M41.056,108.837C49.578,121.078 58.156,133.281 66.79,145.444C61.372,142.615 55.955,139.787 50.537,136.959C49.498,136.416 48.814,138.105 49.845,138.643L68.567,148.417C68.718,148.496 68.857,148.517 68.989,148.512C76.241,158.711 83.542,168.875 90.872,179.019C81.129,175.815 71.388,172.611 61.646,169.407C60.537,169.042 59.839,170.725 60.954,171.092C71.351,174.511 81.749,177.931 92.146,181.351C92.305,181.403 92.451,181.405 92.588,181.383C99.385,190.78 106.242,200.133 113.103,209.483C105.104,206.512 97.104,203.541 89.105,200.571C88.007,200.162 87.313,201.846 88.413,202.255C97.291,205.552 106.17,208.85 115.048,212.147C119.649,218.407 124.265,224.657 128.891,230.898L104.807,221.681C103.712,221.262 103.019,222.947 104.115,223.366C112.234,226.473 120.353,229.58 128.472,232.687C129.019,232.897 129.44,232.572 129.61,232.151C129.692,232.186 129.781,232.215 129.873,232.227C135.208,239.418 140.56,246.596 145.941,253.75C146.647,254.689 148.079,253.565 147.374,252.627C141.931,245.39 136.518,238.13 131.123,230.858C133.073,222.334 134.503,213.741 135.401,205.04C135.521,203.876 133.713,203.654 133.593,204.822C132.756,212.935 131.439,220.955 129.687,228.913C125.378,223.099 121.076,217.28 116.79,211.449C116.802,211.121 116.644,210.797 116.239,210.647L116.192,210.63C115.99,210.356 115.791,210.079 115.59,209.805C116.572,201.023 117.555,192.241 118.537,183.459C118.667,182.295 116.86,182.073 116.729,183.24C115.82,191.369 114.911,199.499 114.001,207.628C107.215,198.385 100.438,189.136 93.718,179.845C94.68,170.354 95.642,160.864 96.604,151.373C96.721,150.208 94.914,149.985 94.796,151.154C93.901,159.98 93.007,168.806 92.112,177.633C84.663,167.321 77.241,156.989 69.871,146.619C69.967,146.501 70.045,146.36 70.067,146.169L71.675,132.514C71.812,131.35 70.005,131.129 69.868,132.295C69.385,136.395 68.902,140.495 68.419,144.595C59.72,132.341 51.075,120.048 42.489,107.714C41.818,106.75 40.388,107.877 41.056,108.837Z" style="fill:rgb(253,231,229);fill-rule:nonzero;"/>
            <path d="M91.511,276.982C82.011,274.099 72.362,271.191 62.35,270.772C52.338,270.353 41.74,272.738 34.592,279.157C27.444,285.576 24.848,296.534 30.366,304.137C36.925,313.173 50.802,314.121 62.709,314.464C79.365,314.944 98.1,317.003 108.253,329.006C113.454,335.156 115.612,343.18 121.279,348.979C130.972,358.896 147.986,359.42 162.125,356.047C176.264,352.675 189.551,346.206 204.055,344.601C220.236,342.81 236.333,347.221 252.453,349.342C307.886,356.636 364.059,341.082 398,300.385C402.995,294.396 407.662,286.66 404.518,279.73C400.516,270.906 390.295,264.539 379.814,265.096C354.181,266.456 328.404,267.208 302.872,264.845C280.033,262.731 257.743,257.292 235.078,253.999C181.346,246.193 142.995,260.719 91.511,276.982Z" style="fill:rgb(190,213,239);fill-rule:nonzero;"/>
            <path d="M349.82,233.517C352.336,227.508 354.902,221.217 354.426,214.72C353.985,208.7 353.891,201.991 352.04,196.245C350.187,190.496 349.611,184.391 349.97,178.362C351.098,159.459 359.086,160.241 362.096,161.184C365.054,162.112 366.827,164.898 367.739,169.698C368.472,173.557 368.61,192.137 374.103,188.526C380.462,184.346 377.282,165.419 377.375,158.934C377.516,149.234 379.816,138.534 386.028,130.844C389.089,127.054 393.963,123.869 398.615,125.32C401.398,126.187 403.476,128.567 404.83,131.152C408.904,138.935 407.378,147.916 405.338,156.048C404.485,159.448 395.801,175.902 404.638,173.066C406.749,172.388 422.607,155.457 426.639,169.834C428.059,174.896 423.109,181.081 414.974,189.118C409.893,194.138 390.397,208.205 392.346,213.747C393.186,216.134 395.578,215.465 398.051,214.796C401.318,213.911 404.725,213.027 404.871,219.199C405.013,225.272 397.859,230.769 392.904,233.835C390.546,235.294 387.906,236.279 385.648,237.888C382.97,239.797 379.964,243.881 382.712,246.983C383.913,248.337 385.902,248.798 387.057,250.192C388.23,251.607 388.254,253.719 387.535,255.41C386.815,257.102 385.469,258.443 384.069,259.632C375.086,267.257 362.803,270.167 351.032,269.669C339.261,269.17 327.849,265.551 316.834,261.371L349.82,233.517Z" style="fill:rgb(145,176,220);fill-rule:nonzero;"/>
            <path d="M360.381,245.285C360.281,245.285 360.179,245.255 360.091,245.193C359.866,245.033 359.814,244.72 359.974,244.495C361.596,242.217 363.14,239.89 364.612,237.52C364.56,237.626 364.544,237.751 364.578,237.874C364.638,238.096 364.84,238.243 365.06,238.243C365.103,238.243 365.148,238.237 365.192,238.225C365.255,238.208 365.317,238.19 365.38,238.173C363.922,240.516 362.393,242.82 360.789,245.075C360.691,245.212 360.537,245.285 360.381,245.285ZM364.662,237.439C368.422,231.378 371.704,225.054 374.568,218.657C374.644,218.739 374.72,218.82 374.797,218.9C374.895,219.002 375.026,219.053 375.158,219.053C375.282,219.053 375.407,219.007 375.504,218.913C375.703,218.722 375.709,218.405 375.518,218.206C375.347,218.029 375.177,217.847 375.01,217.662C377.733,211.479 380.069,205.236 382.073,199.104C382.053,199.188 382.053,199.278 382.08,199.366C382.144,199.584 382.343,199.724 382.559,199.724C382.606,199.724 382.654,199.717 382.702,199.703C382.786,199.678 382.871,199.652 382.956,199.626C378.873,212.071 373.425,224.962 366.15,236.922C365.748,237.035 365.341,237.148 364.928,237.26C364.818,237.29 364.727,237.355 364.662,237.439ZM382.096,199.034C391.912,168.966 393.738,141.565 393.982,136.825C394.007,136.347 394.016,136.103 394.016,136.102C394.026,135.833 394.248,135.621 394.516,135.621L394.535,135.621C394.811,135.632 395.026,135.864 395.016,136.139C395.009,136.167 393.925,165.57 383.335,198.458C383.029,198.558 382.722,198.654 382.417,198.745C382.266,198.79 382.152,198.899 382.096,199.034Z" style="fill:rgb(170,194,229);fill-rule:nonzero;"/>
            <path d="M382.559,199.724C382.343,199.724 382.144,199.584 382.08,199.366C382.053,199.278 382.053,199.188 382.073,199.104C382.079,199.081 382.087,199.057 382.096,199.034C382.152,198.899 382.266,198.79 382.417,198.745C382.722,198.654 383.029,198.558 383.335,198.458C390.379,196.153 397.696,191.379 403.747,186.66C410.063,181.737 415.009,176.878 416.888,174.967C417.426,174.421 417.71,174.119 417.71,174.118C417.809,174.014 417.942,173.961 418.075,173.961C418.198,173.961 418.321,174.006 418.417,174.097C418.618,174.286 418.628,174.602 418.439,174.803C418.429,174.813 413.782,179.754 407,185.335C400.282,190.859 391.483,197.016 382.956,199.626C382.871,199.652 382.786,199.678 382.702,199.703C382.654,199.717 382.606,199.724 382.559,199.724Z" style="fill:rgb(170,194,229);fill-rule:nonzero;"/>
            <path d="M375.158,219.053C375.026,219.053 374.895,219.002 374.797,218.9C374.72,218.82 374.644,218.739 374.568,218.657C368.943,212.64 365.348,202.92 363.063,193.438C360.752,183.826 359.81,174.461 359.605,169.452C359.594,169.176 359.809,168.943 360.085,168.932C360.091,168.932 360.098,168.931 360.105,168.931C360.372,168.931 360.594,169.142 360.604,169.411C360.806,174.351 361.744,183.677 364.035,193.204C366.25,202.437 369.758,211.86 375.01,217.662C375.177,217.847 375.347,218.029 375.518,218.206C375.709,218.405 375.703,218.722 375.504,218.913C375.407,219.007 375.282,219.053 375.158,219.053Z" style="fill:rgb(170,194,229);fill-rule:nonzero;"/>
            <path d="M365.06,238.243C364.84,238.243 364.638,238.096 364.578,237.874C364.544,237.751 364.56,237.626 364.612,237.52C364.626,237.492 364.643,237.465 364.662,237.439C364.727,237.355 364.818,237.29 364.928,237.26C365.341,237.148 365.748,237.035 366.15,236.922C389.491,230.358 396.648,222.543 397.014,222.131L397.029,222.114C397.128,221.998 397.268,221.938 397.41,221.938C397.524,221.938 397.639,221.977 397.733,222.057C397.944,222.236 397.969,222.551 397.791,222.762C397.719,222.848 390.478,231.299 365.38,238.173C365.317,238.19 365.255,238.208 365.192,238.225C365.148,238.237 365.103,238.243 365.06,238.243Z" style="fill:rgb(170,194,229);fill-rule:nonzero;"/>
            <path d="M370.14,254.93C366,254.93 361.204,254.33 356.403,252.423C356.146,252.321 356.021,252.03 356.123,251.774C356.201,251.578 356.389,251.458 356.587,251.458C356.649,251.458 356.711,251.47 356.772,251.494C361.427,253.343 366.096,253.93 370.14,253.93L370.145,253.93C376.211,253.93 380.866,252.607 381.912,252.282C382.062,252.236 382.133,252.211 382.133,252.211L382.134,252.211C382.187,252.193 382.241,252.185 382.294,252.185C382.503,252.185 382.697,252.316 382.768,252.524C382.857,252.786 382.717,253.069 382.455,253.158C382.422,253.169 377.242,254.929 370.14,254.93Z" style="fill:rgb(170,194,229);fill-rule:nonzero;"/>
            <path d="M333.842,265.515L280.495,265.515C270.084,265.515 271.774,253.17 300.734,258.663C293.628,255.415 293.586,251.067 294.19,249.907C294.744,248.84 296.772,248.156 297.969,248.258C301.653,248.575 304.449,250.832 307.676,252.635C301.837,248.838 298.208,241.868 298.445,234.907C298.509,232.993 298.923,230.942 300.331,229.642C301.912,228.182 304.496,227.21 306.607,227.629C310.515,228.406 317.699,234.93 320.562,237.7C305.97,224.279 300.414,203.128 309.756,198.304C325.483,190.182 337.364,236.194 337.364,236.194C337.364,236.194 329.54,201.618 342.662,201.415C355.783,201.213 345.115,241.582 345.115,241.582L333.842,265.515Z" style="fill:rgb(145,176,220);fill-rule:nonzero;"/>
            <path d="M72.68,254.929C70.307,249.262 67.887,243.328 68.336,237.2C68.751,231.523 68.84,225.196 70.587,219.777C72.334,214.355 72.877,208.596 72.539,202.909C71.475,185.081 63.941,185.818 61.102,186.708C58.312,187.583 56.64,190.211 55.78,194.738C55.088,198.378 54.959,215.902 49.777,212.495C43.78,208.553 46.779,190.702 46.691,184.586C46.559,175.437 44.389,165.346 38.531,158.093C35.644,154.519 31.046,151.514 26.66,152.883C24.034,153.701 22.074,155.946 20.798,158.383C16.956,165.724 18.394,174.195 20.318,181.864C21.123,185.071 29.313,200.59 20.978,197.914C18.988,197.276 4.031,181.307 0.228,194.867C-1.111,199.641 3.557,205.475 11.23,213.055C16.022,217.788 34.41,231.056 32.572,236.283C31.78,238.535 29.523,237.904 27.191,237.272C24.109,236.438 20.896,235.604 20.759,241.425C20.625,247.153 27.372,252.337 32.046,255.23C34.269,256.606 36.76,257.535 38.889,259.053C41.415,260.854 44.249,264.704 41.658,267.629C40.525,268.906 38.649,269.342 37.56,270.656C36.454,271.991 36.431,273.984 37.11,275.578C37.789,277.173 39.057,278.439 40.378,279.56C48.85,286.751 60.435,289.496 71.537,289.026C82.639,288.556 93.402,285.143 103.791,281.199L72.68,254.929Z" style="fill:rgb(145,176,220);fill-rule:nonzero;"/>
            <path d="M46.91,237.755C44.832,232.821 43.007,227.869 41.406,222.988C41.491,223.015 41.575,223.04 41.66,223.065C41.708,223.08 41.756,223.086 41.803,223.086C42.018,223.086 42.217,222.946 42.282,222.729C42.307,222.643 42.309,222.556 42.29,222.474C43.845,227.23 45.613,232.057 47.62,236.864L46.91,237.755ZM42.263,222.39C42.206,222.258 42.094,222.151 41.945,222.107C41.64,222.016 41.333,221.92 41.026,221.819C31.052,190.817 30.032,163.117 30.025,163.089C30.015,162.813 30.23,162.581 30.506,162.57L30.525,162.57C30.793,162.57 31.014,162.782 31.025,163.051C31.025,163.052 31.033,163.282 31.057,163.733C31.08,164.183 31.119,164.849 31.179,165.714C31.298,167.442 31.503,169.96 31.841,173.113C32.519,179.42 33.733,188.271 35.882,198.432C37.455,205.876 39.531,214.023 42.263,222.39Z" style="fill:rgb(170,194,229);fill-rule:nonzero;"/>
            <path d="M41.803,223.086C41.756,223.086 41.708,223.08 41.66,223.065C41.575,223.04 41.491,223.015 41.406,222.988C33.361,220.522 25.067,214.716 18.733,209.508C12.335,204.244 7.952,199.582 7.942,199.572C7.753,199.371 7.762,199.055 7.964,198.866C8.06,198.775 8.183,198.73 8.306,198.73C8.439,198.73 8.572,198.783 8.67,198.887C8.671,198.888 8.939,199.173 9.445,199.687C9.952,200.202 10.694,200.944 11.635,201.849C13.517,203.66 16.194,206.124 19.368,208.736C25.467,213.758 33.414,219.316 41.026,221.819C41.333,221.92 41.64,222.016 41.945,222.107C42.094,222.151 42.206,222.258 42.263,222.39C42.274,222.417 42.283,222.445 42.29,222.474C42.309,222.556 42.307,222.643 42.282,222.729C42.217,222.946 42.018,223.086 41.803,223.086Z" style="fill:rgb(170,194,229);fill-rule:nonzero;"/>
            <path d="M56.803,225.338C57.756,222.59 58.565,219.736 59.245,216.901C61.406,207.919 62.29,199.124 62.48,194.466C62.491,194.197 62.713,193.987 62.98,193.987L63,193.987C63.276,193.998 63.491,194.231 63.48,194.507C63.286,199.234 62.397,208.067 60.217,217.135C59.738,219.125 59.197,221.127 58.587,223.098L56.803,225.338Z" style="fill:rgb(170,194,229);fill-rule:nonzero;"/>
            <path d="M36.303,251.069C29.767,247.55 27.456,244.854 27.414,244.804C27.236,244.593 27.261,244.278 27.472,244.099C27.566,244.019 27.681,243.98 27.795,243.98C27.937,243.98 28.077,244.04 28.176,244.156L28.19,244.171L28.244,244.231C28.295,244.286 28.374,244.37 28.485,244.48C28.707,244.701 29.054,245.028 29.546,245.442C30.531,246.272 32.097,247.454 34.405,248.841C35.166,249.298 36.008,249.778 36.936,250.274L36.303,251.069Z" style="fill:rgb(170,194,229);fill-rule:nonzero;"/>
            <path d="M53.515,275.152C46.813,275.152 41.925,273.491 41.891,273.48L41.891,273.481C41.63,273.392 41.49,273.108 41.579,272.846C41.649,272.638 41.844,272.507 42.052,272.507C42.106,272.507 42.16,272.515 42.213,272.534C42.213,272.534 42.28,272.557 42.421,272.6C42.562,272.644 42.772,272.707 43.046,272.782C43.593,272.934 44.394,273.137 45.4,273.34C47.413,273.746 50.246,274.153 53.515,274.153L53.516,274.153C57.136,274.153 61.286,273.654 65.451,272.111L66.031,272.962C61.649,274.624 57.293,275.152 53.515,275.152Z" style="fill:rgb(170,194,229);fill-rule:nonzero;"/>
            <path d="M87.749,285.108L138.065,285.108C147.883,285.108 146.29,273.465 118.977,278.646C125.677,275.582 125.717,271.481 125.148,270.387C124.626,269.381 122.713,268.736 121.584,268.832C118.11,269.13 115.472,271.26 112.429,272.961C117.936,269.379 121.358,262.806 121.136,256.241C121.074,254.435 120.684,252.5 119.357,251.275C117.865,249.898 115.429,248.981 113.437,249.376C109.751,250.108 102.976,256.262 100.275,258.874C114.037,246.215 119.278,226.268 110.467,221.718C95.634,214.057 84.429,257.453 84.429,257.453C84.429,257.453 91.807,224.844 79.432,224.653C67.057,224.461 77.118,262.535 77.118,262.535" style="fill:rgb(145,176,220);fill-rule:nonzero;"/>
            <path d="M192.701,178.583C190.11,172.395 187.469,165.918 187.958,159.228C188.412,153.03 188.509,146.122 190.415,140.206C192.323,134.287 192.916,128 192.546,121.792C191.385,102.329 183.16,103.134 180.06,104.106C177.015,105.061 175.189,107.929 174.25,112.871C173.496,116.846 173.354,135.976 167.697,132.258C161.15,127.954 164.424,108.466 164.328,101.789C164.184,91.801 161.815,80.784 155.42,72.866C152.268,68.964 147.249,65.685 142.46,67.178C139.593,68.072 137.454,70.522 136.061,73.183C131.866,81.197 133.435,90.445 135.537,98.817C136.415,102.317 145.356,119.26 136.257,116.339C134.084,115.641 117.756,98.209 113.604,113.012C112.142,118.224 117.239,124.593 125.616,132.868C130.847,138.036 150.921,152.52 148.914,158.226C148.05,160.684 145.586,159.995 143.04,159.306C139.676,158.396 136.167,157.485 136.018,163.84C135.872,170.093 143.237,175.753 148.34,178.91C150.768,180.412 153.486,181.426 155.81,183.083C158.568,185.049 161.662,189.254 158.833,192.447C157.598,193.842 155.549,194.317 154.36,195.751C153.152,197.208 153.127,199.384 153.868,201.125C154.609,202.866 155.994,204.247 157.437,205.472C166.686,213.323 179.332,216.32 191.453,215.806C203.573,215.293 215.323,211.567 226.665,207.262L192.701,178.583Z" style="fill:rgb(145,176,220);fill-rule:nonzero;"/>
            <path d="M164.124,158.652C162.052,153.645 160.219,148.626 158.595,143.676C158.679,143.702 158.764,143.727 158.849,143.752C158.897,143.767 158.945,143.773 158.992,143.773C159.207,143.773 159.406,143.633 159.471,143.416C159.496,143.331 159.498,143.244 159.479,143.163C161.128,148.206 162.994,153.317 165.108,158.416L164.124,158.652ZM159.451,143.075C159.394,142.944 159.282,142.838 159.134,142.794C158.829,142.703 158.522,142.607 158.215,142.507C147.303,108.635 146.186,78.347 146.179,78.319C146.169,78.043 146.385,77.811 146.661,77.8L146.679,77.8C146.947,77.8 147.169,78.012 147.179,78.281C147.179,78.282 147.188,78.534 147.214,79.026C147.24,79.517 147.282,80.245 147.347,81.189C147.478,83.076 147.701,85.826 148.071,89.269C148.81,96.156 150.137,105.819 152.483,116.913C154.201,125.042 156.467,133.939 159.451,143.075Z" style="fill:rgb(170,194,229);fill-rule:nonzero;"/>
            <path d="M158.992,143.773C158.945,143.773 158.897,143.767 158.849,143.752C158.764,143.727 158.679,143.702 158.595,143.676C149.816,140.99 140.754,134.65 133.835,128.961C126.853,123.216 122.069,118.128 122.059,118.118C121.87,117.917 121.88,117.601 122.081,117.411C122.177,117.321 122.3,117.276 122.423,117.276C122.556,117.276 122.689,117.328 122.787,117.433C122.788,117.434 123.081,117.745 123.634,118.307C124.187,118.87 124.998,119.68 126.026,120.668C128.08,122.645 131.005,125.337 134.471,128.188C141.154,133.691 149.869,139.785 158.215,142.507C158.522,142.607 158.829,142.703 159.134,142.794C159.282,142.838 159.394,142.944 159.451,143.075C159.463,143.103 159.473,143.133 159.479,143.163C159.498,143.244 159.496,143.331 159.471,143.416C159.406,143.633 159.207,143.773 158.992,143.773Z" style="fill:rgb(170,194,229);fill-rule:nonzero;"/>
            <path d="M170.523,157.114C173.918,151.423 176.371,144.195 178.078,137.078C180.438,127.268 181.404,117.665 181.612,112.577C181.623,112.308 181.844,112.097 182.111,112.097C182.118,112.097 182.125,112.098 182.132,112.098C182.408,112.109 182.622,112.342 182.611,112.618C182.399,117.775 181.429,127.416 179.051,137.312C177.403,144.15 175.093,151.108 171.868,156.791L170.523,157.114Z" style="fill:rgb(170,194,229);fill-rule:nonzero;"/>
            <path d="M209.152,211.529L264.082,211.529C274.799,211.529 273.06,198.819 243.243,204.474C250.558,201.13 250.601,196.653 249.98,195.458C249.41,194.361 247.321,193.655 246.089,193.76C242.296,194.086 239.416,196.411 236.094,198.268C242.106,194.358 245.842,187.182 245.599,180.014C245.533,178.043 245.107,175.93 243.658,174.593C242.029,173.09 239.369,172.089 237.195,172.521C233.171,173.319 225.774,180.037 222.826,182.89C237.85,169.07 243.571,147.293 233.953,142.325C217.759,133.963 205.527,181.338 205.527,181.338C205.527,181.338 213.581,145.739 200.071,145.53C186.561,145.321 197.546,186.887 197.546,186.887L209.152,211.529Z" style="fill:rgb(145,176,220);fill-rule:nonzero;"/>
            <path d="M68.438,100.114C69.403,100.114 69.405,98.614 68.438,98.614C67.473,98.614 67.471,100.114 68.438,100.114Z" style="fill:rgb(83,126,192);fill-rule:nonzero;"/>
            <path d="M75.232,95.173C76.198,95.173 76.199,93.673 75.232,93.673C74.268,93.673 74.266,95.173 75.232,95.173Z" style="fill:rgb(83,126,192);fill-rule:nonzero;"/>
            <path d="M200.627,145.207C201.593,145.207 201.594,143.707 200.627,143.707C199.662,143.707 199.661,145.207 200.627,145.207Z" style="fill:rgb(83,126,192);fill-rule:nonzero;"/>
            <path d="M64.731,88.996C65.697,88.996 65.698,87.496 64.731,87.496C63.767,87.496 63.765,88.996 64.731,88.996Z" style="fill:rgb(83,126,192);fill-rule:nonzero;"/>
            <path d="M357.525,229.832C358.49,229.832 358.492,228.332 357.525,228.332C356.56,228.332 356.558,229.832 357.525,229.832Z" style="fill:rgb(83,126,192);fill-rule:nonzero;"/>
            <path d="M364.32,236.627C365.285,236.627 365.287,235.127 364.32,235.127C363.354,235.127 363.353,236.627 364.32,236.627Z" style="fill:rgb(83,126,192);fill-rule:nonzero;"/>
            <path d="M349.495,242.804C350.459,242.804 350.461,241.304 349.495,241.304C348.53,241.304 348.528,242.804 349.495,242.804Z" style="fill:rgb(83,126,192);fill-rule:nonzero;"/>
            <path d="M330.963,55.022C331.928,55.022 331.93,53.522 330.963,53.522C329.999,53.522 329.997,55.022 330.963,55.022Z" style="fill:rgb(83,126,192);fill-rule:nonzero;"/>
            <path d="M341.464,57.493C342.429,57.493 342.431,55.993 341.464,55.993C340.499,55.993 340.498,57.493 341.464,57.493Z" style="fill:rgb(83,126,192);fill-rule:nonzero;"/>
            <path d="M331.582,65.523C332.546,65.523 332.548,64.023 331.582,64.023C330.616,64.023 330.615,65.523 331.582,65.523Z" style="fill:rgb(83,126,192);fill-rule:nonzero;"/>
            <path d="M215.453,111.233C216.417,111.233 216.419,109.733 215.453,109.733C214.487,109.733 214.486,111.233 215.453,111.233Z" style="fill:rgb(83,126,192);fill-rule:nonzero;"/>
            <path d="M217.305,101.35C218.271,101.35 218.272,99.85 217.305,99.85C216.34,99.85 216.339,101.35 217.305,101.35Z" style="fill:rgb(83,126,192);fill-rule:nonzero;"/>
            <path d="M224.718,111.851C225.683,111.851 225.685,110.351 224.718,110.351C223.752,110.351 223.751,111.851 224.718,111.851Z" style="fill:rgb(83,126,192);fill-rule:nonzero;"/>
            <path d="M212.364,281.102C213.329,281.102 213.331,279.602 212.364,279.602C211.399,279.602 211.397,281.102 212.364,281.102Z" style="fill:rgb(83,126,192);fill-rule:nonzero;"/>
            <path d="M217.923,289.132C218.888,289.132 218.89,287.632 217.923,287.632C216.958,287.632 216.956,289.132 217.923,289.132Z" style="fill:rgb(83,126,192);fill-rule:nonzero;"/>
            <path d="M368.643,292.221C369.609,292.221 369.61,290.721 368.643,290.721C367.678,290.721 367.676,292.221 368.643,292.221Z" style="fill:rgb(83,126,192);fill-rule:nonzero;"/>
            <path d="M348.259,127.911C349.224,127.911 349.226,126.411 348.259,126.411C347.294,126.411 347.292,127.911 348.259,127.911Z" style="fill:rgb(83,126,192);fill-rule:nonzero;"/>
            <path d="M80.792,67.376C81.757,67.376 81.759,65.876 80.792,65.876C79.827,65.876 79.825,67.376 80.792,67.376Z" style="fill:rgb(83,126,192);fill-rule:nonzero;"/>
            <path d="M157.388,24.755C158.353,24.755 158.355,23.255 157.388,23.255C156.423,23.255 156.421,24.755 157.388,24.755Z" style="fill:rgb(83,126,192);fill-rule:nonzero;"/>
            <path d="M212.364,1.9C213.329,1.9 213.331,0.4 212.364,0.4C211.399,0.4 211.397,1.9 212.364,1.9Z" style="fill:rgb(83,126,192);fill-rule:nonzero;"/>
            <path d="M232.13,16.724C233.095,16.724 233.097,15.224 232.13,15.224C231.165,15.224 231.164,16.724 232.13,16.724Z" style="fill:rgb(83,126,192);fill-rule:nonzero;"/>
            <path d="M70.909,284.809C71.874,284.809 71.875,283.309 70.909,283.309C69.943,283.309 69.942,284.809 70.909,284.809Z" style="fill:rgb(83,126,192);fill-rule:nonzero;"/>
            <path d="M42.494,263.806C43.459,263.806 43.461,262.307 42.494,262.307C41.529,262.307 41.527,263.806 42.494,263.806Z" style="fill:rgb(83,126,192);fill-rule:nonzero;"/>
            <path d="M44.965,268.13C45.93,268.13 45.932,266.63 44.965,266.63C44,266.63 43.998,268.13 44.965,268.13Z" style="fill:rgb(83,126,192);fill-rule:nonzero;"/>
            <path d="M40.023,271.219C40.989,271.219 40.99,269.719 40.023,269.719C39.058,269.719 39.057,271.219 40.023,271.219Z" style="fill:rgb(83,126,192);fill-rule:nonzero;"/>
            <path d="M327.257,321.87C328.222,321.87 328.224,320.37 327.257,320.37C326.292,320.37 326.29,321.87 327.257,321.87Z" style="fill:rgb(83,126,192);fill-rule:nonzero;"/>
            <path d="M68.438,217.479C69.403,217.479 69.405,215.979 68.438,215.979C67.473,215.979 67.471,217.479 68.438,217.479Z" style="fill:rgb(83,126,192);fill-rule:nonzero;"/>
            <path d="M57.937,336.696C58.902,336.696 58.904,335.196 57.937,335.196C56.972,335.196 56.97,336.696 57.937,336.696Z" style="fill:rgb(83,126,192);fill-rule:nonzero;"/>
            <path d="M197.539,328.665C198.504,328.665 198.506,327.165 197.539,327.165C196.574,327.165 196.572,328.665 197.539,328.665Z" style="fill:rgb(83,126,192);fill-rule:nonzero;"/>
            <path d="M385.322,336.696C386.287,336.696 386.289,335.196 385.322,335.196C384.356,335.196 384.355,336.696 385.322,336.696Z" style="fill:rgb(83,126,192);fill-rule:nonzero;"/>
            <path d="M231.513,3.753C232.478,3.753 232.48,2.253 231.513,2.253C230.547,2.253 230.546,3.753 231.513,3.753Z" style="fill:rgb(83,126,192);fill-rule:nonzero;"/>
            <path d="M285.253,90.849C286.218,90.849 286.22,89.349 285.253,89.349C284.288,89.349 284.287,90.849 285.253,90.849Z" style="fill:rgb(83,126,192);fill-rule:nonzero;"/>
            <path d="M303.785,77.877C304.749,77.877 304.751,76.377 303.785,76.377C302.819,76.377 302.818,77.877 303.785,77.877Z" style="fill:rgb(83,126,192);fill-rule:nonzero;"/>
            <path d="M24.89,125.44C25.855,125.44 25.856,123.94 24.89,123.94C23.924,123.94 23.923,125.44 24.89,125.44Z" style="fill:rgb(83,126,192);fill-rule:nonzero;"/>
            <path d="M391.499,108.144C392.463,108.144 392.465,106.644 391.499,106.644C390.534,106.644 390.532,108.144 391.499,108.144Z" style="fill:rgb(83,126,192);fill-rule:nonzero;"/>
            <path d="M217.646,87.419C263.242,113.89 295.147,161.053 302.798,213.205C303.033,214.806 299.688,213.082 299.385,212.972C247.8,194.184 213.735,143.462 215.836,88.613C215.868,87.75 216.761,86.9 217.646,87.419Z" style="fill:rgb(190,213,239);fill-rule:nonzero;"/>
            <path d="M222.151,102.216C242.806,131.187 263.461,160.157 284.117,189.128C274.64,183.532 265.165,177.934 255.688,172.337C254.721,171.766 253.736,173.216 254.709,173.791C265.346,180.074 275.983,186.356 286.62,192.639C292.976,201.554 299.332,210.47 305.689,219.386C306.345,220.306 307.669,219.156 307.02,218.244C300.772,209.482 294.525,200.72 288.278,191.957C288.262,191.731 288.151,191.511 287.887,191.356L287.821,191.317C266.374,161.236 244.928,131.155 223.482,101.074C222.826,100.155 221.501,101.304 222.151,102.216Z" style="fill:rgb(253,231,229);fill-rule:nonzero;"/>
            <path d="M234.514,139.484C233.574,138.864 232.592,140.316 233.536,140.938C242.28,146.709 251.023,152.48 259.765,158.251C260.707,158.872 261.687,157.42 260.746,156.798C252.001,151.027 243.258,145.256 234.514,139.484Z" style="fill:rgb(253,231,229);fill-rule:nonzero;"/>
            <path d="M241.446,110.632C242.314,116.983 243.183,123.334 244.052,129.685C236.594,124.073 229.137,118.461 221.679,112.849C220.778,112.17 219.801,113.626 220.701,114.303C228.581,120.233 236.459,126.162 244.339,132.092C245.2,132.739 246.109,131.45 245.412,130.742C245.696,130.577 245.898,130.271 245.841,129.856L243.165,110.296C243.012,109.177 241.293,109.517 241.446,110.632Z" style="fill:rgb(253,231,229);fill-rule:nonzero;"/>
            <path d="M261.657,133.24L260.711,155.186C260.663,156.311 262.412,156.429 262.46,155.298L263.407,133.351C263.456,132.226 261.707,132.109 261.657,133.24Z" style="fill:rgb(253,231,229);fill-rule:nonzero;"/>
            <path d="M282.511,168.329C283.981,174.911 284.604,181.576 284.367,188.318C284.327,189.443 286.076,189.561 286.116,188.429C286.359,181.541 285.734,174.72 284.231,167.993C283.985,166.892 282.264,167.225 282.511,168.329Z" style="fill:rgb(253,231,229);fill-rule:nonzero;"/>
            <path d="M251.651,223.192C248.119,218.745 244.918,212.847 246.504,204.479C248.216,195.487 254.744,187.631 260.831,180.628C268.82,171.448 275.399,163.266 277.166,151.678C278.441,143.327 277.874,135.13 281.7,126.234C286.149,115.886 295.031,108.544 303.093,104.275C312.497,99.31 321.995,97.526 331.335,90.356C336.987,86.013 341.361,80.454 344.386,73.38C346.57,68.258 348.044,63.076 350.268,57.968C357.437,41.481 372.27,31.688 381.993,35.348C392.179,36.192 398.006,46.776 393.821,62.341C390.471,74.792 381.454,84.305 374.106,94.979C366.154,106.52 364.828,116.341 364.55,127.42C364.365,134.957 364.408,142.89 361.099,151.314C357.779,159.783 351.583,166.467 345.348,172.327C337.735,179.498 328.405,186.755 324.334,197.556C322.16,203.346 321.691,209.004 319.317,214.827C317.695,218.787 315.403,222.59 312.747,226.018C298.444,244.489 280.455,245.636 269.167,239.235C262.416,235.415 256.639,229.473 251.651,223.192Z" style="fill:rgb(190,213,239);fill-rule:nonzero;"/>
            <path d="M377.483,59.106C366.208,75.054 355.008,91.055 343.881,107.106C344.949,99.175 346.016,91.244 347.084,83.314C347.29,81.792 344.905,81.704 344.702,83.213L341.012,110.619C340.982,110.84 341.018,111.022 341.082,111.182C331.757,124.657 322.497,138.176 313.275,151.721C312.877,138.298 312.481,124.875 312.083,111.452C312.039,109.925 309.656,109.816 309.701,111.351C310.124,125.678 310.548,140.004 310.972,154.33C310.979,154.548 311.041,154.728 311.128,154.887C302.589,167.445 294.129,180.056 285.675,192.67C285.768,181.497 285.86,170.325 285.953,159.151C285.965,157.618 283.583,157.514 283.57,159.05C283.467,171.451 283.365,183.852 283.261,196.253C277.604,204.707 271.966,213.176 266.344,221.654L266.958,187.892C266.986,186.358 264.603,186.255 264.576,187.79C264.369,199.172 264.162,210.554 263.955,221.936C263.94,222.703 264.528,223.075 265.122,223.098C265.116,223.216 265.12,223.336 265.146,223.456C258.669,233.229 252.217,243.017 245.806,252.832C244.965,254.119 246.988,255.381 247.828,254.096C254.312,244.168 260.838,234.268 267.388,224.383C278.751,222.987 289.971,220.916 301.082,218.144C302.569,217.773 302.038,215.449 300.546,215.821C290.183,218.406 279.722,220.36 269.142,221.749C274.38,213.853 279.628,205.962 284.897,198.086C285.306,197.954 285.634,197.616 285.638,197.05L285.639,196.985C285.887,196.615 286.138,196.245 286.386,195.875C297.637,193.171 308.887,190.466 320.138,187.762C321.629,187.404 321.097,185.079 319.603,185.439C309.188,187.943 298.773,190.446 288.358,192.949C296.714,180.475 305.082,168.009 313.527,155.594C325.641,152.548 337.754,149.502 349.869,146.456C351.355,146.083 350.824,143.758 349.332,144.133C338.067,146.966 326.8,149.798 315.535,152.631C324.911,138.862 334.324,125.119 343.806,111.424C343.996,111.49 344.204,111.522 344.449,111.465L361.978,107.359C363.471,107.009 362.939,104.685 361.442,105.035C356.179,106.268 350.915,107.501 345.653,108.734C356.862,92.562 368.145,76.439 379.504,60.37C380.392,59.115 378.367,57.856 377.483,59.106Z" style="fill:rgb(253,231,229);fill-rule:nonzero;"/>
            <path d="M360.897,259.152L250.259,323.606L249.057,299.029L359.776,236.232L360.897,259.152Z" style="fill:rgb(223,87,38);fill-rule:nonzero;"/>
            <path d="M249.057,299.029L134.431,263.621L257.097,210.017L359.776,236.232L249.057,299.029Z" style="fill:rgb(243,110,63);fill-rule:nonzero;"/>
            <path d="M135.619,287.921L250.246,323.329L249.057,299.029L134.431,263.621L135.619,287.921Z" style="fill:white;fill-rule:nonzero;"/>
            <path d="M134.552,266.106L249.178,301.514L249.057,299.029L134.431,263.621L134.552,266.106Z" style="fill:rgb(223,87,38);fill-rule:nonzero;"/>
            <path d="M135.632,288.198L250.259,323.605L250.137,321.12L135.511,285.712L135.632,288.198Z" style="fill:rgb(223,87,38);fill-rule:nonzero;"/>
            <path d="M242.041,318.686L250.137,321.12L249.178,301.514L241.07,299.011L242.041,318.686Z" style="fill:rgb(162,63,34);fill-rule:nonzero;"/>
            <path d="M145.61,283.55L149.484,281.316L153.706,285.985L153.371,279.15L145.263,276.647L145.61,283.55Z" style="fill:rgb(162,63,34);fill-rule:nonzero;"/>
            <path d="M345.573,227.989L248.524,284.425L247.486,263.203L344.639,208.912L345.573,227.989Z" style="fill:white;fill-rule:nonzero;"/>
            <path d="M344.73,210.76L247.593,265.408L247.486,263.203L344.639,208.912L344.73,210.76Z" style="fill:rgb(48,124,192);fill-rule:nonzero;"/>
            <path d="M345.639,229.36L248.538,284.723L248.43,282.518L345.549,227.512L345.639,229.36Z" style="fill:rgb(48,124,192);fill-rule:nonzero;"/>
            <path d="M345.741,232.648L341.687,231.613L341.924,231.478L345.801,232.614L345.741,232.648Z" style="fill:rgb(132,150,204);fill-rule:nonzero;"/>
            <path d="M249.24,288.302L248.541,284.77L317.64,245.323L341.687,231.613L345.741,232.648L249.24,288.302Z" style="fill:rgb(242,99,48);fill-rule:nonzero;"/>
            <path d="M317.64,245.323L341.905,231.472L341.924,231.478L341.687,231.613L317.64,245.323Z" style="fill:rgb(31,112,184);fill-rule:nonzero;"/>
            <path d="M344.639,208.912L254.429,186.338L148.082,232.76L152.709,238.994L152.477,234.231L247.486,263.203L344.639,208.912Z" style="fill:rgb(86,151,209);fill-rule:nonzero;"/>
            <path d="M151.905,254.829L247.988,284.51C248.252,284.591 248.523,284.403 248.51,284.145L247.51,263.695L153.504,234.656C151.104,233.915 148.649,235.633 148.764,237.974L149.441,251.809C149.508,253.191 150.488,254.392 151.905,254.829Z" style="fill:white;fill-rule:nonzero;"/>
            <path d="M233.376,275.866L236.722,273.937L240.367,277.968L240.079,266.507L233.077,264.346L233.376,275.866Z" style="fill:rgb(48,124,192);fill-rule:nonzero;"/>
            <path d="M157.103,256.339L149.116,253.89L148.082,232.76L156.07,235.208L157.103,256.339Z" style="fill:rgb(48,124,192);fill-rule:nonzero;"/>
            <path d="M150.829,254.456L149.116,253.89L148.082,232.76L149.796,233.325L150.829,254.456Z" style="fill:rgb(48,124,192);fill-rule:nonzero;"/>
            <path d="M148.187,234.906L247.59,265.349L247.486,263.203L148.082,232.76L148.187,234.906Z" style="fill:rgb(48,124,192);fill-rule:nonzero;"/>
            <path d="M149.087,253.927L248.585,284.692L248.48,282.545L148.972,251.901L149.087,253.927Z" style="fill:rgb(48,124,192);fill-rule:nonzero;"/>
            <path d="M249.24,288.302L183.561,267.789C184.384,266.983 185.191,266.171 185.98,265.355L211.607,273.272L248.47,284.689L249.24,288.302Z" style="fill:rgb(242,99,48);fill-rule:nonzero;"/>
            <path d="M211.607,273.272L185.98,265.355C185.985,265.351 185.991,265.344 185.995,265.339L211.607,273.272Z" style="fill:rgb(225,206,206);fill-rule:nonzero;"/>
            <path d="M209.12,218.199C212.549,222.867 208.636,235.457 199.077,249.398C190.279,262.238 176.683,276.215 159.62,286.185C124.025,306.984 88.887,306.11 82.218,296.717L49.039,248.026L177.96,172.697C177.96,172.697 208.869,217.859 209.12,218.199Z" style="fill:rgb(51,50,52);fill-rule:nonzero;"/>
            <path d="M206.389,154.581L135.977,249.928L132.211,244.402L202.825,149.351L206.389,154.581Z" style="fill:rgb(41,39,42);fill-rule:nonzero;"/>
            <path d="M202.826,149.351L164.305,201.202L132.208,244.402L26.603,268.161L22.113,268.88L97.1,174.759L202.826,149.351Z" style="fill:rgb(51,50,52);fill-rule:nonzero;"/>
            <path d="M25.498,273.852L135.99,249.947L132.211,244.402L22.11,268.88L25.498,273.852Z" style="fill:rgb(41,39,42);fill-rule:nonzero;"/>
            <path d="M162.204,204.052C162.206,204.042 162.207,204.035 162.208,204.025L164.305,201.202L202.826,149.351L202.825,149.352L164.305,201.202L162.204,204.052Z" style="fill:rgb(34,28,32);fill-rule:nonzero;"/>
            <path d="M162.208,204.025C166.172,177.964 138.54,173.247 118.039,173.247C106.424,173.247 97.1,174.759 97.1,174.759L202.826,149.351L164.305,201.202L162.208,204.025Z" style="fill:rgb(45,40,43);fill-rule:nonzero;"/>
            <path d="M199.077,249.398C199.077,249.398 202.054,230.271 194.011,218.469C185.805,206.426 175.564,205.024 171.242,205.024C169.932,205.024 169.166,205.153 169.166,205.153L185.167,183.399C185.167,183.399 208.869,217.859 209.12,218.199C209.944,219.321 210.344,220.899 210.344,222.844C210.343,228.994 206.34,238.806 199.077,249.398Z" style="fill:rgb(49,42,45);fill-rule:nonzero;"/>
            <path d="M119.774,203.151C120.163,203.721 120.161,204.476 119.834,205.286C119.276,206.711 117.725,208.335 115.565,209.598C112.167,211.582 108.544,211.918 107.469,210.341C106.679,209.181 107.485,207.32 109.315,205.63C109.976,205.014 110.776,204.422 111.679,203.895C115.076,201.909 118.699,201.574 119.774,203.151Z" style="fill:rgb(243,110,63);fill-rule:nonzero;"/>
            <path d="M112.729,206.069L78.271,251.499L79.164,252.176L78.395,251.361C78.275,251.472 71.261,258.144 65.77,274.945L67.9,275.641C70.586,267.426 73.625,261.738 75.976,258.114C77.152,256.303 78.156,255.008 78.858,254.173C79.21,253.756 79.486,253.453 79.67,253.258C79.762,253.161 79.831,253.091 79.876,253.047L79.923,253L79.933,252.991L79.85,252.904L79.932,252.991L79.933,252.991L79.85,252.904L79.932,252.991L80,252.927L114.514,207.423L112.729,206.069Z" style="fill:rgb(243,110,63);fill-rule:nonzero;"/>
            <path d="M119.774,203.151C120.163,203.721 120.161,204.476 119.834,205.286C115.247,202.82 111.147,204.559 109.315,205.63C109.976,205.014 110.776,204.422 111.679,203.895C115.076,201.909 118.699,201.574 119.774,203.151Z" style="fill:rgb(223,87,38);fill-rule:nonzero;"/>
            <path d="M76.539,294.575C79.286,305.775 79.391,315.293 76.782,315.84C74.172,316.388 69.825,307.759 67.078,296.559C64.33,285.36 64.225,275.841 66.835,275.293C67.561,275.142 68.426,275.698 69.34,276.82C71.74,279.742 74.555,286.488 76.539,294.575Z" style="fill:rgb(243,110,63);fill-rule:nonzero;"/>
            <path d="M76.539,294.575C79.286,305.775 79.391,315.293 76.782,315.84C76.915,291.039 66.898,278.929 66.898,278.929L69.34,276.82C71.74,279.742 74.555,286.488 76.539,294.575Z" style="fill:rgb(223,87,38);fill-rule:nonzero;"/>
            <path d="M71.745,275.032C72.155,276.705 71.503,278.37 70.194,279.421C69.612,279.889 68.902,280.238 68.089,280.407C65.48,280.955 62.877,279.435 62.284,277.016C61.884,275.387 62.498,273.768 63.731,272.71C64.327,272.201 65.08,271.821 65.939,271.641C68.549,271.093 71.152,272.614 71.745,275.032Z" style="fill:rgb(243,110,63);fill-rule:nonzero;"/>
            <path d="M71.745,275.032C72.155,276.705 71.503,278.37 70.194,279.421C70.111,279.254 70.047,279.06 69.989,278.857C68.373,273.012 64.665,272.699 63.731,272.71C64.327,272.201 65.08,271.821 65.939,271.641C68.549,271.093 71.152,272.614 71.745,275.032Z" style="fill:rgb(223,87,38);fill-rule:nonzero;"/>
            <path d="M367.866,265.659L352.94,270.233L317.168,153.473L332.094,148.901L367.866,265.659Z" style="fill:rgb(246,200,29);fill-rule:nonzero;"/>
            <path d="M359.159,268.327L357.5,268.835L321.589,151.618L323.248,151.11L359.159,268.327Z" style="fill:rgb(51,50,52);fill-rule:nonzero;"/>
            <path d="M363.305,267.057L361.647,267.565L325.735,150.348L327.393,149.84L363.305,267.057Z" style="fill:rgb(51,50,52);fill-rule:nonzero;"/>
            <path d="M368.637,268.178L353.356,272.86L352.445,269.883L367.725,265.201L368.637,268.178Z" style="fill:rgb(51,50,52);fill-rule:nonzero;"/>
            <path d="M366.514,274.588L358.706,276.981C356.642,277.613 354.457,276.452 353.825,274.389L353.356,272.86L368.637,268.178L369.106,269.708C369.738,271.771 368.578,273.956 366.514,274.588Z" style="fill:rgb(243,110,63);fill-rule:nonzero;"/>
            <path d="M332.097,148.897L317.171,153.47L319.824,143.018L320.994,138.385L324.408,141.614L332.097,148.897Z" style="fill:rgb(254,223,191);fill-rule:nonzero;"/>
            <path d="M324.408,141.614L319.824,143.018L320.994,138.385L324.408,141.614Z" style="fill:rgb(51,50,52);fill-rule:nonzero;"/>
            <path d="M98.191,80.966C98.962,79.727 98.583,78.097 97.344,77.325L81.944,67.741C80.705,66.97 79.074,67.35 78.303,68.589L76.906,70.833L75.779,72.645L53.267,108.817C52.495,110.057 52.875,111.687 54.114,112.458L107.602,145.746C108.841,146.517 110.471,146.138 111.243,144.899L133.486,109.158C134.257,107.918 133.878,106.288 132.639,105.517L99.039,84.607C97.799,83.836 97.419,82.206 98.191,80.966Z" style="fill:rgb(215,176,37);fill-rule:nonzero;"/>
            <path d="M107.602,145.746L54.114,112.458C52.875,111.687 52.495,110.057 53.267,108.817L79.463,75.537C80.234,74.298 81.864,73.918 83.104,74.69L136.591,107.977C137.831,108.748 138.21,110.379 137.439,111.618L111.243,144.899C110.471,146.138 108.841,146.517 107.602,145.746Z" style="fill:rgb(246,200,29);fill-rule:nonzero;"/>
            <path d="M248.285,223.469C241.635,223.469 235.049,222.533 229.871,218.585C227.453,216.74 225.374,213.945 225.71,210.922C225.944,208.83 227.868,207.027 229.822,206.739C230.787,206.417 231.81,206.28 232.877,206.28C236.013,206.28 239.525,207.468 243.026,208.656C246.527,209.845 250.016,211.033 253.106,211.033C253.484,211.033 253.855,211.015 254.22,210.978C258.476,210.539 262.055,207.742 265.935,205.938C268.431,204.778 271.233,204.041 273.972,204.041C276.07,204.041 278.13,204.474 279.984,205.481C284.255,207.801 286.549,213.854 283.754,217.831C281.329,221.283 276.535,221.862 272.325,222.129C266.873,222.476 261.423,222.822 255.973,223.168C253.452,223.328 250.865,223.469 248.285,223.469Z" style="fill:rgb(80,140,201);fill-rule:nonzero;"/>
            <path d="M294.531,99.169C293.026,99.522 287.644,99.601 282.632,100.003C281.65,97.204 280.126,91.087 277.955,83.328C277.519,81.77 275.328,78.953 272.872,77.865C271.348,77.191 269.067,78.434 269.724,81.393C270.094,83.054 270.55,85.38 272.447,90.765C275.102,98.304 277.023,101.918 278.226,103.709C278.374,104.015 278.581,104.296 278.838,104.538C278.965,104.684 279.117,104.796 279.285,104.882C279.738,105.163 280.285,105.333 280.908,105.309C285.529,105.134 285.217,104.978 291.152,103.213C295.271,101.988 294.599,102.888 295.422,101.822C296.092,100.957 295.745,98.884 294.531,99.169Z" style="fill:rgb(223,87,38);fill-rule:nonzero;"/>
            <path d="M256.053,91.156C257.087,95.002 257.527,98.989 257.911,102.947C258.196,105.851 257.867,108.833 257.28,111.684C256.924,113.412 256.462,115.118 255.95,116.805C255.755,117.445 254.121,122.597 254.023,123.154C254.023,123.154 276.626,124.699 277.947,124.789C278.039,120.086 273.706,104.995 277.972,95.708C280.925,89.276 277.615,88.845 275.737,83.195C275.276,81.81 271.934,79.033 270.59,78.596C269.875,78.364 269.129,78.244 268.387,78.133C264.361,77.529 255.923,75.243 254.633,80.943C254.282,82.498 254.884,87.433 255.443,89.11C255.666,89.787 255.871,90.469 256.053,91.156Z" style="fill:rgb(243,110,63);fill-rule:nonzero;"/>
            <path d="M276.912,172.103C276.964,171.624 276.983,171.177 276.975,170.757C277.063,170.045 277.112,169.254 277.106,168.354C277.08,164.731 277.534,149.273 277.78,140.038C278.314,131.967 277.947,124.789 277.947,124.789L254.023,123.154C253.081,126.653 252.695,129.573 252.581,131.898C251.933,135.512 248.356,161.58 247.389,166.361C247.339,166.609 247.301,166.842 247.262,167.075C242.071,174.852 238.168,204.445 237.198,209.569C237.069,210.25 237.449,210.203 237.858,210.153C239.055,210.003 238.631,208.866 240.311,209.084C241.2,209.199 241.372,210.442 241.372,210.442C243.699,203.58 251.489,179.44 255.04,172.199C255.576,171.107 255.85,170.12 255.957,169.224C258.812,161.255 263.346,147.525 264.625,141.599C265.306,148.38 266.903,163.695 268.291,170.856C265.154,180.559 268.417,201.003 267.919,212.629C269.291,210.67 270.488,210.254 271.034,210.333C271.918,210.462 272.354,211.199 272.354,211.199C273.238,195.603 276.024,180.136 276.912,172.103Z" style="fill:rgb(27,56,103);fill-rule:nonzero;"/>
            <path d="M272.653,211.179C272.889,211.728 274.112,213.046 275.867,213.979C277.622,214.91 281.433,215.552 279.252,216.118C277.072,216.685 274.616,216.084 273.372,215.795C272.126,215.508 270.908,215.396 269.423,215.285C267.467,215.14 267.46,215.018 267.874,212.827C268.444,209.813 271.887,209.402 272.653,211.179Z" style="fill:rgb(20,12,61);fill-rule:nonzero;"/>
            <path d="M241.353,209.991C241.59,210.54 241.701,213.133 243.456,214.066C245.209,214.997 249.022,215.639 246.841,216.205C244.661,216.772 242.206,216.171 240.96,215.882C239.715,215.594 239.609,214.209 238.124,214.098C236.168,213.951 236.162,213.829 236.576,211.639C237.146,208.624 240.589,208.213 241.353,209.991Z" style="fill:rgb(20,12,61);fill-rule:nonzero;"/>
            <path d="M259.667,88.138C260,88.329 260.331,88.524 260.664,88.717L258.708,94.743C258.995,92.78 259.321,90.565 259.667,88.138Z" style="fill:rgb(241,91,71);fill-rule:nonzero;"/>
            <path d="M261.979,67.561C261.933,67.818 261.144,73.318 260.781,77.555C260.603,79.632 261.967,81.709 263.462,81.861L263.528,81.866C264.996,81.967 266.85,80.239 266.861,78.189C266.877,74.48 267.312,70.712 267.323,70.654L261.979,67.561Z" style="fill:rgb(241,139,84);fill-rule:nonzero;"/>
            <path d="M259.372,63.361C259.522,68.114 259.59,69.168 261.519,71.241C263.45,73.315 266.337,74.403 268.575,74.555C270.991,74.72 272.957,72.291 273.639,70.331C274.345,68.301 275.337,63.495 275.012,58.28C274.848,55.636 271.831,52.237 268.496,52.009C265.162,51.781 259.01,51.749 259.372,63.361Z" style="fill:rgb(247,148,96);fill-rule:nonzero;"/>
            <path d="M250.689,50.885C249.21,51.734 248.06,53.064 247.328,54.598C248.159,52.075 249.525,50.372 251.405,49.535C254.564,48.134 258.346,49.555 259.763,50.196C256.64,49.413 253.417,49.322 250.689,50.885ZM275.015,55.575C274.515,54.519 272.877,52.843 271.5,52.229C268.857,50.314 265.586,50.386 262.994,51.236C262.15,50.909 261.28,50.614 260.398,50.366L260.459,50.254C260.41,50.227 255.369,47.501 251.303,49.305C249.045,50.308 247.503,52.499 246.721,55.816L246.843,55.844C246.291,57.626 246.272,59.568 246.927,61.319C247.582,63.072 248.798,64.574 249.443,66.333C250.848,70.166 249.396,74.188 245.743,76.01C247.017,77.098 249.02,76.766 250.427,75.857C251.835,74.947 252.748,72.945 254.035,71.872C256.191,70.073 256.052,64.741 258.854,64.946L263.107,62.051C266.527,61.298 270.777,60.317 273.122,58.406C274.029,59.035 274.811,59.689 275.049,60.524C275.451,61.929 275.976,57.613 275.015,55.575Z" style="fill-rule:nonzero;"/>
            <path d="M260.776,63.516C261.331,65.195 261.069,66.791 260.19,67.082C259.31,67.373 258.148,66.248 257.592,64.569C257.036,62.891 257.299,61.295 258.178,61.004C259.058,60.713 260.22,61.838 260.776,63.516Z" style="fill:rgb(247,148,96);fill-rule:nonzero;"/>
            <path d="M293.315,108.213L279.302,111.233L279.302,92.522L293.315,89.502L293.315,108.213Z" style="fill:rgb(224,205,205);fill-rule:nonzero;"/>
            <path d="M274.325,101.835C275.451,100.949 276.941,100.065 277.977,99.958C279.011,99.852 277.255,101.235 276.454,101.966C275.653,102.697 273.378,102.582 274.325,101.835Z" style="fill:rgb(247,148,96);fill-rule:nonzero;"/>
            <path d="M275.881,101.812C278.802,101.347 280.282,100.62 281.624,101.127C282.968,101.636 281.031,103.51 280.039,103.826C279.045,104.143 275.562,105.492 274.523,104.814C273.484,104.136 273.725,102.156 275.881,101.812Z" style="fill:rgb(247,148,96);fill-rule:nonzero;"/>
            <path d="M273.97,101.72C272.442,102.004 263.244,101.664 257.915,101.8C258.251,98.559 259.186,92.822 260.169,85.656C260.389,84.052 259.499,80.596 257.68,78.621C256.549,77.397 253.962,77.629 253.389,80.605C253.067,82.275 252.56,84.591 252.157,90.286C251.497,99.621 252.053,103.627 252.509,105.391C252.613,105.788 252.868,106.099 253.213,106.323C253.725,106.861 254.453,107.235 255.342,107.242C260.15,107.284 261.926,107.205 268.174,105.659C272.512,104.586 273.861,105.586 274.768,104.519C275.505,103.654 275.245,101.483 273.97,101.72Z" style="fill:rgb(223,87,38);fill-rule:nonzero;"/>
            <path d="M293.153,100.399C293.157,99.573 293.213,98.302 293.61,97.158C293.837,96.505 294.573,96.032 295.112,96.615C295.583,97.127 296.39,99.192 296.045,100.183C295.752,101.023 295.006,101.807 294.276,102.131C293.544,102.455 293.148,101.748 293.153,100.399Z" style="fill:rgb(247,148,96);fill-rule:nonzero;"/>
            <path d="M338.676,92.982L331.587,86.702L372.834,75.27L358.465,110.107L346.904,99.75L342.088,104.175L338.676,92.982Z" style="fill:rgb(86,151,209);fill-rule:nonzero;"/>
            <path d="M342.088,104.175L338.676,92.982L372.834,75.27L346.904,99.75L342.088,104.175Z" style="fill:rgb(51,113,184);fill-rule:nonzero;"/>
            <path d="M124.067,17.305L128.507,8.94L85.869,12.679L111.53,40.277L118.731,26.526L124.791,28.985L124.067,17.305Z" style="fill:rgb(243,110,63);fill-rule:nonzero;"/>
            <path d="M124.791,28.985L118.731,26.526L85.869,12.679L124.067,17.305L124.791,28.985Z" style="fill:rgb(193,80,39);fill-rule:nonzero;"/>
            <path d="M336.659,107.983C336.082,108.318 335.504,108.653 334.927,108.989C334.748,109.093 334.687,109.323 334.792,109.502C334.896,109.681 335.125,109.742 335.304,109.637C335.881,109.302 336.458,108.967 337.035,108.632C337.214,108.528 337.275,108.299 337.172,108.12C337.068,107.941 336.838,107.88 336.659,107.983Z" style="fill:rgb(145,176,220);fill-rule:nonzero;"/>
            <path d="M325.23,114.951C324.177,115.657 323.137,116.383 322.116,117.132C321.949,117.254 321.913,117.489 322.035,117.656C322.158,117.823 322.392,117.859 322.559,117.737C323.571,116.995 324.602,116.275 325.648,115.574C325.82,115.459 325.866,115.226 325.75,115.054C325.635,114.882 325.402,114.836 325.23,114.951ZM313.541,124.663C312.681,125.595 311.857,126.569 311.078,127.581C310.951,127.745 310.982,127.981 311.146,128.107C311.31,128.234 311.546,128.203 311.672,128.039C312.437,127.045 313.247,126.087 314.092,125.172C314.232,125.019 314.223,124.782 314.07,124.642C313.918,124.501 313.681,124.511 313.541,124.663ZM305.507,137.563C305.07,138.767 304.705,139.994 304.423,141.237C304.377,141.439 304.503,141.64 304.705,141.686C304.907,141.732 305.108,141.605 305.154,141.403C305.429,140.192 305.785,138.996 306.212,137.819C306.283,137.624 306.182,137.409 305.988,137.338C305.793,137.267 305.578,137.368 305.507,137.563ZM304.333,152.663C304.598,153.91 304.939,155.139 305.329,156.353C305.392,156.55 305.603,156.659 305.8,156.596C305.997,156.532 306.106,156.321 306.043,156.124C305.659,154.929 305.325,153.724 305.067,152.507C305.024,152.304 304.825,152.175 304.622,152.218C304.419,152.261 304.29,152.46 304.333,152.663ZM309.397,166.975C309.835,168.148 310.246,169.337 310.604,170.537C310.663,170.736 310.872,170.849 311.07,170.789C311.269,170.73 311.382,170.521 311.323,170.323C310.959,169.103 310.542,167.897 310.1,166.713C310.027,166.519 309.811,166.42 309.617,166.493C309.423,166.565 309.325,166.781 309.397,166.975ZM311.676,181.577C311.655,181.708 311.631,181.839 311.607,181.969C311.405,183.034 311.066,184.09 310.61,185.096C310.524,185.285 310.608,185.507 310.796,185.593C310.985,185.678 311.207,185.595 311.293,185.406C311.773,184.347 312.13,183.236 312.344,182.109C312.369,181.973 312.394,181.836 312.416,181.699C312.45,181.495 312.312,181.302 312.108,181.268C311.903,181.234 311.71,181.372 311.676,181.577Z" style="fill:rgb(145,176,220);fill-rule:nonzero;"/>
            <path d="M302.613,192.138C302.026,192.264 301.424,192.329 300.809,192.329L300.708,192.328C300.501,192.326 300.332,192.492 300.33,192.699C300.327,192.907 300.493,193.076 300.701,193.078L300.809,193.079C301.477,193.079 302.133,193.008 302.769,192.872C302.972,192.829 303.101,192.629 303.058,192.427C303.014,192.224 302.815,192.095 302.613,192.138Z" style="fill:rgb(145,176,220);fill-rule:nonzero;"/>
            <path d="M131.454,34.568C131.865,35.09 132.275,35.614 132.682,36.141C132.809,36.305 133.044,36.336 133.208,36.209C133.372,36.083 133.403,35.847 133.276,35.683C132.867,35.153 132.455,34.627 132.043,34.104C131.915,33.941 131.679,33.913 131.516,34.042C131.354,34.17 131.326,34.406 131.454,34.568Z" style="fill:rgb(145,176,220);fill-rule:nonzero;"/>
            <path d="M139.045,45.921C139.613,47.086 140.113,48.277 140.526,49.496C140.592,49.692 140.805,49.798 141.001,49.731C141.197,49.665 141.303,49.452 141.236,49.256C140.812,48.002 140.3,46.783 139.719,45.592C139.628,45.406 139.403,45.329 139.217,45.42C139.031,45.51 138.954,45.735 139.045,45.921ZM141.205,60.867C140.902,62.125 140.47,63.34 139.91,64.471C139.818,64.657 139.894,64.882 140.079,64.974C140.265,65.066 140.49,64.99 140.582,64.804C141.168,63.619 141.619,62.352 141.934,61.043C141.983,60.842 141.859,60.639 141.658,60.591C141.456,60.542 141.254,60.666 141.205,60.867ZM131.341,71.414C130.412,71.619 129.477,71.713 128.535,71.713C128.207,71.713 127.88,71.702 127.551,71.68C127.344,71.666 127.166,71.822 127.152,72.028C127.138,72.235 127.294,72.414 127.5,72.428C127.845,72.451 128.19,72.463 128.535,72.463C129.528,72.463 130.518,72.363 131.502,72.147C131.705,72.102 131.833,71.902 131.788,71.7C131.743,71.498 131.543,71.37 131.341,71.414ZM116.693,67.889C115.564,67.257 114.446,66.58 113.344,65.885C113.169,65.775 112.938,65.827 112.827,66.003C112.717,66.178 112.769,66.409 112.944,66.52C114.053,67.219 115.182,67.903 116.326,68.543C116.507,68.645 116.735,68.58 116.837,68.399C116.938,68.219 116.873,67.99 116.693,67.889ZM103.399,59.579C102.263,58.924 101.113,58.292 99.951,57.683C99.768,57.586 99.541,57.657 99.445,57.84C99.349,58.024 99.419,58.25 99.603,58.347C100.756,58.952 101.897,59.579 103.025,60.229C103.205,60.332 103.434,60.27 103.537,60.091C103.641,59.911 103.579,59.682 103.399,59.579ZM89.201,52.82C87.977,52.35 86.743,51.904 85.501,51.482C85.305,51.416 85.092,51.521 85.025,51.717C84.959,51.913 85.064,52.126 85.26,52.192C86.493,52.611 87.717,53.054 88.933,53.52C89.126,53.595 89.343,53.498 89.417,53.305C89.491,53.111 89.395,52.894 89.201,52.82ZM74.126,48.35C73.975,48.318 73.824,48.286 73.673,48.255C72.544,48.02 71.404,47.805 70.257,47.617C70.053,47.583 69.86,47.722 69.826,47.926C69.793,48.13 69.931,48.323 70.136,48.357C71.271,48.544 72.4,48.756 73.52,48.989C73.67,49.02 73.82,49.052 73.97,49.084C74.172,49.127 74.372,48.997 74.415,48.795C74.458,48.592 74.329,48.393 74.126,48.35ZM58.466,46.818C57.145,46.879 55.831,47 54.528,47.188C54.323,47.218 54.181,47.408 54.211,47.613C54.24,47.818 54.43,47.96 54.635,47.93C55.912,47.746 57.202,47.627 58.501,47.567C58.708,47.557 58.868,47.382 58.858,47.175C58.848,46.968 58.673,46.808 58.466,46.818ZM43.305,50.926C42.151,51.575 41.041,52.295 39.976,53.077C39.81,53.2 39.774,53.435 39.896,53.602C40.019,53.769 40.254,53.804 40.421,53.682C41.462,52.916 42.546,52.213 43.672,51.58C43.853,51.478 43.917,51.25 43.815,51.069C43.714,50.889 43.485,50.825 43.305,50.926ZM31.679,61.509C30.902,62.57 30.169,63.667 29.482,64.793C29.374,64.969 29.43,65.2 29.606,65.308C29.783,65.416 30.014,65.36 30.122,65.184C30.799,64.076 31.52,62.996 32.284,61.952C32.407,61.785 32.37,61.551 32.203,61.428C32.036,61.306 31.802,61.342 31.679,61.509ZM24.505,75.513C24.076,76.755 23.683,78.009 23.322,79.271C23.265,79.47 23.38,79.678 23.579,79.735C23.778,79.792 23.986,79.676 24.043,79.477C24.401,78.227 24.789,76.986 25.214,75.758C25.282,75.562 25.178,75.349 24.982,75.281C24.786,75.213 24.573,75.317 24.505,75.513ZM20.785,90.792C20.567,92.082 20.364,93.376 20.173,94.672C20.142,94.877 20.284,95.067 20.489,95.098C20.694,95.128 20.884,94.986 20.915,94.781C21.106,93.49 21.307,92.201 21.524,90.917C21.559,90.712 21.421,90.519 21.217,90.484C21.013,90.45 20.819,90.587 20.785,90.792ZM18.625,106.343C18.477,107.647 18.351,108.956 18.269,110.266C18.256,110.472 18.413,110.651 18.62,110.663C18.826,110.676 19.005,110.519 19.017,110.313C19.099,109.019 19.223,107.723 19.37,106.427C19.393,106.222 19.245,106.036 19.04,106.013C18.834,105.989 18.648,106.137 18.625,106.343ZM19.352,122.047C19.746,123.319 20.247,124.559 20.859,125.734C20.955,125.918 21.181,125.989 21.365,125.894C21.548,125.798 21.62,125.571 21.524,125.388C20.934,124.256 20.45,123.057 20.069,121.826C20.008,121.628 19.798,121.517 19.6,121.578C19.402,121.639 19.291,121.849 19.352,122.047ZM29.552,133.641C30.803,134.105 32.097,134.417 33.418,134.623C33.623,134.655 33.815,134.514 33.846,134.31C33.878,134.105 33.738,133.913 33.534,133.882C32.252,133.682 31.008,133.381 29.813,132.938C29.619,132.866 29.403,132.965 29.331,133.159C29.259,133.354 29.358,133.569 29.552,133.641ZM45.227,134.841C45.916,134.824 46.604,134.813 47.286,134.813C47.903,134.813 48.516,134.822 49.124,134.844C49.331,134.852 49.505,134.69 49.512,134.483C49.52,134.276 49.358,134.102 49.151,134.095C48.532,134.072 47.91,134.063 47.286,134.063C46.596,134.063 45.903,134.074 45.209,134.091C45.002,134.096 44.838,134.268 44.843,134.475C44.848,134.682 45.02,134.846 45.227,134.841ZM60.47,137.173C61.677,137.637 62.859,138.167 64.009,138.759C64.193,138.853 64.42,138.781 64.514,138.597C64.609,138.412 64.536,138.186 64.352,138.092C63.178,137.488 61.972,136.947 60.74,136.473C60.546,136.398 60.329,136.495 60.255,136.688C60.18,136.881 60.277,137.098 60.47,137.173ZM73.324,145.65C74.103,146.455 74.842,147.298 75.538,148.177C75.645,148.312 75.75,148.448 75.855,148.584C75.981,148.749 76.216,148.78 76.381,148.654C76.545,148.528 76.576,148.292 76.45,148.128C76.343,147.989 76.235,147.85 76.126,147.712C75.415,146.813 74.659,145.951 73.863,145.128C73.719,144.979 73.482,144.975 73.333,145.119C73.184,145.263 73.18,145.501 73.324,145.65ZM81.261,158.828C81.67,160.055 82.012,161.304 82.288,162.568C82.332,162.771 82.531,162.899 82.734,162.855C82.936,162.811 83.065,162.611 83.02,162.409C82.74,161.119 82.39,159.844 81.972,158.591C81.907,158.395 81.695,158.289 81.498,158.354C81.302,158.419 81.195,158.632 81.261,158.828Z" style="fill:rgb(145,176,220);fill-rule:nonzero;"/>
            <path d="M82.873,174.235C82.796,174.889 82.699,175.542 82.583,176.192C82.547,176.396 82.682,176.591 82.886,176.627C83.09,176.664 83.285,176.528 83.321,176.324C83.44,175.659 83.539,174.992 83.618,174.323C83.642,174.117 83.495,173.93 83.29,173.906C83.084,173.882 82.897,174.029 82.873,174.235Z" style="fill:rgb(145,176,220);fill-rule:nonzero;"/>
            <path d="M147.948,330.354C147.895,330.033 147.869,329.714 147.869,329.398C147.869,329.089 147.894,328.783 147.941,328.481C147.973,328.276 147.833,328.084 147.628,328.053C147.423,328.021 147.232,328.161 147.2,328.365C147.147,328.705 147.119,329.05 147.119,329.398C147.119,329.755 147.148,330.115 147.208,330.477C147.242,330.681 147.435,330.819 147.639,330.785C147.844,330.751 147.982,330.558 147.948,330.354Z" style="fill:rgb(145,176,220);fill-rule:nonzero;"/>
            <path d="M156.266,321.788L156.433,321.787C157.676,321.787 158.901,322.011 160.086,322.411C160.282,322.477 160.495,322.372 160.561,322.175C160.627,321.979 160.522,321.766 160.326,321.7C159.073,321.277 157.766,321.037 156.433,321.037L156.254,321.038C156.047,321.042 155.882,321.212 155.885,321.42C155.889,321.627 156.059,321.792 156.266,321.788ZM169.194,329.671C169.987,330.731 170.729,331.836 171.454,332.961C171.566,333.135 171.798,333.185 171.972,333.073C172.146,332.96 172.196,332.728 172.084,332.554C171.354,331.422 170.603,330.302 169.794,329.222C169.67,329.056 169.435,329.022 169.269,329.146C169.103,329.27 169.07,329.505 169.194,329.671ZM178.35,342.889C179.213,343.925 180.11,344.931 181.04,345.907C181.182,346.057 181.42,346.063 181.57,345.92C181.72,345.777 181.725,345.54 181.583,345.39C180.664,344.426 179.778,343.432 178.926,342.409C178.794,342.25 178.557,342.229 178.398,342.361C178.239,342.494 178.218,342.73 178.35,342.889ZM190.206,353.817C191.307,354.595 192.432,355.337 193.58,356.043C193.756,356.152 193.987,356.097 194.095,355.92C194.204,355.744 194.149,355.513 193.972,355.404C192.838,354.707 191.726,353.973 190.639,353.205C190.47,353.085 190.236,353.126 190.117,353.295C189.997,353.464 190.037,353.698 190.206,353.817ZM204.455,361.366C205.717,361.838 206.995,362.269 208.285,362.657C208.483,362.717 208.692,362.605 208.752,362.406C208.812,362.208 208.699,361.999 208.501,361.939C207.227,361.556 205.965,361.13 204.718,360.663C204.524,360.591 204.308,360.689 204.235,360.883C204.163,361.077 204.261,361.293 204.455,361.366ZM220.174,364.956C221.517,365.075 222.864,365.148 224.211,365.176C224.418,365.18 224.589,365.016 224.594,364.809C224.598,364.602 224.434,364.431 224.227,364.426C222.896,364.398 221.566,364.326 220.24,364.208C220.034,364.19 219.852,364.343 219.834,364.549C219.816,364.755 219.968,364.937 220.174,364.956ZM236.283,364.239C237.609,364.004 238.929,363.727 240.238,363.409C240.439,363.36 240.563,363.157 240.514,362.956C240.465,362.754 240.262,362.631 240.061,362.68C238.767,362.995 237.463,363.269 236.152,363.5C235.948,363.536 235.812,363.731 235.848,363.934C235.884,364.138 236.079,364.275 236.283,364.239ZM251.674,359.431C252.898,358.867 254.104,358.264 255.288,357.623C255.471,357.524 255.538,357.296 255.44,357.114C255.341,356.932 255.113,356.865 254.931,356.963C253.761,357.597 252.57,358.193 251.36,358.749C251.172,358.836 251.09,359.059 251.176,359.247C251.263,359.435 251.485,359.517 251.674,359.431ZM265.305,350.817C266.339,349.95 267.343,349.053 268.321,348.131C268.472,347.989 268.479,347.752 268.337,347.601C268.195,347.45 267.958,347.443 267.807,347.585C266.838,348.498 265.845,349.385 264.823,350.242C264.664,350.375 264.643,350.612 264.777,350.771C264.91,350.929 265.146,350.95 265.305,350.817ZM276.582,339.306C277.452,338.286 278.311,337.256 279.166,336.222C279.298,336.062 279.276,335.826 279.116,335.694C278.956,335.562 278.72,335.584 278.588,335.744C277.735,336.776 276.877,337.803 276.011,338.82C275.877,338.977 275.896,339.214 276.053,339.348C276.211,339.482 276.448,339.464 276.582,339.306ZM286.853,326.945C287.724,325.93 288.605,324.925 289.501,323.936C289.64,323.783 289.628,323.545 289.475,323.406C289.321,323.267 289.084,323.279 288.945,323.433C288.044,324.428 287.158,325.438 286.284,326.457C286.149,326.614 286.167,326.851 286.325,326.986C286.482,327.121 286.719,327.103 286.853,326.945ZM298.146,315.64C299.184,314.807 300.25,314.007 301.342,313.246C301.512,313.127 301.553,312.894 301.435,312.724C301.316,312.554 301.083,312.512 300.913,312.631C299.807,313.402 298.727,314.212 297.677,315.055C297.515,315.185 297.49,315.421 297.619,315.582C297.749,315.744 297.985,315.77 298.146,315.64ZM311.869,307.633C313.121,307.169 314.388,306.772 315.664,306.452C315.865,306.402 315.987,306.198 315.937,305.997C315.886,305.796 315.683,305.674 315.482,305.725C314.177,306.052 312.884,306.457 311.608,306.93C311.414,307.002 311.315,307.218 311.387,307.412C311.459,307.606 311.675,307.705 311.869,307.633Z" style="fill:rgb(145,176,220);fill-rule:nonzero;"/>
            <path d="M327.497,305.88C328.141,305.989 328.784,306.122 329.427,306.282C329.628,306.332 329.831,306.21 329.881,306.009C329.931,305.808 329.808,305.604 329.608,305.554C328.946,305.39 328.284,305.252 327.621,305.14C327.417,305.106 327.224,305.243 327.189,305.448C327.155,305.652 327.292,305.845 327.497,305.88Z" style="fill:rgb(145,176,220);fill-rule:nonzero;"/>
            <path d="M250.253,8.339C250.81,8.212 251.363,8.153 251.909,8.153C252.626,8.153 253.333,8.255 254.025,8.447C254.224,8.502 254.431,8.385 254.486,8.186C254.541,7.986 254.424,7.779 254.225,7.724C253.473,7.516 252.698,7.402 251.909,7.403C251.308,7.402 250.699,7.468 250.086,7.608C249.884,7.654 249.758,7.855 249.804,8.057C249.85,8.259 250.051,8.385 250.253,8.339ZM262.444,16.127L262.506,16.245C263.087,17.371 263.6,18.543 264.092,19.732C264.172,19.924 264.391,20.014 264.582,19.935C264.774,19.856 264.865,19.637 264.785,19.445C264.289,18.247 263.768,17.056 263.173,15.902L263.108,15.778C263.012,15.594 262.785,15.524 262.602,15.62C262.418,15.716 262.348,15.943 262.444,16.127ZM269.555,30.484C269.63,30.575 269.706,30.665 269.784,30.755C270.614,31.718 271.527,32.561 272.508,33.297C272.673,33.421 272.908,33.387 273.033,33.222C273.157,33.056 273.123,32.821 272.958,32.697C272.018,31.992 271.146,31.187 270.352,30.266L270.133,30.006C270.001,29.847 269.765,29.824 269.605,29.956C269.446,30.088 269.423,30.324 269.555,30.484ZM283.773,37.599C285.092,37.802 286.433,37.94 287.78,38.032C287.987,38.046 288.166,37.89 288.18,37.683C288.194,37.477 288.038,37.298 287.831,37.284C286.502,37.193 285.182,37.057 283.886,36.858C283.682,36.826 283.49,36.967 283.459,37.171C283.427,37.376 283.568,37.568 283.773,37.599ZM299.804,38.083L300.15,38.083C301.361,38.083 302.576,38.102 303.786,38.155C303.993,38.164 304.168,38.004 304.177,37.797C304.186,37.59 304.026,37.415 303.819,37.406C302.595,37.353 301.369,37.333 300.15,37.333L299.801,37.333C299.594,37.334 299.427,37.502 299.428,37.709C299.428,37.916 299.597,38.084 299.804,38.083ZM315.411,40.295C316.634,40.782 317.801,41.371 318.898,42.082C319.072,42.195 319.304,42.145 319.417,41.971C319.529,41.797 319.48,41.565 319.306,41.453C318.164,40.712 316.952,40.101 315.688,39.598C315.496,39.521 315.278,39.615 315.201,39.807C315.125,40 315.218,40.218 315.411,40.295Z" style="fill:rgb(145,176,220);fill-rule:nonzero;"/>
            <path d="M174.39,95.567L172.505,94.769L182.627,70.881L184.511,71.679L174.39,95.567Z" style="fill:rgb(51,50,52);fill-rule:nonzero;"/>
            <path d="M163.631,118.681C160.981,117.558 159.743,114.499 160.866,111.849L170.264,89.668C171.387,87.018 174.446,85.78 177.096,86.902C179.747,88.025 180.985,91.084 179.862,93.735L170.463,115.916C169.34,118.566 166.282,119.804 163.631,118.681Z" style="fill:rgb(86,151,209);fill-rule:nonzero;"/>
            <path d="M217.948,58.173L214.725,56.808C212.869,61.184 209.835,64.663 206.135,67.069C202.436,69.473 198.077,70.786 193.622,70.785C190.644,70.784 187.623,70.202 184.697,68.963C180.321,67.107 176.842,64.073 174.436,60.373C172.032,56.674 170.719,52.315 170.72,47.859C170.72,44.882 171.303,41.861 172.542,38.935C174.398,34.558 177.432,31.08 181.132,28.674C184.831,26.27 189.19,24.957 193.645,24.957C196.623,24.958 199.644,25.54 202.57,26.779C206.946,28.635 210.425,31.669 212.831,35.369C215.235,39.068 216.548,43.427 216.547,47.883C216.547,50.861 215.964,53.882 214.725,56.807L214.725,56.808L217.948,58.173L221.17,59.539C222.781,55.74 223.548,51.776 223.547,47.883C223.546,42.054 221.836,36.382 218.701,31.555C215.568,26.73 210.99,22.743 205.301,20.334C201.502,18.724 197.538,17.957 193.645,17.958C187.816,17.958 182.144,19.668 177.318,22.804C172.492,25.937 168.506,30.514 166.097,36.204C164.486,40.003 163.719,43.966 163.72,47.859C163.721,53.689 165.431,59.36 168.566,64.187C171.699,69.013 176.277,72.999 181.966,75.408C185.765,77.018 189.729,77.786 193.622,77.785C199.451,77.784 205.123,76.074 209.949,72.939C214.775,69.806 218.762,65.228 221.17,59.538L221.17,59.539L217.948,58.173Z" style="fill:rgb(48,124,192);fill-rule:nonzero;"/>
            <path d="M214.539,56.225C209.681,67.691 196.448,73.047 184.983,68.189C173.518,63.331 168.161,50.099 173.019,38.634C177.877,27.168 191.109,21.812 202.575,26.67C214.04,31.528 219.396,44.76 214.539,56.225Z" style="fill:rgb(182,229,250);fill-rule:nonzero;"/>
            <path d="M190.613,44.959C185.709,44.959 181.733,41.675 181.733,37.623C181.733,33.572 185.709,30.288 190.613,30.288C195.517,30.288 199.493,33.572 199.493,37.623C199.493,41.675 195.517,44.959 190.613,44.959Z" style="fill:rgb(206,237,252);fill-rule:nonzero;"/>
        </g>
    </g>
</svg>
