<?xml version="1.0" encoding="UTF-8" standalone="no"?>
<!DOCTYPE svg PUBLIC "-//W3C//DTD SVG 1.1//EN" "http://www.w3.org/Graphics/SVG/1.1/DTD/svg11.dtd">
<svg width="100%" height="100%" viewBox="0 0 2870 1513" version="1.1" xmlns="http://www.w3.org/2000/svg" xmlns:xlink="http://www.w3.org/1999/xlink" xml:space="preserve" xmlns:serif="http://www.serif.com/" style="fill-rule:evenodd;clip-rule:evenodd;stroke-linejoin:round;stroke-miterlimit:2;">
    <g transform="matrix(1,0,0,1,-191.313,-243.859)">
        <g>
            <path d="M385.662,1748.85C385.662,1748.85 123.646,1368.83 282.58,977.592C386.177,722.578 774.784,582.843 994.095,722.578C1087.5,782.093 1387.18,724.584 1547.19,478.186C1858.12,-0.625 2943.3,290.165 2745.74,1025.31C2650.13,1381.06 3036.7,1393.99 2839.73,1749.61L385.662,1748.85Z" style="fill:rgb(223,235,250);fill-rule:nonzero;"/>
            <path d="M3056.57,1756.14L195.273,1756.14C193.095,1756.14 191.313,1754.36 191.313,1752.18L191.313,1748.81C191.313,1746.63 193.095,1744.85 195.273,1744.85L3056.57,1744.85C3058.75,1744.85 3060.53,1746.63 3060.53,1748.81L3060.53,1752.18C3060.53,1754.36 3058.75,1756.14 3056.57,1756.14Z" style="fill:rgb(46,53,82);fill-rule:nonzero;"/>
            <path d="M2091.09,594.92L1893.53,594.92C1884.46,594.92 1877.04,587.499 1877.04,578.43L1877.04,387.744C1877.04,378.674 1884.46,371.253 1893.53,371.253L2091.09,371.253C2100.16,371.253 2107.58,378.674 2107.58,387.744L2107.58,578.43C2107.58,587.499 2100.16,594.92 2091.09,594.92Z" style="fill:rgb(192,216,251);fill-rule:nonzero;"/>
            <path d="M2082.53,585.23L1902.08,585.23C1893.8,585.23 1887.02,578.453 1887.02,570.169L1887.02,396.004C1887.02,387.721 1893.8,380.943 1902.08,380.943L2082.53,380.943C2090.82,380.943 2097.59,387.721 2097.59,396.004L2097.59,570.169C2097.59,578.453 2090.82,585.23 2082.53,585.23Z" style="fill:rgb(223,235,253);fill-rule:nonzero;"/>
            <path d="M1987.53,401.356C1987.53,398.719 1989.67,396.581 1992.31,396.581C1994.95,396.581 1997.08,398.719 1997.08,401.356C1997.08,403.994 1994.95,406.132 1992.31,406.132C1989.67,406.132 1987.53,403.994 1987.53,401.356Z" style="fill:rgb(183,211,243);fill-rule:nonzero;"/>
            <path d="M2026.07,408.106C2027.35,405.801 2030.26,404.971 2032.56,406.252C2034.87,407.533 2035.7,410.441 2034.42,412.746C2033.14,415.052 2030.23,415.882 2027.92,414.601C2025.62,413.319 2024.79,410.412 2026.07,408.106Z" style="fill:rgb(183,211,243);fill-rule:nonzero;"/>
            <path d="M2059.08,434.335C2061.3,432.906 2064.25,433.543 2065.68,435.76C2067.11,437.976 2066.48,440.932 2064.26,442.362C2062.04,443.792 2059.09,443.154 2057.66,440.938C2056.23,438.721 2056.87,435.766 2059.08,434.335Z" style="fill:rgb(183,211,243);fill-rule:nonzero;"/>
            <path d="M2075.44,474.932C2078.07,474.932 2080.21,477.07 2080.21,479.708C2080.21,482.345 2078.07,484.483 2075.44,484.483C2072.8,484.483 2070.66,482.345 2070.66,479.708C2070.66,477.07 2072.8,474.932 2075.44,474.932Z" style="fill:rgb(183,211,243);fill-rule:nonzero;"/>
            <path d="M2067.09,522.045C2068.95,523.91 2068.95,526.934 2067.09,528.799C2065.22,530.664 2062.2,530.664 2060.33,528.799C2058.47,526.934 2058.47,523.91 2060.33,522.045C2062.2,520.18 2065.22,520.18 2067.09,522.045Z" style="fill:rgb(183,211,243);fill-rule:nonzero;"/>
            <path d="M2037.1,552.112C2038.96,553.978 2038.96,557.001 2037.1,558.866C2035.23,560.731 2032.21,560.731 2030.34,558.866C2028.48,557.001 2028.48,553.978 2030.34,552.112C2032.21,550.247 2035.23,550.247 2037.1,552.112Z" style="fill:rgb(183,211,243);fill-rule:nonzero;"/>
            <path d="M1987.53,567.61C1987.53,564.973 1989.67,562.834 1992.31,562.834C1994.95,562.834 1997.08,564.973 1997.08,567.61C1997.08,570.248 1994.95,572.386 1992.31,572.386C1989.67,572.386 1987.53,570.248 1987.53,567.61Z" style="fill:rgb(183,211,243);fill-rule:nonzero;"/>
            <path d="M1958.4,408.106C1957.12,405.801 1954.21,404.971 1951.9,406.252C1949.6,407.533 1948.77,410.441 1950.05,412.746C1951.33,415.052 1954.24,415.882 1956.54,414.601C1958.85,413.319 1959.68,410.412 1958.4,408.106Z" style="fill:rgb(183,211,243);fill-rule:nonzero;"/>
            <path d="M1925.38,434.335C1923.17,432.906 1920.21,433.543 1918.78,435.76C1917.35,437.976 1917.99,440.932 1920.21,442.362C1922.42,443.792 1925.38,443.154 1926.81,440.938C1928.24,438.721 1927.6,435.766 1925.38,434.335Z" style="fill:rgb(183,211,243);fill-rule:nonzero;"/>
            <path d="M1909.03,474.932C1906.39,474.932 1904.25,477.07 1904.25,479.708C1904.25,482.345 1906.39,484.483 1909.03,484.483C1911.67,484.483 1913.81,482.345 1913.81,479.708C1913.81,477.07 1911.67,474.932 1909.03,474.932Z" style="fill:rgb(183,211,243);fill-rule:nonzero;"/>
            <path d="M1917.38,522.045C1915.51,523.91 1915.51,526.934 1917.38,528.799C1919.24,530.664 1922.27,530.664 1924.13,528.799C1926,526.934 1926,523.91 1924.13,522.045C1922.27,520.18 1919.24,520.18 1917.38,522.045Z" style="fill:rgb(183,211,243);fill-rule:nonzero;"/>
            <path d="M1947.37,552.112C1945.5,553.978 1945.5,557.001 1947.37,558.866C1949.23,560.731 1952.26,560.731 1954.12,558.866C1955.99,557.001 1955.99,553.978 1954.12,552.112C1952.26,550.247 1949.23,550.247 1947.37,552.112Z" style="fill:rgb(183,211,243);fill-rule:nonzero;"/>
            <path d="M1991.02,479.708C1991.02,477.07 1993.16,474.932 1995.8,474.932C1998.43,474.932 2000.57,477.07 2000.57,479.708C2000.57,482.345 1998.43,484.483 1995.8,484.483C1993.16,484.483 1991.02,482.345 1991.02,479.708Z" style="fill:rgb(183,211,243);fill-rule:nonzero;"/>
            <rect x="1995.14" y="420.047" width="1.31" height="59.661" style="fill:rgb(183,211,243);fill-rule:nonzero;"/>
            <path d="M1996.4,481.161L1993.99,478.084L2025.62,453.256L2028.03,456.333L1996.4,481.161Z" style="fill:rgb(183,211,243);fill-rule:nonzero;"/>
            <path d="M2244.38,1197.18C2244.38,1197.18 2208.08,1097.3 2286.88,1072.2C2286.88,1072.2 2341.35,1062.04 2376.7,1077.84C2376.7,1077.84 2293.09,1144.49 2306.45,1159.29C2319.82,1174.08 2394.27,1078.3 2394.27,1078.3C2394.27,1078.3 2498.91,1106.52 2525.51,1134.36C2525.51,1134.36 2412.61,1172.49 2429.21,1183.54C2445.8,1194.59 2565.12,1160.36 2565.12,1160.36C2565.12,1160.36 2653.06,1211.73 2626.47,1267.16C2599.88,1322.59 2560.84,1328.1 2547.18,1321.22C2533.53,1314.34 2462.25,1251.23 2456.05,1262.2C2449.85,1273.18 2485.61,1330.15 2520.02,1345.14C2520.02,1345.14 2426.27,1393.25 2390.18,1355.6C2354.1,1317.94 2362.92,1283.1 2340.2,1260.23C2317.47,1237.37 2294.03,1228.58 2300.55,1245.63C2307.07,1262.68 2352.06,1293.8 2357.3,1327.47C2362.54,1361.14 2369.58,1385.17 2326.61,1361.16C2283.64,1337.16 2222.14,1275.96 2233.26,1236.57L2244.38,1197.18Z" style="fill:rgb(200,219,244);fill-rule:nonzero;"/>
            <path d="M2579.72,1251.33C2579.72,1251.33 2328.22,1145.41 2244.38,1197.18C2244.38,1197.18 2217.86,1229.81 2166.71,1249.37L2154.6,1263.41C2154.6,1263.41 2216.38,1233.43 2233.26,1236.57C2233.26,1236.57 2242.56,1136.83 2579.72,1251.33Z" style="fill:rgb(200,219,244);fill-rule:nonzero;"/>
            <path d="M2166.71,1249.37C2166.71,1249.37 2096.68,1269.25 2065.63,1340.2L2075.23,1344.84C2075.23,1344.84 2120.91,1276.58 2163.55,1259.21C2206.19,1241.85 2166.71,1249.37 2166.71,1249.37Z" style="fill:rgb(200,219,244);fill-rule:nonzero;"/>
            <path d="M2056.15,1146.04C2056.15,1146.04 2147.92,1094.65 2105.1,1024.91C2105.1,1024.91 2070.84,982.082 2034.13,971.07C2034.13,971.07 2053.71,1075.07 2034.13,1077.52C2014.55,1079.97 2020.67,960.058 2020.67,960.058C2020.67,960.058 1924.01,913.563 1886.08,917.234C1886.08,917.234 1946.03,1018.79 1926.46,1016.34C1906.88,1013.89 1839.58,911.116 1839.58,911.116C1839.58,911.116 1740.48,892.763 1724.57,951.493C1708.67,1010.22 1734.36,1039.59 1749.04,1043.26C1763.72,1046.93 1857.94,1045.71 1855.49,1057.94C1853.04,1070.18 1789.42,1089.75 1753.94,1078.74C1753.94,1078.74 1793.09,1175.4 1844.48,1170.51C1895.87,1165.61 1911.77,1133.8 1943.59,1131.36C1975.4,1128.91 1998.65,1137.47 1982.74,1146.04C1966.83,1154.6 1913,1148.84 1887.3,1170.69C1861.61,1192.53 1840.81,1205.99 1888.53,1215.78C1936.25,1225.57 2021.89,1219.45 2039.02,1182.74L2056.15,1146.04Z" style="fill:rgb(200,219,244);fill-rule:nonzero;"/>
            <path d="M1769.84,969.847C1769.84,969.847 2026.79,1053.05 2056.15,1146.04C2056.15,1146.04 2054.93,1187.64 2080.62,1235.36L2080.62,1253.71C2080.62,1253.71 2053.71,1191.31 2039.02,1182.74C2039.02,1182.74 2096.53,1101.99 1769.84,969.847Z" style="fill:rgb(200,219,244);fill-rule:nonzero;"/>
            <path d="M2080.62,1235.36C2080.62,1235.36 2120.25,1295.53 2097.66,1368.78L2087.46,1366.04C2087.46,1366.04 2097.36,1285.36 2076.63,1244.79C2055.9,1204.21 2080.62,1235.36 2080.62,1235.36Z" style="fill:rgb(200,219,244);fill-rule:nonzero;"/>
            <path d="M2162.38,1014.75C2162.38,1014.75 2028.59,939.832 2091.02,838.156C2091.02,838.156 2140.97,775.724 2194.48,759.67C2194.48,759.67 2165.94,911.291 2194.48,914.859C2223.02,918.426 2214.1,743.616 2214.1,743.616C2214.1,743.616 2355.02,675.832 2410.32,681.184C2410.32,681.184 2322.92,829.237 2351.46,825.67C2380,822.102 2478.1,672.265 2478.1,672.265C2478.1,672.265 2622.59,645.508 2645.78,731.129C2668.97,816.751 2631.51,859.562 2610.1,864.913C2588.7,870.264 2451.35,868.48 2454.92,886.318C2458.48,904.156 2551.24,932.697 2602.97,916.643C2602.97,916.643 2545.89,1057.56 2470.97,1050.43C2396.05,1043.29 2372.86,996.913 2326.48,993.345C2280.1,989.777 2246.21,1002.26 2269.4,1014.75C2292.59,1027.24 2371.08,1018.84 2408.54,1050.69C2446,1082.53 2476.32,1102.16 2406.75,1116.43C2337.19,1130.7 2212.32,1121.78 2187.35,1068.26L2162.38,1014.75Z" style="fill:rgb(212,228,248);fill-rule:nonzero;"/>
            <path d="M2579.78,757.886C2579.78,757.886 2205.19,879.183 2162.38,1014.75C2162.38,1014.75 2164.16,1075.4 2126.7,1144.97L2126.7,1171.72C2126.7,1171.72 2165.94,1080.75 2187.35,1068.26C2187.35,1068.26 2103.51,950.534 2579.78,757.886Z" style="fill:rgb(212,228,248);fill-rule:nonzero;"/>
            <path d="M2126.7,1144.97C2126.7,1144.97 2068.93,1232.69 2101.86,1339.48L2116.73,1335.48C2116.73,1335.48 2102.3,1217.87 2132.52,1158.71C2162.75,1099.56 2126.7,1144.97 2126.7,1144.97Z" style="fill:rgb(212,228,248);fill-rule:nonzero;"/>
            <path d="M2068.18,1314.27C2063.22,1326.04 2015.61,1336.95 1944.96,1346.61C1932.51,1348.31 1919.36,1349.97 1905.58,1351.6C1665.12,1379.92 1006.54,1395.73 965.946,1387.38C909.853,1375.84 798.229,811.754 798.229,811.754C798.229,811.754 1126.89,806.057 1387.89,803.28C1477.18,802.344 1787.77,799.981 1845.37,799.98C1934.57,799.978 2076.18,1295.22 2068.18,1314.27Z" style="fill:rgb(242,247,252);fill-rule:nonzero;"/>
            <path d="M1977.21,1241.87C1977.21,1241.87 1876.31,855.358 1869.03,822.875C1865.79,808.397 1855.78,803.165 1845.71,801.818C1863.44,800.112 1876.35,799.984 1876.35,799.984C1911.26,799.984 1942.28,823.478 1953.49,858.397C1977.92,934.56 2026.48,1080.88 2072.06,1223.93C2069.75,1223.88 1977.21,1241.87 1977.21,1241.87Z" style="fill:white;fill-rule:nonzero;"/>
            <path d="M2588.78,1586.15C2572.69,1683.11 2467.47,1744.85 2359.54,1744.85L2145.77,1744.85L2162.34,1184.7C2162.34,1184.7 2366.45,1118.18 2417.68,1176.74C2462.56,1228.04 2584.27,1431.1 2590.67,1551.29C2591.31,1563.35 2590.65,1574.99 2588.78,1586.15Z" style="fill:white;fill-rule:nonzero;"/>
            <path d="M2588.78,1586.15C2572.69,1683.11 2467.47,1744.85 2359.54,1744.85L2254.68,1744.85C2324.6,1700.29 2387.83,1562.95 2588.78,1586.15Z" style="fill:rgb(212,228,248);fill-rule:nonzero;"/>
            <path d="M2021.31,1239.58C2021.31,1239.58 2309.69,1101.18 2364.31,1191.59C2393.31,1239.59 2473.13,1431.1 2479.02,1551.28C2484.74,1668.06 2377.14,1744.85 2266.46,1744.85L2069.87,1744.85L2021.31,1239.58Z" style="fill:rgb(170,200,232);fill-rule:nonzero;"/>
            <path d="M2401.28,1648.42C2398.08,1650.97 2394.81,1653.48 2391.46,1655.96C2349.8,1686.66 2295.47,1711.08 2233.33,1726.23C2186.37,1737.67 2134.96,1743.8 2081.17,1743.34L1987.7,1743.37L1986.43,1743.37L1543.95,1743.48L1290.32,1743.56L1286.57,1743.56L1286.55,1743.45L1277.75,1697.42L1197.44,1233.17C1197.44,1233.17 2308.87,1208.14 2399.24,1259.73C2441.2,1283.68 2465.02,1382.9 2478.22,1492.23C2485.25,1550.44 2455.47,1605.09 2401.28,1648.42Z" style="fill:rgb(225,239,255);fill-rule:nonzero;"/>
            <path d="M1290.32,1743.56L1286.55,1743.45L1277.75,1697.42C1427.5,1668.48 1632.65,1639.1 1848.1,1639.1C1856.3,1639.1 1864.49,1639.14 1872.72,1639.23C2087.03,1641.49 2266.47,1641.2 2401.28,1648.42C2398.08,1650.97 2394.81,1653.48 2391.46,1655.96C2349.8,1686.66 2295.47,1711.08 2233.33,1726.23C2188.03,1737.26 2138.57,1743.36 2086.85,1743.36C2084.96,1743.36 2083.07,1743.36 2081.17,1743.34L2069.72,1743.34L1987.7,1743.37L1986.43,1743.37L1543.95,1743.48L1290.32,1743.56Z" style="fill:rgb(206,225,250);fill-rule:nonzero;"/>
            <path d="M1787.39,808.156C1785.22,807.479 1782.08,805.69 1779.4,804.02L1837.93,804.02C1837.93,804.02 1815.47,791.308 1800.87,784.828C1786.27,778.349 1750.51,784.828 1750.51,784.828C1750.51,784.828 1618.08,765.124 1543.84,766.971C1523.92,767.467 1382.28,744.378 1341.47,752.556C1319.96,756.867 1300.47,760.274 1287.93,762.322C1280.28,763.571 1273.18,758.049 1272.5,750.324L1272.48,750.191C1270.16,723.435 1266.83,708.436 1266.83,708.436L1217.01,684.328C1206.71,689.795 1197.09,694.916 1191.99,697.63C1192.23,700.392 1192.4,703.097 1192.49,705.762C1192.95,719.428 1191.5,731.7 1189.08,742.385C1184.62,762.123 1169.28,777.562 1149.72,782.75L1149.48,782.816C1186.82,814.974 1376.84,871.001 1380.06,854.571C1384.4,832.469 1750.51,803.972 1750.51,803.972L1750.51,804.02C1750.51,804.02 1760.71,807.875 1763.24,811.525C1765.77,815.176 1786.21,814.614 1790.03,815.176C1793.85,815.737 1791.88,809.56 1787.39,808.156Z" style="fill:rgb(255,178,125);fill-rule:nonzero;"/>
            <path d="M1917.34,1620.82C1917.34,1620.82 1955.95,1690.47 1973.06,1698.32C1986.64,1704.56 2023.41,1710.74 2043.89,1726.5C2067.65,1744.79 2026.51,1743.83 2017.47,1743.83C2017.47,1743.83 1971.44,1738.34 1949.62,1738.81C1937.06,1739.07 1899.62,1743.83 1899.62,1743.83C1870.12,1743.83 1847.67,1717.05 1853.18,1688.07C1853.23,1687.8 1853.28,1687.53 1853.33,1687.26C1858.67,1660.35 1862.82,1625.63 1862.82,1625.63L1917.34,1620.82Z" style="fill:rgb(237,125,43);fill-rule:nonzero;"/>
            <path d="M1436.16,793.621C1435.35,811.728 1430.3,831.575 1414.18,842.043C1388.7,858.566 1395.15,901.693 1395.31,918.625L1286.28,762.491C1286.28,762.491 1316.51,754.766 1352.67,750.801C1374.69,748.388 1432.6,755.016 1432.6,755.016C1432.6,755.016 1437.07,773.212 1436.16,793.621Z" style="fill:rgb(105,157,238);fill-rule:nonzero;"/>
            <path d="M1748.68,1648.08C1748.68,1648.08 1787.17,1690.47 1804.27,1698.32C1816.49,1703.93 1849.38,1707.2 1868.96,1721.42C1889.65,1736.44 1873.8,1743.83 1861.78,1743.83C1861.78,1743.83 1806.8,1748.2 1771.76,1738.33C1762.22,1735.64 1736.08,1740.99 1726.77,1743.06C1723.95,1743.68 1705.99,1745.16 1703.12,1744.79C1681.77,1742.06 1680.78,1721.59 1682.8,1699.56C1683.17,1695.47 1683.74,1691.34 1684.55,1687.26C1689.89,1660.35 1693.1,1635.32 1693.1,1635.32L1748.68,1648.08Z" style="fill:rgb(249,151,70);fill-rule:nonzero;"/>
            <path d="M1938.32,1624.77C1938.32,1624.77 1924.42,1634.49 1912.19,1638.55C1892.95,1644.97 1857.08,1641.99 1857.08,1641.99C1857.08,1641.99 1765.49,1464.32 1746.16,1419.38C1727.84,1376.77 1712.5,1283.36 1712.5,1283.36C1698.52,1282.61 1593.89,1297.42 1501.97,1287.48C1453.06,1282.2 1411.7,1270.13 1397.69,1245.43C1357.3,1174.28 1486.32,1094.95 1486.32,1094.95C1486.32,1094.95 1738.58,1140.42 1794.02,1180.68C1846.56,1218.85 1938.32,1624.77 1938.32,1624.77Z" style="fill:rgb(35,56,98);fill-rule:nonzero;"/>
            <path d="M1762.42,1645.99C1762.42,1645.99 1742.8,1656.26 1730.1,1658.41C1707.03,1662.32 1682.17,1654.6 1682.17,1654.6C1682.17,1654.6 1668.09,1569.49 1610.33,1433.3C1595.84,1399.13 1598.07,1329.08 1596.13,1328.21C1596.13,1328.21 1280.56,1330.9 1243.91,1260.03C1237.96,1248.54 1231.34,1216.13 1232.07,1205.59C1235.9,1149.54 1308.68,1127.92 1308.68,1127.92C1308.68,1127.92 1637.63,1186.09 1694.1,1224.88C1750.57,1263.68 1762.42,1645.99 1762.42,1645.99Z" style="fill:rgb(42,78,150);fill-rule:nonzero;"/>
            <path d="M1512.87,1097.28C1493.7,1131.5 1473.75,1158.56 1400.36,1171.27C1307.89,1187.27 1257.23,1206.85 1231.6,1214.58C1212.01,1220.5 1155.7,1148.74 1128.86,1084.71C1102.88,1022.7 1080.76,926.086 1080.61,918.625C1078.29,803.517 1165.81,775.877 1165.85,775.575C1165.85,775.575 1230.83,819.77 1266.21,804.416C1301.08,789.286 1286.73,763.243 1286.28,762.491L1380.06,854.567C1380.06,854.567 1401.19,935.39 1426.64,994.049C1465.23,1082.97 1518.15,1087.87 1512.87,1097.28Z" style="fill:rgb(105,157,238);fill-rule:nonzero;"/>
            <path d="M1266.83,708.436C1266.83,708.436 1270.16,723.435 1272.48,750.191C1230.2,748.806 1196.72,704.965 1196.48,702.203C1201.58,699.489 1206.71,689.795 1217.01,684.328L1266.83,708.436Z" style="fill:rgb(237,152,95);fill-rule:nonzero;"/>
            <path d="M1276.69,735.363C1276.69,735.363 1187.72,732.826 1190.15,677.445C1192.59,622.065 1182.74,584.439 1239.65,583.717C1296.56,582.996 1306.66,604.613 1310.34,623.295C1314.02,641.978 1299.89,734.596 1276.69,735.363Z" style="fill:rgb(255,178,125);fill-rule:nonzero;"/>
            <path d="M1194.95,699.835C1194.95,699.835 1191.4,681.439 1201.38,669.245C1201.38,669.245 1194.84,651.21 1201.77,647.135C1208.7,643.059 1212.38,658.47 1215.41,655.556C1218.44,652.641 1231.85,638.934 1235.92,620.895C1239.99,602.855 1301.72,615.523 1309.01,617.668C1310.22,618.025 1311.81,617.924 1313.61,617.462C1329.07,613.505 1333.67,593.433 1321.71,582.861C1320.99,582.218 1320.3,581.58 1319.69,580.955C1313.16,574.363 1267.73,530.055 1215.76,551.57C1163.79,573.085 1159.98,599.828 1166.08,621.461C1172.18,643.094 1171.85,695.476 1194.95,699.835Z" style="fill:rgb(43,71,139);fill-rule:nonzero;"/>
            <path d="M1257.99,701.327C1257.99,701.327 1263.77,709.362 1275.8,711.476C1287.83,713.59 1290.46,704.205 1290.46,704.205C1290.46,704.205 1279.43,700.56 1257.99,701.327Z" style="fill:white;fill-rule:nonzero;"/>
            <path d="M1102.66,839.451C1102.66,839.451 1087.36,869.831 1101.66,925.403C1129.86,1035.05 1243.08,1124.07 1259.42,1115.82C1275.76,1107.57 1318.7,1108.78 1295.49,1058.97C1272.27,1009.16 1178.33,825.331 1178.33,825.331L1102.66,839.451Z" style="fill:rgb(255,178,125);fill-rule:nonzero;"/>
            <path d="M1240.23,946.445C1210.58,962.985 1188.8,976.2 1143.42,976.094C1109.26,976.014 1081.1,969.347 1081.1,969.347C1081.1,969.347 1046.01,826.643 1111.59,797.268C1134.17,787.153 1165.85,775.575 1165.85,775.575C1165.85,775.575 1293.33,916.825 1240.23,946.445Z" style="fill:rgb(105,157,238);fill-rule:nonzero;"/>
            <path d="M1473.15,1071.24C1473.15,1071.24 1314.93,1054.37 1293.69,1055.15C1272.45,1055.93 1250.88,1113 1253.88,1116C1256.88,1119 1320.54,1122.08 1359.92,1119.35C1403.13,1116.35 1458.18,1102.39 1458.18,1102.39L1473.15,1071.24Z" style="fill:rgb(255,178,125);fill-rule:nonzero;"/>
            <path d="M1505.95,1589.16C1488.61,1683.19 1393.49,1742.78 1295.99,1742.78L1099.4,1742.78L1114.77,1177.67C1114.77,1177.67 1302.34,1116.12 1349.45,1174.67C1390.73,1225.97 1502.65,1429.03 1508.55,1549.22C1509.22,1563.13 1508.31,1576.46 1505.95,1589.16Z" style="fill:white;fill-rule:nonzero;"/>
            <path d="M1505.95,1589.16C1488.61,1683.19 1393.49,1742.78 1295.99,1742.78L1138.67,1742.78C1212.3,1695.86 1311.45,1566.19 1505.95,1589.16Z" style="fill:rgb(212,228,248);fill-rule:nonzero;"/>
            <path d="M854.417,1744.85C805.101,1744.55 752.118,1733.96 712.036,1703.83C673.06,1674.56 649.939,1630 635.882,1584.26C605.834,1486.49 606.729,1379.27 609.971,1277.98C613.458,1168.35 623.358,1058.69 636.044,949.768C640.237,913.771 641.396,867.245 660.01,834.911C674.591,809.583 729.231,801.162 755.552,801.853C777.479,802.429 798.643,821.327 817.152,832.187C829.568,839.472 841.984,846.757 854.401,854.042C866.473,861.125 866.911,873.55 871.134,886.756C906.568,997.563 941.344,1108.59 977.139,1219.28C1019.21,1201.6 1062.07,1185.65 1106.12,1173.62C1147.56,1162.3 1194.93,1151.26 1237.89,1160.19C1282.6,1169.48 1296.19,1212.56 1312.53,1250.18C1334.15,1299.95 1352.87,1351.13 1368.26,1403.16C1383.24,1453.8 1398.29,1508.65 1397.05,1561.93C1395.93,1609.96 1373.92,1654.41 1338.31,1686.27C1292.89,1726.95 1233.21,1744.85 1173.37,1744.85L854.417,1744.85Z" style="fill:rgb(188,212,246);fill-rule:nonzero;"/>
            <path d="M885.844,1241.87C885.844,1241.87 784.943,855.358 777.66,822.875C774.418,808.397 764.416,803.165 754.341,801.818C772.076,800.112 784.979,799.984 784.979,799.984C819.891,799.984 850.917,823.478 862.122,858.397C886.557,934.56 931.556,1075.01 977.137,1218.06C974.831,1218 885.844,1241.87 885.844,1241.87Z" style="fill:white;fill-rule:nonzero;"/>
            <path d="M1485.85,1146.77L1280.69,1146.77C1280.69,1137.73 1288.01,1130.41 1297.05,1130.41L1485.85,1130.41L1485.85,1146.77Z" style="fill:rgb(237,125,43);fill-rule:nonzero;"/>
            <path d="M1485.26,923.334L1802.44,923.334L1726.36,1146.77L1407.12,1146.77L1485.26,923.334Z" style="fill:rgb(237,125,43);fill-rule:nonzero;"/>
            <path d="M1807.11,923.33L1731.03,1146.76L1411.79,1146.76L1489.93,923.33L1807.11,923.33Z" style="fill:rgb(249,151,70);fill-rule:nonzero;"/>
            <path d="M1636.1,1032.98C1634.13,1041.52 1625.62,1048.44 1617.08,1048.44C1608.54,1048.44 1603.22,1041.52 1605.19,1032.98C1607.16,1024.45 1615.68,1017.53 1624.22,1017.53C1632.75,1017.53 1638.08,1024.45 1636.1,1032.98Z" style="fill:white;fill-rule:nonzero;"/>
            <path d="M967.567,1221.31L967.567,1234.6C967.567,1239.25 966.061,1243.05 964.223,1243.05L479.288,1243.05C477.45,1243.05 475.943,1239.25 475.943,1234.6L475.943,1221.31C475.943,1216.67 477.45,1212.86 479.288,1212.86L964.223,1212.86C966.061,1212.86 967.567,1216.67 967.567,1221.31Z" style="fill:rgb(188,212,246);fill-rule:nonzero;"/>
            <path d="M967.567,1221.31L967.567,1234.6C967.567,1239.25 966.185,1243.05 964.498,1243.05L579.512,1243.05C577.825,1243.05 576.442,1239.25 576.442,1234.6L576.442,1221.31C576.442,1216.67 577.825,1212.86 579.512,1212.86L964.498,1212.86C966.185,1212.86 967.567,1216.67 967.567,1221.31Z" style="fill:rgb(212,228,248);fill-rule:nonzero;"/>
            <rect x="500.557" y="1243.05" width="344.274" height="501.8" style="fill:rgb(164,196,244);fill-rule:nonzero;"/>
            <rect x="597.035" y="1243.05" width="344.275" height="501.8" style="fill:rgb(243,248,255);fill-rule:nonzero;"/>
            <path d="M618.857,1713.83L919.496,1713.83L919.496,1260.55L618.857,1260.55L618.857,1713.83ZM922.813,1717.15L615.539,1717.15L615.539,1257.23L922.813,1257.23L922.813,1717.15Z" style="fill:rgb(183,211,243);fill-rule:nonzero;"/>
            <rect x="617.198" y="1409.37" width="303.957" height="3.32" style="fill:rgb(183,211,243);fill-rule:nonzero;"/>
            <rect x="617.198" y="1564.48" width="303.957" height="3.32" style="fill:rgb(183,211,243);fill-rule:nonzero;"/>
            <path d="M800.322,1286.89L743.919,1286.89C741.182,1286.89 738.942,1284.65 738.942,1281.91C738.942,1279.18 741.182,1276.94 743.919,1276.94L800.322,1276.94C803.06,1276.94 805.299,1279.18 805.299,1281.91C805.299,1284.65 803.06,1286.89 800.322,1286.89Z" style="fill:rgb(183,211,243);fill-rule:nonzero;"/>
            <path d="M800.322,1438.57L743.919,1438.57C741.182,1438.57 738.942,1436.33 738.942,1433.59C738.942,1430.86 741.182,1428.62 743.919,1428.62L800.322,1428.62C803.06,1428.62 805.299,1430.86 805.299,1433.59C805.299,1436.33 803.06,1438.57 800.322,1438.57Z" style="fill:rgb(183,211,243);fill-rule:nonzero;"/>
            <path d="M800.322,1596.69L743.919,1596.69C741.182,1596.69 738.942,1594.45 738.942,1591.71C738.942,1588.97 741.182,1586.73 743.919,1586.73L800.322,1586.73C803.06,1586.73 805.299,1588.97 805.299,1591.71C805.299,1594.45 803.06,1596.69 800.322,1596.69Z" style="fill:rgb(183,211,243);fill-rule:nonzero;"/>
            <path d="M1757.81,533.327L1780.29,611.882C1780.62,613.039 1780.73,614.212 1780.65,615.346C1780.38,619.476 1777.56,623.18 1773.35,624.383L1636.93,663.42C1632.7,664.629 1628.33,662.949 1625.92,659.563C1625.27,658.65 1624.76,657.614 1624.44,656.479L1601.97,577.957C1600.43,572.583 1603.53,566.993 1608.89,565.458L1745.32,526.421C1750.67,524.89 1756.25,527.971 1757.81,533.327Z" style="fill:rgb(205,224,251);fill-rule:nonzero;"/>
            <path d="M1780.65,615.346C1780.38,619.476 1777.56,623.18 1773.35,624.383L1636.93,663.42C1632.7,664.629 1628.33,662.949 1625.92,659.563L1695.41,596.259L1780.65,615.346Z" style="fill:rgb(190,215,251);fill-rule:nonzero;"/>
            <path d="M1757.81,533.327L1696.74,609.17L1603.12,581.976L1601.97,577.957C1600.43,572.583 1603.53,566.993 1608.89,565.458L1745.32,526.421C1750.67,524.89 1756.25,527.971 1757.81,533.327Z" style="fill:rgb(243,248,255);fill-rule:nonzero;"/>
            <path d="M625.621,1212.86L525.163,1212.86L525.163,1177.38L625.943,1177.38C633.778,1177.38 640.13,1183.73 640.13,1191.56L640.13,1198.35C640.13,1206.36 633.634,1212.86 625.621,1212.86Z" style="fill:rgb(252,236,219);fill-rule:nonzero;"/>
            <path d="M725.875,1191.98L725.875,1197.31C725.875,1200.17 725.109,1202.84 723.768,1205.13C721.074,1209.75 716.064,1212.86 710.33,1212.86L522.083,1212.86C520.838,1212.86 519.828,1211.85 519.828,1210.6L519.828,1209.81C519.828,1208.56 520.838,1207.55 522.083,1207.55L636.837,1207.55C637.45,1206.8 637.991,1206 638.447,1205.13C639.522,1203.11 640.129,1200.8 640.129,1198.35L640.129,1191.56C640.129,1190.32 639.968,1189.1 639.665,1187.95C639.151,1186 638.231,1184.21 637.004,1182.68L522.083,1182.68C520.838,1182.68 519.828,1181.67 519.828,1180.43L519.828,1179.63C519.828,1178.39 520.838,1177.38 522.083,1177.38L711.277,1177.38C717.944,1177.38 723.568,1181.85 725.313,1187.95C725.68,1189.23 725.875,1190.58 725.875,1191.98Z" style="fill:rgb(105,157,238);fill-rule:nonzero;"/>
            <path d="M725.313,1187.95L639.665,1187.95C639.151,1186 638.231,1184.21 637.004,1182.68L522.083,1182.68C520.838,1182.68 519.828,1181.67 519.828,1180.43L519.828,1179.63C519.828,1178.39 520.838,1177.38 522.083,1177.38L711.277,1177.38C717.944,1177.38 723.568,1181.85 725.313,1187.95Z" style="fill:rgb(84,142,226);fill-rule:nonzero;"/>
            <path d="M525.163,1195.12L539.101,1195.71L525.163,1196.07L525.163,1195.12Z" style="fill:rgb(244,210,184);fill-rule:nonzero;"/>
            <path d="M525.163,1200.68L558.323,1201.28L525.163,1201.64L525.163,1200.68Z" style="fill:rgb(244,210,184);fill-rule:nonzero;"/>
            <path d="M637.477,1177.45L746.74,1177.45L746.74,1136.91L637.118,1136.91C628.368,1136.91 621.274,1144 621.274,1152.75L621.274,1161.25C621.274,1170.2 628.529,1177.45 637.477,1177.45Z" style="fill:rgb(252,236,219);fill-rule:nonzero;"/>
            <path d="M623.845,1152.64L623.845,1161.36C623.871,1165.09 625.935,1168.32 628.966,1170.05C630.459,1170.9 632.184,1171.39 634.017,1171.39L752.674,1171.39C754.064,1171.39 755.192,1172.51 755.192,1173.9L755.192,1174.93C755.192,1176.32 754.064,1177.45 752.674,1177.45L547.691,1177.45C541.809,1177.45 536.612,1174.53 533.472,1170.05C531.493,1167.23 530.331,1163.8 530.331,1160.09L530.331,1153.21C530.331,1150.67 530.912,1148.26 531.949,1146.12C534.585,1140.67 540.168,1136.91 546.631,1136.91L752.674,1136.91C754.064,1136.91 755.192,1138.03 755.192,1139.42L755.192,1140.45C755.192,1141.84 754.064,1142.97 752.674,1142.97L633.654,1142.97C630.81,1142.97 628.234,1144.18 626.436,1146.12C624.844,1147.83 623.861,1150.12 623.845,1152.64Z" style="fill:rgb(249,151,70);fill-rule:nonzero;"/>
            <path d="M746.74,1157.18L731.529,1157.86L746.74,1158.27L746.74,1157.18Z" style="fill:rgb(244,210,184);fill-rule:nonzero;"/>
            <path d="M746.74,1147.85L710.552,1148.53L746.74,1148.94L746.74,1147.85Z" style="fill:rgb(244,210,184);fill-rule:nonzero;"/>
            <path d="M710.924,1148.39C710.924,1148.39 713.313,1149.68 714.104,1151.79C714.243,1152.16 714.333,1152.56 714.351,1152.97C714.483,1155.78 714.351,1162.14 714.351,1162.14L721.402,1158.96L728.436,1162.14L728.436,1153.52C728.436,1151.9 727.832,1150.31 726.711,1149.27C726.168,1148.77 725.509,1148.39 724.763,1148.39L710.924,1148.39Z" style="fill:rgb(249,151,70);fill-rule:nonzero;"/>
            <path d="M710.924,1148.39C710.924,1148.39 713.313,1149.68 714.104,1151.79L728.234,1151.92C728.234,1151.92 727.679,1148.89 724.763,1148.39L710.924,1148.39Z" style="fill:rgb(237,125,43);fill-rule:nonzero;"/>
            <path d="M807.271,1164.25C803.707,1155.05 806.106,1151.65 810.089,1150.93C814.538,1150.14 820.618,1153.21 824.461,1158.48C824.903,1165 826.464,1171.22 828.957,1176.95C822.714,1175.44 810.089,1171.52 807.271,1164.25ZM936.195,1125.85L824.787,1125.85C824.507,1128.15 824.321,1130.48 824.321,1132.86L824.321,1143.62C816.914,1142.06 806.642,1140.8 801.378,1144.04C792.55,1149.51 795.252,1165.49 803.567,1175.37C811.883,1185.26 838.39,1191.79 838.39,1191.79C846.822,1201.34 858.398,1208.02 871.465,1210.14C874.4,1210.63 877.405,1210.89 880.479,1210.89C911.388,1210.89 936.638,1185.61 936.638,1154.73L936.638,1132.86C936.638,1130.48 936.475,1128.15 936.195,1125.85Z" style="fill:rgb(249,151,70);fill-rule:nonzero;"/>
            <path d="M853.515,1212.86L904.521,1212.86L901.565,1205.99L855.741,1204.28L853.515,1212.86Z" style="fill:rgb(249,151,70);fill-rule:nonzero;"/>
            <path d="M807.271,1164.25C803.707,1155.05 806.106,1151.65 810.089,1150.93C814.538,1150.14 820.618,1153.21 824.461,1158.48C824.903,1165 826.464,1171.22 828.957,1176.95C822.714,1175.44 810.089,1171.52 807.271,1164.25ZM872.164,1204.9C838.471,1165.9 845.75,1146.97 851.783,1125.85L824.787,1125.85C824.507,1128.15 824.321,1130.48 824.321,1132.86L824.321,1143.62C816.914,1142.06 806.642,1140.8 801.378,1144.04C792.55,1149.51 795.252,1165.49 803.567,1175.37C811.883,1185.26 838.39,1191.79 838.39,1191.79C843.19,1197.22 849.034,1201.69 855.567,1204.95L853.515,1212.86L870.79,1212.86L871.266,1210.1L871.465,1210.14L872.164,1204.9Z" style="fill:rgb(237,125,43);fill-rule:nonzero;"/>
            <path d="M669.67,411.167L919.296,411.167C939.195,411.167 955.476,427.447 955.476,447.346L955.476,556.861C955.476,575.139 940.521,590.093 922.244,590.093L915.831,590.093L927.858,640.891L852.352,590.093L667.516,590.093C647.634,590.093 631.367,573.826 631.367,553.944L631.367,449.47C631.367,428.403 648.603,411.167 669.67,411.167Z" style="fill:rgb(105,157,238);fill-rule:nonzero;"/>
            <path d="M672.753,508.034L900.261,508.034C903.41,508.034 905.986,505.458 905.986,502.309L905.986,502.132C905.986,498.983 903.41,496.406 900.261,496.406L672.753,496.406C669.604,496.406 667.028,498.983 667.028,502.132L667.028,502.309C667.028,505.458 669.604,508.034 672.753,508.034Z" style="fill:rgb(170,200,232);fill-rule:nonzero;"/>
            <path d="M670.903,534.059L772.608,534.059C774.739,534.059 776.483,532.315 776.483,530.184L776.483,526.306C776.483,524.174 774.739,522.431 772.608,522.431L670.903,522.431C668.772,522.431 667.028,524.174 667.028,526.306L667.028,530.184C667.028,532.315 668.772,534.059 670.903,534.059Z" style="fill:rgb(170,200,232);fill-rule:nonzero;"/>
            <path d="M790.957,534.059L879.584,534.059C881.579,534.059 883.211,532.427 883.211,530.432L883.211,526.058C883.211,524.063 881.579,522.431 879.584,522.431L790.957,522.431C788.962,522.431 787.33,524.063 787.33,526.058L787.33,530.432C787.33,532.427 788.962,534.059 790.957,534.059Z" style="fill:rgb(170,200,232);fill-rule:nonzero;"/>
            <path d="M741.674,461.15L823.319,461.15C826.438,461.15 828.989,458.599 828.989,455.48C828.989,452.362 826.438,449.811 823.319,449.811L741.674,449.811C738.556,449.811 736.005,452.362 736.005,455.48C736.005,458.599 738.556,461.15 741.674,461.15Z" style="fill:rgb(170,200,232);fill-rule:nonzero;"/>
            <path d="M671.509,461.15L720.637,461.15C723.102,461.15 725.119,459.133 725.119,456.668L725.119,454.292C725.119,451.827 723.102,449.811 720.637,449.811L671.509,449.811C669.045,449.811 667.028,451.827 667.028,454.292L667.028,456.668C667.028,459.133 669.045,461.15 671.509,461.15Z" style="fill:rgb(170,200,232);fill-rule:nonzero;"/>
        </g>
    </g>
</svg>
