<?xml version="1.0" encoding="UTF-8" standalone="no"?>
<!DOCTYPE svg PUBLIC "-//W3C//DTD SVG 1.1//EN" "http://www.w3.org/Graphics/SVG/1.1/DTD/svg11.dtd">
<svg width="100%" height="100%" viewBox="0 0 2357 1815" version="1.1" xmlns="http://www.w3.org/2000/svg" xmlns:xlink="http://www.w3.org/1999/xlink" xml:space="preserve" xmlns:serif="http://www.serif.com/" style="fill-rule:evenodd;clip-rule:evenodd;stroke-linejoin:round;stroke-miterlimit:2;">
    <g transform="matrix(1,0,0,1,-121.809,-92.745)">
        <g>
            <path d="M123.15,1578.9C123.15,1578.9 108.393,1652.95 176.776,1672.19C270.31,1698.51 819.342,1767.65 685.963,1820.18C610.67,1849.84 724.399,1890.11 1091.13,1904.94C1457.86,1919.77 2087.14,1861.67 1875.52,1775.7C1663.91,1689.72 2528.41,1757.73 2475.89,1578.9L123.15,1578.9Z" style="fill:rgb(207,221,249);fill-rule:nonzero;"/>
            <path d="M538.367,1574.81C538.367,1574.81 261.374,895.43 460.708,744.149C593.944,643.032 735.167,865.939 903.727,748.017C1053.79,643.032 844.574,378.564 1094.96,309.379C1358.14,236.659 1573.76,825.576 1794.59,744.149C2062.55,645.343 2329.1,845.921 2098.75,1576.11L538.367,1574.81Z" style="fill:rgb(212,232,255);fill-rule:nonzero;"/>
            <path d="M1240.02,117.611C1226.77,110.842 1212.97,106.214 1199,103.856L1201,93.244C1216.16,95.803 1231.11,100.809 1245.42,108.122L1240.02,117.611ZM1115.77,117.618L1109.64,108.539C1123.11,100.366 1137.95,95.052 1153.76,92.745L1155.49,103.398C1141.26,105.476 1127.9,110.259 1115.77,117.618ZM1306.39,173.107C1296.45,161.3 1286.2,150.84 1275.91,142.02L1283.54,134.025C1294.28,143.235 1304.96,154.123 1315.28,166.385L1306.39,173.107ZM1060.69,181.346L1050.49,176.575C1057.96,162.234 1066.24,149.554 1075.1,138.886L1084.04,145.556C1075.66,155.635 1067.81,167.676 1060.69,181.346ZM1355.17,245.323C1347.69,231.971 1340.05,219.436 1332.46,208.067L1342.07,202.304C1349.81,213.902 1357.6,226.675 1365.21,240.268L1355.17,245.323ZM1030.88,262.103L1019.85,259.491C1023.82,244.439 1028.19,230.261 1032.85,217.35L1043.61,220.838C1039.05,233.461 1034.77,247.345 1030.88,262.103ZM1393.68,323.627C1387.57,309.695 1381.41,296.365 1375.37,284.008L1385.69,279.478C1391.79,291.964 1398.01,305.425 1404.18,319.489L1393.68,323.627ZM1013.79,346.971L1002.53,345.429C1004.83,330.337 1007.36,315.824 1010.05,302.292L1021.23,304.284C1018.57,317.667 1016.07,332.029 1013.79,346.971ZM1426.41,404.501C1420.91,389.962 1415.73,376.673 1410.57,363.873L1421.2,360.027C1426.38,372.897 1431.59,386.255 1437.11,400.865L1426.41,404.501ZM1003.44,433.113L992.114,432.16C993.531,417.036 995.073,402.43 996.697,388.747L1008,389.952C1006.39,403.552 1004.85,418.073 1003.44,433.113ZM2022.29,451.297C2008.21,445.667 1993.95,442.182 1979.91,440.939L1980.97,430.206C1996.17,431.552 2011.55,435.306 2026.71,441.366L2022.29,451.297ZM1898.2,464.503L1891.68,455.671C1905.67,446.396 1919.79,439.527 1933.67,435.256L1937.18,445.508C1924.38,449.45 1911.26,455.841 1898.2,464.503ZM1456.21,486.653C1450.55,470.615 1445.89,457.538 1441.54,445.499L1452.3,442.004C1456.66,454.069 1461.33,467.171 1467,483.234L1456.21,486.653ZM2094.43,500.079C2083.48,489.447 2072.14,480.063 2060.73,472.186L2067.43,463.474C2079.35,471.704 2091.17,481.487 2102.57,492.55L2094.43,500.079ZM541.321,517.504C527.13,510.81 513.169,506.538 499.832,504.806L501.376,494.126C515.943,496.018 531.087,500.636 546.388,507.853L541.321,517.504ZM996.824,519.76L985.471,519.119C986.456,503.451 987.434,489.223 988.46,475.621L999.805,476.39C998.781,489.949 997.806,504.136 996.824,519.76ZM1834.05,523.999L1825.22,517.212C1835.88,504.739 1845.99,494.006 1856.12,484.4L1864.16,492.018C1854.32,501.358 1844.47,511.819 1834.05,523.999ZM418.645,527.296L411.747,518.726C425.329,508.906 439.464,501.824 453.76,497.678L457.088,507.986C444.085,511.757 431.151,518.253 418.645,527.296ZM2149.08,567.933C2140.93,555.329 2132.39,543.409 2123.68,532.503L2132.75,526.001C2141.68,537.186 2150.44,549.399 2158.78,562.3L2149.08,567.933ZM612.894,568.394C601.27,557.667 589.84,548.192 578.922,540.23L585.858,531.687C597.123,539.903 608.889,549.654 620.828,560.67L612.894,568.394ZM1485.37,569.148C1480.15,554.662 1475.03,540.168 1470.72,527.9L1481.51,524.489C1485.82,536.74 1490.93,551.211 1496.13,565.666L1485.37,569.148ZM360.254,591.078L350.668,585.276C359.606,572.011 368.821,560.029 378.057,549.666L386.745,556.622C377.833,566.621 368.921,578.214 360.254,591.078ZM1780.86,594.12L1771.38,588.177C1780.88,574.55 1789.38,562.761 1797.36,552.14L1806.62,558.392C1798.72,568.911 1790.29,580.598 1780.86,594.12ZM991.938,606.616L980.579,606.073C981.345,591.673 982.106,577.265 982.918,562.603L994.275,563.168C993.464,577.822 992.703,592.222 991.938,606.616ZM673.53,632.642C663.211,620.501 653.605,609.696 644.164,599.607L652.672,592.455C662.233,602.672 671.953,613.605 682.387,625.88L673.53,632.642ZM2190.39,644.407C2184.27,630.908 2177.8,617.795 2171.16,605.432L2181.3,600.542C2188.05,613.112 2194.63,626.44 2200.84,640.154L2190.39,644.407ZM1516.83,651.13C1511.68,638.883 1506.35,625.522 1500.55,610.282L1511.25,606.625C1517.01,621.751 1522.29,635.003 1527.39,647.138L1516.83,651.13ZM1730.98,667.071L1721.48,661.148C1729.56,649.503 1737.91,637.164 1746.36,624.699L1755.93,630.526C1747.46,643.023 1739.1,655.372 1730.98,667.071ZM318.053,667.073L307.648,662.721C313.892,649.32 320.545,636.159 327.615,623.291L337.699,628.274C330.743,640.936 324.197,653.885 318.053,667.073ZM986.883,693.609L975.533,692.912C976.395,680.283 977.273,666.089 978.215,649.518L989.571,650.098C988.627,666.708 987.747,680.94 986.883,693.609ZM728.901,701.62C718.496,688.142 709.825,677.077 701.611,666.798L710.678,660.291C718.93,670.618 727.636,681.728 738.08,695.255L728.901,701.62ZM2221.65,725.326C2217.07,711.359 2212.18,697.611 2207.12,684.462L2217.8,680.768C2222.92,694.079 2227.87,707.994 2232.51,722.126L2221.65,725.326ZM1557.43,730.098C1550.07,719.337 1542.78,706.664 1535.13,691.355L1545.41,686.744C1552.84,701.616 1559.89,713.879 1566.98,724.235L1557.43,730.098ZM1675.81,737.51L1667.46,730.198C1676.08,721.346 1685.32,710.428 1695.72,696.817L1704.93,703.138C1694.27,717.098 1684.74,728.341 1675.81,737.51ZM286.48,747.786L275.604,744.634C280.123,730.629 285.081,716.7 290.34,703.233L301.005,706.974C295.822,720.247 290.935,733.979 286.48,747.786ZM1615.6,771.011C1606.74,771.011 1598.05,768.504 1589.77,763.558L1595.84,754.438C1608.28,761.881 1620.51,761.898 1633.73,755.961L1638.62,765.691C1630.81,769.222 1623.06,771.011 1615.6,771.011ZM782.95,771.898C773.705,760.065 764.116,747.557 755.854,736.762L765.06,730.433C773.307,741.207 782.876,753.689 792.09,765.484L782.95,771.898ZM978.625,780.659L967.345,779.284C969.091,766.417 970.657,752.328 972.13,736.209L983.461,737.14C981.974,753.408 980.392,767.643 978.625,780.659ZM2245.01,808.754C2241.64,794.518 2238.01,780.404 2234.21,766.805L2245.21,764.047C2249.04,777.778 2252.71,792.027 2256.11,806.397L2245.01,808.754ZM264.599,831.431L253.434,829.378C256.38,814.99 259.713,800.644 263.342,786.738L274.383,789.326C270.8,803.056 267.508,817.222 264.599,831.431ZM840.405,840.272C831.345,830.709 821.663,819.704 810.805,806.627L819.743,799.961C830.447,812.853 839.974,823.683 848.867,833.07L840.405,840.272ZM956.31,866.495L946.182,861.593C951.388,851.93 955.99,838.521 959.862,821.739L970.972,824.041C966.836,841.975 962.04,855.862 956.31,866.495ZM916.852,892.141C901.049,889.779 889.618,882.961 873.784,871.187L880.972,862.834C894.844,873.122 904.862,879.293 918.063,881.423L916.852,892.141ZM2261.92,893.662C2259.56,879.277 2256.96,864.946 2254.2,851.068L2265.38,849.073C2268.16,863.062 2270.78,877.505 2273.16,892.002L2261.92,893.662ZM251.465,916.79L240.149,915.713C241.694,901.136 243.577,886.567 245.747,872.41L257.002,873.96C254.856,887.961 252.993,902.371 251.465,916.79ZM2273.4,979.448C2271.88,964.971 2270.16,950.513 2268.29,936.472L2279.57,935.12C2281.46,949.255 2283.19,963.81 2284.72,978.38L2273.4,979.448ZM246.061,1002.97L234.69,1002.75C235.007,988.114 235.617,973.458 236.505,959.187L247.859,959.821C246.979,973.956 246.374,988.472 246.061,1002.97ZM2280.2,1065.72C2279.42,1051.24 2278.46,1036.71 2277.35,1022.54L2288.69,1021.74C2289.81,1036 2290.77,1050.61 2291.56,1065.17L2280.2,1065.72ZM236.068,1089.88C235.314,1075.29 234.813,1060.64 234.581,1046.34L245.953,1046.17C246.183,1060.35 246.679,1074.88 247.427,1089.36L236.068,1089.88ZM2282.89,1152.23C2282.76,1137.74 2282.47,1123.18 2282.03,1108.96L2293.4,1108.64C2293.84,1122.93 2294.13,1137.57 2294.27,1152.14L2282.89,1152.23ZM243.437,1176.73C241.741,1162.22 240.265,1147.63 239.05,1133.36L250.386,1132.5C251.593,1146.66 253.057,1161.14 254.741,1175.54L243.437,1176.73ZM2293.31,1239.13L2281.94,1238.81C2282.38,1224.33 2282.69,1209.76 2282.85,1195.53L2294.22,1195.64C2294.06,1209.94 2293.75,1224.57 2293.31,1239.13ZM256.103,1263C253.574,1248.64 251.232,1234.16 249.144,1219.95L260.407,1218.47C262.483,1232.57 264.809,1246.96 267.321,1261.23L256.103,1263ZM2289.05,1326.01L2277.7,1325.33C2278.66,1310.9 2279.51,1296.35 2280.21,1282.09L2291.57,1282.59C2290.87,1296.92 2290.02,1311.52 2289.05,1326.01ZM273.543,1348.5C270.259,1334.31 267.133,1319.97 264.253,1305.86L275.42,1303.81C278.281,1317.83 281.388,1332.09 284.652,1346.19L273.543,1348.5ZM2281.81,1412.7L2270.49,1411.68C2271.93,1397.25 2273.26,1382.73 2274.45,1368.53L2285.79,1369.38C2284.59,1383.64 2283.26,1398.21 2281.81,1412.7ZM295.41,1433.08C291.429,1419.15 287.569,1404.97 283.936,1390.92L294.982,1388.35C298.594,1402.32 302.431,1416.42 306.388,1430.26L295.41,1433.08ZM2271.85,1499.12L2260.56,1497.8C2262.43,1483.43 2264.21,1468.95 2265.85,1454.77L2277.16,1455.95C2275.51,1470.17 2273.73,1484.7 2271.85,1499.12ZM321.64,1516.56C316.99,1503.06 312.389,1489.07 307.966,1474.97L318.867,1471.9C323.262,1485.9 327.832,1499.81 332.451,1513.22L321.64,1516.56Z" style="fill:rgb(220,230,255);fill-rule:nonzero;"/>
            <path d="M2350.78,1273.13C2256.4,1259.87 2264.95,1459.13 2130.42,1459.13C2007.42,1459.13 1941.6,1013.95 1806.62,1104.49C1263.99,1468.5 1686.19,849.073 1321.32,836.966C1156.34,831.491 1046.4,998.227 1005.86,1293.44C947.092,1560.32 810.805,1089.88 670.55,1133.62C581.411,1161.42 591.62,1459.13 468.62,1459.13C334.091,1459.13 342.954,1291.58 248.576,1304.84C146.962,1319.11 123.15,1578.9 123.15,1578.9L2475.89,1578.9C2475.89,1578.9 2452.39,1287.41 2350.78,1273.13Z" style="fill:rgb(238,247,255);fill-rule:nonzero;"/>
            <path d="M2260.34,1482.27C2173.52,1476.61 2187.69,1527.76 2063.92,1527.76C1950.77,1527.76 1953.88,1413.13 1878.15,1388.76C1738.71,1343.9 1623.74,1570.97 1569.68,1457C1467,1154.61 1167.52,1002.97 1029.36,1457C975.295,1570.97 848.867,1367.62 720.883,1388.76C642.104,1401.78 648.269,1527.76 535.112,1527.76C411.349,1527.76 425.517,1476.61 338.691,1482.27C245.209,1488.37 217.288,1578.9 217.288,1578.9L2381.75,1578.9C2381.75,1578.9 2353.83,1488.37 2260.34,1482.27Z" style="fill:rgb(220,230,255);fill-rule:nonzero;"/>
            <path d="M1482.95,1100.75L1476.45,1186.58L1006.88,1186.58L1006.47,1424.89L432.894,1425.29L431.235,1642.85L458.632,1670.25L2125.14,1670.25L2125.14,1120L2099.4,1094.26L1482.95,1100.75Z" style="fill:rgb(35,101,155);fill-rule:nonzero;"/>
            <path d="M407.156,1399.56L458.632,1451.03L458.632,1670.25L407.156,1618.77L407.156,1399.56Z" style="fill:rgb(29,63,112);fill-rule:nonzero;"/>
            <path d="M981.138,1160.84L1032.61,1212.31L1032.61,1451.03L981.138,1399.56L981.138,1160.84Z" style="fill:rgb(29,63,112);fill-rule:nonzero;"/>
            <path d="M1450.72,1068.52L1502.19,1120L1502.19,1212.31L1450.72,1160.84L1450.72,1068.52Z" style="fill:rgb(29,63,112);fill-rule:nonzero;"/>
            <path d="M2073.67,1068.52L2125.14,1120L1502.19,1120L1450.72,1068.52L2073.67,1068.52Z" style="fill:rgb(58,114,170);fill-rule:nonzero;"/>
            <path d="M981.138,1160.84L1032.61,1212.31L1502.19,1212.31L1450.72,1160.84L981.138,1160.84Z" style="fill:rgb(58,114,170);fill-rule:nonzero;"/>
            <path d="M407.156,1399.56L458.632,1451.03L1032.61,1451.03L981.138,1399.56L407.156,1399.56Z" style="fill:rgb(58,114,170);fill-rule:nonzero;"/>
            <path d="M1562.04,632.594C1564.28,636.03 1557.65,640.078 1555.91,642.957C1562.2,642.921 1567.8,641.614 1567.84,641.638C1574.78,638.131 1581.53,634.255 1588.1,630.073C1599.71,629.985 1596.18,656.455 1572.82,663.935C1564.42,666.626 1556.23,669.969 1542.49,667.846C1537.99,667.15 1536.73,654.47 1539.49,650.948C1544.32,647.163 1558.7,629.367 1562.04,632.594Z" style="fill:rgb(249,147,112);fill-rule:nonzero;"/>
            <path d="M1041.09,767.193C1042.59,771.005 1049.97,767.341 1053.53,768.483C1049.87,773.586 1045.11,777.108 1045.11,777.15C1038.23,780.786 1031.17,784.044 1023.96,786.983C1017.16,796.404 1040.79,808.842 1060.41,794.118C1067.47,788.822 1074.93,784.077 1081.15,771.643C1083.19,767.568 1076.82,758.615 1072.34,758.613C1065.34,758.61 1040.39,762.601 1041.09,767.193Z" style="fill:rgb(229,125,97);fill-rule:nonzero;"/>
            <path d="M1349.33,635.424C1381.7,650.517 1415.33,667.783 1451.46,670.074C1472.58,669.731 1493.81,664.635 1514.12,658.581C1522.56,656.043 1531.02,653.178 1539.32,650.189C1550.74,645.744 1559.22,662.568 1548.99,669.119C1520.7,688.405 1488.35,703.194 1454.18,707.979C1429.18,710.462 1404.76,704.807 1381.31,697.682C1363.03,691.914 1345.36,684.919 1328.27,676.336C1301.19,662.178 1321.97,621.593 1349.33,635.424Z" style="fill:rgb(249,147,112);fill-rule:nonzero;"/>
            <path d="M1546.31,670.926C1546.31,670.926 1543.75,673.14 1539.14,676.606C1522.67,688.969 1479.98,717.203 1434.36,716.731C1412.27,716.508 1392.71,714.097 1376.93,711.18C1374.58,710.743 1372.31,710.297 1370.12,709.842C1365.77,708.941 1361.78,708.023 1358.15,707.122C1354.95,706.333 1352.07,705.561 1349.5,704.823C1340.34,702.232 1335.25,700.242 1335.25,700.242C1344.73,657.62 1338.23,632.25 1332.51,619.69C1329.53,613.136 1326.75,610.073 1326.56,609.876L1326.56,609.867C1326.58,609.876 1326.61,609.884 1326.63,609.893C1326.68,609.91 1326.71,609.927 1326.75,609.953C1327.45,610.219 1329.83,611.188 1333.55,612.758C1344.38,617.357 1366.49,627.146 1390.53,640.143C1415.9,653.862 1454.63,672.693 1528.32,653.407C1530.99,652.712 1533.72,651.974 1536.51,651.194C1536.51,651.194 1535.04,662.681 1546.31,670.926Z" style="fill:rgb(58,114,170);fill-rule:nonzero;"/>
            <path d="M1550.91,1091.73L1485.74,1094.08C1482.77,1094.19 1480.33,1091.78 1480.37,1088.81C1480.39,1087.37 1480.5,1085.67 1480.77,1083.73C1481.51,1078.27 1481.71,1072.75 1481.41,1067.25C1481.27,1064.62 1481.02,1061.99 1480.65,1059.38L1474.31,1013.83C1473.89,1010.79 1476.19,1008.06 1479.26,1007.94L1508.02,1006.91C1511.14,1006.8 1513.64,1009.44 1513.37,1012.54L1509.64,1054.38C1508.82,1063.53 1515.01,1071.82 1524.01,1073.72C1530.43,1075.07 1536.92,1075.78 1541.58,1076.81C1542.18,1076.94 1542.78,1077.08 1543.36,1077.22L1543.37,1077.22C1548.32,1078.44 1552.43,1080.13 1554.89,1083.48C1557.36,1086.83 1555.07,1091.58 1550.91,1091.73Z" style="fill:rgb(249,147,112);fill-rule:nonzero;"/>
            <path d="M1478.42,1087.59C1478.71,1090.77 1480.43,1094.35 1484.13,1094.14L1551.72,1091.7C1555.21,1091.58 1557.56,1088 1556.2,1084.78C1553.31,1077.51 1543.6,1066.86 1511.6,1066.21C1507.03,1066.82 1496.62,1068.76 1481.41,1067.25C1481.41,1067.25 1476.51,1075.6 1478.42,1087.59Z" style="fill:rgb(235,86,72);fill-rule:nonzero;"/>
            <path d="M1556.2,1084.78L1478.42,1087.59C1478.8,1089.95 1479.53,1092.23 1480.8,1094.26L1551.72,1091.7C1555.16,1091.58 1557.51,1088.1 1556.25,1084.89C1556.24,1084.86 1556.22,1084.82 1556.2,1084.78Z" style="fill:rgb(206,57,50);fill-rule:nonzero;"/>
            <path d="M1534.79,1035.97C1535.12,1044.78 1535.16,1050 1535.16,1050C1535.16,1050 1502.72,1064.16 1469.31,1055.18C1466.81,1054.52 1464.31,1053.71 1461.82,1052.77C1460.89,1049.02 1460,1044.77 1459.13,1040.13C1451.74,1000.76 1445.6,933.994 1422.57,916.453C1398.68,899.299 1354.44,901.641 1327.12,900.338C1326.35,900.302 1325.59,900.266 1324.86,900.222C1283.92,897.843 1251.87,868.375 1226.45,823.29C1222.69,816.652 1270.39,810.358 1270.39,810.358L1380.7,801.163C1409.09,808.241 1459.22,818.38 1491.52,853.398C1526.09,890.881 1533.29,997.529 1534.79,1035.97Z" style="fill:rgb(29,63,112);fill-rule:nonzero;"/>
            <path d="M1469.31,1055.18C1466.81,1054.52 1464.31,1053.71 1461.82,1052.77C1452.94,1017.15 1448.31,936.058 1422.57,916.453C1398.68,899.299 1354.44,901.641 1327.12,900.338L1336.01,881.061C1336.01,881.061 1411,881.92 1435.94,915.216C1460.88,948.504 1469.31,1055.18 1469.31,1055.18Z" style="fill:rgb(16,54,99);fill-rule:nonzero;"/>
            <path d="M1317.9,1203.73L1253.1,1196.47C1250.14,1196.14 1248.09,1193.39 1248.56,1190.46C1248.8,1189.04 1249.15,1187.37 1249.7,1185.5C1251.24,1180.21 1252.25,1174.78 1252.76,1169.29C1253.01,1166.67 1253.59,1140.27 1253.61,1137.63C1253.61,1137.63 1287.01,1134.28 1286.28,1137.31L1283.89,1172.9C1286.91,1180.92 1285.32,1178.76 1293.95,1181.96C1300.09,1184.24 1306.41,1185.9 1310.87,1187.6C1311.44,1187.82 1312.02,1188.04 1312.57,1188.27L1312.58,1188.27C1317.29,1190.21 1321.11,1192.48 1323.06,1196.16C1325,1199.84 1322.04,1204.2 1317.9,1203.73Z" style="fill:rgb(249,147,112);fill-rule:nonzero;"/>
            <path d="M1246.81,1188.96C1246.63,1192.16 1247.8,1195.95 1251.49,1196.29L1318.71,1203.82C1322.18,1204.22 1325.03,1201.02 1324.16,1197.64C1322.37,1190.02 1314.33,1178.05 1282.77,1172.7C1278.16,1172.63 1267.59,1173.02 1252.76,1169.29C1252.76,1169.29 1246.69,1176.83 1246.81,1188.96Z" style="fill:rgb(235,86,72);fill-rule:nonzero;"/>
            <path d="M1324.16,1197.64L1246.81,1188.96C1246.83,1191.35 1247.23,1193.72 1248.18,1195.92L1318.71,1203.82C1322.13,1204.21 1324.96,1201.11 1324.19,1197.76C1324.18,1197.72 1324.17,1197.68 1324.16,1197.64Z" style="fill:rgb(206,57,50);fill-rule:nonzero;"/>
            <path d="M1326.53,609.847C1329.58,596.129 1329.5,575.818 1328.43,567.412C1326.63,550.787 1300.15,554.378 1302.77,570.81C1303.66,570.375 1303.24,600.118 1300.55,608.105C1284.4,611.159 1327.19,638.134 1339.49,632.461C1347.24,628.883 1326.53,609.847 1326.53,609.847Z" style="fill:rgb(249,147,112);fill-rule:nonzero;"/>
            <path d="M1302.67,569.443C1302.68,569.634 1302.68,569.831 1302.7,570.022C1302.71,570.289 1302.74,570.549 1302.77,570.81C1303.41,570.476 1303.39,586.909 1302.17,598.709C1312.75,604.913 1325.36,603.99 1327.67,603.763C1329.47,591.341 1329.15,575.675 1328.74,569.785C1328.58,568.398 1328.45,567.581 1328.43,567.412C1328.37,567.036 1328.31,566.665 1328.22,566.301C1327.37,562.47 1324.86,559.367 1321.57,557.652L1321.56,557.651C1319.27,556.465 1316.62,555.953 1313.87,556.317C1311.16,556.684 1308.75,557.864 1306.87,559.584C1306.79,559.651 1306.71,559.726 1306.64,559.794C1304.09,562.246 1302.56,565.714 1302.67,569.443Z" style="fill:rgb(229,125,97);fill-rule:nonzero;"/>
            <path d="M1285.29,546.815C1285.29,546.815 1285.52,532.844 1289.88,523.209L1297.87,527.122L1285.29,546.815Z" style="fill:rgb(142,74,53);fill-rule:nonzero;"/>
            <path d="M1336.47,801.39C1339.13,870.962 1331.45,968.594 1325.84,1014.06C1320.36,1058.5 1310.89,1117.65 1306.58,1144.01L1306.57,1144.01C1305.17,1152.59 1304.31,1157.69 1304.31,1157.69C1304.31,1157.69 1270.61,1173.79 1238.61,1153.66C1238.61,1153.66 1238.78,1148.6 1239,1140.05C1239.7,1112.78 1240.86,1049.99 1238.28,1003.18C1235.77,957.505 1205.02,878.815 1226.45,823.29L1336.47,801.39Z" style="fill:rgb(29,63,112);fill-rule:nonzero;"/>
            <path d="M1285.08,587.694C1297.54,599.836 1317.1,601.659 1331.19,593.591L1331.2,593.592C1332.25,592.94 1333.24,592.228 1334.19,591.443L1334.2,591.445C1378.77,546.529 1318.17,473.073 1290.56,537.217C1281.23,555.28 1264.97,564.967 1285.08,587.694Z" style="fill:rgb(249,147,112);fill-rule:nonzero;"/>
            <path d="M1304.27,551.286C1303.82,550.407 1304.17,549.331 1305.05,548.883C1305.93,548.435 1307.01,548.785 1307.46,549.664C1307.91,550.543 1307.56,551.619 1306.68,552.067C1305.8,552.515 1304.72,552.165 1304.27,551.286Z" style="fill:rgb(193,98,86);fill-rule:nonzero;"/>
            <path d="M1289.23,548.779C1288.78,547.9 1289.13,546.824 1290.01,546.376C1290.89,545.928 1291.97,546.278 1292.42,547.157C1292.87,548.036 1292.52,549.112 1291.64,549.56C1290.76,550.007 1289.68,549.658 1289.23,548.779Z" style="fill:rgb(193,98,86);fill-rule:nonzero;"/>
            <path d="M1293.91,564.249C1294.95,564.373 1296.02,564.314 1296.93,564.024C1297.28,563.91 1297.48,563.528 1297.36,563.174C1297.25,562.816 1296.86,562.627 1296.51,562.737C1294.25,563.465 1291.03,562.334 1290.59,561.307C1290.43,560.946 1290.92,560.588 1291.35,560.353C1295.19,558.273 1297.75,551.014 1297.86,550.707C1297.98,550.354 1297.8,549.969 1297.44,549.846C1297.08,549.718 1296.7,549.91 1296.58,550.261C1296.56,550.331 1294.08,557.332 1290.71,559.163C1288.87,560.161 1289.14,561.367 1289.34,561.84C1289.87,563.071 1291.85,564.007 1293.91,564.249Z" style="fill:rgb(193,98,86);fill-rule:nonzero;"/>
            <path d="M1292.63,532.782C1302.33,527.667 1319.92,532.313 1328.55,532.24C1328.55,532.24 1326.72,547.007 1341.64,557.519C1342.9,571.096 1345.14,577.023 1331.19,593.591L1331.2,593.592C1332.25,592.94 1333.24,592.228 1334.19,591.443L1334.2,591.445C1377.12,548.617 1321.16,475.571 1292.63,532.782Z" style="fill:rgb(229,125,97);fill-rule:nonzero;"/>
            <path d="M1285.28,503.361C1290.85,492.384 1307.35,486.41 1321.62,499.972C1332.6,510.414 1344.45,510.327 1344.21,521.33C1366.24,531.317 1355.32,555.572 1355.32,555.572L1344.28,554.271C1331.67,544.075 1332.05,529.08 1332.05,529.08L1332.05,529.078C1329.24,529.217 1326.28,529.098 1323.66,528.429C1315.53,526.357 1303.51,525.359 1294.35,528.734C1285.19,532.109 1279.07,515.63 1285.28,503.361Z" style="fill:rgb(142,74,53);fill-rule:nonzero;"/>
            <path d="M1356.89,564.467C1355.7,570.134 1351.04,573.952 1346.47,572.993C1341.91,572.035 1339.17,566.664 1340.36,560.997C1341.55,555.329 1346.22,551.512 1350.78,552.47C1355.35,553.428 1358.09,558.799 1356.89,564.467Z" style="fill:rgb(249,147,112);fill-rule:nonzero;"/>
            <path d="M1346.06,556.965C1346.23,556.897 1350.42,555.279 1352.77,557.456C1353.37,558.009 1353.77,558.758 1353.99,559.674C1354,559.676 1354,559.678 1354,559.68C1354.02,559.766 1354.05,559.842 1354.07,559.931L1354.07,559.936C1354.41,561.642 1354.15,563.922 1353.28,566.764C1353.19,567.081 1352.88,567.276 1352.56,567.239C1352.52,567.234 1352.48,567.226 1352.44,567.215C1352.08,567.106 1351.88,566.727 1351.99,566.37C1352.69,564.066 1352.95,562.194 1352.81,560.779C1348.91,561.479 1346.96,565.848 1346.94,565.895C1346.82,566.178 1346.53,566.337 1346.24,566.303C1346.17,566.295 1346.11,566.278 1346.05,566.252C1345.71,566.107 1345.55,565.71 1345.69,565.366C1345.79,565.148 1347.91,560.265 1352.49,559.418C1352.33,559.035 1352.13,558.702 1351.85,558.451C1350.12,556.851 1346.58,558.212 1346.55,558.224C1346.2,558.359 1345.81,558.187 1345.67,557.84C1345.54,557.494 1345.71,557.103 1346.06,556.965Z" style="fill:rgb(193,98,86);fill-rule:nonzero;"/>
            <path d="M1380.69,801.169C1380.69,801.169 1338.33,841.99 1226.44,823.287C1226.44,823.287 1227.94,782.38 1229.71,742.761C1229.87,739.355 1230.02,735.966 1230.18,732.603L1230.18,732.586C1231.61,701.717 1233.15,673.903 1234.22,669.948C1244.86,630.114 1278.13,615.023 1293.1,610.141C1297.68,608.649 1300.54,608.108 1300.54,608.108C1300.54,617.983 1317.63,624.443 1323.54,620.171C1328.46,616.61 1326.66,610.227 1326.56,609.876L1326.56,609.867C1326.58,609.876 1326.61,609.884 1326.63,609.893C1326.68,609.91 1326.71,609.927 1326.75,609.953C1329.12,610.974 1331.38,612.141 1333.54,613.462C1348.64,622.736 1358.58,639.466 1364.04,663.453C1365.98,671.956 1367.35,681.367 1368.19,691.68C1368.34,693.473 1368.48,695.3 1368.59,697.153C1368.83,701.023 1369.37,705.269 1370.11,709.782C1370.12,709.825 1370.12,709.842 1370.12,709.842C1374.76,738.188 1387.12,777.25 1380.69,801.169Z" style="fill:rgb(58,114,170);fill-rule:nonzero;"/>
            <path d="M1313.46,548.796C1313.61,548.813 1313.76,548.79 1313.9,548.723C1314.29,548.534 1314.46,548.061 1314.27,547.666C1314.16,547.424 1311.37,541.74 1304.04,540.485C1303.61,540.41 1303.19,540.701 1303.12,541.134C1303.04,541.567 1303.33,541.977 1303.77,542.051C1310.26,543.164 1312.73,548.14 1312.84,548.352C1312.96,548.607 1313.2,548.767 1313.46,548.796Z" style="fill:rgb(193,98,86);fill-rule:nonzero;"/>
            <path d="M1288.64,543.168C1288.89,543.196 1289.14,543.11 1289.32,542.913C1291.37,540.668 1295.71,540.872 1295.76,540.874C1296.2,540.897 1296.57,540.562 1296.59,540.124C1296.62,539.685 1296.28,539.308 1295.84,539.287C1295.64,539.276 1290.7,539.036 1288.15,541.844C1287.85,542.168 1287.88,542.671 1288.2,542.966C1288.33,543.083 1288.48,543.15 1288.64,543.168Z" style="fill:rgb(193,98,86);fill-rule:nonzero;"/>
            <path d="M1224.72,664.311C1199.45,689.757 1174.04,705.237 1151.04,719.169C1132.98,730.112 1114.79,741.728 1095.22,749.874C1087.08,753.241 1078.71,756.373 1070.39,759.304C1058.73,763.079 1062.8,781.471 1074.86,780.084C1108.98,777.143 1145.09,769.88 1174.39,751.674C1197.92,737.055 1226.72,721.635 1243.84,704.091C1259.94,687.598 1275.54,661.214 1283.35,643.764C1295.39,615.675 1249.47,626.792 1224.72,664.311Z" style="fill:rgb(229,125,97);fill-rule:nonzero;"/>
            <path d="M1300.54,608.108C1300.54,608.108 1299.67,611.866 1297.52,618.575C1292.45,634.344 1280.3,666.413 1255.82,704.36C1248.98,714.964 1240.23,724.358 1230.18,732.586C1191.41,764.364 1133.21,778.974 1090.2,779.506C1087.46,779.541 1084.71,779.498 1081.99,779.386C1081.99,779.386 1085.01,765.599 1076.11,757.26C1076.11,757.26 1078.6,756.042 1082.68,753.948C1097.4,746.373 1132.9,727.378 1147.77,712.656C1166.16,694.459 1215.89,613.084 1292.63,608.331C1293.1,608.297 1293.57,608.271 1294.04,608.245C1296.19,608.134 1298.36,608.091 1300.54,608.108Z" style="fill:rgb(58,114,170);fill-rule:nonzero;"/>
            <path d="M1534.79,1035.97C1535.12,1044.78 1535.16,1050 1535.16,1050C1535.16,1050 1502.72,1064.16 1469.31,1055.18C1466.81,1054.52 1464.31,1053.71 1461.82,1052.77C1460.89,1049.02 1460,1044.77 1459.13,1040.13C1459.13,1040.13 1497.43,1050.49 1534.78,1035.97L1534.79,1035.97Z" style="fill:rgb(16,54,99);fill-rule:nonzero;"/>
            <path d="M1306.57,1144.01C1305.17,1152.59 1304.31,1157.69 1304.31,1157.69C1304.31,1157.69 1270.61,1173.79 1238.61,1153.66C1238.61,1153.66 1238.78,1148.6 1239,1140.05C1239,1140.05 1262.48,1157.26 1306.57,1144.01Z" style="fill:rgb(16,54,99);fill-rule:nonzero;"/>
            <path d="M1082.68,753.946C1078.59,756.043 1076.11,757.258 1076.11,757.258C1085,765.6 1081.98,779.383 1081.98,779.383C1084.71,779.501 1087.46,779.544 1090.2,779.502C1090.24,779.192 1092.26,762.044 1082.68,753.946Z" style="fill:rgb(35,101,155);fill-rule:nonzero;"/>
            <path d="M1546.31,670.929C1546.31,670.929 1543.75,673.144 1539.14,676.603L1539.14,676.601C1525.96,666.758 1528.29,653.73 1528.29,653.73L1528.32,653.409C1530.99,652.713 1533.72,651.975 1536.51,651.193C1536.51,651.193 1535.04,662.684 1546.31,670.929Z" style="fill:rgb(35,101,155);fill-rule:nonzero;"/>
            <path d="M1293.83,571.6C1291.98,571.6 1290.69,571.262 1290.66,571.253C1290.31,571.159 1290.11,570.805 1290.2,570.463C1290.3,570.121 1290.65,569.919 1290.99,570.012C1291.33,570.104 1299.37,572.181 1303.52,564.768C1303.69,564.458 1304.08,564.349 1304.39,564.521C1304.7,564.695 1304.81,565.087 1304.64,565.397C1301.71,570.623 1296.97,571.6 1293.83,571.6Z" style="fill:rgb(193,98,86);fill-rule:nonzero;"/>
            <path d="M1271.66,677.695C1271.08,679.059 1253.66,719.777 1229.71,742.761C1229.87,739.355 1230.02,735.966 1230.18,732.603C1230.19,732.594 1230.19,732.586 1230.19,732.586C1230.19,732.586 1255.17,706.359 1271.66,677.695Z" style="fill:rgb(35,101,155);fill-rule:nonzero;"/>
            <path d="M1376.93,711.18C1374.58,710.743 1372.31,710.297 1370.12,709.842C1370.12,709.842 1370.12,709.825 1370.11,709.782C1370.06,709.07 1369.48,702.155 1368.19,691.722L1368.19,691.68C1367.22,683.872 1365.87,674.092 1364.04,663.471L1364.04,663.453L1364.01,663.299C1364.01,663.299 1370.19,683.735 1376.93,711.18Z" style="fill:rgb(35,101,155);fill-rule:nonzero;"/>
            <path d="M1333.55,612.758C1333.55,612.99 1333.55,613.221 1333.54,613.462C1333.51,615.461 1333.25,617.64 1332.51,619.69C1330.84,624.383 1326.73,628.398 1317.45,628.021C1307.22,627.609 1301.11,623.148 1297.52,618.575C1294.98,615.358 1293.7,612.098 1293.1,610.141C1292.77,609.095 1292.64,608.417 1292.63,608.331L1292.63,608.323L1294.04,608.245C1296.19,608.134 1298.36,608.091 1300.54,608.108C1300.54,617.983 1317.63,624.443 1323.54,620.171C1328.46,616.61 1326.66,610.227 1326.56,609.876C1326.55,609.876 1326.56,609.867 1326.56,609.867C1326.58,609.876 1326.61,609.884 1326.63,609.893C1327.11,610.09 1329.58,611.077 1333.55,612.758Z" style="fill:rgb(35,101,155);fill-rule:nonzero;"/>
            <path d="M1053.94,767.923C1053.94,767.923 1035.81,766.844 1024.74,776.017C1013.68,785.19 1006.47,800.462 1006.47,800.462C1006.47,800.462 1018.94,803.122 1020.05,809.312C1020.05,809.312 1034.61,797.171 1039.69,788.996C1044.76,780.821 1053.94,767.923 1053.94,767.923Z" style="fill:rgb(249,147,112);fill-rule:nonzero;"/>
            <path d="M816.348,758.35C816.348,758.35 789.125,731.087 751.687,773.516C714.248,815.944 737.612,815.888 678.638,837.513C629.582,855.5 615.12,910.56 680.001,926.616C742.029,941.967 781.485,892.234 818.601,894.779C855.718,897.325 860.241,817.829 848.422,797.778C836.602,777.727 816.348,758.35 816.348,758.35Z" style="fill:rgb(201,40,40);fill-rule:nonzero;"/>
            <path d="M831.197,924.823C870.52,929.145 912.531,924.148 946.898,903.083C984.411,877.928 1015.5,841.14 1029.51,797.87C1031.45,792.245 1025.62,786.465 1020.04,788.38C1019.86,788.586 1012.28,790.487 1012.3,790.942C1009.88,794.463 1007.32,797.88 1004.64,801.223C970.053,843.493 920.178,878.403 863.293,874.039C854.803,873.867 846.283,873.218 837.878,872.141C803.353,868.433 796.749,919.753 831.197,924.823Z" style="fill:rgb(249,147,112);fill-rule:nonzero;"/>
            <path d="M943.052,904.807C943.052,904.807 942.872,908.582 940.598,912.803L940.59,912.803C932.002,926.204 898.791,933.857 867.974,933.548C864.723,933.523 861.505,933.402 858.339,933.196C854.264,932.922 850.284,932.502 846.474,931.918C844.535,916.964 832.91,880.734 831.006,865.909C841.455,864.656 859.489,868.714 877.008,869.95C894.922,872.566 909.481,859.311 921.535,865.325C921.535,865.325 920.342,893.68 943.052,904.807Z" style="fill:rgb(147,88,224);fill-rule:nonzero;"/>
            <path d="M578.497,1248.1C578.497,1248.1 599.19,1245 615.979,1240.23L622.055,1277.02L582.87,1275.05C582.87,1275.05 570.383,1265.09 578.497,1248.1Z" style="fill:rgb(249,147,112);fill-rule:nonzero;"/>
            <path d="M793.129,1398.98L796.374,1374.9L828.675,1375.21C828.675,1375.21 824.416,1385.73 820.422,1399.28C820.422,1399.28 806.474,1411.1 793.129,1398.98Z" style="fill:rgb(249,147,112);fill-rule:nonzero;"/>
            <path d="M816.415,758.743C852.236,748.121 851.172,807.157 847.688,818.738L816.415,758.743Z" style="fill:rgb(201,40,40);fill-rule:nonzero;"/>
            <path d="M559.409,1247.7C557.275,1248.32 555.259,1249.26 553.529,1250.66L564.078,1315.66C564.591,1318.82 568.071,1320.6 570.882,1319.07C570.915,1319.05 570.949,1319.03 570.982,1319.01C577.407,1315.48 586.191,1305.16 582.87,1275.05C582.87,1275.05 578.183,1265.35 578.497,1248.1C578.497,1248.1 568.056,1245.19 559.409,1247.7Z" style="fill:rgb(29,63,112);fill-rule:nonzero;"/>
            <path d="M570.982,1319.01L559.409,1247.7C557.275,1248.32 555.259,1249.26 553.529,1250.66L564.078,1315.66C564.591,1318.82 568.071,1320.6 570.882,1319.07L570.982,1319.01Z" style="fill:rgb(57,91,150);fill-rule:nonzero;"/>
            <path d="M789.472,1417.72C789.714,1419.93 790.299,1422.08 791.384,1424.02L857.208,1424.74C860.409,1424.78 862.76,1421.65 861.732,1418.62C861.72,1418.59 861.707,1418.55 861.695,1418.51C859.314,1411.58 850.652,1401.16 820.422,1399.28C820.422,1399.28 810.066,1402.24 793.129,1398.98C793.129,1398.98 788.479,1408.77 789.472,1417.72Z" style="fill:rgb(29,63,112);fill-rule:nonzero;"/>
            <path d="M861.695,1418.51L789.472,1417.72C789.714,1419.93 790.299,1422.08 791.384,1424.02L857.208,1424.74C860.409,1424.78 862.76,1421.65 861.732,1418.62L861.695,1418.51Z" style="fill:rgb(57,91,150);fill-rule:nonzero;"/>
            <path d="M598.905,1280.49C601.933,1281.13 605.312,1281.68 608.998,1282.15C608.998,1282.15 609.009,1282.15 609.021,1282.16C655.843,1288.18 751.734,1280.73 786.116,1243.83L786.116,1243.82C790.811,1238.92 795.154,1233.79 799.157,1228.49C829.503,1188.31 840.843,1137.21 844.63,1086.11C845.946,1068.41 846.354,1050.72 846.331,1033.47C839.675,994.373 803.75,982.931 775.434,992.49C753.242,999.964 735.71,1020.33 740.575,1050.36L740.575,1050.23C749.08,1074.57 750.804,1097.21 747.005,1117.84C735.971,1177.63 678.523,1220.39 605.312,1237.65C601.355,1238.58 597.352,1239.44 593.315,1240.22C593.315,1240.22 588.404,1263.12 598.905,1280.49Z" style="fill:rgb(232,192,166);fill-rule:nonzero;"/>
            <path d="M789.477,1022.58L841.038,1106.35L842.797,1105.37C843.596,1098.47 844.245,1091.42 844.744,1084.21C845.093,1079.45 845.368,1074.63 845.592,1069.73C846.079,1059.21 846.316,1048.4 846.328,1037.26L828.671,1032.3L789.477,1022.58Z" style="fill:rgb(209,166,143);fill-rule:nonzero;"/>
            <path d="M779.224,1250.21C779.224,1250.21 792.489,1239.04 799.157,1228.49C818.021,1198.62 818.995,1196.3 829.477,1161.81L817.36,1094.88L746.683,1090.39C747.257,1104.84 749.766,1111.13 743.704,1131.15C743.704,1131.15 780.846,1162.87 779.224,1250.21Z" style="fill:rgb(209,166,143);fill-rule:nonzero;"/>
            <path d="M727.602,1096.11C734.129,1103.77 741.085,1110.55 747.005,1117.84C776.012,1153.54 792.183,1190.36 799.157,1228.49C807.288,1272.8 802.99,1318.88 792.035,1366.99C791.174,1370.77 790.278,1374.54 789.337,1378.34C789.337,1378.34 816.191,1387.34 831.147,1380.67C832.735,1377.31 834.288,1373.98 835.796,1370.67L835.796,1370.65C880.499,1273.02 893.687,1196.92 844.63,1086.11C834.98,1064.32 822.926,1041.17 808.218,1016.25C797.91,1003.64 786.592,996.029 775.434,992.49C728.736,977.658 681.596,1042.19 727.602,1096.11Z" style="fill:rgb(232,192,166);fill-rule:nonzero;"/>
            <path d="M845.839,1027.52C846.328,1034.29 846.328,1037.56 846.328,1037.56C759.351,1055.03 711.925,1030.64 711.925,1030.64C711.401,1030.82 711.461,1027.74 711.993,1022.38C713.066,1011.63 716.025,991.716 720.015,970.602C720.727,966.845 721.473,963.053 722.245,959.252C727.65,932.699 734.42,906.489 740.871,896.048C753.92,859.32 798.49,853.186 826.75,864.802C831.16,866.424 852.754,904.267 857.284,918.989C864.928,943.835 838.813,962.649 842.065,994.041C844.252,1009.29 845.325,1020.35 845.839,1027.52Z" style="fill:rgb(147,88,224);fill-rule:nonzero;"/>
            <path d="M794.356,865.6C795.517,866.723 796.415,867.696 795.404,869.43C793.62,872.5 795.217,880.349 799.547,881.884C800.52,882.233 801.643,882.258 802.904,881.822C809.704,879.488 809.916,882.458 815.12,887.974C820.323,893.501 825.639,890.531 827.661,885.852C829.682,881.185 834.137,884.155 835.397,878.627C835.709,877.267 835.659,875.957 835.397,874.746C834.736,871.552 831.005,865.905 831.005,865.905C831.005,865.905 827.074,864.664 826.75,864.801C816.33,858.911 803.814,857.851 791.985,859.648L791.973,859.648C791.349,862.805 793.021,864.302 794.356,865.6Z" style="fill:rgb(118,64,204);fill-rule:nonzero;"/>
            <path d="M829.297,846.003L826.685,864.827C826.685,864.827 832.291,878.622 820.008,877.571C802.508,876.073 799.218,858.925 799.218,858.925L801.979,843.681L829.297,846.003Z" style="fill:rgb(249,147,112);fill-rule:nonzero;"/>
            <path d="M801.979,843.681L800.744,850.497C811.701,857.148 825.425,856.656 827.847,856.452L829.297,846.003L801.979,843.681Z" style="fill:rgb(229,125,97);fill-rule:nonzero;"/>
            <path d="M849.828,839.048C840.584,849.474 825.679,853.065 813.497,851.086C808.432,850.344 803.646,848.555 799.583,845.52L799.568,845.522C782.996,831.773 776.715,802.688 785.129,783.57C797.297,755.531 832.201,758.133 841.486,787.41C843.282,791.812 846.521,796.594 850.424,800.079C860.777,809.504 861.581,825.064 849.828,839.048Z" style="fill:rgb(249,147,112);fill-rule:nonzero;"/>
            <path d="M841.324,823.554L824.992,816.225C824.992,816.225 824.486,824.958 830.904,826.995C837.038,828.943 841.324,823.554 841.324,823.554Z" style="fill:rgb(249,248,243);fill-rule:nonzero;"/>
            <path d="M790.418,823.832C790.418,823.832 791.866,835.599 802.426,847.378C801.44,846.817 800.493,846.194 799.583,845.52L799.568,845.522C782.998,831.773 776.714,802.688 785.129,783.57C791.321,767.164 811.793,757.305 828.282,768.874C828.282,768.874 836.703,793.67 791.778,815.282L790.418,823.832Z" style="fill:rgb(229,125,97);fill-rule:nonzero;"/>
            <path d="M828.158,802.613C828.571,801.684 828.154,800.596 827.226,800.182C826.298,799.768 825.21,800.185 824.796,801.113C824.383,802.042 824.799,803.13 825.728,803.544C826.656,803.958 827.744,803.541 828.158,802.613Z" style="fill:rgb(193,98,86);fill-rule:nonzero;"/>
            <path d="M823.548,765.689C823.548,765.689 830.72,791.827 790.154,811.087L779.977,817.301C779.977,817.301 771.025,799.706 778.031,778.982C785.037,758.259 817.8,750.113 823.548,765.689Z" style="fill:rgb(201,40,40);fill-rule:nonzero;"/>
            <path d="M843.476,799.232C843.89,798.304 843.473,797.216 842.544,796.802C841.616,796.388 840.528,796.805 840.115,797.733C839.701,798.661 840.118,799.75 841.046,800.164C841.974,800.578 843.062,800.161 843.476,799.232Z" style="fill:rgb(193,98,86);fill-rule:nonzero;"/>
            <path d="M841.442,824.24C841.31,824.263 841.17,824.248 841.039,824.189L824.707,816.86C824.356,816.703 824.199,816.291 824.357,815.94C824.513,815.59 824.928,815.433 825.276,815.59L841.609,822.918C841.96,823.076 842.117,823.488 841.96,823.839C841.862,824.058 841.662,824.203 841.442,824.24Z" style="fill:rgb(193,98,86);fill-rule:nonzero;"/>
            <path d="M839.506,815.396C838.435,815.579 837.334,815.578 836.389,815.326C836.018,815.227 835.796,814.847 835.895,814.474C835.994,814.101 836.378,813.882 836.747,813.981C839.116,814.609 842.358,813.272 842.754,812.195C842.894,811.815 842.375,811.473 841.915,811.253C837.866,809.316 834.841,801.987 834.714,801.676C834.569,801.32 834.74,800.914 835.096,800.768C835.462,800.617 835.858,800.795 836.004,801.15C836.033,801.222 838.953,808.292 842.516,809.995C844.459,810.925 844.244,812.18 844.062,812.676C843.585,813.971 841.602,815.038 839.506,815.396Z" style="fill:rgb(193,98,86);fill-rule:nonzero;"/>
            <path d="M774.805,818.975C776.333,824.742 781.332,828.421 785.971,827.192C790.609,825.963 793.131,820.292 791.604,814.524C790.076,808.757 785.078,805.078 780.439,806.307C775.8,807.536 773.278,813.207 774.805,818.975Z" style="fill:rgb(249,147,112);fill-rule:nonzero;"/>
            <path d="M785.538,810.68C769.673,805.862 782.745,833.699 778.801,814.922C782.858,815.424 785.088,819.866 785.111,819.914C788.592,821.619 784.176,814.016 779.059,813.544C779.973,809.472 787.934,813.769 785.538,810.68Z" style="fill:rgb(193,98,86);fill-rule:nonzero;"/>
            <path d="M782.73,824.956C782.774,825.818 783.508,826.482 784.37,826.438C785.233,826.395 785.896,825.66 785.852,824.797C785.809,823.935 785.074,823.271 784.212,823.315C783.35,823.359 782.686,824.093 782.73,824.956Z" style="fill:rgb(244,212,190);fill-rule:nonzero;"/>
            <path d="M653.251,1090.87C649.394,1091.29 649.895,1082.09 647.584,1079.41C644.35,1084.74 642.632,1091.04 642.594,1091.06C641.949,1098.76 641.721,1106.47 641.842,1114.2C636.06,1124.42 636.174,1094.87 635.656,1091.97C635.618,1091.97 635.58,1091.96 635.542,1091.95C633.2,1099.7 631.278,1107.58 630.032,1115.57C621.777,1124.75 629.07,1092.62 629.446,1089.58C629.429,1089.57 629.413,1089.56 629.396,1089.55C625.961,1096.46 623.369,1103.8 621.589,1111.31C612.449,1119.81 622.389,1087.76 623.745,1084.97C623.724,1084.94 623.703,1084.92 623.681,1084.9C620.193,1089.93 617.348,1095.41 614.805,1100.99C605.155,1107.69 617.696,1081.18 619.215,1078.76C619.425,1076.56 625.348,1064.14 632.224,1054.07C634.772,1050.34 649.857,1051 651.401,1055.17C652.849,1059.07 654.421,1072.05 654.651,1074.09C655.745,1077.99 657.201,1088.37 653.251,1090.87Z" style="fill:rgb(249,147,112);fill-rule:nonzero;"/>
            <path d="M913.684,871.214C915.785,878.325 909.155,878.604 912.893,885.815C916.63,893.025 923.763,889.589 926.259,902.729C928.715,915.677 940.24,912.895 940.586,912.803L940.598,912.806C942.869,908.584 943.938,904.845 943.938,904.845C921.223,893.722 921.529,865.006 921.529,865.006C918.748,862.796 915.189,863.011 911.057,863.997C911.9,866.082 912.95,868.706 913.684,871.214Z" style="fill:rgb(118,64,204);fill-rule:nonzero;"/>
            <path d="M819.388,798.24C819.481,798.224 819.574,798.194 819.663,798.148C825.367,795.177 828.594,790.031 828.728,789.814C828.999,789.375 828.864,788.799 828.425,788.526C827.986,788.256 827.41,788.391 827.136,788.829C827.106,788.878 824.032,793.761 818.797,796.487C818.339,796.727 818.162,797.292 818.4,797.751C818.593,798.12 818.998,798.307 819.388,798.24Z" style="fill:rgb(193,98,86);fill-rule:nonzero;"/>
            <path d="M842.393,791.054C842.823,790.981 843.155,790.612 843.169,790.159C843.184,789.643 842.778,789.212 842.262,789.197C842.225,789.195 838.534,789.052 835.321,786.642C834.907,786.33 834.32,786.418 834.011,786.829C833.701,787.243 833.784,787.83 834.198,788.14C837.903,790.918 842.035,791.062 842.209,791.067C842.272,791.069 842.333,791.064 842.393,791.054Z" style="fill:rgb(193,98,86);fill-rule:nonzero;"/>
            <path d="M792.035,1366.99C791.174,1370.77 790.278,1374.54 789.337,1378.34C789.337,1378.34 815.681,1387.85 831.147,1380.67C832.735,1377.31 834.288,1373.98 835.796,1370.67C835.796,1370.67 822.517,1378.03 792.035,1366.99Z" style="fill:rgb(209,166,143);fill-rule:nonzero;"/>
            <path d="M598.905,1280.49C601.933,1281.13 605.312,1281.68 608.998,1282.15C608.998,1282.15 599.835,1267.18 605.312,1237.65C601.355,1238.58 597.352,1239.44 593.315,1240.22C593.315,1240.22 588.404,1263.12 598.905,1280.49Z" style="fill:rgb(209,166,143);fill-rule:nonzero;"/>
            <path d="M773.836,916.414C722.563,940.467 700.488,967.761 674.703,1016.79C666.557,1031.86 658.95,1047.41 652.235,1063.19C647.414,1075.22 628.333,1068.81 631.716,1056.35C640.994,1018.68 655.65,982.733 674.638,948.789C693.234,917.516 721.674,892.968 753.279,875.535C780.738,861.489 801.551,902.69 773.836,916.414Z" style="fill:rgb(249,147,112);fill-rule:nonzero;"/>
            <path d="M768.248,925.484C750.72,929.868 735.878,953.015 724.553,960.899C720.633,963.627 717.012,965.378 713.949,966.502C708.184,968.612 704.418,968.483 704.418,968.483C697.846,950.081 676.578,945.585 676.578,945.585C673.137,942.188 671.524,938.121 671.447,933.565C671.13,916.638 693.558,896.926 720.831,876.13C754.205,850.675 789.17,860.062 789.17,860.062C804.939,889.867 785.767,921.108 768.248,925.484Z" style="fill:rgb(147,88,224);fill-rule:nonzero;"/>
            <path d="M784.197,906.721C782.498,909.526 756.112,954.311 719.435,973.7C720.147,969.942 720.748,966.659 721.52,962.859C721.52,962.859 760.998,940.455 784.197,906.721Z" style="fill:rgb(118,64,204);fill-rule:nonzero;"/>
            <path d="M867.974,933.548C864.723,933.523 861.505,933.402 858.339,933.196C857.636,913.902 849.16,900.26 848.894,899.84C859.06,911.028 864.988,924.883 867.974,933.548Z" style="fill:rgb(118,64,204);fill-rule:nonzero;"/>
            <path d="M713.949,966.502C708.184,968.612 704.418,968.483 704.418,968.483C697.846,950.081 676.578,945.585 676.578,945.585C673.137,942.188 671.524,938.121 671.447,933.565C677.899,933.094 679.435,942.282 685.346,942.943C691.257,943.595 694.328,940.918 698.927,944.006C703.525,947.104 701.115,954.113 704.838,958.274C708.561,962.435 713.906,959.475 713.949,966.502Z" style="fill:rgb(118,64,204);fill-rule:nonzero;"/>
            <path d="M846.328,1037.56C759.351,1055.03 711.925,1030.64 711.925,1030.64C711.401,1030.82 711.461,1027.74 711.993,1022.38C715.657,1021.72 720.298,1022.01 724.991,1025.3C735.286,1032.53 730.43,1035.16 743.042,1034.72C755.662,1034.28 750.84,1029.24 758.725,1032.53C766.609,1035.81 767.707,1041.73 775.154,1039.97C782.601,1038.22 781.512,1035.16 787.097,1036.04C792.682,1036.91 796.843,1042.37 804.29,1040.29C811.737,1038.22 812.68,1032.77 817.905,1033.09C823.13,1033.4 827.728,1038 832.327,1037.13C836.368,1036.35 839.105,1029 845.839,1027.52C846.328,1034.29 846.328,1037.56 846.328,1037.56Z" style="fill:rgb(118,64,204);fill-rule:nonzero;"/>
            <path d="M1555.2,643.503C1555.2,643.503 1564.81,628.087 1578.7,624.372C1592.58,620.656 1611.59,623.978 1611.59,623.978C1611.59,623.978 1606.19,628.564 1608.22,643.605C1608.22,643.605 1590.24,644.661 1580.64,644.068C1571.03,643.475 1555.2,643.503 1555.2,643.503Z" style="fill:rgb(229,125,97);fill-rule:nonzero;"/>
            <path d="M1747.54,418.048C1747.54,418.048 1733.86,417.728 1726.34,432.31C1717.4,449.628 1728.75,462.737 1725.37,474.389C1721.98,486.042 1716.14,494.32 1720.72,505.995C1725.31,517.67 1717.72,524.964 1721.66,534.563C1725.6,544.162 1731.51,543.846 1731.25,556.732C1730.99,569.618 1742.29,580.598 1752.68,572.956C1763.08,565.313 1768.84,582.065 1785.45,571.612C1802.06,561.159 1802.75,548.851 1822.02,545.379C1841.3,541.907 1833.65,515.139 1849.99,505.183C1866.34,495.227 1864.92,479.538 1851.25,468.858C1837.57,458.178 1828.7,455.528 1818.75,429.766C1807.55,400.773 1765.78,388.24 1747.54,418.048Z" style="fill:rgb(102,41,72);fill-rule:nonzero;"/>
            <path d="M1804.16,554.19C1790.27,591.888 1767.59,633.169 1726.71,646.253C1687.73,655.705 1647.55,651.425 1608.87,643.644C1594.7,643.102 1593.78,623.697 1608.33,623.795C1643.08,625.365 1679.62,625.374 1712.95,614.924C1742.43,604.006 1755.67,569.816 1766.06,542.206C1774.05,516.692 1812.24,528.606 1804.16,554.19Z" style="fill:rgb(229,125,97);fill-rule:nonzero;"/>
            <path d="M1795.33,607.43C1793.37,612.055 1791.1,616.379 1788.6,620.42C1784.54,626.957 1779.85,632.74 1774.67,637.827C1773.7,638.797 1772.71,639.732 1771.7,640.641C1750.51,659.816 1722.53,668.095 1699.24,668.558C1673.38,669.073 1637.29,660.579 1620.63,651.931C1615.47,649.255 1612.17,646.561 1611.62,644.116C1609.29,633.786 1614.54,624.083 1614.54,624.083C1616.24,622.058 1619.92,620.428 1624.81,619.081C1642.21,614.277 1674.92,613.024 1688.14,610.064C1705.09,606.264 1731.36,596.337 1746.85,562.458C1756.12,542.159 1765.86,532.147 1772.17,527.394C1776.39,524.211 1779.33,523.438 1779.33,523.438C1779.33,523.438 1789.92,536.153 1796.25,554.976C1796.73,556.392 1797.19,557.85 1797.6,559.335C1801.57,573.37 1802.66,590.212 1795.33,607.43Z" style="fill:rgb(235,86,72);fill-rule:nonzero;"/>
            <path d="M1788.6,620.42C1783.78,628.192 1778.04,634.901 1771.7,640.641C1766.74,634.327 1757.18,620.239 1755.88,603.913C1754.09,581.701 1770.37,555.482 1770.37,555.482L1788.6,620.42Z" style="fill:rgb(206,57,50);fill-rule:nonzero;"/>
            <path d="M2027.69,1077.59L2079.64,1034.92C2078.26,1031.42 2065.38,1020.97 2062.08,1015.92C2060.51,1013.94 2044.06,994.836 2042.66,992.725L2023.28,974.221L2000.38,993.033L2036.75,1027.49C2041.07,1031.58 2041.86,1038.15 2038.67,1043.16C2032.08,1054.68 2019.76,1061.87 2019.7,1074.41C2020.15,1078.25 2024.7,1080.05 2027.69,1077.59Z" style="fill:rgb(249,147,112);fill-rule:nonzero;"/>
            <path d="M2077.12,1028.62C2078.35,1030.55 2079.26,1032.66 2079.65,1034.92L2027.19,1078.01C2024.63,1080.1 2020.73,1079.11 2019.6,1076.01C2016.97,1068.75 2017.18,1054.91 2040.33,1033.79C2040.33,1033.79 2050.56,1029.48 2062.08,1015.92C2062.08,1015.92 2072.14,1020.79 2077.12,1028.62Z" style="fill:rgb(29,63,112);fill-rule:nonzero;"/>
            <path d="M2019.56,1075.9L2077.12,1028.62C2078.35,1030.55 2079.26,1032.66 2079.65,1034.92L2027.19,1078.01C2024.6,1080.14 2020.62,1079.07 2019.56,1075.9Z" style="fill:rgb(57,91,150);fill-rule:nonzero;"/>
            <path d="M1774.59,511.474L1779.33,523.438C1779.33,523.438 1785.67,594.366 1797.77,594.353C1819.2,594.33 1805.04,518.066 1806.16,513.863C1806.16,513.863 1802.26,505.901 1800.93,502.042L1774.59,511.474Z" style="fill:rgb(249,147,112);fill-rule:nonzero;"/>
            <path d="M1769.51,1093.64L1836.74,1093.74C1837.9,1090.16 1834.61,1073.91 1835.27,1067.91C1835.31,1065.38 1836.14,1051.56 1836.4,1049.05L1831.84,1011.05L1802.21,1011.01L1808.37,1060.73C1809.1,1066.63 1805.53,1072.2 1799.88,1074.05C1787.47,1078.74 1773.39,1076.46 1765.36,1086.1C1763.27,1089.35 1765.64,1093.63 1769.51,1093.64Z" style="fill:rgb(249,147,112);fill-rule:nonzero;"/>
            <path d="M1838.8,1087.27C1838.52,1089.55 1837.89,1091.75 1836.74,1093.74L1768.85,1093.64C1765.55,1093.63 1763.17,1090.38 1764.27,1087.27C1766.86,1080 1775.82,1069.45 1807.12,1067.87C1807.12,1067.87 1817.76,1071.05 1835.27,1067.91C1835.27,1067.91 1839.94,1078.06 1838.8,1087.27Z" style="fill:rgb(29,63,112);fill-rule:nonzero;"/>
            <path d="M1764.31,1087.16L1838.8,1087.27C1838.52,1089.55 1837.89,1091.75 1836.74,1093.74L1768.85,1093.64C1765.51,1093.64 1763.12,1090.28 1764.31,1087.16Z" style="fill:rgb(57,91,150);fill-rule:nonzero;"/>
            <path d="M1793.19,474.149C1793.3,474.628 1793.39,475.119 1793.46,475.604C1792.7,475.434 1797.29,492.558 1801.85,504.521C1792.56,513.925 1779.28,516.667 1776.81,517.072C1770.77,502.019 1766.78,487.488 1765.69,477.973C1764.65,461.569 1789.72,458.109 1793.19,474.149Z" style="fill:rgb(229,125,97);fill-rule:nonzero;"/>
            <path d="M1803.81,455.121C1807.23,467.347 1809.31,481.947 1803.79,493.621L1803.77,493.628C1788.66,527.198 1723.48,515.965 1735.58,476.489C1739.91,466.043 1735.81,452.961 1738.63,443.257C1749.68,406.105 1796.54,423.28 1803.81,455.121Z" style="fill:rgb(249,147,112);fill-rule:nonzero;"/>
            <path d="M1757.27,490.67L1765.82,483.436C1768.09,489.125 1762.82,494.325 1757.27,490.67Z" style="fill:rgb(249,248,243);fill-rule:nonzero;"/>
            <path d="M1757.13,468.143C1755.18,466.646 1757.58,463.612 1759.49,465.165C1761.44,466.663 1759.04,469.697 1757.13,468.143Z" style="fill:rgb(193,98,86);fill-rule:nonzero;"/>
            <path d="M1741.52,472.391C1739.57,470.894 1741.97,467.86 1743.88,469.414C1745.83,470.911 1743.43,473.945 1741.52,472.391Z" style="fill:rgb(193,98,86);fill-rule:nonzero;"/>
            <path d="M1757.32,491.103C1757.6,491.146 1765.88,483.865 1766.1,483.768C1766.29,483.613 1766.31,483.338 1766.15,483.155C1765.95,482.093 1757.25,490.397 1756.99,490.338C1756.66,490.597 1756.91,491.166 1757.32,491.103Z" style="fill:rgb(193,98,86);fill-rule:nonzero;"/>
            <path d="M1778.86,1031.17C1779.92,1039.07 1780.64,1043.4 1780.64,1043.4C1808.99,1052.84 1846.87,1054.89 1872.13,1045.26C1851.37,973.289 1859.82,777.666 1874.54,753.544C1874.54,753.544 1926.14,926.43 1977.95,1023.05C1980.14,1027.13 1982.33,1031.07 1984.52,1034.84C1984.52,1034.84 2043.45,1035.52 2073.8,983.13C2073.8,983.13 2070.58,979.334 2065.5,972.449C2050.25,951.805 2018.19,909.729 2005.49,852.366C1977.2,724.544 1944.22,666.322 1920.06,643.99C1886.64,613.112 1817.52,650.029 1795.24,694.29C1764.09,792.538 1766.66,950.576 1778.86,1031.17Z" style="fill:rgb(29,63,112);fill-rule:nonzero;"/>
            <path d="M1752.89,485.246C1753.95,484.764 1756.47,484.087 1755.74,482.675C1755.48,482.383 1755.02,482.365 1754.73,482.632C1752.87,484.34 1749.26,484.672 1748.39,483.878C1748.08,483.599 1748.39,483.038 1748.7,482.617C1751.51,479.094 1751.5,466.631 1749.27,470.564C1749.27,470.644 1749.99,478.495 1747.55,481.757C1745.05,485.98 1749.78,486.174 1752.89,485.246Z" style="fill:rgb(193,98,86);fill-rule:nonzero;"/>
            <path d="M1803.81,455.121C1807.23,467.347 1809.31,481.947 1803.79,493.621L1803.77,493.628C1805.9,485.145 1802.63,469.874 1802.63,469.874L1797.43,464.805C1752.02,470.286 1741.02,437.094 1741.02,437.094C1756.15,406.404 1796.99,426.661 1803.81,455.121Z" style="fill:rgb(229,125,97);fill-rule:nonzero;"/>
            <path d="M1743.67,432.229C1743.67,432.229 1754.92,464.988 1796.22,461.516L1805.69,448.654C1806.86,418.649 1767.99,393.347 1743.67,432.229Z" style="fill:rgb(102,41,72);fill-rule:nonzero;"/>
            <path d="M1813.7,457.535C1817.06,471.592 1799.27,475.646 1796.22,461.515C1792.86,447.459 1810.65,443.405 1813.7,457.535Z" style="fill:rgb(249,147,112);fill-rule:nonzero;"/>
            <path d="M1810.75,462.133C1812.13,458.087 1808.46,452.924 1806.61,452.599C1803.09,451.744 1799,454.973 1799.94,456.116C1801.36,457.03 1802.7,453.072 1806.17,453.965C1809.63,454.678 1808.71,461.76 1810.75,462.133Z" style="fill:rgb(193,98,86);fill-rule:nonzero;"/>
            <path d="M1804.24,464.03C1805.54,463.342 1803.79,458.271 1808.67,455.39C1809.02,455.2 1809.15,454.764 1808.96,454.416C1804.12,453.37 1801.93,465.424 1804.24,464.03Z" style="fill:rgb(193,98,86);fill-rule:nonzero;"/>
            <path d="M1809.32,466.789C1810.23,468.674 1807.24,470.051 1806.39,468.139C1805.49,466.253 1808.47,464.877 1809.32,466.789Z" style="fill:rgb(244,212,190);fill-rule:nonzero;"/>
            <path d="M1920.06,643.996C1888.64,670.085 1840.5,697.737 1795.23,694.288C1795.23,694.296 1789,690.993 1789.46,681.727C1790.5,660.434 1782.6,648.766 1774.67,637.827C1763.93,623.028 1753.13,609.575 1764.35,575.43C1767.12,567.082 1771.19,552.806 1774.54,540.537C1776.38,533.751 1778.26,527.651 1779.33,523.438C1785.89,549.7 1791.71,558.211 1796.25,554.976C1801.19,551.467 1804.33,533.966 1804.35,510.055C1807.28,509.574 1810.2,509.377 1813.09,509.454C1848.36,510.329 1880.72,551.021 1906.01,599.005C1908.35,603.45 1910.63,607.954 1912.84,612.492C1914.28,614.663 1915.74,616.945 1917.09,619.296C1919.07,622.779 1920.78,626.425 1921.65,630.123C1922.75,634.739 1922.57,639.431 1920.06,643.996Z" style="fill:rgb(235,86,72);fill-rule:nonzero;"/>
            <path d="M1977.95,1023.05C1980.14,1027.13 1982.33,1031.07 1984.52,1034.84C1984.52,1034.84 2043.45,1035.52 2073.8,983.13C2073.8,983.13 2070.58,979.334 2065.5,972.449C2065.5,972.449 2038.92,1016.66 1977.95,1023.05Z" style="fill:rgb(22,51,86);fill-rule:nonzero;"/>
            <path d="M1762.2,460.451C1761.93,460.584 1761.59,460.567 1761.32,460.377C1756.9,457.264 1753.25,457.93 1753.21,457.937C1752.74,458.029 1752.27,457.722 1752.18,457.249C1752.08,456.776 1752.38,456.314 1752.86,456.217C1753.04,456.181 1757.25,455.366 1762.33,458.943C1762.72,459.222 1762.82,459.769 1762.54,460.165C1762.45,460.292 1762.33,460.388 1762.2,460.451Z" style="fill:rgb(193,98,86);fill-rule:nonzero;"/>
            <path d="M1738.92,465.308C1738.59,465.464 1738.19,465.408 1737.92,465.137C1737.58,464.795 1737.57,464.242 1737.92,463.899C1737.99,463.824 1739.78,462.046 1744.71,459.101C1745.14,458.847 1745.67,458.988 1745.92,459.404C1746.17,459.82 1746.03,460.359 1745.61,460.607C1740.91,463.418 1739.17,465.121 1739.16,465.138C1739.09,465.21 1739,465.266 1738.92,465.308Z" style="fill:rgb(193,98,86);fill-rule:nonzero;"/>
            <path d="M1921.33,641.126C1921.33,641.126 1854.63,693.312 1793.19,692.664C1793.19,692.664 1792.67,694.395 1794.17,697.718C1794.17,697.718 1855.1,704.084 1922.72,646.56C1922.72,646.56 1924.79,643.34 1921.33,641.126Z" style="fill:rgb(206,57,50);fill-rule:nonzero;"/>
            <path d="M1858.47,1049.09C1867.29,1047.32 1872.13,1045.26 1872.13,1045.26C1861.5,987.208 1859.5,937.77 1859.81,894.708C1860.45,807.827 1874.54,753.546 1874.54,753.546C1874.54,753.546 1865.33,748.696 1861.74,740.325C1861.74,740.325 1821.69,906.825 1858.47,1049.09Z" style="fill:rgb(22,51,86);fill-rule:nonzero;"/>
            <path d="M1778.86,1031.17C1779.92,1039.07 1780.64,1043.41 1780.64,1043.41C1808.98,1052.83 1846.87,1054.9 1872.13,1045.26C1871.47,1041.69 1870.85,1038.13 1870.25,1034.6C1870.25,1034.6 1822.8,1045.05 1778.86,1031.17Z" style="fill:rgb(22,51,86);fill-rule:nonzero;"/>
            <path d="M1921.65,630.123C1914.57,621.26 1899.69,606.186 1874.48,595.977C1836.8,580.723 1826.23,548.197 1826.23,548.197L1906.01,599.005C1908.35,603.45 1910.63,607.954 1912.84,612.492C1916.4,617.88 1920.19,623.929 1921.65,630.123Z" style="fill:rgb(206,57,50);fill-rule:nonzero;"/>
            <path d="M1858.27,515.742C1886.44,534.686 1914.4,554.484 1938.82,578.221C1956.87,597.436 1969.89,620.572 1981.01,644.162C1983.97,654.683 1999.83,672.932 1985.23,680.134C1975.28,683.75 1971.59,672.038 1967.16,665.679C1960.74,655.589 1953.87,645.621 1946.72,636.122C1936.94,623.307 1926.26,610.597 1913.88,600.741C1905.83,594.617 1896.03,587.877 1887.59,582.174C1871.27,571.308 1853.21,559.782 1836.61,549.307C1814.52,534.796 1835.84,501.557 1858.27,515.742Z" style="fill:rgb(249,147,112);fill-rule:nonzero;"/>
            <path d="M1970.77,699.536C1974.1,700.499 1974.1,690.792 1976.1,688.283C1979.34,693.419 1981.12,699.533 1981.16,699.549C1981.92,707.032 1982.27,714.543 1982.28,722.073C1982.23,724.485 1986.01,724.746 1986.26,722.314C1987.15,715.025 1987.73,707.673 1987.93,700.323C1987.97,700.317 1988.01,700.308 1988.04,700.302C1990.46,707.802 1992.46,715.448 1993.81,723.212C2001.92,732.542 1994.39,700.522 1993.94,697.894C1993.96,697.884 1993.97,697.874 1993.99,697.864C1997.45,704.534 2000.1,711.632 2001.97,718.919C2010.99,727.385 2000.78,695.793 1999.42,693.302C1999.44,693.28 1999.46,693.259 1999.48,693.237C2002.96,698.08 2005.83,703.367 2008.4,708.757C2017.83,715.305 2005.43,689.875 2004,687.654C2003.18,684.859 1998.67,675.847 1989.32,665.261C1986.4,661.955 1975.42,667.527 1973.98,671.608C1972.64,675.434 1972.27,680.953 1972.08,682.943C1971.1,686.243 1966.92,697.897 1970.77,699.536Z" style="fill:rgb(249,147,112);fill-rule:nonzero;"/>
            <path d="M1987.32,657.439C1987.32,657.439 1979.14,670.18 1969.18,668.387C1968.2,668.206 1965.01,666.842 1960.77,664.26C1954.39,660.382 1945.61,653.759 1938.26,644.296C1932.8,637.286 1926.76,628.561 1917.09,619.296C1907.16,609.798 1895.85,594.982 1874.99,585.657C1845.53,572.496 1832.79,563.307 1822.26,540.418C1818.07,531.306 1805.38,524.451 1804.35,510.055C1804.35,510.055 1807.47,508.802 1813.02,507.541C1826.68,504.453 1855.03,501.33 1887.43,516.875C1926.57,535.638 1982.19,603.896 1988.5,641.653C1989.53,647.856 1989.23,653.235 1987.32,657.439Z" style="fill:rgb(235,86,72);fill-rule:nonzero;"/>
            <path d="M1812.2,544.776C1811.46,554.179 1811.36,561.031 1807.86,562.895C1803.34,565.302 1799.23,561.231 1797.6,559.335C1797.07,558.726 1796.79,558.297 1796.79,558.297C1796.79,558.297 1794.6,572.093 1786.39,566.835C1780.05,562.782 1776.73,549.949 1774.54,540.537C1772.85,533.288 1772.17,527.394 1772.17,527.394C1776.4,523.957 1779.33,523.438 1779.33,523.438C1785.89,549.7 1791.71,558.211 1796.25,554.976C1801.19,551.467 1804.33,533.966 1804.35,510.055C1804.35,510.055 1807.47,508.802 1813.02,507.541L1813.07,507.541C1813.07,507.541 1813.07,508.228 1813.09,509.454C1813.16,514.997 1813.25,531.529 1812.2,544.776Z" style="fill:rgb(206,57,50);fill-rule:nonzero;"/>
            <path d="M1620.63,651.931C1615.47,649.255 1612.17,646.561 1611.62,644.116C1609.29,633.786 1614.54,624.083 1614.54,624.083C1616.24,622.058 1619.92,620.428 1624.81,619.081C1624.81,619.081 1615.11,636.042 1620.63,651.931Z" style="fill:rgb(206,57,50);fill-rule:nonzero;"/>
            <path d="M1987.32,657.439C1987.32,657.439 1979.14,670.18 1969.18,668.387C1968.2,668.206 1965.01,666.842 1960.77,664.26C1961.93,663.024 1977.53,660.013 1988.5,641.653C1989.53,647.856 1989.23,653.235 1987.32,657.439Z" style="fill:rgb(206,57,50);fill-rule:nonzero;"/>
        </g>
    </g>
</svg>
