<?xml version="1.0" encoding="UTF-8" standalone="no"?>
<!DOCTYPE svg PUBLIC "-//W3C//DTD SVG 1.1//EN" "http://www.w3.org/Graphics/SVG/1.1/DTD/svg11.dtd">
<svg width="100%" height="100%" viewBox="0 0 1786 1608" version="1.1" xmlns="http://www.w3.org/2000/svg" xmlns:xlink="http://www.w3.org/1999/xlink" xml:space="preserve" xmlns:serif="http://www.serif.com/" style="fill-rule:evenodd;clip-rule:evenodd;stroke-linejoin:round;stroke-miterlimit:2;">
    <g transform="matrix(1,0,0,1,-291.319,-161.572)">
        <g>
            <path d="M1988.4,1767.25C1971.84,1758.42 1928.33,1735.08 1874.57,1705.21C1805.64,1666.92 1791.85,1608.7 1755.08,1620.96C1718.32,1633.21 1539.08,1729.72 1436.44,1715.94C1333.81,1702.15 1343,1621.3 1304.7,1619.94C1261.81,1618.4 1182.91,1650.83 1128.53,1673.04C1033.4,1711.9 953.892,1715.94 940.104,1645.47C926.317,1575 851.253,1605.64 797.636,1625.55C753.658,1641.89 561.271,1734.49 493.519,1767.25L1988.4,1767.25Z" style="fill:rgb(176,232,255);fill-rule:nonzero;"/>
            <path d="M1483.95,1408.15C1483.95,1412.33 1480.57,1415.71 1476.39,1415.71C1472.21,1415.71 1468.82,1412.33 1468.82,1408.15C1468.82,1403.97 1472.21,1400.58 1476.39,1400.58C1480.57,1400.58 1483.95,1403.97 1483.95,1408.15Z" style="fill:rgb(102,217,255);fill-rule:nonzero;"/>
            <path d="M1551.54,1546.85C1551.54,1551.03 1548.15,1554.42 1543.97,1554.42C1539.8,1554.42 1536.41,1551.03 1536.41,1546.85C1536.41,1542.68 1539.8,1539.29 1543.97,1539.29C1548.15,1539.29 1551.54,1542.68 1551.54,1546.85Z" style="fill:rgb(102,217,255);fill-rule:nonzero;"/>
            <path d="M1367.44,1507.01C1367.44,1511.19 1364.05,1514.57 1359.87,1514.57C1355.7,1514.57 1352.31,1511.19 1352.31,1507.01C1352.31,1502.83 1355.7,1499.44 1359.87,1499.44C1364.05,1499.44 1367.44,1502.83 1367.44,1507.01Z" style="fill:rgb(102,217,255);fill-rule:nonzero;"/>
            <path d="M1295.31,1367.8C1295.31,1371.98 1291.93,1375.36 1287.75,1375.36C1283.57,1375.36 1280.18,1371.98 1280.18,1367.8C1280.18,1363.62 1283.57,1360.23 1287.75,1360.23C1291.93,1360.23 1295.31,1363.62 1295.31,1367.8Z" style="fill:rgb(102,217,255);fill-rule:nonzero;"/>
            <path d="M1392.66,1188.22C1392.66,1192.4 1389.27,1195.78 1385.09,1195.78C1380.92,1195.78 1377.53,1192.4 1377.53,1188.22C1377.53,1184.04 1380.92,1180.65 1385.09,1180.65C1389.27,1180.65 1392.66,1184.04 1392.66,1188.22Z" style="fill:rgb(102,217,255);fill-rule:nonzero;"/>
            <path d="M1573.73,1230.84C1573.73,1235.02 1570.35,1238.4 1566.17,1238.4C1561.99,1238.4 1558.6,1235.02 1558.6,1230.84C1558.6,1226.66 1561.99,1223.27 1566.17,1223.27C1570.35,1223.27 1573.73,1226.66 1573.73,1230.84Z" style="fill:rgb(102,217,255);fill-rule:nonzero;"/>
            <path d="M1464.03,1325.66C1464.03,1329.84 1460.64,1333.23 1456.46,1333.23C1452.29,1333.23 1448.9,1329.84 1448.9,1325.66C1448.9,1321.48 1452.29,1318.1 1456.46,1318.1C1460.64,1318.1 1464.03,1321.48 1464.03,1325.66Z" style="fill:rgb(102,217,255);fill-rule:nonzero;"/>
            <path d="M1642.08,1366.52C1642.08,1370.69 1638.69,1374.08 1634.51,1374.08C1630.33,1374.08 1626.95,1370.69 1626.95,1366.52C1626.95,1362.34 1630.33,1358.95 1634.51,1358.95C1638.69,1358.95 1642.08,1362.34 1642.08,1366.52Z" style="fill:rgb(102,217,255);fill-rule:nonzero;"/>
            <path d="M1362.17,1506.08L1545.32,1544.73L1632.08,1366.33L1457.38,1327.18L1362.17,1506.08ZM1546.99,1548.15L1357.65,1508.19L1455.8,1323.75L1636.44,1364.23L1546.99,1548.15Z" style="fill:rgb(102,217,255);fill-rule:nonzero;"/>
            <path d="M1289.61,1368.9L1359.93,1503.92L1454.89,1325.46L1384.57,1190.45L1289.61,1368.9ZM1359.9,1510.35L1286.22,1368.89L1384.6,1184.01L1458.28,1325.48L1359.9,1510.35Z" style="fill:rgb(102,217,255);fill-rule:nonzero;"/>
            <path d="M1632.92,1365.95L1564.64,1230.4L1384.25,1188.69L1384.93,1185.77L1566.69,1227.79L1635.6,1364.6L1632.92,1365.95Z" style="fill:rgb(102,217,255);fill-rule:nonzero;"/>
            <path d="M1544.81,1547.1L1477.38,1410.47L1287.6,1370.36L1288.22,1367.43L1479.43,1407.84L1547.5,1545.77L1544.81,1547.1Z" style="fill:rgb(102,217,255);fill-rule:nonzero;"/>
            <path d="M1479.75,1408.81L1477.06,1407.49L1563.81,1229.44L1566.51,1230.76L1479.75,1408.81Z" style="fill:rgb(102,217,255);fill-rule:nonzero;"/>
            <path d="M467.574,1289.92C454.86,1289.92 441.975,1292.93 429.971,1299.26C410.866,1309.34 396.83,1326.26 390.449,1346.89C384.067,1367.53 386.105,1389.42 396.185,1408.52C410.66,1435.96 438.79,1451.64 467.844,1451.64C480.557,1451.64 493.443,1448.64 505.447,1442.31C544.885,1421.5 560.041,1372.48 539.232,1333.04C524.757,1305.61 496.628,1289.92 467.574,1289.92ZM467.849,1454.64C437.714,1454.64 408.545,1438.38 393.532,1409.92C383.078,1390.11 380.965,1367.41 387.583,1346.01C394.201,1324.6 408.757,1307.06 428.57,1296.61C469.472,1275.02 520.305,1290.74 541.886,1331.64C563.466,1372.55 547.748,1423.38 506.847,1444.96C494.4,1451.53 481.031,1454.64 467.849,1454.64Z" style="fill:rgb(102,217,255);fill-rule:nonzero;"/>
            <path d="M441.15,1296.61C437.14,1296.61 433.377,1297.46 429.971,1299.26C420.192,1304.42 414.797,1316.63 414.779,1333.65C414.761,1351.01 420.343,1371.17 430.499,1390.42C447.853,1423.31 474.123,1444.96 494.267,1444.96C498.277,1444.96 502.041,1444.1 505.447,1442.31C525.964,1431.48 525.728,1390.59 504.919,1351.15C487.564,1318.26 461.294,1296.61 441.15,1296.61ZM494.509,1447.89C473.135,1447.89 445.731,1425.71 427.845,1391.82C417.466,1372.14 411.76,1351.49 411.779,1333.65C411.798,1315.46 417.762,1302.31 428.57,1296.61C450.55,1285.01 485.991,1308.85 507.572,1349.75C529.153,1390.65 528.828,1433.36 506.847,1444.96C503.084,1446.95 498.924,1447.89 494.509,1447.89Z" style="fill:rgb(102,217,255);fill-rule:nonzero;"/>
            <path d="M396.233,1410.55L394.833,1407.9L540.006,1331.3L541.406,1333.95L396.233,1410.55Z" style="fill:rgb(102,217,255);fill-rule:nonzero;"/>
            <path d="M431.376,1383.04C435.941,1384.45 438.498,1389.29 437.086,1393.86C435.675,1398.42 430.829,1400.98 426.264,1399.57C421.698,1398.16 419.142,1393.31 420.553,1388.75C421.965,1384.18 426.811,1381.62 431.376,1383.04Z" style="fill:rgb(102,217,255);fill-rule:nonzero;"/>
            <path d="M508.801,1342.18C513.367,1343.59 515.922,1348.44 514.512,1353.01C513.099,1357.57 508.254,1360.13 503.689,1358.72C499.124,1357.3 496.567,1352.46 497.979,1347.89C499.391,1343.33 504.236,1340.77 508.801,1342.18Z" style="fill:rgb(102,217,255);fill-rule:nonzero;"/>
            <path d="M396.886,1401.23C401.452,1402.64 404.008,1407.49 402.597,1412.06C401.185,1416.62 396.339,1419.18 391.774,1417.77C387.208,1416.35 384.652,1411.51 386.063,1406.94C387.476,1402.38 392.321,1399.82 396.886,1401.23Z" style="fill:rgb(102,217,255);fill-rule:nonzero;"/>
            <path d="M543.291,1323.99C547.856,1325.4 550.413,1330.24 549.001,1334.81C547.59,1339.37 542.744,1341.93 538.179,1340.52C533.613,1339.11 531.057,1334.26 532.468,1329.7C533.88,1325.13 538.726,1322.57 543.291,1323.99Z" style="fill:rgb(102,217,255);fill-rule:nonzero;"/>
            <path d="M431.132,1290.48C435.698,1291.89 438.254,1296.74 436.843,1301.3C435.431,1305.87 430.585,1308.43 426.02,1307.02C421.455,1305.6 418.898,1300.76 420.31,1296.19C421.721,1291.63 426.567,1289.07 431.132,1290.48Z" style="fill:rgb(102,217,255);fill-rule:nonzero;"/>
            <path d="M506.709,1433.72C511.274,1435.13 513.831,1439.98 512.419,1444.54C511.007,1449.11 506.162,1451.66 501.597,1450.25C497.031,1448.84 494.475,1444 495.886,1439.43C497.298,1434.86 502.144,1432.31 506.709,1433.72Z" style="fill:rgb(102,217,255);fill-rule:nonzero;"/>
            <path d="M1416.28,167.144C1399.34,168.891 1358.97,191.889 1312.09,231.898C1256.04,279.746 1225.46,322.224 1232.08,331.878C1232.17,332.005 1232.25,332.112 1232.34,332.215C1236.22,336.766 1250.59,332.821 1270.77,321.666C1292.16,309.842 1318.14,291.209 1343.93,269.198C1369.72,247.188 1392.2,224.456 1407.24,205.188C1421.42,187.006 1427.58,173.436 1423.69,168.886C1423.61,168.785 1423.51,168.688 1423.42,168.596C1422.02,167.275 1419.6,166.802 1416.28,167.144ZM1240.15,336.905C1235.74,337.36 1232.17,336.638 1230.05,334.162C1229.89,333.971 1229.74,333.771 1229.6,333.561C1219.72,319.145 1263.72,269.243 1310.15,229.617C1356.58,189.99 1412.77,154.372 1425.47,166.407C1425.64,166.567 1425.81,166.748 1425.98,166.939C1432.42,174.483 1420.63,192.906 1409.6,207.033C1394.45,226.455 1371.82,249.343 1345.88,271.48C1319.94,293.618 1293.78,312.374 1272.22,324.291C1261.68,330.114 1249.18,335.974 1240.15,336.905Z" style="fill:rgb(102,217,255);fill-rule:nonzero;"/>
            <path d="M1423.69,168.887L1423.69,168.886C1423.61,168.785 1423.51,168.688 1423.42,168.596L1422.2,167.469L1424.58,165.362L1425.97,166.933C1425.97,166.935 1425.97,166.937 1425.98,166.939L1424.84,167.907L1425.45,168.598L1425.43,168.62L1424.82,167.929L1423.69,168.887Z" style="fill:rgb(102,217,255);fill-rule:nonzero;"/>
            <path d="M1600.25,382.679C1583.48,384.408 1543.56,406.846 1496.04,447.407C1440.55,494.767 1411.09,535.779 1415.61,546.618C1415.78,547.037 1416.01,547.406 1416.28,547.723C1420.16,552.273 1434.53,548.332 1454.71,537.176C1476.11,525.354 1502.09,506.721 1527.88,484.711C1585.11,435.862 1615.32,393.403 1607.64,384.395C1607.37,384.079 1607.04,383.8 1606.65,383.567C1605.22,382.681 1603.06,382.389 1600.25,382.679ZM1424.1,552.414C1419.69,552.869 1416.11,552.147 1414,549.671C1413.52,549.112 1413.13,548.472 1412.84,547.767C1407,533.775 1441.93,489.646 1494.09,445.125C1546.25,400.604 1595.31,373.041 1608.22,381.011C1608.87,381.406 1609.44,381.89 1609.92,382.447C1621.1,395.551 1577.98,445.894 1529.82,486.993C1503.89,509.13 1477.73,527.885 1456.16,539.802C1445.63,545.624 1433.12,551.483 1424.1,552.414Z" style="fill:rgb(102,217,255);fill-rule:nonzero;"/>
            <path d="M1235.8,336.918L1412.22,543.615C1413,526.343 1446.32,485.898 1494.09,445.125C1541.31,404.819 1586.01,378.407 1603.62,379.688L1427.76,173.651C1427.06,182.695 1418.1,196.141 1409.6,207.033C1394.45,226.455 1371.82,249.343 1345.88,271.48C1319.94,293.618 1293.78,312.374 1272.22,324.291C1259.86,331.123 1244.78,338.008 1235.8,336.918ZM1413.53,549.767L1412.55,548.625L1228.39,332.854L1231.15,330.492L1232.09,331.893C1232.17,332.005 1232.25,332.112 1232.34,332.215C1236.22,336.766 1250.59,332.821 1270.77,321.666C1292.16,309.842 1318.14,291.209 1343.93,269.198C1369.72,247.188 1392.2,224.456 1407.24,205.188C1421.42,187.017 1427.57,173.451 1423.7,168.894L1423.69,168.886L1425.98,166.939L1609.77,382.272L1607.58,384.138L1606.65,383.563C1596.66,377.396 1551.53,400.046 1496.04,447.407C1440.55,494.767 1411.09,535.779 1415.61,546.618L1416.03,547.626L1413.53,549.767Z" style="fill:rgb(102,217,255);fill-rule:nonzero;"/>
            <path d="M1429.85,163.631C1431.95,166.097 1431.66,169.802 1429.19,171.906C1426.73,174.011 1423.02,173.718 1420.92,171.252C1418.81,168.787 1419.11,165.082 1421.57,162.977C1424.04,160.873 1427.74,161.165 1429.85,163.631Z" style="fill:rgb(102,217,255);fill-rule:nonzero;"/>
            <path d="M1235.23,329.743C1237.33,332.208 1237.04,335.914 1234.57,338.018C1232.11,340.123 1228.4,339.83 1226.3,337.364C1224.2,334.898 1224.49,331.193 1226.95,329.089C1229.42,326.984 1233.12,327.277 1235.23,329.743Z" style="fill:rgb(102,217,255);fill-rule:nonzero;"/>
            <path d="M1308.77,298.333C1310.87,300.799 1310.58,304.504 1308.12,306.608C1305.65,308.713 1301.95,308.42 1299.84,305.955C1297.74,303.489 1298.03,299.784 1300.5,297.68C1302.96,295.575 1306.67,295.868 1308.77,298.333Z" style="fill:rgb(102,217,255);fill-rule:nonzero;"/>
            <path d="M1342.46,204.2C1344.56,206.666 1344.27,210.371 1341.8,212.475C1339.34,214.58 1335.63,214.287 1333.53,211.821C1331.42,209.355 1331.72,205.65 1334.18,203.546C1336.65,201.441 1340.35,201.734 1342.46,204.2Z" style="fill:rgb(102,217,255);fill-rule:nonzero;"/>
            <path d="M1417.67,543.495C1419.78,545.96 1419.48,549.666 1417.02,551.77C1414.55,553.875 1410.85,553.582 1408.74,551.116C1406.64,548.65 1406.93,544.945 1409.4,542.841C1411.86,540.736 1415.57,541.029 1417.67,543.495Z" style="fill:rgb(102,217,255);fill-rule:nonzero;"/>
            <path d="M1611.63,377.946C1613.74,380.412 1613.44,384.117 1610.98,386.221C1608.51,388.326 1604.81,388.033 1602.7,385.567C1600.6,383.102 1600.89,379.396 1603.36,377.292C1605.82,375.188 1609.53,375.48 1611.63,377.946Z" style="fill:rgb(102,217,255);fill-rule:nonzero;"/>
            <path d="M1487.56,518.049L1304.37,303.418L1306.65,301.471L1489.84,516.102L1487.56,518.049Z" style="fill:rgb(102,217,255);fill-rule:nonzero;"/>
            <path d="M1520.37,424.667L1337.18,210.036L1339.46,208.088L1522.65,422.72L1520.37,424.667Z" style="fill:rgb(102,217,255);fill-rule:nonzero;"/>
            <path d="M1526.39,419.915C1528.49,422.38 1528.2,426.085 1525.73,428.19C1523.27,430.294 1519.56,430.001 1517.46,427.536C1515.35,425.07 1515.65,421.365 1518.11,419.261C1520.58,417.156 1524.28,417.449 1526.39,419.915Z" style="fill:rgb(102,217,255);fill-rule:nonzero;"/>
            <path d="M1493.2,512.858C1495.31,515.323 1495.01,519.028 1492.55,521.133C1490.08,523.237 1486.38,522.945 1484.27,520.479C1482.17,518.013 1482.46,514.308 1484.93,512.204C1487.39,510.099 1491.1,510.392 1493.2,512.858Z" style="fill:rgb(102,217,255);fill-rule:nonzero;"/>
            <path d="M438.745,750.049L882.505,1435.1L1370.15,750.049L438.745,750.049Z" style="fill:url(#_Linear1);"/>
            <rect x="693.042" y="1744.89" width="394.468" height="14.56" style="fill:rgb(34,120,193);fill-rule:nonzero;"/>
            <rect x="716.532" y="1443.64" width="345.188" height="314.74" style="fill:rgb(26,128,214);fill-rule:nonzero;"/>
            <path d="M890.117,1742.31L1034.18,1742.31L1034.18,1525.53C1034.18,1515.66 1026.15,1507.63 1016.28,1507.63L908.021,1507.63C898.149,1507.63 890.117,1515.66 890.117,1525.53L890.117,1742.31ZM1037.18,1745.31L887.117,1745.31L887.117,1525.53C887.117,1514.01 896.495,1504.63 908.021,1504.63L1016.28,1504.63C1027.8,1504.63 1037.18,1514.01 1037.18,1525.53L1037.18,1745.31Z" style="fill:rgb(230,248,255);fill-rule:nonzero;"/>
            <rect x="749.724" y="1506.45" width="87.318" height="9.95" style="fill:rgb(27,94,150);fill-rule:nonzero;"/>
            <rect x="749.724" y="1524.83" width="87.318" height="9.96" style="fill:rgb(27,94,150);fill-rule:nonzero;"/>
            <rect x="749.724" y="1543.21" width="87.318" height="9.96" style="fill:rgb(27,94,150);fill-rule:nonzero;"/>
            <rect x="749.724" y="1561.6" width="87.318" height="9.95" style="fill:rgb(27,94,150);fill-rule:nonzero;"/>
            <rect x="749.724" y="1579.98" width="87.318" height="9.96" style="fill:rgb(27,94,150);fill-rule:nonzero;"/>
            <rect x="749.724" y="1598.36" width="87.318" height="9.96" style="fill:rgb(27,94,150);fill-rule:nonzero;"/>
            <rect x="749.724" y="1616.75" width="87.318" height="9.95" style="fill:rgb(27,94,150);fill-rule:nonzero;"/>
            <path d="M1002.11,1666.53C998.087,1666.53 994.83,1663.27 994.83,1659.25L994.83,1582.66C994.83,1578.64 998.087,1575.38 1002.11,1575.38C1006.13,1575.38 1009.38,1578.64 1009.38,1582.66L1009.38,1659.25C1009.38,1663.27 1006.13,1666.53 1002.11,1666.53Z" style="fill:rgb(27,94,150);fill-rule:nonzero;"/>
            <rect x="692.276" y="1743.16" width="394.464" height="3" style="fill:rgb(230,248,255);fill-rule:nonzero;"/>
            <path d="M1061.43,1441.04L716.828,1441.04C702.554,1431.35 697.073,1417.18 697.809,1399.85L1080.45,1399.85C1079.95,1416.89 1074.45,1431.1 1061.43,1441.04Z" style="fill:url(#_Linear2);"/>
            <path d="M1008.27,611.724L814.815,611.401L814.884,570.106L1008.34,570.429L1008.27,611.724Z" style="fill:rgb(128,217,255);fill-rule:nonzero;"/>
            <path d="M996.044,611.704L802.589,611.38L802.658,570.085L996.113,570.409L996.044,611.704Z" style="fill:rgb(51,193,255);fill-rule:nonzero;"/>
            <path d="M914.176,729.538L913.731,999.753C913.691,1020.49 896.852,1037.29 876.105,1037.25L766.231,1037.06C745.479,1037.03 728.692,1020.18 728.724,999.446L728.877,905.497L728.885,905.495L735.675,905.509L735.796,831.889L729.006,831.875L729.007,831.702L729.175,729.222C729.214,708.484 746.054,691.69 766.808,691.727L876.682,691.912C897.427,691.943 914.214,708.792 914.176,729.538Z" style="fill:rgb(51,193,255);fill-rule:nonzero;"/>
            <path d="M1040.4,1038.05L791.667,1037.63L792.244,691.777L1040.98,692.192L1040.4,1038.05Z" style="fill:rgb(51,193,255);fill-rule:nonzero;"/>
            <path d="M1052.72,692.207L1008.3,692.132L1008.29,701.213L996.312,701.193L996.327,692.112L942.835,692.023C922.091,691.988 905.246,708.777 905.211,729.521L904.76,999.737C904.726,1020.48 921.515,1037.33 942.259,1037.36L1052.14,1037.54C1072.88,1037.58 1089.73,1020.79 1089.76,1000.05L1090.21,729.83C1090.25,709.086 1073.46,692.241 1052.72,692.207Z" style="fill:rgb(217,243,255);fill-rule:nonzero;"/>
            <path d="M942.771,693.023C933.028,693.023 923.865,696.809 916.963,703.688C910.046,710.582 906.228,719.757 906.211,729.523L905.76,999.738C905.727,1019.9 922.101,1036.33 942.26,1036.36L1052.14,1036.54L1052.2,1036.54C1061.95,1036.54 1071.11,1032.76 1078.01,1025.88C1084.93,1018.99 1088.75,1009.81 1088.76,1000.04L1089.21,729.829C1089.23,720.063 1085.44,710.875 1078.55,703.958C1071.65,697.041 1062.48,693.223 1052.71,693.207L1009.3,693.134L1009.29,702.214L995.31,702.191L995.325,693.111L942.834,693.023L942.771,693.023ZM1052.2,1038.54L1052.14,1038.54L942.257,1038.36C920.995,1038.33 903.725,1021 903.76,999.735L904.211,729.52C904.229,719.22 908.256,709.543 915.551,702.271C922.831,695.017 932.496,691.023 942.771,691.023L942.837,691.023L997.328,691.114L997.313,700.194L1007.29,700.211L1007.3,691.131L1052.72,691.207C1063.02,691.224 1072.69,695.251 1079.97,702.546C1087.24,709.842 1091.23,719.532 1091.21,729.832L1090.76,1000.05C1090.75,1010.35 1086.72,1020.02 1079.42,1027.3C1072.14,1034.55 1062.48,1038.54 1052.2,1038.54Z" style="fill:white;fill-rule:nonzero;"/>
            <path d="M1076.27,729.805L1075.82,1000.02C1075.8,1013.05 1065.18,1023.62 1052.17,1023.6L942.282,1023.42C929.258,1023.39 918.685,1012.78 918.706,999.76L919.157,729.542C919.179,716.525 929.788,705.945 942.812,705.966L1052.69,706.15C1065.71,706.172 1076.29,716.787 1076.27,729.805Z" style="fill:rgb(48,182,240);fill-rule:nonzero;"/>
            <path d="M1064.56,729.785L1064.11,1000C1064.08,1013.03 1053.48,1023.6 1040.45,1023.58L942.282,1023.42C929.258,1023.39 918.685,1012.78 918.706,999.76L919.157,729.542C919.179,716.525 929.788,705.945 942.812,705.966L1040.98,706.13C1054.01,706.152 1064.58,716.768 1064.56,729.785Z" style="fill:rgb(89,205,255);fill-rule:nonzero;"/>
            <path d="M1051.35,819.036C1051.27,868.44 1026.85,908.45 996.804,908.399C966.761,908.349 942.473,868.258 942.556,818.854C942.638,769.449 967.06,729.44 997.103,729.49C1027.15,729.54 1051.43,769.631 1051.35,819.036Z" style="fill:rgb(25,186,255);fill-rule:nonzero;"/>
            <path d="M1116.17,729.649L1115.87,908.606L995.57,908.406L995.869,729.448L1116.17,729.649Z" style="fill:rgb(25,186,255);fill-rule:nonzero;"/>
            <path d="M1170.05,819.234C1169.97,868.638 1145.55,908.648 1115.5,908.598C1085.46,908.547 1061.17,868.457 1061.26,819.052C1061.34,769.647 1085.76,729.638 1115.8,729.688C1145.85,729.738 1170.13,769.829 1170.05,819.234Z" style="fill:rgb(217,243,255);fill-rule:nonzero;"/>
            <path d="M1044.86,818.572C1044.78,867.581 1067.54,908.531 1094.56,908.576L1093.71,908.569L1086.04,908.557C1075.23,905.673 1065.28,896.727 1057.49,882.663C1047.98,865.513 1042.77,842.754 1042.81,818.568C1042.85,794.389 1048.14,771.641 1057.7,754.53C1064.88,741.697 1073.83,733.142 1083.58,729.595L1094.01,729.612L1094.01,729.774C1066.99,729.729 1044.94,769.563 1044.86,818.572Z" style="fill:white;fill-rule:nonzero;"/>
            <path d="M964.897,818.438C964.815,867.448 992.157,908.405 1024.59,908.459L1023.57,908.452L1014.37,908.437C1001.38,905.549 989.442,896.601 980.08,882.534C968.666,865.381 962.4,842.621 962.441,818.434C962.481,794.255 968.822,771.509 980.294,754.401C988.904,741.57 999.646,733.018 1011.36,729.474L1023.87,729.495L1023.87,729.658C991.438,729.604 964.979,769.429 964.897,818.438Z" style="fill:white;fill-rule:nonzero;"/>
            <path d="M1164.79,819.226C1164.72,863.852 1142.66,899.993 1115.52,899.948C1114.39,899.946 1113.26,899.883 1112.15,899.746C1086.59,896.864 1066.44,861.825 1066.52,819.062C1066.59,776.299 1086.85,741.327 1112.42,738.531C1113.53,738.397 1114.66,738.338 1115.79,738.34C1142.93,738.386 1164.87,774.6 1164.79,819.226Z" style="fill:rgb(46,174,230);fill-rule:nonzero;"/>
            <path d="M1158.05,819.215C1157.98,861.978 1137.72,896.943 1112.15,899.746C1086.59,896.864 1066.44,861.825 1066.52,819.062C1066.59,776.299 1086.85,741.327 1112.42,738.531C1137.98,741.419 1158.12,776.452 1158.05,819.215Z" style="fill:rgb(89,205,255);fill-rule:nonzero;"/>
            <path d="M1128.15,819.165C1128.13,830.513 1122.52,839.71 1115.62,839.699C1113.99,839.696 1112.42,839.179 1110.99,838.228C1106.39,835.199 1103.14,827.781 1103.15,819.123C1103.17,810.458 1106.44,803.052 1111.06,800.045C1112.49,799.099 1114.06,798.586 1115.69,798.589C1122.59,798.601 1128.17,807.81 1128.15,819.165Z" style="fill:rgb(20,150,204);fill-rule:nonzero;"/>
            <path d="M1118.9,819.149C1118.88,827.808 1115.61,835.214 1110.99,838.228C1106.39,835.199 1103.14,827.781 1103.15,819.123C1103.17,810.458 1106.44,803.052 1111.06,800.045C1115.67,803.067 1118.91,810.484 1118.9,819.149Z" style="fill:rgb(187,232,250);fill-rule:nonzero;"/>
            <path d="M1010.08,970.493C1010.04,990.626 1000.09,1006.93 987.848,1006.91C975.604,1006.89 965.707,990.552 965.74,970.419C965.774,950.286 975.726,933.982 987.969,934.002C1000.21,934.023 1010.11,950.36 1010.08,970.493Z" style="fill:rgb(25,186,255);fill-rule:nonzero;"/>
            <path d="M1036.49,934.067L1036.37,1007L987.345,1006.91L987.466,933.985L1036.49,934.067Z" style="fill:rgb(25,186,255);fill-rule:nonzero;"/>
            <path d="M1058.45,970.574C1058.41,990.707 1048.46,1007.01 1036.22,1006.99C1023.98,1006.97 1014.08,990.633 1014.11,970.5C1014.15,950.367 1024.1,934.063 1036.34,934.083C1048.58,934.104 1058.48,950.441 1058.45,970.574Z" style="fill:white;fill-rule:nonzero;"/>
            <path d="M1007.43,970.305C1007.4,990.276 1016.67,1006.96 1027.68,1006.98L1027.34,1006.98L1024.21,1006.97C1019.81,1005.8 1015.75,1002.15 1012.58,996.422C1008.7,989.434 1006.58,980.159 1006.6,970.303C1006.61,960.45 1008.77,951.18 1012.66,944.207C1015.59,938.977 1019.24,935.491 1023.21,934.045L1027.46,934.052L1027.46,934.118C1016.45,934.1 1007.46,950.333 1007.43,970.305Z" style="fill:white;fill-rule:nonzero;"/>
            <path d="M974.845,970.25C974.812,990.222 985.954,1006.91 999.171,1006.93L995.004,1006.93C989.713,1005.75 984.848,1002.1 981.032,996.37C976.38,989.38 973.828,980.104 973.844,970.249C973.86,960.395 976.444,951.125 981.119,944.154C984.628,938.925 989.005,935.44 993.777,933.996L998.878,934.004L998.878,934.071C985.661,934.048 974.878,950.278 974.845,970.25Z" style="fill:white;fill-rule:nonzero;"/>
            <path d="M1056.3,970.571C1056.27,988.757 1047.29,1003.48 1036.23,1003.47C1035.76,1003.47 1035.31,1003.44 1034.85,1003.38C1024.44,1002.21 1016.23,987.931 1016.26,970.504C1016.28,953.078 1024.54,938.826 1034.96,937.687C1035.42,937.632 1035.87,937.608 1036.33,937.609C1047.4,937.627 1056.33,952.385 1056.3,970.571Z" style="fill:rgb(46,174,230);fill-rule:nonzero;"/>
            <path d="M1053.56,970.566C1053.53,987.993 1045.27,1002.24 1034.85,1003.38C1024.44,1002.21 1016.23,987.931 1016.26,970.504C1016.28,953.078 1024.54,938.826 1034.96,937.687C1045.38,938.864 1053.59,953.14 1053.56,970.566Z" style="fill:rgb(89,205,255);fill-rule:nonzero;"/>
            <path d="M1041.37,970.546C1041.37,975.17 1039.08,978.919 1036.27,978.914C1035.6,978.913 1034.96,978.702 1034.38,978.314C1032.5,977.08 1031.18,974.058 1031.19,970.529C1031.19,966.998 1032.53,963.98 1034.41,962.754C1034.99,962.369 1035.63,962.16 1036.29,962.161C1039.11,962.166 1041.38,965.919 1041.37,970.546Z" style="fill:rgb(20,150,204);fill-rule:nonzero;"/>
            <path d="M1037.6,970.54C1037.6,974.068 1036.26,977.086 1034.38,978.314C1032.5,977.08 1031.18,974.058 1031.19,970.529C1031.19,966.998 1032.53,963.98 1034.41,962.754C1036.29,963.986 1037.61,967.009 1037.6,970.54Z" style="fill:rgb(140,218,250);fill-rule:nonzero;"/>
            <path d="M858.505,832.091L858.384,905.892L728.886,905.675L728.885,905.495L735.675,905.509L735.796,831.889L858.505,832.091Z" style="fill:rgb(5,180,255);fill-rule:nonzero;"/>
            <path d="M736.677,904.688L857.386,904.891L857.503,833.09L736.795,832.89L736.677,904.688ZM859.383,906.894L727.889,906.674L727.882,904.493L734.677,904.507L734.798,830.887L859.506,831.093L859.383,906.894Z" style="fill:white;fill-rule:nonzero;"/>
            <path d="M735.797,831.716L735.796,831.889L729.006,831.875L729.007,831.702L735.797,831.716Z" style="fill:rgb(18,167,232);fill-rule:nonzero;"/>
            <path d="M786.264,739.578C782.388,739.578 778.742,741.084 775.996,743.822C773.244,746.564 771.725,750.215 771.718,754.101L771.652,794.003C771.646,797.889 773.152,801.544 775.896,804.296C778.638,807.048 782.289,808.567 786.174,808.574L850.168,808.681L850.193,808.681C854.07,808.681 857.715,807.174 860.461,804.437C863.214,801.694 864.733,798.044 864.739,794.158L864.806,754.256C864.819,746.235 858.305,739.699 850.284,739.685L786.289,739.578L786.264,739.578ZM850.194,813.196L850.161,813.196L786.167,813.089C781.075,813.081 776.291,811.09 772.697,807.484C769.103,803.877 767.127,799.087 767.136,793.995L767.203,754.093C767.211,749.001 769.202,744.217 772.808,740.623C776.415,737.029 781.182,735.015 786.297,735.063L850.292,735.169C860.803,735.187 869.34,743.752 869.322,754.264L869.255,794.166C869.247,799.257 867.256,804.042 863.649,807.636C860.051,811.222 855.273,813.196 850.194,813.196Z" style="fill:rgb(217,243,255);fill-rule:nonzero;"/>
            <path d="M701.874,903.543L701.998,829.746L566.452,829.52C561.652,829.512 557.755,833.396 557.747,838.195L557.653,894.612C557.645,899.411 561.529,903.309 566.328,903.316L701.874,903.543Z" style="fill:rgb(51,193,255);fill-rule:nonzero;"/>
            <path d="M687.979,838.755L687.885,894.487C687.877,899.476 691.914,903.526 696.902,903.535L706.354,903.55L706.477,829.754L697.026,829.738C692.038,829.729 687.987,833.767 687.979,838.755Z" style="fill:rgb(102,209,255);fill-rule:nonzero;"/>
            <path d="M1192.53,991.118L1192.65,917.322L1290.23,917.484C1295.03,917.493 1298.92,921.39 1298.91,926.189L1298.81,982.605C1298.8,987.405 1294.91,991.289 1290.11,991.281L1192.53,991.118Z" style="fill:rgb(72,195,247);fill-rule:nonzero;"/>
            <path d="M951.959,1250.09L845.786,1249.91C833.175,1249.89 822.97,1239.65 822.991,1227.04L823.234,1081.18L952.241,1081.39L951.959,1250.09Z" style="fill:rgb(51,193,255);fill-rule:nonzero;"/>
            <path d="M976.169,1250.13L956.36,1250.1C944.765,1250.08 935.38,1240.66 935.4,1229.07L935.646,1081.37L997.446,1081.47L997.2,1229.17C997.18,1240.77 987.765,1250.15 976.169,1250.13Z" style="fill:rgb(128,217,255);fill-rule:nonzero;"/>
            <path d="M1201.97,1079.95L1160.77,1079.88L1160.8,1064.62L1202,1064.69L1201.97,1079.95Z" style="fill:rgb(72,195,247);fill-rule:nonzero;"/>
            <path d="M1158.51,1072.25C1158.51,1076.47 1159.56,1079.89 1160.87,1079.9C1162.17,1079.9 1163.24,1076.48 1163.24,1072.26C1163.25,1068.04 1162.2,1064.62 1160.89,1064.62C1159.58,1064.61 1158.52,1068.03 1158.51,1072.25Z" style="fill:rgb(72,195,247);fill-rule:nonzero;"/>
            <path d="M1199.69,1072.34C1199.69,1076.65 1200.74,1080.15 1202.05,1080.15C1203.35,1080.16 1204.42,1076.66 1204.42,1072.34C1204.43,1068.03 1203.38,1064.53 1202.07,1064.53C1200.77,1064.52 1199.7,1068.02 1199.69,1072.34Z" style="fill:rgb(72,195,247);fill-rule:nonzero;"/>
            <path d="M1207.5,1072.35C1207.49,1078.93 1205.89,1084.3 1203.91,1084.46C1203.88,1084.47 1203.84,1084.47 1203.81,1084.47C1202.8,1084.47 1201.91,1083.13 1201.24,1080.97C1200.57,1078.77 1200.16,1075.71 1200.16,1072.34C1200.17,1068.96 1200.59,1065.91 1201.27,1063.71C1201.89,1061.7 1202.72,1060.42 1203.64,1060.24C1203.71,1060.23 1203.78,1060.22 1203.85,1060.22C1205.88,1060.23 1207.51,1065.65 1207.5,1072.35Z" style="fill:rgb(72,195,247);fill-rule:nonzero;"/>
            <path d="M1203.91,1084.46L1203.91,1084.48L1198.64,1084.47L1198.64,1084.46C1196.62,1084.42 1195,1079 1195.01,1072.33C1195.02,1065.63 1196.67,1060.21 1198.7,1060.21C1198.77,1060.21 1198.84,1060.22 1198.92,1060.23L1203.64,1060.24C1202.72,1060.42 1201.89,1061.7 1201.27,1063.71C1200.59,1065.91 1200.17,1068.96 1200.16,1072.34C1200.16,1075.71 1200.57,1078.77 1201.24,1080.97C1201.91,1083.13 1202.8,1084.47 1203.81,1084.47C1203.84,1084.47 1203.88,1084.47 1203.91,1084.46Z" style="fill:rgb(20,150,204);fill-rule:nonzero;"/>
            <path d="M1201.89,1131.16L1160.69,1131.09L1160.71,1115.83L1201.91,1115.9L1201.89,1131.16Z" style="fill:rgb(72,195,247);fill-rule:nonzero;"/>
            <path d="M1158.43,1123.47C1158.42,1127.69 1159.47,1131.11 1160.78,1131.11C1162.09,1131.11 1163.15,1127.69 1163.16,1123.48C1163.16,1119.26 1162.11,1115.83 1160.81,1115.83C1159.5,1115.83 1158.43,1119.25 1158.43,1123.47Z" style="fill:rgb(72,195,247);fill-rule:nonzero;"/>
            <path d="M1199.61,1123.55C1199.6,1127.87 1200.65,1131.37 1201.96,1131.37C1203.27,1131.37 1204.33,1127.88 1204.34,1123.56C1204.35,1119.24 1203.29,1115.74 1201.99,1115.74C1200.68,1115.74 1199.62,1119.24 1199.61,1123.55Z" style="fill:rgb(72,195,247);fill-rule:nonzero;"/>
            <path d="M1207.41,1123.57C1207.4,1130.15 1205.81,1135.51 1203.82,1135.68L1203.73,1135.68C1202.72,1135.68 1201.82,1134.35 1201.16,1132.19C1200.48,1129.99 1200.07,1126.93 1200.08,1123.55C1200.08,1120.17 1200.51,1117.12 1201.19,1114.93C1201.81,1112.92 1202.64,1111.63 1203.55,1111.46C1203.62,1111.44 1203.7,1111.44 1203.77,1111.44C1205.8,1111.44 1207.43,1116.87 1207.41,1123.57Z" style="fill:rgb(72,195,247);fill-rule:nonzero;"/>
            <path d="M1203.82,1135.68L1203.82,1135.7L1198.56,1135.69L1198.56,1135.67C1196.53,1135.64 1194.92,1130.22 1194.93,1123.55C1194.94,1116.85 1196.59,1111.43 1198.62,1111.43C1198.69,1111.43 1198.76,1111.44 1198.83,1111.45L1203.55,1111.46C1202.64,1111.63 1201.81,1112.92 1201.19,1114.93C1200.51,1117.12 1200.08,1120.17 1200.08,1123.55C1200.07,1126.93 1200.48,1129.99 1201.16,1132.19C1201.82,1134.35 1202.72,1135.68 1203.73,1135.68L1203.82,1135.68Z" style="fill:rgb(20,150,204);fill-rule:nonzero;"/>
            <path d="M907.575,383.202C647.107,383.202 435.202,595.107 435.202,855.575C435.202,1116.04 647.107,1327.95 907.575,1327.95C1168.04,1327.95 1379.95,1116.04 1379.95,855.575C1379.95,595.107 1168.04,383.202 907.575,383.202ZM907.575,1330.95C843.4,1330.95 781.145,1318.38 722.538,1293.59C665.931,1269.65 615.092,1235.37 571.436,1191.71C527.779,1148.06 493.503,1097.22 469.56,1040.61C444.771,982.004 432.202,919.749 432.202,855.575C432.202,791.4 444.771,729.145 469.56,670.538C493.503,613.931 527.779,563.092 571.436,519.436C615.092,475.779 665.931,441.503 722.538,417.56C781.145,392.771 843.4,380.202 907.575,380.202C971.749,380.202 1034,392.771 1092.61,417.56C1149.22,441.503 1200.06,475.779 1243.71,519.436C1287.37,563.092 1321.65,613.931 1345.59,670.538C1370.38,729.145 1382.95,791.4 1382.95,855.575C1382.95,919.749 1370.38,982.004 1345.59,1040.61C1321.65,1097.22 1287.37,1148.06 1243.71,1191.71C1200.06,1235.37 1149.22,1269.65 1092.61,1293.59C1034,1318.38 971.749,1330.95 907.575,1330.95Z" style="fill:rgb(72,195,247);fill-rule:nonzero;"/>
            <path d="M937.127,380.745C937.127,392.025 927.983,401.17 916.702,401.17C905.421,401.17 896.276,392.025 896.276,380.745C896.276,369.464 905.421,360.319 916.702,360.319C927.983,360.319 937.127,369.464 937.127,380.745Z" style="fill:rgb(72,195,247);fill-rule:nonzero;"/>
            <path d="M937.127,1328.49C937.127,1339.77 927.983,1348.92 916.702,1348.92C905.421,1348.92 896.276,1339.77 896.276,1328.49C896.276,1317.21 905.421,1308.06 916.702,1308.06C927.983,1308.06 937.127,1317.21 937.127,1328.49Z" style="fill:rgb(72,195,247);fill-rule:nonzero;"/>
            <path d="M455.085,856.66C455.085,867.94 445.94,877.085 434.66,877.085C423.379,877.085 414.234,867.94 414.234,856.66C414.234,845.379 423.379,836.234 434.66,836.234C445.94,836.234 455.085,845.379 455.085,856.66Z" style="fill:rgb(72,195,247);fill-rule:nonzero;"/>
            <path d="M1402.83,856.66C1402.83,867.94 1393.68,877.085 1382.4,877.085C1371.12,877.085 1361.98,867.94 1361.98,856.66C1361.98,845.379 1371.12,836.234 1382.4,836.234C1393.68,836.234 1402.83,845.379 1402.83,856.66Z" style="fill:rgb(72,195,247);fill-rule:nonzero;"/>
            <path d="M907.575,618.681C568.873,618.681 293.319,724.951 293.319,855.575C293.319,986.198 568.873,1092.47 907.575,1092.47C1246.28,1092.47 1521.83,986.198 1521.83,855.575C1521.83,724.951 1246.28,618.681 907.575,618.681ZM907.575,1094.47C743.114,1094.47 588.481,1069.7 472.163,1024.72C415.542,1002.83 371.075,977.324 339.995,948.912C307.696,919.386 291.319,887.982 291.319,855.575C291.319,823.167 307.696,791.764 339.995,762.238C371.075,733.825 415.542,708.318 472.163,686.425C588.481,641.45 743.114,616.681 907.575,616.681C1072.04,616.681 1226.67,641.45 1342.99,686.425C1399.61,708.318 1444.07,733.825 1475.16,762.238C1507.45,791.764 1523.83,823.167 1523.83,855.575C1523.83,887.982 1507.45,919.386 1475.16,948.912C1444.07,977.324 1399.61,1002.83 1342.99,1024.72C1226.67,1069.7 1072.04,1094.47 907.575,1094.47Z" style="fill:rgb(72,195,247);fill-rule:nonzero;"/>
            <path d="M907.575,401.67C657.291,401.67 453.67,605.291 453.67,855.575C453.67,1105.86 657.291,1309.48 907.575,1309.48C1157.86,1309.48 1361.48,1105.86 1361.48,855.575C1361.48,605.291 1157.86,401.67 907.575,401.67ZM907.575,1310.48C846.163,1310.48 786.588,1298.45 730.505,1274.73C676.335,1251.82 627.686,1219.02 585.909,1177.24C544.131,1135.46 511.331,1086.81 488.419,1032.64C464.698,976.561 452.67,916.986 452.67,855.575C452.67,794.163 464.698,734.588 488.419,678.505C511.331,624.335 544.131,575.686 585.909,533.909C627.686,492.131 676.335,459.331 730.505,436.419C786.588,412.698 846.163,400.67 907.575,400.67C968.986,400.67 1028.56,412.698 1084.64,436.419C1138.81,459.331 1187.46,492.131 1229.24,533.909C1271.02,575.686 1303.82,624.335 1326.73,678.505C1350.45,734.588 1362.48,794.163 1362.48,855.575C1362.48,916.986 1350.45,976.561 1326.73,1032.64C1303.82,1086.81 1271.02,1135.46 1229.24,1177.24C1187.46,1219.02 1138.81,1251.82 1084.64,1274.73C1028.56,1298.45 968.986,1310.48 907.575,1310.48Z" style="fill:rgb(72,195,247);fill-rule:nonzero;"/>
            <path d="M1115.87,909.606L994.57,909.404L994.57,909.321C980.315,908.38 967.048,898.705 957.121,881.972C947.044,864.987 941.516,842.57 941.556,818.853C941.595,795.134 947.198,772.736 957.332,755.785C967.313,739.086 980.611,729.456 994.869,728.562L994.869,728.512L995.871,728.448L1116.17,728.649L1116.17,730.649L996.524,730.449L995.904,730.513C981.984,731 968.895,740.339 959.048,756.811C949.097,773.458 943.595,795.492 943.556,818.855C943.517,842.219 948.945,864.271 958.841,880.952C968.632,897.457 981.69,906.839 995.608,907.373L996.51,907.407L1115.87,907.606L1115.87,909.606Z" style="fill:white;fill-rule:nonzero;"/>
            <path d="M1036.37,1007.5L986.845,1007.41L986.845,1007.36C974.658,1006.49 965.207,990.411 965.24,970.418C965.273,950.428 974.778,934.38 986.966,933.548L986.966,933.521L987.467,933.485L1036.49,933.567L1036.49,934.567L987.808,934.486L987.484,934.522C975.802,934.932 966.272,951.035 966.24,970.42C966.208,989.805 975.684,1005.94 987.364,1006.39L987.845,1006.41L1036.37,1006.5L1036.37,1007.5Z" style="fill:white;fill-rule:nonzero;"/>
            <rect x="468.485" y="613.069" width="19.413" height="145.597" style="fill:rgb(34,120,193);fill-rule:nonzero;"/>
            <path d="M504.006,640.651C496.941,633.845 484.89,621.878 477.883,614.898C470.982,621.567 459.327,632.982 452.76,640.255L441.003,629.639C451.104,618.452 471.664,598.901 472.534,598.075L478.131,592.758L483.59,598.216C483.8,598.427 504.752,619.374 514.997,629.243L504.006,640.651Z" style="fill:rgb(34,120,193);fill-rule:nonzero;"/>
            <path d="M478.252,773.269L472.792,767.81C472.583,767.599 451.631,746.652 441.387,736.782L452.376,725.375C459.442,732.182 471.493,744.148 478.5,751.128C485.401,744.459 497.056,733.044 503.623,725.771L515.38,736.386C505.279,747.574 484.719,767.125 483.849,767.951L478.252,773.269Z" style="fill:rgb(34,120,193);fill-rule:nonzero;"/>
            <rect x="402.539" y="673.307" width="145.596" height="19.412" style="fill:rgb(34,120,193);fill-rule:nonzero;"/>
            <path d="M531.961,719.818L520.552,708.828C527.36,701.763 539.327,689.711 546.306,682.705C539.637,675.804 528.223,664.148 520.948,657.582L531.565,645.824C542.752,655.926 562.303,676.486 563.13,677.356L568.447,682.953L562.988,688.412C562.777,688.622 541.831,709.573 531.961,719.818Z" style="fill:rgb(34,120,193);fill-rule:nonzero;"/>
            <path d="M424.818,720.202C413.631,710.101 394.08,689.54 393.253,688.67L387.936,683.073L393.395,677.614C393.605,677.404 414.552,656.453 424.422,646.208L435.83,657.198C429.023,664.263 417.056,676.314 410.077,683.321C416.746,690.222 428.16,701.877 435.434,708.444L424.818,720.202Z" style="fill:rgb(34,120,193);fill-rule:nonzero;"/>
            <path d="M1760.38,792.06L1641.84,842.658L1564.43,721.459L1543.32,731.076C1543.32,731.076 1581.05,914.963 1620.3,920.035C1659.54,925.106 1790.87,882.704 1790.87,882.704L1760.38,792.06Z" style="fill:rgb(247,165,148);fill-rule:nonzero;"/>
            <path d="M1782.1,782.525L1682.91,824.384C1700.36,830.849 1717.17,876.375 1704.16,907.811L1790.77,885.925C1828.89,867.026 1825.98,778.032 1782.1,782.525Z" style="fill:rgb(83,136,250);fill-rule:nonzero;"/>
            <path d="M1551.53,742.699L1518.85,738.362L1527.18,713.412L1544.1,702.539L1550.61,706.789L1558.42,729.892L1551.53,742.699Z" style="fill:rgb(247,165,148);fill-rule:nonzero;"/>
            <path d="M1501.33,755.059L1503.67,756.222L1529.93,754.701L1568.55,695.701L1549.81,682.634L1501.33,755.059Z" style="fill:rgb(35,31,32);fill-rule:nonzero;"/>
            <path d="M1544.65,691.88L1529.35,667.795C1526.28,664.198 1537.63,644.93 1541.48,650.602C1541.48,650.602 1576.02,699.593 1577.02,702.199C1579.38,707.123 1565.15,716.502 1562.46,712.903L1544.65,691.88Z" style="fill:rgb(35,31,32);fill-rule:nonzero;"/>
            <path d="M1528.33,753.481C1528.33,753.481 1525.38,758.641 1523,761.981C1522.07,763.77 1504.35,754.242 1504.35,754.242L1514.88,748.28L1528.33,753.481Z" style="fill:rgb(35,31,32);fill-rule:nonzero;"/>
            <path d="M1565.68,723.364C1565.68,723.364 1558.05,700.826 1549.77,696.755C1541.5,692.685 1528.81,694.356 1528.81,694.356C1528.81,694.356 1526.4,701.704 1532.27,704.401C1538.14,707.098 1545.94,705.448 1545.94,705.448C1545.94,705.448 1539.94,726.794 1549.74,731.643C1559.55,736.491 1565.68,723.364 1565.68,723.364Z" style="fill:rgb(247,165,148);fill-rule:nonzero;"/>
            <path d="M1518.96,702.988C1514.68,704.81 1519.52,710.626 1519.52,710.626C1519.52,710.626 1514.42,712.377 1512.95,715.418C1511.48,718.459 1515.46,722.845 1515.46,722.845C1515.46,722.845 1509.05,725.724 1511,730.405C1512.95,735.087 1532.66,742.281 1534.53,736.38C1536.04,731.63 1530.36,726.594 1530.36,726.594C1530.36,726.594 1542.22,727.782 1540.42,724.07C1538.63,720.358 1534.52,716.322 1534.52,716.322C1534.52,716.322 1545.63,717.532 1543.83,711.949C1541.85,705.812 1523.23,701.166 1518.96,702.988Z" style="fill:rgb(247,165,148);fill-rule:nonzero;"/>
            <path d="M1535.9,671.018L1527.71,679.57L1533.76,687.41L1544.63,682.777L1535.9,671.018Z" style="fill:rgb(35,31,32);fill-rule:nonzero;"/>
            <path d="M2050.51,1757.37L1962.81,1757.07C1961.01,1756.03 1959.68,1754.86 1958.89,1753.53C1954.6,1688.29 1948.2,1656.86 1948.2,1656.86L2009.29,1654.58L2022.95,1703.16C2043.37,1717.21 2067.66,1747.3 2050.51,1757.37Z" style="fill:rgb(35,31,32);fill-rule:nonzero;"/>
            <path d="M1956.16,1758.22L2060.14,1758.58C2062.77,1758.59 2061.94,1744.12 2059.3,1744.11L1955.94,1744.34C1953.23,1744.33 1953.45,1758.21 1956.16,1758.22Z" style="fill:rgb(35,31,32);fill-rule:nonzero;"/>
            <path d="M1932.55,1085.7C1957.96,1163.44 1978.99,1376.11 2015.19,1678.63L1952.93,1681.7C1934.54,1590.55 1913.62,1544.3 1892.65,1412.92C1844.38,1302.82 1818.3,1198.28 1804.43,1091.3L1932.55,1085.7Z" style="fill:rgb(35,31,32);fill-rule:nonzero;"/>
            <path d="M1848.26,1089.38C1842.33,1250.75 1792.24,1421.79 1792.24,1421.79C1784.96,1561.04 1790.07,1583 1783.64,1682.45L1727.38,1681.51C1723,1613.66 1664.04,1309.16 1720.58,1094.96L1848.26,1089.38Z" style="fill:rgb(35,31,32);fill-rule:nonzero;"/>
            <path d="M1783.64,1682.45C1788.56,1709.34 1792.09,1730.32 1789.9,1754.64L1653.63,1756.82C1653.63,1756.82 1640.19,1743.64 1657.22,1724C1674.24,1704.35 1706.41,1715.86 1727.38,1681.51L1783.64,1682.45Z" style="fill:rgb(35,31,32);fill-rule:nonzero;"/>
            <path d="M1647.45,1757.16L1792.21,1757.66C1794.85,1757.67 1794.21,1743.2 1791.57,1743.2L1647.41,1743.28C1644.7,1743.27 1644.73,1757.15 1647.45,1757.16Z" style="fill:rgb(35,31,32);fill-rule:nonzero;"/>
            <path d="M1843.87,809.108C1876.11,813.913 1896.25,791.47 1901,782.074L1898.97,716.788L1862,713.061C1851.27,713.913 1840.54,716.446 1831.31,720.056L1822.84,763.011L1820.97,772.325C1816.75,781.485 1811.63,804.304 1843.87,809.108Z" style="fill:rgb(247,147,126);fill-rule:nonzero;"/>
            <path d="M1886.47,731.524C1880.64,740.431 1856.28,763.207 1822.84,763.011L1830.17,725.847L1886.47,731.524Z" style="fill:rgb(209,115,96);fill-rule:nonzero;"/>
            <path d="M1798.5,691.391C1798.7,694.142 1799.2,696.926 1799.97,699.711C1800.15,700.367 1800.34,701.007 1800.54,701.664C1806.27,719.577 1822.47,736.598 1836.93,739.238C1848.81,740.493 1863.14,738.928 1875.9,734.814C1876.11,734.751 1876.32,734.672 1876.53,734.608C1884.96,731.839 1892.67,727.932 1898.44,722.995C1903.35,717.271 1911.03,706.84 1917.96,695.127C1922.55,687.387 1926.81,679.071 1929.72,671.198C1931.48,666.455 1932.65,661.79 1933.27,657.219C1938.19,622.025 1911.7,592.736 1878.99,585.22C1849.46,578.451 1827.53,586.035 1814.91,611.16C1811.72,617.498 1809.12,624.972 1807.14,633.6C1806.33,637.099 1805.3,641.685 1804.25,646.798C1801.16,661.69 1797.77,681.043 1798.5,691.391Z" style="fill:rgb(247,159,141);fill-rule:nonzero;"/>
            <path d="M1917.24,698.409C1925,684.86 1914.77,679.326 1903.5,689.827C1905.46,679.59 1917.24,649.616 1906.93,639.628C1895.28,628.041 1843.85,632.89 1816.33,603.996C1816.33,603.996 1837.07,558.928 1904.55,585.817C1980.73,626.544 1917.24,698.409 1917.24,698.409Z" style="fill:rgb(115,56,42);fill-rule:nonzero;"/>
            <path d="M1939.87,624.875C1937.04,636.194 1856.76,626.008 1856.76,626.008C1856.76,626.008 1854.73,625.56 1851.49,624.559C1838.19,620.456 1804.38,607.05 1805.8,577.169C1807.89,546.513 1821.98,533.693 1822.42,533.296C1822.4,533.374 1822.25,533.788 1822.08,534.478C1821.19,537.831 1819.29,547.564 1825.07,553.918C1825.07,553.918 1825.07,553.754 1825.1,553.461L1825.1,553.436C1825.38,550.073 1828.54,530.21 1862.18,529.865C1862.76,529.848 1863.34,529.848 1863.94,529.857C1852.96,533.4 1857.82,562.306 1857.82,562.306C1857.82,562.306 1857.94,562.039 1858.21,561.582C1859.59,559.186 1864.83,551.436 1876.36,547.797C1876.53,547.737 1876.71,547.676 1876.9,547.625C1869.49,580.945 1958.27,576.586 1939.87,624.875Z" style="fill:rgb(115,56,42);fill-rule:nonzero;"/>
            <path d="M1933.43,1026.08C1933.43,1026.08 1939.89,1102.64 1946.58,1137.88L1787.57,1139.12L1729.15,1139.58L1707.75,1139.74C1716.84,1087.6 1723.57,1085.6 1741.09,960.948C1751.08,846.958 1754.9,805.834 1769.4,789.594C1782.46,782.012 1793.74,777.969 1810.63,775.78C1811.05,775.729 1811.48,775.667 1811.91,775.616C1814.48,775.299 1817.19,775.022 1820.05,774.787C1818.2,824.653 1885.93,815.372 1900.67,777.11C1924.23,779.3 1953.21,788.766 1963.88,810.009C1980.87,846.665 1933.43,1026.08 1933.43,1026.08Z" style="fill:white;fill-rule:nonzero;"/>
            <path d="M1820.4,783.117C1820.4,783.117 1792.22,848.435 1790.77,885.929C1789.68,914.081 1788.22,1065.44 1787.57,1139.12L1729.15,1139.58L1754.82,895.2L1764.23,833.545L1810.63,775.78L1811.25,775.022L1811.91,775.616L1820.4,783.117Z" style="fill:rgb(227,235,255);fill-rule:nonzero;"/>
            <path d="M1905.9,682.631C1915.25,655.947 1875.24,641.581 1875.24,641.581L1855.8,696.236C1855.8,696.236 1896.54,709.315 1905.9,682.631Z" style="fill:rgb(35,31,32);fill-rule:nonzero;"/>
            <path d="M1873.03,640.872C1899.36,651.002 1881.99,706.06 1853.47,695.814L1787.18,675.481C1765.42,665.279 1779.12,614.193 1808.26,621.243L1873.03,640.872Z" style="fill:rgb(35,31,32);fill-rule:nonzero;"/>
            <path d="M1859.66,693.169C1870.57,693.743 1878.81,682.165 1881.31,670.432C1883.32,660.996 1882.01,648.577 1871.74,644.542L1807.54,625.09L1807.48,625.087C1792.87,622.68 1784.85,636.743 1783.5,641.264C1778.35,658.498 1782.45,668.978 1788.98,671.972L1854.65,692.107C1856.43,692.745 1858.07,693.085 1859.66,693.169Z" style="fill:rgb(212,230,255);fill-rule:nonzero;"/>
            <path d="M1866.85,651.641C1867.26,651.623 1867.62,651.356 1867.74,650.95C1867.9,650.436 1867.61,649.893 1867.09,649.738L1806.87,631.774C1806.36,631.617 1805.82,631.911 1805.66,632.425C1805.51,632.939 1805.8,633.481 1806.31,633.636L1866.53,651.6C1866.64,651.633 1866.75,651.645 1866.85,651.641Z" style="fill:rgb(83,174,250);fill-rule:nonzero;"/>
            <path d="M1881.5,644.472L1897.6,689.199L1933.11,677.559L1934.97,668.866L1881.5,644.472Z" style="fill:rgb(35,31,32);fill-rule:nonzero;"/>
            <path d="M1907.59,684.48C1901.73,691.566 1901.45,700.991 1906.97,705.532C1912.49,710.073 1921.73,708.011 1927.59,700.925C1933.46,693.84 1933.74,684.415 1928.22,679.874C1922.69,675.333 1913.46,677.395 1907.59,684.48Z" style="fill:rgb(247,159,141);fill-rule:nonzero;"/>
            <path d="M1816.85,702.188C1817.74,711.209 1825.55,716.788 1831.29,718.254C1845.31,721.827 1855.62,714.119 1860.78,708.25C1859.26,708.489 1857.78,708.666 1856.31,708.773C1833.3,710.512 1817.12,696.774 1817.12,696.774C1816.75,698.697 1816.67,700.504 1816.85,702.188Z" style="fill:rgb(189,74,49);fill-rule:nonzero;"/>
            <path d="M1816.79,700.776C1818.46,702.429 1821.45,705.243 1825.05,707.07C1839.62,714.45 1853.21,711.772 1853.86,711.579L1856.31,708.773C1833.3,710.512 1817.12,696.774 1817.12,696.774C1816.75,698.697 1816.61,699.092 1816.79,700.776Z" style="fill:white;fill-rule:nonzero;"/>
            <path d="M2068.38,924.095L2003.29,851.262L1942.16,916.489C1942.16,916.489 2003.99,970.443 2028.95,978.034C2064.82,999.583 2092.12,955.221 2068.38,924.095Z" style="fill:rgb(247,165,148);fill-rule:nonzero;"/>
            <path d="M1953.4,796.667C1945.71,794.204 1938.75,792.866 1932.48,792.464L1932.48,910.395C1952.29,928.367 1971.78,944.937 1971.78,944.937C1972.69,917.873 2001.56,879.172 2033.57,880.303C2014.83,854.347 1988.99,826.385 1953.4,796.667Z" style="fill:rgb(83,136,250);fill-rule:nonzero;"/>
            <path d="M2012.52,765.687L2010.79,921.692C2010.73,945.666 2021.86,991.829 2069.06,973.668C2095.16,933.258 2040.98,758.532 2040.98,758.532L2012.52,765.687Z" style="fill:rgb(247,165,148);fill-rule:nonzero;"/>
            <path d="M2042.76,765.567C2042.76,765.567 2045.71,726.105 2037.6,722.611C2029.49,719.117 1998.23,711.564 1998.23,711.564C1998.23,711.564 1994.48,723.418 2002.63,728.066C2010.79,732.714 2019.17,731.345 2019.17,731.345C2019.17,731.345 2016.49,748.517 2021.25,756.764C2026,765.012 2037.5,768.992 2042.76,765.567Z" style="fill:rgb(247,165,148);fill-rule:nonzero;"/>
            <path d="M1980.03,723.477C1970.43,729.133 1975.32,740.388 1975.32,740.388C1975.32,740.388 1967.44,751.281 1975.63,759.896C1970.36,768.336 1979.09,777.028 1979.09,777.028L2022.61,785.389L2043.91,766.221L2033.92,727.413C2033.92,727.413 1987.47,720.686 1980.03,723.477Z" style="fill:rgb(247,165,148);fill-rule:nonzero;"/>
            <path d="M1999.27,773.982L2001.87,773.71L2023.24,758.359L2024.25,687.852L2001.42,686.854L1999.27,773.982Z" style="fill:rgb(35,31,32);fill-rule:nonzero;"/>
            <path d="M2002.02,697.425L1976.2,685.283C1971.68,683.887 1970.94,661.538 1977.24,664.263C1977.24,664.263 2032.64,687.138 2034.88,688.801C2039.51,691.698 2032.52,707.241 2028.32,705.638L2002.02,697.425Z" style="fill:rgb(35,31,32);fill-rule:nonzero;"/>
            <path d="M2021.23,758.187C2021.23,758.187 2021.5,764.125 2021.28,768.218C2021.46,770.227 2001.39,771.671 2001.39,771.671L2007.09,760.997L2021.23,758.187Z" style="fill:rgb(35,31,32);fill-rule:nonzero;"/>
            <path d="M1983.46,684.493L1981.12,696.104L1990.43,699.48L1997.13,689.748L1983.46,684.493Z" style="fill:rgb(35,31,32);fill-rule:nonzero;"/>
            <path d="M1999.36,723.153C1999.36,723.153 2030.85,724.398 2034.37,729.382C2037.89,734.367 2025.96,740.111 2025.96,740.111C2025.96,740.111 2037.86,745.723 2035.07,750.823C2032.27,755.923 2023.79,757.511 2023.79,757.511C2023.79,757.511 2036.31,765.108 2031.69,769.344C2027.06,773.581 2002.17,776.541 2002.17,776.541L1977.61,771.942L1999.36,723.153Z" style="fill:rgb(247,165,148);fill-rule:nonzero;"/>
            <path d="M1814.74,772.928C1778.16,838.372 1770.42,1023.52 1756.91,1184.69L1689.5,1178.42L1738.1,942.231L1742.92,878.362L1748.2,796.268C1770.79,785.631 1793.19,776.396 1814.74,772.928Z" style="fill:rgb(83,136,250);fill-rule:nonzero;"/>
            <path d="M1737.81,939.362C1737.77,939.362 1737.73,939.359 1737.69,939.354C1737.14,939.287 1736.75,938.787 1736.82,938.239C1743.12,887.317 1743.7,850.88 1743.7,850.518C1743.71,849.97 1744.16,849.532 1744.7,849.532L1744.72,849.532C1745.27,849.54 1745.71,849.994 1745.7,850.546C1745.7,850.909 1745.12,887.446 1738.8,938.485C1738.74,938.991 1738.31,939.362 1737.81,939.362Z" style="fill:white;fill-rule:nonzero;"/>
            <path d="M1955.73,1008.24L1985.78,1175.28C1985.78,1175.28 1961.75,1180.51 1896.95,1180.51C1858.28,1022.71 1903.22,775.022 1903.22,775.022C1941.88,777.632 1987.87,828.316 1987.87,828.316L1961.42,933.37L1950.24,977.761L1955.73,1008.24Z" style="fill:rgb(83,136,250);fill-rule:nonzero;"/>
            <path d="M1950.24,977.761L1955.73,1008.24C1955.73,1008.24 1939.45,979.332 1939.28,952.856C1939.1,926.381 1930.83,903.638 1930.83,903.638L1960.53,935.264L1950.24,977.761Z" style="fill:rgb(58,113,232);fill-rule:nonzero;"/>
            <path d="M1825.1,749.936L1794.01,760.909L1799.76,811.334C1807.44,795.266 1814.25,786.412 1820.4,783.117L1825.1,749.936Z" style="fill:rgb(83,136,250);fill-rule:nonzero;"/>
            <path d="M1900.08,748.542C1899,757.491 1894.16,762.825 1891.38,767.005C1888.59,785.817 1897.5,801.965 1898.34,819.608L1908.45,775.018C1909.48,765.596 1907.25,756.683 1900.08,748.542Z" style="fill:rgb(83,136,250);fill-rule:nonzero;"/>
            <path d="M442.2,1769.44L2064.23,1769.44C2066.91,1769.44 2069.09,1767.26 2069.09,1764.57C2069.09,1761.89 2066.91,1759.71 2064.23,1759.71L442.2,1759.71C439.511,1759.71 437.332,1761.89 437.332,1764.57C437.332,1767.26 439.511,1769.44 442.2,1769.44Z" style="fill-rule:nonzero;"/>
        </g>
    </g>
    <defs>
        <linearGradient id="_Linear1" x1="0" y1="0" x2="1" y2="0" gradientUnits="userSpaceOnUse" gradientTransform="matrix(7.38156e-12,-717.577,717.577,7.38156e-12,904.447,1463.81)"><stop offset="0" style="stop-color:rgb(98,205,255);stop-opacity:1"/><stop offset="0.2" style="stop-color:rgb(175,230,255);stop-opacity:1"/><stop offset="0.6" style="stop-color:rgb(226,246,255);stop-opacity:1"/><stop offset="1" style="stop-color:rgb(230,247,255);stop-opacity:1"/></linearGradient>
        <linearGradient id="_Linear2" x1="0" y1="0" x2="1" y2="0" gradientUnits="userSpaceOnUse" gradientTransform="matrix(1.71786e-12,166.997,-166.997,1.71786e-12,889.095,1355.77)"><stop offset="0" style="stop-color:rgb(98,205,255);stop-opacity:1"/><stop offset="0.7" style="stop-color:rgb(217,244,255);stop-opacity:1"/><stop offset="1" style="stop-color:rgb(230,247,255);stop-opacity:1"/></linearGradient>
    </defs>
</svg>
