<?xml version="1.0" encoding="UTF-8" standalone="no"?>
<!DOCTYPE svg PUBLIC "-//W3C//DTD SVG 1.1//EN" "http://www.w3.org/Graphics/SVG/1.1/DTD/svg11.dtd">
<svg width="100%" height="100%" viewBox="0 0 994 727" version="1.1" xmlns="http://www.w3.org/2000/svg" xmlns:xlink="http://www.w3.org/1999/xlink" xml:space="preserve" xmlns:serif="http://www.serif.com/" style="fill-rule:evenodd;clip-rule:evenodd;stroke-linejoin:round;stroke-miterlimit:2;">
    <g transform="matrix(1,0,0,1,-60.9997,-47.485)">
        <g>
            <path d="M917.845,773.903C911.682,773.903 905.487,773.671 899.221,773.104C875.284,770.941 851.021,769.86 827.203,766.772C772.541,759.685 717.854,759.266 662.794,759.266C640.935,759.266 619.082,759.068 597.228,759.068C565.4,759.068 533.58,759.487 501.815,761.546C452.26,764.758 402.63,765.27 352.986,765.27C345.503,765.27 338.012,765.258 330.529,765.242C330.046,765.241 329.566,765.241 329.083,765.241C301.599,765.241 274.221,766.881 246.779,768.039C219.217,769.203 192.414,771.114 165.01,771.114C162.536,771.114 160.054,771.098 157.568,771.065C130.184,770.701 88.487,762.974 68.951,743.28C57.352,731.579 58.924,703.429 70.541,692.147C75.616,687.219 83.797,683.358 90.479,681.01C109.515,674.321 128.889,674.304 148.78,674.166C149.025,674.164 149.269,674.163 149.514,674.163C163.24,674.163 177.51,676.843 190.665,680.565C202.634,683.952 214.862,685.139 227.035,687.248C236.997,688.974 247.654,689.8 258.195,689.8C265.053,689.799 271.863,689.45 278.395,688.77C296.069,686.931 313.869,686.076 331.596,684.626C353.607,682.827 375.149,678.925 397.084,676.833C408.064,675.786 418.791,673.19 429.747,672.01C458.805,668.88 487.914,668.202 517.023,668.118C519.38,668.111 521.736,668.108 524.093,668.108C537.954,668.108 551.816,668.209 565.67,668.209C576.938,668.209 588.2,668.176 599.462,668.176C637.988,668.176 676.482,668.559 714.905,671.943C726.813,672.992 738.643,672.358 750.385,674.853C762.173,677.359 774.073,679.645 786.151,680.091C796.484,680.473 806.846,680.599 817.222,680.599C835.679,680.599 854.171,680.201 872.566,680.136C874.409,680.13 876.972,680.119 880.153,680.119C921.326,680.119 1064.76,681.95 1054.47,719.021C1050.52,733.266 1027.53,751.805 1014.64,757.773C998.353,765.312 980.54,769.772 962.611,771.275C947.5,772.543 932.766,773.903 917.845,773.903Z" style="fill:rgb(246,234,234);fill-rule:nonzero;"/>
            <path d="M374.595,142.613C376.61,142.613 378.607,142.688 380.588,142.821C387.281,104.203 421.166,74.82 461.966,74.82C480.625,74.82 497.836,80.968 511.664,91.331C526.609,65.152 554.919,47.485 587.387,47.485C635.429,47.485 674.375,86.16 674.375,133.866C674.375,136.89 674.217,139.876 673.911,142.82C675.885,142.687 677.873,142.613 679.88,142.613C727.922,142.613 766.867,181.288 766.867,228.995C766.867,276.703 727.922,315.377 679.88,315.377L374.595,315.377C326.554,315.377 287.607,276.703 287.607,228.995C287.607,181.288 326.554,142.613 374.595,142.613Z" style="fill:rgb(140,171,239);fill-rule:nonzero;"/>
            <path d="M521.395,409.178L505.603,414.595L480.051,452.891L447.331,430.999L436.934,443.34L453.436,467.827L483.148,489.045L521.395,449.018L521.395,409.178Z" style="fill:rgb(59,51,135);fill-rule:nonzero;"/>
            <path d="M594.385,324.254L595.593,307.073L581.696,296.314L575.868,303.935L582.145,315.142L579.903,320.969L586.063,330.223L594.385,324.254Z" style="fill:rgb(234,193,164);fill-rule:nonzero;"/>
            <path d="M484.272,519.376L483.148,616.586L493.508,741.726L507.594,741.726L524.448,626.273L543.724,510.623L484.272,519.376Z" style="fill:rgb(41,41,73);fill-rule:nonzero;"/>
            <path d="M507.513,747.665L492.28,755.281L484.665,747.665L492.28,740.049L507.513,740.049L507.513,747.665Z" style="fill:rgb(31,31,53);fill-rule:nonzero;"/>
            <path d="M580.846,519.376L581.123,575.616L571.623,741.726L557.537,741.726L533.974,631.496L521.395,510.623L580.846,519.376Z" style="fill:rgb(41,41,73);fill-rule:nonzero;"/>
            <path d="M557.618,747.665L572.851,755.281L580.467,747.665L572.851,740.049L557.618,740.049L557.618,747.665Z" style="fill:rgb(31,31,53);fill-rule:nonzero;"/>
            <path d="M595.495,553.239C595.797,562.162 595.604,574.098 591.846,574.543C591.143,574.627 590.464,574.316 589.846,574.015C583.313,570.841 578.656,566.355 572.215,563.289C565.466,560.075 557.796,558.394 550.3,557.233C539.118,555.447 527.753,554.374 516.499,554.274C506.828,554.188 496.771,558.6 487.627,561.026C484.107,561.96 481.245,564.525 478.321,566.537C474.003,569.508 472.109,570.685 472.698,564.614C473.659,554.709 474.657,544.806 475.876,534.928C478.307,515.229 481.615,495.573 487.213,476.501C489.352,469.215 491.818,462.031 494.284,454.85C497.288,446.104 500.291,437.358 503.294,428.613C507.026,417.744 513.326,410.087 524.356,406.285C533.889,402.999 545.729,402.1 555.001,406.7C565.308,411.813 570.209,429.231 575.217,438.54C579.604,446.697 585.136,468.945 586.777,477.739C588.755,488.323 590.581,498.857 592.019,509.364C593.61,521.001 594.733,532.604 595.058,544.138C595.094,545.413 595.351,548.979 595.495,553.239Z" style="fill:rgb(59,51,135);fill-rule:nonzero;"/>
            <path d="M533.038,408.607C533.261,408.801 533.519,408.955 533.816,409.052C534.407,409.247 535.05,409.176 535.668,409.103C538.186,408.805 540.704,408.507 543.222,408.209C542.392,400.498 546.898,398.754 551.291,393.795C555.743,388.767 554.373,381.988 554.123,375.836C554.052,374.122 553.968,372.357 553.243,370.803C551.972,368.075 549.012,366.568 546.138,365.675C538.804,363.396 530.416,363.958 523.958,368.115C522.239,369.221 520.635,370.611 519.703,372.431C518.268,375.236 518.633,378.584 519.033,381.71C519.648,386.515 521.07,391.234 523.787,395.283C526.318,399.056 531.145,400.863 531.699,405.391C531.843,406.561 532.196,407.876 533.038,408.607Z" style="fill:rgb(234,193,164);fill-rule:nonzero;"/>
            <path d="M519.245,376.125C519.674,378.063 520.577,380.024 520.106,381.951C517.028,380.906 515.018,377.758 513.927,374.558C513.434,373.108 513.073,371.572 513.198,370.037C513.323,368.502 513.989,366.96 515.201,366.093C516.892,364.883 519.925,365.358 520.409,367.552C520.896,369.763 518.602,373.21 519.245,376.125Z" style="fill:rgb(41,41,73);fill-rule:nonzero;"/>
            <path d="M502.905,359.104C502.979,356.783 503.863,354.708 505.938,353.307C507.727,352.099 509.788,351.097 510.875,349.177C511.718,347.687 511.842,345.841 512.677,344.346C514.19,341.639 517.476,340.842 520.333,339.925C527.481,337.629 531.329,334.979 538.9,337.918C544.283,340.007 551.238,340.287 556.233,343.335C558.32,344.608 560.095,346.652 561.552,348.93C566.599,356.821 567.811,367.917 564.523,376.146C563.788,377.989 562.853,379.683 561.854,381.305C559.854,384.549 557.714,388.54 554.176,390.127C553.953,388.599 552.815,387.755 552.459,386.253C552.202,385.172 552.288,384.04 552.344,382.927C552.562,378.6 553.889,371.757 549.567,369.611C544.103,366.898 533.852,369.346 528.589,371.643C523.932,373.675 516.072,376.319 511.106,374.142C506.497,372.121 502.75,364.064 502.905,359.104Z" style="fill:rgb(41,41,73);fill-rule:nonzero;"/>
            <path d="M550.687,405.711L599.009,391.47L581.123,331.057L595.862,320.485L631.44,390.422L621.602,414.641L575.433,438.472L550.687,405.711Z" style="fill:rgb(59,51,135);fill-rule:nonzero;"/>
            <path d="M858.793,398.415L844.69,399.007L802.638,438.909L740.179,430.548L736.029,445.841L797.411,467.827L815.945,467.827L848.81,447.653L858.793,398.415Z" style="fill:rgb(247,247,247);fill-rule:nonzero;"/>
            <path d="M740.303,440.027L732.02,446.3L725.356,446.778L724.9,444.559L728.444,442.319L715.556,441.94L713.305,436.174L727.493,429.881L741.677,431.292L740.303,440.027Z" style="fill:rgb(234,193,164);fill-rule:nonzero;"/>
            <path d="M829.614,724.736L817.9,733.033L813.995,739.378C813.995,739.378 818.389,741.331 820.829,741.819C823.27,742.307 842.305,739.378 842.305,739.378L842.305,728.152L829.614,724.736Z" style="fill:rgb(31,31,53);fill-rule:nonzero;"/>
            <path d="M920.637,728.27L916.314,736.133C916.314,736.133 913.609,746.068 915.953,745.387C918.296,744.707 931.36,742.436 931.889,740.757C932.418,739.079 938.087,732.349 938.752,731.14C939.417,729.93 936.596,721.836 936.596,721.836L920.637,728.27Z" style="fill:rgb(31,31,53);fill-rule:nonzero;"/>
            <path d="M840.519,543.208L878.342,656.123L920.637,728.27L937.042,723.504L909.001,641.217C909.001,641.217 905.614,558.557 900.076,534.245L840.519,543.208Z" style="fill:rgb(53,58,133);fill-rule:nonzero;"/>
            <path d="M810.579,560.249L825.222,728.152L842.793,728.152L848.162,642.248L858.249,566.193L819.853,521.201L810.579,560.249Z" style="fill:rgb(53,58,133);fill-rule:nonzero;"/>
            <path d="M810.016,452.81C811.834,444.156 812.551,434.841 816.837,426.773C821.123,418.704 829.219,412.592 835.469,405.731C838.117,402.825 840.942,399.8 844.879,398.415C847.577,397.465 850.553,397.379 853.459,397.306C862.272,397.084 871.087,396.862 879.901,396.64C883.114,396.559 886.456,396.5 889.386,397.66C893.775,399.4 896.257,403.443 898.426,407.216C903.966,416.849 904.987,427.535 905.483,438.423C905.467,438.526 912.359,575.186 906.892,572.62C900.084,569.425 892.295,567.727 884.656,566.538C873.886,564.812 862.89,563.715 851.913,563.445L832.59,564.749L820.93,564.749C813.931,565.428 814.506,567.532 807.313,567.094C802.711,566.814 807.932,462.729 810.016,452.81Z" style="fill:rgb(247,247,247);fill-rule:nonzero;"/>
            <path d="M860.646,401.726C865.021,401.536 869.395,401.346 873.769,401.156C874.005,397.672 873.961,394.17 873.64,390.693C877.336,389.619 881.633,387.939 882.475,384.183C882.74,383 882.602,381.768 882.461,380.564C881.883,375.585 881.304,370.606 880.726,365.627C880.525,363.905 880.31,362.132 879.463,360.619C877.978,357.964 874.881,356.667 871.916,355.981C864.354,354.232 855.939,355.425 849.74,360.098C848.091,361.342 846.577,362.863 845.774,364.767C844.537,367.703 845.155,371.05 845.792,374.171C846.381,377.052 846.969,379.934 847.557,382.814C848.233,386.128 849.266,389.909 852.344,391.309C853.979,392.052 855.962,391.971 857.421,393.017C859.995,394.862 859.415,398.809 860.646,401.726Z" style="fill:rgb(234,193,164);fill-rule:nonzero;"/>
            <path d="M836.41,338.45C837.381,338.276 838.372,338.072 839.376,337.635C842.544,336.255 844.765,333.489 848.13,332.195C854.936,329.577 863.473,329.957 870.158,332.769C876.557,335.46 885.289,336.495 891.015,340.111C893.406,341.621 895.256,343.876 896.659,346.331C901.521,354.838 900.922,366.162 895.19,374.109C893.904,375.892 892.395,377.503 890.817,379.034C887.553,382.203 883.641,386.123 879.336,387.126C879.444,383.331 883.56,371.573 880.821,368.305C877.19,363.973 870.064,364.083 864.958,364.562C858.873,365.131 853.864,363.178 847.796,363.481C844.705,363.636 841.21,364.257 838.84,362.267C836.1,359.966 830.308,352.658 828.934,349.451C827.73,346.644 828.533,343.186 830.624,340.958C832.429,339.036 834.377,338.813 836.41,338.45Z" style="fill:rgb(41,41,73);fill-rule:nonzero;"/>
            <path d="M861.828,401.619C861.371,404.821 860.389,408.455 860.389,408.455C860.389,408.455 836.017,478.664 833.699,484.27C833.182,485.522 832.926,486.863 832.926,488.218L838.521,504.651L849.626,490.918L864.693,412.247L868.354,409.106L869.638,401.13L861.828,401.619Z" style="fill:rgb(214,112,134);fill-rule:nonzero;"/>
            <path d="M873.887,435.488L867.479,474.455L797.555,492.595L797.555,511.25L881.207,502.409L895.663,479.06L894.271,418.624L873.887,435.488Z" style="fill:rgb(247,247,247);fill-rule:nonzero;"/>
            <path d="M797.555,507.636L789.541,511.25L773.165,507.526L775.954,498.665L788.671,497.909L791.229,493.607L797.434,495.265L797.555,507.636Z" style="fill:rgb(234,193,164);fill-rule:nonzero;"/>
            <path d="M442.554,431.535L426.427,437.584L422.424,454.697L431.778,456.826L439.358,446.457L445.591,446.071L451.442,436.62L442.554,431.535Z" style="fill:rgb(234,193,164);fill-rule:nonzero;"/>
            <path d="M226.214,748.762L225.549,755.683L211.538,761.685L205.53,754.305L212.868,747.844L226.879,741.842L226.214,748.762Z" style="fill:rgb(31,31,53);fill-rule:nonzero;"/>
            <path d="M237.915,608.497L227.127,746.58L213.627,748.415L202.453,630.725L193.215,593.387L237.915,608.497Z" style="fill:rgb(71,78,187);fill-rule:nonzero;"/>
            <path d="M270.2,572.261L278.294,736.342L265.979,738.66L240.32,614.504L226.205,578.555L270.2,572.261Z" style="fill:rgb(71,78,187);fill-rule:nonzero;"/>
            <path d="M267.074,744.09L281.705,748.565L287.05,740.332L279.077,734.604L265.76,737.11L267.074,744.09Z" style="fill:rgb(31,31,53);fill-rule:nonzero;"/>
            <path d="M252.788,395.044C242.816,386.79 218.775,391.536 206.128,391.536C207.345,391.536 194.14,462.142 193.722,468.3C192.198,490.75 185.242,513.459 175.642,534.016C171.594,542.682 166.77,551.042 163.892,560.164C159.123,575.279 159.136,593.087 160.483,608.733C174.059,612.463 186.772,619.451 200.734,621.262C212.219,622.751 223.818,620.639 235.355,619.618C248.997,618.411 262.735,618.732 276.391,617.683C290.047,616.633 303.851,614.123 315.938,607.683C310.531,597.223 306.369,586.171 302.905,574.932C299.466,563.771 295.041,551.376 293.786,539.737C292.651,529.224 292.466,518.526 290.937,507.866C289.157,495.465 287.019,483.105 284.049,470.929C280.651,457.005 276.17,443.348 270.667,430.114C266.478,420.04 261.479,403.54 253.607,395.785C253.347,395.527 253.073,395.28 252.788,395.044Z" style="fill:rgb(221,218,232);fill-rule:nonzero;"/>
            <path d="M231.604,356.876C237.921,358.026 245.71,363.424 247.231,370.088C247.965,373.297 246.92,376.252 247.841,379.656C249.632,386.373 241.504,396.269 249.55,400.937C253.685,403.337 258.853,402.56 263.558,401.709C264.128,401.606 264.725,401.491 265.176,401.127C265.919,400.528 266.044,399.408 265.762,398.496C265.48,397.584 264.876,396.814 264.348,396.02C258.819,387.707 260.159,375.783 258.01,366.316C255.864,356.867 250.787,347.456 241.427,343.578C236.76,346.601 233.366,351.527 232.204,356.964L231.604,356.876Z" style="fill:rgb(41,41,73);fill-rule:nonzero;"/>
            <path d="M239.53,397.555C245.608,394.955 249.635,388.768 250.958,382.291C252.281,375.815 251.232,369.072 249.443,362.709C243.488,341.534 216.912,347.599 210.716,365.707C205.315,381.488 221.858,405.113 239.53,397.555Z" style="fill:rgb(234,193,164);fill-rule:nonzero;"/>
            <path d="M208.59,409.204C211.572,407.349 214.498,405.407 216.227,401.943C219.021,396.345 217.842,387.646 218.176,381.572C218.524,375.17 219.107,368.194 223.497,363.521C226.364,360.468 229.891,359.631 233.873,359.225C236.601,358.947 236.794,359.971 238.978,358.308C240.651,357.033 241.877,353.549 242.118,351.553C242.525,348.186 240.897,344.81 238.492,342.418C234.789,338.739 230.634,337.11 225.555,337.431C207.726,338.557 195.268,350.248 191.735,368.062C190.037,376.625 192.616,385.776 190.73,394.038C189.565,399.139 186.667,402.718 185.828,408.116C183.653,422.122 177.57,440.315 179.358,454.453C179.425,454.976 179.536,455.552 179.959,455.867C180.82,456.508 181.946,455.542 182.575,454.671C186.245,449.588 189.915,444.504 193.586,439.421C195.026,437.425 196.486,435.396 197.321,433.08C199.4,427.313 197.469,420.249 201.056,415.279C203.013,412.566 205.826,410.922 208.59,409.204Z" style="fill:rgb(41,41,73);fill-rule:nonzero;"/>
            <path d="M180.544,544.9C180.032,548.463 182.881,557.572 186.22,559.553C193.927,564.125 191.135,552.633 191.062,548.443C192.534,548.862 193.946,549.312 195.442,549.435C196.814,549.548 192.752,537.259 191.399,536.115C188.153,533.369 185.847,534.779 181.903,535.203C181.527,538.436 181.009,541.67 180.544,544.9Z" style="fill:rgb(234,193,164);fill-rule:nonzero;"/>
            <path d="M190.247,415.262L149.888,485.729L178.593,547.284L188.325,534.417L178.075,479.324L216.202,456.026L212.027,410.777L190.247,415.262Z" style="fill:rgb(221,218,232);fill-rule:nonzero;"/>
            <path d="M258.226,401.726L294.027,458.931L313.661,431.656L332.21,434.777L323.415,479.031L299.063,497.105L258.226,472.618L258.226,401.726Z" style="fill:rgb(221,218,232);fill-rule:nonzero;"/>
            <path d="M449.876,527.54L323.457,516.771C318.674,516.363 315.128,512.156 315.535,507.373L316.815,492.337C317.224,487.555 321.431,484.008 326.213,484.416L452.632,495.185C457.415,495.592 460.961,499.8 460.554,504.582L459.273,519.618C458.865,524.4 454.658,527.947 449.876,527.54Z" style="fill:rgb(61,80,146);fill-rule:nonzero;"/>
            <path d="M340.385,483.229L335.433,525.419C334.253,535.469 324.765,542.964 314.715,541.784L228.791,531.698C218.74,530.519 211.246,521.031 212.426,510.98L217.378,468.791C218.558,458.741 228.045,451.247 238.096,452.426L324.02,462.512C334.07,463.691 341.564,473.179 340.385,483.229ZM327.187,435.536L241.262,425.45C216.228,422.512 193.341,440.59 190.402,465.625L185.45,507.814C182.512,532.848 200.59,555.735 225.624,558.674L311.548,568.76C336.583,571.698 359.47,553.62 362.408,528.585L367.36,486.396C370.299,461.362 352.221,438.475 327.187,435.536Z" style="fill:rgb(93,102,211);fill-rule:nonzero;"/>
            <path d="M560.396,532.489C560.396,542.609 551.847,551.158 541.728,551.158L455.213,551.158C445.094,551.158 436.545,542.609 436.545,532.489L436.545,490.01C436.545,479.891 445.094,471.342 455.213,471.342L541.728,471.342C551.847,471.342 560.396,479.891 560.396,490.01L560.396,532.489ZM541.728,444.181L455.213,444.181C430.007,444.181 409.384,464.804 409.384,490.01L409.384,532.489C409.384,557.695 430.007,578.319 455.213,578.319L541.728,578.319C566.934,578.319 587.557,557.695 587.557,532.489L587.557,490.01C587.557,464.804 566.934,444.181 541.728,444.181Z" style="fill:rgb(93,102,211);fill-rule:nonzero;"/>
            <path d="M773.04,539.698L686.679,544.834C676.577,545.435 667.536,537.409 666.935,527.307L664.413,484.903C663.813,474.801 671.839,465.76 681.94,465.159L768.302,460.023C778.403,459.422 787.445,467.449 788.046,477.55L790.567,519.954C791.169,530.056 783.142,539.098 773.04,539.698ZM817.681,518.342L815.159,475.938C813.662,450.776 791.852,431.414 766.689,432.91L680.328,438.046C655.166,439.542 635.804,461.354 637.3,486.516L639.822,528.919C641.318,554.081 663.13,573.444 688.291,571.947L774.653,566.812C799.814,565.315 819.177,543.504 817.681,518.342Z" style="fill:rgb(93,102,211);fill-rule:nonzero;"/>
            <path d="M671.243,522.213L544.365,522.213C539.565,522.213 535.675,518.323 535.675,513.522L535.675,498.433C535.675,493.633 539.565,489.742 544.365,489.742L671.243,489.742C676.043,489.742 679.934,493.633 679.934,498.433L679.934,513.522C679.934,518.323 676.043,522.213 671.243,522.213Z" style="fill:rgb(61,80,146);fill-rule:nonzero;"/>
            <path d="M442.554,431.535L426.427,437.584L422.424,454.697L431.778,456.826L439.358,446.457L445.591,446.071L451.442,436.62L442.554,431.535Z" style="fill:rgb(234,193,164);fill-rule:nonzero;"/>
            <path d="M313.661,431.656L328.634,430.328L338.243,442.282L331.687,447.489L321.808,442.191L316.759,444.24L308.586,439.012L313.661,431.656Z" style="fill:rgb(234,193,164);fill-rule:nonzero;"/>
        </g>
    </g>
</svg>
