<?xml version="1.0" encoding="UTF-8" standalone="no"?>
<!DOCTYPE svg PUBLIC "-//W3C//DTD SVG 1.1//EN" "http://www.w3.org/Graphics/SVG/1.1/DTD/svg11.dtd">
<svg width="100%" height="100%" viewBox="0 0 2956 1593" version="1.1" xmlns="http://www.w3.org/2000/svg" xmlns:xlink="http://www.w3.org/1999/xlink" xml:space="preserve" xmlns:serif="http://www.serif.com/" style="fill-rule:evenodd;clip-rule:evenodd;stroke-linejoin:round;stroke-miterlimit:2;">
    <g transform="matrix(1,0,0,1,-146.048,-198.513)">
        <g>
            <path d="M2915.64,1787.01C2915.64,1787.01 3265.76,1411.09 2974.85,1004.11C2716.74,643.004 2415.8,667.688 2195.01,814.227C2100.97,876.64 1829.85,821.919 1599.09,454.481C1284.4,-46.603 131.338,210.077 334.494,1031.58C426.99,1405.61 99.521,1414.88 297.825,1787.8L2915.64,1787.01Z" style="fill:rgb(235,243,250);fill-rule:nonzero;"/>
            <path d="M149.426,1790.79L3098.57,1790.79C3100.43,1790.79 3101.95,1789.27 3101.95,1787.41L3101.95,1786.19C3101.95,1784.33 3100.43,1782.81 3098.57,1782.81L149.427,1782.81C147.569,1782.81 146.048,1784.33 146.048,1786.19L146.048,1787.42C146.048,1789.27 147.568,1790.79 149.426,1790.79Z" style="fill:rgb(46,53,82);fill-rule:nonzero;"/>
            <path d="M1362.19,1529.03C1362.19,1529.03 1321.06,1481.05 1359.66,1450.57C1359.66,1450.57 1387.85,1433.5 1410.83,1434.89C1410.83,1434.89 1378.26,1489.5 1388.8,1494.94C1399.34,1500.37 1420.7,1431.46 1420.7,1431.46C1420.7,1431.46 1484.86,1425.24 1505.49,1435.16C1505.49,1435.16 1450.65,1480.04 1462.2,1482.71C1473.75,1485.38 1532.99,1441.33 1532.99,1441.33C1532.99,1441.33 1592.7,1451.5 1589.51,1487.92C1586.33,1524.34 1565.75,1535.59 1556.71,1534.62C1547.67,1533.65 1494.78,1513.46 1493.62,1520.87C1492.47,1528.28 1524.31,1552.49 1546.61,1553.62C1546.61,1553.62 1504.51,1600.05 1476.54,1586.65C1448.56,1573.25 1446.17,1552.01 1428.73,1544.05C1411.29,1536.08 1396.41,1536.1 1403.61,1544.23C1410.81,1552.35 1442.37,1560.24 1452.34,1577.89C1462.31,1595.53 1471.26,1607.43 1442.32,1603.07C1413.37,1598.71 1366.32,1577.54 1364.26,1553.28L1362.19,1529.03Z" style="fill:rgb(130,179,120);fill-rule:nonzero;"/>
            <path d="M1560.17,1488.9C1560.17,1488.9 1398.01,1482.65 1362.19,1529.03C1362.19,1529.03 1354.27,1552.75 1329.9,1574.35L1326.1,1584.71C1326.1,1584.71 1354.2,1555.08 1364.26,1553.28C1364.26,1553.28 1348.53,1495.82 1560.17,1488.9Z" style="fill:rgb(130,179,120);fill-rule:nonzero;"/>
            <path d="M1329.9,1574.35C1329.9,1574.35 1295.09,1600.09 1292.67,1646.09L1298.99,1646.65C1298.99,1646.65 1310.11,1599.1 1330.2,1580.5C1350.3,1561.9 1329.9,1574.35 1329.9,1574.35Z" style="fill:rgb(130,179,120);fill-rule:nonzero;"/>
            <path d="M1218.39,1468.69C1218.39,1468.69 1283.82,1432.05 1253.28,1382.32C1253.28,1382.32 1228.86,1351.79 1202.69,1343.94C1202.69,1343.94 1216.64,1418.09 1202.69,1419.83C1188.73,1421.58 1193.09,1336.09 1193.09,1336.09C1193.09,1336.09 1124.17,1302.94 1097.13,1305.55C1097.13,1305.55 1139.88,1377.96 1125.92,1376.21C1111.96,1374.47 1063.98,1301.19 1063.98,1301.19C1063.98,1301.19 993.319,1288.11 981.979,1329.98C970.638,1371.85 988.958,1392.79 999.426,1395.41C1009.89,1398.02 1077.07,1397.15 1075.32,1405.88C1073.58,1414.6 1028.21,1428.56 1002.92,1420.71C1002.92,1420.71 1030.83,1489.62 1067.47,1486.13C1104.11,1482.64 1115.45,1459.96 1138.13,1458.22C1160.81,1456.47 1177.39,1462.58 1166.05,1468.69C1154.71,1474.79 1116.32,1470.69 1098,1486.26C1079.68,1501.84 1064.85,1511.43 1098.88,1518.41C1132.9,1525.39 1193.96,1521.03 1206.18,1494.86L1218.39,1468.69Z" style="fill:rgb(168,210,159);fill-rule:nonzero;"/>
            <path d="M1014.26,1343.07C1014.26,1343.07 1197.45,1402.39 1218.39,1468.69C1218.39,1468.69 1217.52,1498.35 1235.83,1532.37L1235.83,1545.45C1235.83,1545.45 1216.64,1500.96 1206.18,1494.86C1206.18,1494.86 1247.18,1437.28 1014.26,1343.07Z" style="fill:rgb(130,179,120);fill-rule:nonzero;"/>
            <path d="M1235.83,1532.37C1235.83,1532.37 1264.09,1575.27 1247.98,1627.49L1240.71,1625.54C1240.71,1625.54 1247.77,1568.02 1232.99,1539.09C1218.21,1510.16 1235.83,1532.37 1235.83,1532.37Z" style="fill:rgb(130,179,120);fill-rule:nonzero;"/>
            <path d="M1322.48,1418.16C1322.48,1418.16 1236.23,1369.86 1276.48,1304.31C1276.48,1304.31 1308.68,1264.06 1343.18,1253.71C1343.18,1253.71 1324.78,1351.46 1343.18,1353.76C1361.57,1356.06 1355.83,1243.37 1355.83,1243.37C1355.83,1243.37 1446.67,1199.67 1482.32,1203.12C1482.32,1203.12 1425.97,1298.56 1444.37,1296.26C1462.77,1293.96 1526.01,1197.37 1526.01,1197.37C1526.01,1197.37 1619.16,1180.12 1634.11,1235.32C1649.06,1290.51 1624.91,1318.11 1611.11,1321.56C1597.31,1325.01 1508.77,1323.86 1511.07,1335.36C1513.37,1346.86 1573.16,1365.26 1606.51,1354.91C1606.51,1354.91 1569.71,1445.75 1521.42,1441.15C1473.12,1436.55 1458.17,1406.66 1428.27,1404.36C1398.37,1402.06 1376.52,1410.11 1391.47,1418.16C1406.42,1426.2 1457.02,1420.79 1481.17,1441.32C1505.32,1461.85 1524.87,1474.5 1480.02,1483.7C1435.17,1492.9 1354.68,1487.15 1338.58,1452.65L1322.48,1418.16Z" style="fill:rgb(168,210,159);fill-rule:nonzero;"/>
            <path d="M1591.56,1252.57C1591.56,1252.57 1350.08,1330.76 1322.48,1418.16C1322.48,1418.16 1323.63,1457.25 1299.48,1502.1L1299.48,1519.35C1299.48,1519.35 1324.78,1460.7 1338.58,1452.65C1338.58,1452.65 1284.53,1376.76 1591.56,1252.57Z" style="fill:rgb(130,179,120);fill-rule:nonzero;"/>
            <path d="M1299.48,1502.1C1299.48,1502.1 1262.24,1558.65 1283.47,1627.49L1293.05,1624.92C1293.05,1624.92 1283.75,1549.1 1303.23,1510.96C1322.72,1472.83 1299.48,1502.1 1299.48,1502.1Z" style="fill:rgb(130,179,120);fill-rule:nonzero;"/>
            <path d="M1319.57,1776.78C1412.87,1776.78 1488.51,1701.14 1488.51,1607.84L1150.63,1607.84C1150.63,1701.14 1226.27,1776.78 1319.57,1776.78Z" style="fill:rgb(249,151,70);fill-rule:nonzero;"/>
            <path d="M1269.68,1775.48C1276.55,1776.34 1283.56,1776.78 1290.67,1776.78C1383.97,1776.78 1459.6,1701.14 1459.6,1607.83L1417.63,1607.83C1417.63,1694.03 1353.08,1765.15 1269.68,1775.48Z" style="fill:rgb(255,172,110);fill-rule:nonzero;"/>
            <path d="M1490.84,1785.37L1148.3,1785.37C1148.3,1773.86 1157.63,1764.53 1169.14,1764.53L1470,1764.53C1481.51,1764.53 1490.84,1773.86 1490.84,1785.37Z" style="fill:rgb(237,125,43);fill-rule:nonzero;"/>
            <rect x="1145.08" y="1607.83" width="347.27" height="5.19" style="fill:rgb(237,125,43);fill-rule:nonzero;"/>
            <path d="M1005.06,1020.36L1004.97,265.318L2070.75,265.189L2070.84,1020.23L1005.06,1020.36Z" style="fill:rgb(142,178,221);fill-rule:nonzero;"/>
            <path d="M1018.97,279.316L2056.75,279.19L2056.84,1006.23L1019.06,1006.36L1018.97,279.316Z" style="fill:rgb(215,230,250);fill-rule:nonzero;"/>
            <path d="M1650.27,866.246L1286.25,866.29C1279.05,866.291 1273.2,860.449 1273.2,853.242C1273.2,846.035 1279.04,840.192 1286.25,840.191L1650.26,840.147C1657.47,840.146 1663.31,845.988 1663.31,853.195C1663.31,860.402 1657.47,866.245 1650.27,866.246Z" style="fill:rgb(142,178,221);fill-rule:nonzero;"/>
            <path d="M1650.28,942.956L1286.26,943C1279.06,943.001 1273.21,937.159 1273.21,929.952C1273.21,922.745 1279.05,916.902 1286.26,916.901L1650.27,916.857C1657.48,916.856 1663.32,922.698 1663.32,929.905C1663.32,937.112 1657.48,942.955 1650.28,942.956Z" style="fill:rgb(142,178,221);fill-rule:nonzero;"/>
            <path d="M1938.03,794.915L1095.49,795.017L1095.49,788.272L1938.03,788.17L1938.03,794.915Z" style="fill:rgb(142,178,221);fill-rule:nonzero;"/>
            <path d="M1928.6,805.314L1928.6,777.772L1966.37,791.539L1928.6,805.314Z" style="fill:rgb(142,178,221);fill-rule:nonzero;"/>
            <path d="M1134.73,388.945L1134.79,836.886L1141.84,836.886L1141.79,388.944L1134.73,388.945Z" style="fill:rgb(142,178,221);fill-rule:nonzero;"/>
            <path d="M1123.86,401.724L1152.66,401.72L1138.26,367.436L1123.86,401.724Z" style="fill:rgb(142,178,221);fill-rule:nonzero;"/>
            <path d="M1223.82,880.071L1221.65,880.071C1208.58,880.073 1197.98,869.476 1197.97,856.403C1197.97,843.33 1208.57,832.731 1221.64,832.729L1223.82,832.729C1236.89,832.727 1247.49,843.324 1247.49,856.397C1247.49,869.47 1236.9,880.069 1223.82,880.071Z" style="fill:rgb(42,78,150);fill-rule:nonzero;"/>
            <path d="M1223.83,948.049L1221.66,948.05C1208.58,948.051 1197.98,937.455 1197.98,924.381C1197.98,911.308 1208.58,900.709 1221.65,900.708L1223.83,900.707C1236.9,900.706 1247.5,911.302 1247.5,924.375C1247.5,937.449 1236.91,948.048 1223.83,948.049Z" style="fill:rgb(249,151,70);fill-rule:nonzero;"/>
            <path d="M1893.18,409.386L1844.79,413.425L1851.15,425.97L1699.27,497.48L1557.39,735.963L1389.94,592.414L1254.86,657.916L1254.47,658.1L1168.36,738.314L1172.29,742.176L1257.79,662.535L1389.05,598.886L1558.83,744.433L1703.31,501.584L1853.61,430.82L1859.89,443.204L1893.18,409.386Z" style="fill:rgb(105,159,240);fill-rule:nonzero;"/>
            <path d="M1255.85,679.62L1254.24,679.62C1244.57,679.622 1236.73,671.783 1236.72,662.113C1236.72,652.442 1244.56,644.602 1254.23,644.601L1255.84,644.601C1265.51,644.599 1273.35,652.438 1273.35,662.108C1273.35,671.779 1265.52,679.619 1255.85,679.62Z" style="fill:rgb(42,78,150);fill-rule:nonzero;"/>
            <path d="M1701.3,520.628L1699.69,520.628C1690.02,520.63 1682.18,512.791 1682.18,503.121C1682.17,493.45 1690.01,485.61 1699.68,485.609L1701.29,485.609C1710.96,485.608 1718.8,493.446 1718.8,503.116C1718.81,512.787 1710.97,520.627 1701.3,520.628Z" style="fill:rgb(42,78,150);fill-rule:nonzero;"/>
            <path d="M1389.49,617.627L1387.88,617.627C1378.21,617.628 1370.37,609.79 1370.37,600.12C1370.37,590.449 1378.21,582.609 1387.88,582.608L1389.49,582.608C1399.16,582.606 1407,590.445 1407,600.115C1407,609.786 1399.16,617.626 1389.49,617.627Z" style="fill:rgb(42,78,150);fill-rule:nonzero;"/>
            <path d="M1558.11,752.756L1556.5,752.756C1546.83,752.757 1538.99,744.919 1538.99,735.249L1538.99,735.248C1538.99,725.578 1546.83,717.738 1556.5,717.737L1558.11,717.736C1567.78,717.735 1575.62,725.574 1575.62,735.244C1575.62,744.914 1567.78,752.755 1558.11,752.756Z" style="fill:rgb(249,151,70);fill-rule:nonzero;"/>
            <path d="M618.827,612.154C618.827,612.154 656.562,656.923 704.617,638.194C704.617,638.194 714.956,613.191 715.102,594.76C715.118,592.492 715.146,590.294 715.182,588.203C715.439,567.448 716.138,555.802 716.138,555.802C716.138,555.802 716.125,555.798 716.09,555.792C713.904,554.88 642.628,525.618 642.687,528.049C643.91,584.182 618.827,612.154 618.827,612.154Z" style="fill:rgb(255,178,125);fill-rule:nonzero;"/>
            <path d="M649.844,541.434C656.717,554.173 680.301,579.098 715.182,588.203C715.439,567.448 716.138,555.802 716.138,555.802C716.138,555.802 716.125,555.798 716.09,555.792C714.117,555.263 647.798,537.678 649.844,541.434Z" style="fill:rgb(237,151,93);fill-rule:nonzero;"/>
            <path d="M731.065,553.646C731.065,553.646 650.909,572.49 639.943,522.393C628.976,472.296 611.244,440.988 661.958,426.838C712.671,412.688 726.834,429.62 734.561,445.451C742.289,461.282 751.634,547.452 731.065,553.646Z" style="fill:rgb(255,178,125);fill-rule:nonzero;"/>
            <path d="M642.685,536.042C641.59,536.743 624.343,542.042 591.68,476.973C586.553,466.758 583.059,444.661 595.012,425.137C606.963,405.613 649.343,390.261 684.554,383.581C719.765,376.901 728.218,396.714 736.51,416.625C745.214,437.528 770.352,454.737 770.352,454.737C739.989,471.698 703.419,447.439 690.749,451.428C678.079,455.417 673.605,475.385 672.654,481.785C671.703,488.186 670.242,493.504 654.311,487.789C638.379,482.072 647.106,510.365 649.659,515.776C649.659,515.776 651.823,530.187 642.685,536.042Z" style="fill:rgb(169,69,61);fill-rule:nonzero;"/>
            <path d="M436.2,1785.37L387.664,1785.37C377.489,1785.37 366.184,1775.18 363.353,1756.53C360.523,1737.87 339.608,1727.69 335.08,1712.43C330.553,1697.16 353.745,1675.66 353.745,1675.66L357.622,1670.68L361.655,1665.49L400.102,1674.53C400.102,1674.53 401.051,1683.69 401.645,1695.35C402.055,1703.77 402.281,1713.5 401.801,1722.03C400.668,1742.4 407.503,1764.32 425.587,1768.28C443.686,1772.24 436.2,1785.37 436.2,1785.37Z" style="fill:rgb(44,58,100);fill-rule:nonzero;"/>
            <path d="M774.083,1785.37L645.428,1785.37C644.197,1785.13 643.263,1784.86 642.697,1784.58C634.107,1780.28 636.797,1747.39 637.829,1737.23C638.027,1735.35 638.169,1734.25 638.169,1734.25C638.169,1734.25 683.408,1698.06 689.634,1725.77C689.832,1726.63 690.058,1727.48 690.299,1728.32L690.299,1728.33C698.152,1754.26 733.259,1766.03 753.538,1769.31C769.032,1771.83 773.051,1780.86 774.083,1785.37Z" style="fill:rgb(44,58,100);fill-rule:nonzero;"/>
            <path d="M748.153,1043.46C748.153,1043.46 741.282,1129.18 733.207,1232.22C722.231,1372.19 709.033,1544.13 707.726,1576.7C705.47,1633.26 696.411,1723.73 696.411,1723.73C696.411,1723.73 674.934,1745.22 631.947,1736.16C631.947,1736.16 593.641,1607.01 582.699,1470.37C582.529,1468.13 582.36,1465.87 582.19,1463.61C572.012,1324.51 556.184,1031.58 556.184,1031.58L748.153,1043.46Z" style="fill:rgb(43,71,139);fill-rule:nonzero;"/>
            <path d="M748.153,1043.46C748.153,1043.46 741.282,1129.18 733.207,1232.22L582.699,1470.37C582.529,1468.13 582.36,1465.87 582.19,1463.61C572.012,1324.51 556.184,1031.58 556.184,1031.58L748.153,1043.46Z" style="fill:rgb(35,56,98);fill-rule:nonzero;"/>
            <path d="M716.777,1053.64C716.777,1053.64 592.936,1364.08 511.508,1509.98C430.078,1655.87 404.632,1696.59 404.632,1696.59C404.632,1696.59 357.98,1677.93 353.739,1665.2C353.739,1665.2 384.878,1383.55 439.408,1314.89C470.223,1276.09 506.419,1159.66 508.115,1118.95C509.812,1078.24 519.142,997.654 519.142,997.654L716.777,1053.64Z" style="fill:rgb(43,71,139);fill-rule:nonzero;"/>
            <path d="M434.357,997.232L433.047,1017.2C433.047,1017.2 446.215,1052.67 409.32,1070.86C409.32,1070.86 393.528,1077.23 392.887,1064.94C392.247,1052.64 394.267,1057.27 392.985,1039.95C391.7,1022.64 398.507,1006.28 409.958,1000.77L419.355,989.927L434.357,997.232Z" style="fill:rgb(255,178,125);fill-rule:nonzero;"/>
            <path d="M419.945,1011.77C433.653,1016.17 435.85,1015.17 435.85,1015.17C435.85,1015.17 502.566,893.709 509.323,882.59C516.08,871.471 650.975,746.381 650.975,746.381L616.307,617.113C616.307,617.113 462.883,815.79 446.315,844.298C418.936,891.409 402.895,1000.82 402.895,1000.82C402.895,1000.82 409.179,1008.31 419.945,1011.77Z" style="fill:rgb(237,125,43);fill-rule:nonzero;"/>
            <path d="M523.123,1050.88C557.027,1070.91 589.025,1085.77 626.18,1093.61C670.214,1103.2 724.003,1099.1 742.037,1101.37C743.967,1101.59 745.742,1101.07 747.309,1100.02C748.632,1099.19 755.718,1044.87 762.479,976.134C762.661,974.553 762.842,972.883 762.972,971.224C763.063,970.11 763.128,968.996 763.153,967.921L763.271,966.95C764.009,959.811 764.721,952.529 765.381,945.171C767.04,926.827 768.478,908.004 769.812,889.219C769.942,887.431 770.071,885.63 770.187,883.83C772.274,853.527 773.815,823.68 774.295,797.135C774.307,796.5 774.321,795.865 774.321,795.23C774.684,772.999 774.307,753.127 772.896,737.347C772.61,734.018 772.274,730.896 771.872,727.955C766.613,688.105 747.323,660.07 729.212,639.019L711.502,618.923C694.505,620.414 679.788,621.024 663.192,610.375C645.211,598.845 633.597,587.987 629.956,590.021C602.128,606.306 571.989,646.351 556.884,700.71C548.761,729.976 542.711,762.92 538.928,797.601C537.49,810.918 536.376,824.457 535.611,838.176C531.673,911.786 520.143,974.683 513.458,1011.24C511.541,1021.76 510.025,1030.12 509.196,1035.91C508.368,1041.17 518.628,1048.22 523.123,1050.88Z" style="fill:rgb(249,151,70);fill-rule:nonzero;"/>
            <path d="M650.976,706.825C650.976,706.825 666.119,874.243 762.972,971.224C763.063,970.11 763.128,968.996 763.153,967.921L763.271,966.95C764.009,959.811 764.721,952.529 765.381,945.171C767.04,926.827 768.478,908.004 769.812,889.219C769.942,887.431 770.071,885.63 770.187,883.83C772.274,853.527 773.815,823.68 774.295,797.135C774.307,796.5 774.321,795.865 774.321,795.23C774.126,779.36 773.66,764.89 772.896,752.181C741.882,727.424 701.63,710.129 650.976,706.825Z" style="fill:rgb(237,125,43);fill-rule:nonzero;"/>
            <path d="M973.861,1041.42L1154.06,511.774C1154.89,509.362 1155.99,507.056 1153.6,506.184L1151.41,505.388C1148.95,504.494 1148.23,506.078 1147.34,508.535L955.253,1030.57C953.438,1035.56 955.792,1041.1 960.641,1043.26L965.091,1045.24C968.566,1046.78 972.621,1045.02 973.861,1041.42Z" style="fill:rgb(42,78,150);fill-rule:nonzero;"/>
            <path d="M1022.26,813.822C1022.35,806.069 1042.8,788.146 1044.16,790.307C1045.13,791.862 1043.02,800.004 1041.88,803.432C1050.37,797.747 1052.31,777.654 1066.65,768.686C1070.63,766.2 1084.78,805.04 1071.36,819.132C1057.94,833.224 1051.5,831.655 1029.15,844.696L1012.96,845.784L1004.97,820.621C1004.97,820.621 1013.6,817.461 1022.26,813.822Z" style="fill:rgb(255,178,125);fill-rule:nonzero;"/>
            <path d="M1030.63,834.171C1031.69,818.899 1011.55,810.064 1011.55,810.064C1011.55,810.064 858.12,826.058 844.921,821.906C831.724,817.754 733.115,676.251 733.115,676.251C733.115,676.251 689.857,627.465 654.437,638.238C623.657,647.599 611.625,671.609 607.529,694.481C602.648,721.738 615.212,749.163 638.815,763.641C691.799,796.138 784.473,885.708 809.455,893.031C865.056,909.332 1023.86,856.054 1023.86,856.054C1023.86,856.054 1029.8,846.167 1030.63,834.171Z" style="fill:rgb(249,151,70);fill-rule:nonzero;"/>
            <path d="M2741.84,1306.92C2744.62,1238.38 2750.63,1178.76 2757.82,1137.18C2769.28,1070.9 2779.6,1032.77 2779.72,1032.37C2781.23,1026.54 2803.04,1002.96 2851.54,1003.68C2900.03,1004.41 2895.43,1035.34 2895.43,1035.34C2895.44,1036.38 2895.3,1037.36 2895.09,1038.09C2894.62,1039.68 2850.1,1201.09 2852.03,1409.49C2852.06,1412.42 2852.39,1417.48 2852.18,1420.85C2852.18,1420.86 2739.8,1423.75 2739.77,1420.85C2735.85,1402.63 2737.76,1352.16 2741.84,1306.92Z" style="fill:rgb(183,211,243);fill-rule:nonzero;"/>
            <path d="M2727.7,1408.47C2727.74,1411.37 2729.27,1413.7 2731.14,1413.7L2731.19,1413.7C2733.05,1413.65 2734.54,1411.33 2734.57,1408.47L2830.88,1408.47C2830.91,1411.37 2832.44,1413.7 2834.31,1413.7L2834.36,1413.7C2836.26,1413.65 2837.77,1411.25 2837.75,1408.31C2837.19,1348.66 2840.59,1292.95 2845.74,1243.79C2858.54,1121.17 2882.21,1039.23 2882.55,1038.09C2882.76,1037.36 2882.89,1036.39 2882.89,1035.34C2882.89,1035.34 2887.49,1004.41 2839,1003.68C2790.5,1002.95 2768.69,1026.54 2767.18,1032.37C2767.09,1032.68 2761.25,1054.27 2753.48,1093.09C2750.9,1105.95 2748.13,1120.69 2745.28,1137.18C2738.09,1178.76 2732.08,1238.38 2729.29,1306.91C2725.22,1352.16 2723.79,1390.26 2727.7,1408.47Z" style="fill:rgb(210,227,252);fill-rule:nonzero;"/>
            <path d="M2844.87,1413.7L2467.27,1413.7C2467.27,1413.7 2476.07,1378.12 2694.74,1383.42C2849.5,1387.17 2844.87,1413.7 2844.87,1413.7Z" style="fill:rgb(197,220,248);fill-rule:nonzero;"/>
            <path d="M2875.6,1785.37C2831.82,1563.74 2843.08,1427.74 2843.13,1426.03C2843.24,1422.61 2836.95,1419.52 2833.57,1419.41C2830.14,1419.35 2815.03,1418.4 2813.29,1421.32C2810.99,1425.14 2802.18,1592.71 2867.43,1785.37L2875.6,1785.37Z" style="fill:rgb(183,211,243);fill-rule:nonzero;"/>
            <path d="M2523.05,1785.37C2566.83,1563.74 2555.57,1427.74 2555.51,1426.03C2555.4,1422.61 2561.69,1419.52 2565.08,1419.41C2568.5,1419.35 2583.61,1418.4 2585.36,1421.32C2587.65,1425.14 2596.47,1592.71 2531.22,1785.37L2523.05,1785.37Z" style="fill:rgb(183,211,243);fill-rule:nonzero;"/>
            <path d="M2453.18,1785.37C2496.96,1563.74 2485.7,1427.74 2485.65,1426.03C2485.54,1422.61 2491.83,1419.52 2495.21,1419.41C2498.63,1419.35 2513.75,1418.4 2515.49,1421.32C2517.78,1425.14 2526.6,1592.71 2461.35,1785.37L2453.18,1785.37Z" style="fill:rgb(183,211,243);fill-rule:nonzero;"/>
            <path d="M2805.26,1785.37C2761.48,1563.74 2772.74,1427.74 2772.79,1426.03C2772.9,1422.61 2766.61,1419.52 2763.23,1419.41C2759.81,1419.35 2744.7,1418.4 2742.95,1421.32C2740.66,1425.14 2731.84,1592.71 2797.09,1785.37L2805.26,1785.37Z" style="fill:rgb(183,211,243);fill-rule:nonzero;"/>
            <path d="M2467.05,1425.06L2844.64,1425.06C2848.9,1425.06 2852.38,1421.58 2852.38,1417.32L2852.38,1412.24C2852.38,1407.98 2848.9,1404.5 2844.64,1404.5L2467.05,1404.5C2462.8,1404.5 2459.32,1407.98 2459.32,1412.24L2459.32,1417.32C2459.32,1421.58 2462.8,1425.06 2467.05,1425.06Z" style="fill:rgb(183,211,243);fill-rule:nonzero;"/>
            <path d="M2480.32,1084.06L2354.8,1056.87L2347.41,1074.89C2347.41,1074.89 2485.9,1157.3 2498.88,1153.26C2511.85,1149.23 2480.32,1084.06 2480.32,1084.06Z" style="fill:rgb(255,178,125);fill-rule:nonzero;"/>
            <path d="M2594.43,1651.71C2597.57,1655.31 2597.97,1659.34 2596.41,1663.64C2596.41,1663.66 2596.4,1663.68 2596.38,1663.7C2593.51,1671.65 2584,1680.53 2572.96,1689.39C2571.55,1690.53 2570.3,1691.57 2569.2,1692.53C2568.91,1692.78 2568.63,1693.03 2568.36,1693.28C2568.14,1693.48 2567.92,1693.68 2567.71,1693.87C2557.41,1703.36 2561.29,1705.54 2542.79,1724.8C2521.7,1746.74 2507.18,1747.14 2503.05,1745.14C2499.55,1743.43 2506.65,1731.79 2514.52,1718.71C2514.9,1718.08 2515.27,1717.44 2515.67,1716.8C2516.71,1715.07 2517.75,1713.3 2518.79,1711.55C2528.02,1695.81 2525.65,1688.42 2523.46,1664.99C2521.69,1645.95 2493.84,1558.62 2493.84,1558.62L2534.26,1551.65C2534.26,1551.65 2546.43,1621.2 2559.84,1631.91C2567.01,1637.61 2575.04,1637.69 2581.93,1641.92C2582.42,1642.21 2582.9,1642.51 2583.37,1642.82C2587.28,1645.42 2591.27,1648.1 2594.43,1651.71Z" style="fill:rgb(255,178,125);fill-rule:nonzero;"/>
            <path d="M2594.43,1651.71C2597.57,1655.31 2597.97,1659.34 2596.41,1663.64C2596.41,1663.66 2596.4,1663.68 2596.38,1663.7C2592.86,1671.64 2583.6,1680.47 2572.92,1689.31C2571.53,1690.47 2570.3,1691.53 2569.2,1692.53C2568.91,1692.78 2568.63,1693.03 2568.36,1693.28C2568.14,1693.48 2567.92,1693.68 2567.71,1693.87C2557.41,1703.36 2561.29,1705.54 2542.79,1724.8C2521.7,1746.74 2507.18,1747.14 2503.05,1745.14C2499.55,1743.43 2506.65,1731.79 2514.52,1718.71C2518.63,1717.21 2537.7,1709.46 2552.12,1691.01C2564.82,1674.8 2573.29,1653.98 2581.93,1641.92C2582.42,1642.21 2582.9,1642.51 2583.37,1642.82C2587.28,1645.42 2591.27,1648.1 2594.43,1651.71Z" style="fill:rgb(28,70,138);fill-rule:nonzero;"/>
            <path d="M2268.51,1626.47C2266.02,1638.94 2248.23,1636.86 2228.36,1632.01C2208.49,1627.15 2213.22,1632.92 2184.94,1629.79C2156.66,1626.66 2148.09,1616.12 2147.23,1611.91C2146.46,1608.18 2160.43,1606.87 2175.42,1605.14C2177.3,1604.93 2179.2,1604.7 2181.09,1604.46C2198.01,1602.34 2210.4,1591.42 2225.77,1582.45C2240.33,1573.96 2262.06,1539.35 2262.06,1539.35L2300.84,1542.43C2300.84,1542.43 2280.49,1573.34 2272.62,1586.77C2267.99,1594.68 2268.23,1605.13 2268.81,1613.2C2269.11,1617.59 2269.4,1622.07 2268.51,1626.47Z" style="fill:rgb(255,178,125);fill-rule:nonzero;"/>
            <path d="M2228.36,1632.01C2208.49,1627.15 2213.22,1632.92 2184.94,1629.79C2156.66,1626.66 2148.09,1616.12 2147.23,1611.91C2146.46,1608.18 2160.43,1606.87 2175.42,1605.14L2175.56,1605.43C2175.56,1605.43 2192.52,1617.45 2216.06,1618.02C2235.24,1618.48 2255.56,1612.99 2268.81,1613.2C2269.11,1617.59 2269.4,1622.07 2268.51,1626.47C2266.02,1638.94 2248.23,1636.86 2228.36,1632.01Z" style="fill:rgb(28,70,138);fill-rule:nonzero;"/>
            <path d="M2354.8,1056.87C2354.8,1056.87 2345.56,1034.23 2335.4,1033.31C2325.23,1032.39 2292.9,1027.3 2290.59,1031.92C2288.28,1036.54 2290.59,1053.18 2297.51,1059.18C2304.44,1065.19 2347.41,1074.89 2347.41,1074.89L2354.8,1056.87Z" style="fill:rgb(255,178,125);fill-rule:nonzero;"/>
            <path d="M2417.13,1378.49L2500.71,1603.42C2500.71,1603.42 2513.55,1604.67 2525.86,1601.12C2537.19,1597.85 2550.17,1589.28 2550.17,1589.28C2550.17,1589.28 2529.43,1373.31 2491.42,1328.39C2453.41,1283.46 2417.13,1378.49 2417.13,1378.49Z" style="fill:rgb(22,53,96);fill-rule:nonzero;"/>
            <path d="M2747.71,1287.5C2747.71,1287.5 2507.55,1206.29 2453.99,1223.57C2400.43,1240.85 2239.61,1560.8 2239.61,1560.8C2239.61,1560.8 2243.24,1565.63 2253.15,1569.34C2262.36,1572.8 2284.67,1572.58 2284.67,1572.58C2284.67,1572.58 2429.8,1448.18 2447.08,1411.9C2464.36,1375.61 2471.27,1341.06 2488.54,1344.51C2505.82,1347.97 2711.43,1429.17 2758.08,1380.8C2804.73,1332.42 2792.53,1269.56 2792.53,1269.56L2747.71,1287.5Z" style="fill:rgb(28,70,138);fill-rule:nonzero;"/>
            <path d="M2600.95,909.719C2597.11,901.8 2592.82,887.736 2590.73,862.665C2591.05,865.154 2595.37,896.775 2607.53,914.675C2657.48,947.466 2753.21,1056.96 2751.31,1077.71C2751.31,1077.71 2785.03,1020.51 2785.62,1020.17C2785.62,1020.17 2847.82,941.075 2774.1,895.767C2736.63,872.739 2736.82,843.186 2738.38,817.513C2739.96,791.837 2728.16,681.322 2653.11,710.243C2653.11,710.243 2641.06,704.891 2635.67,705.693C2635.67,705.693 2640.07,706.536 2642.32,708.849C2633.61,708.334 2621.17,708.978 2610.79,714.879C2583.28,730.514 2558.65,870.794 2600.95,909.719Z" style="fill:rgb(44,58,100);fill-rule:nonzero;"/>
            <path d="M2610.49,916.306C2610.24,916.419 2634.6,929.071 2652.93,924.057C2670.17,919.357 2681.43,897.004 2681.2,896.954C2673.89,895.503 2671.79,885.471 2671.94,842.359L2668.64,843.009L2613.15,853.998C2613.15,853.998 2614.41,871.463 2614.45,887.915C2614.49,901.729 2613.65,914.831 2610.49,916.306Z" style="fill:rgb(255,178,125);fill-rule:nonzero;"/>
            <path d="M2613.15,853.998C2613.15,853.998 2614.41,871.463 2614.45,887.915C2645.5,887.04 2661.92,858.711 2668.64,843.009L2613.15,853.998Z" style="fill:rgb(237,151,93);fill-rule:nonzero;"/>
            <path d="M2674.38,836.968C2674.38,836.968 2690.65,811.254 2694.55,789.267C2697.34,773.569 2689.35,715.383 2630.88,723.763C2630.88,723.763 2613.9,725.437 2597.93,736.218C2585.24,744.792 2566.92,763.303 2587.4,814.077L2592.72,831.23L2674.38,836.968Z" style="fill:rgb(44,58,100);fill-rule:nonzero;"/>
            <path d="M2602.78,869.577C2602.78,869.577 2676.25,870.789 2676.3,825.022C2676.35,779.255 2685.87,748.588 2638.96,745.879C2592.05,743.17 2582.92,760.624 2579.19,775.896C2575.45,791.168 2583.67,868.082 2602.78,869.577Z" style="fill:rgb(255,178,125);fill-rule:nonzero;"/>
            <path d="M2605.5,744.758C2605.5,744.758 2625.61,798.452 2656.49,806.391C2687.36,814.33 2700.75,806.058 2700.75,806.058C2700.75,806.058 2689.45,778.437 2684.54,745.599C2684.54,745.599 2620.67,719.202 2605.5,744.758Z" style="fill:rgb(44,58,100);fill-rule:nonzero;"/>
            <path d="M2610.48,749.117C2610.48,749.117 2595.46,761.105 2591.8,772.759C2588.13,784.414 2586.49,808.406 2579.49,807.589C2579.49,807.589 2564.34,771.094 2581.37,750.449C2599.43,728.557 2610.48,749.117 2610.48,749.117Z" style="fill:rgb(44,58,100);fill-rule:nonzero;"/>
            <path d="M2774.1,1113.97C2781.34,1083.58 2756.69,1024.62 2730.96,975.802C2707.61,931.556 2683.37,895.663 2681.2,896.953C2619.61,933.503 2614.05,903.116 2614.05,903.116L2614.05,903.121C2614.02,903.125 2558.11,910.546 2542.27,937.808C2522.63,971.637 2501.4,1066.16 2480.32,1084.06C2483.55,1093.96 2482.16,1099.24 2478.73,1111.52C2478,1114.15 2477.19,1116.65 2476.29,1119.02C2473.11,1127.66 2469.14,1134.67 2465.71,1140.76C2476.43,1147.27 2497.12,1159.65 2512.37,1150.75C2535.61,1137.14 2553.75,1095.73 2563.96,1079.24C2564,1079.17 2564.03,1079.11 2564.07,1079.05C2586.26,1204.63 2556.09,1233.23 2571.36,1246.48C2587.49,1260.46 2610.53,1239.82 2661.21,1261.79C2694.45,1276.21 2740.59,1297.06 2771.64,1300.69C2787.93,1302.6 2800.08,1299.76 2804.05,1288.76C2815.56,1256.8 2760.27,1171.9 2774.1,1113.97Z" style="fill:rgb(168,210,159);fill-rule:nonzero;"/>
            <path d="M2619.11,841.833C2619.11,841.833 2617.74,847.648 2603.28,846.751C2603.28,846.751 2591.13,846 2591.51,839.61C2591.51,839.61 2603.28,835.064 2619.11,841.833Z" style="fill:white;fill-rule:nonzero;"/>
            <path d="M2804.05,1288.76C2800.08,1299.76 2787.93,1302.6 2771.64,1300.69C2750.15,1291.32 2657.29,1255.35 2658.33,1230.97C2659.87,1194.88 2676.18,1193.73 2664.67,1149.19C2655.42,1113.42 2741.21,1046.92 2754.9,1032.46C2780.63,1081.28 2781.34,1083.58 2774.1,1113.97C2760.27,1171.9 2815.56,1256.8 2804.05,1288.76Z" style="fill:rgb(130,179,120);fill-rule:nonzero;"/>
            <path d="M2814.54,1158.6C2798.07,1135.48 2780.92,1123.25 2769.63,1117.1C2772.23,1110.41 2700.37,1022.31 2700.37,1008.65C2700.37,994.833 2681.2,896.948 2681.2,896.948C2681.2,896.948 2741.07,900.645 2761.81,929.557C2787.73,965.716 2841.58,1104.87 2814.54,1158.6Z" style="fill:rgb(168,210,159);fill-rule:nonzero;"/>
            <path d="M2769.63,1117.1L2649.98,1148.32L2661.21,1168.48C2661.21,1168.48 2806.83,1167.46 2814.54,1158.6C2822.26,1149.74 2769.63,1117.1 2769.63,1117.1Z" style="fill:rgb(255,178,125);fill-rule:nonzero;"/>
            <path d="M2563.96,1079.24C2553.75,1095.73 2535.61,1137.14 2512.37,1150.75C2497.12,1159.65 2476.43,1147.27 2465.71,1140.76C2469.14,1134.67 2473.11,1127.66 2476.29,1119.02C2484.85,1120.98 2495.28,1123.48 2502.01,1125.51C2515.11,1129.47 2563.96,1079.24 2563.96,1079.24Z" style="fill:rgb(130,179,120);fill-rule:nonzero;"/>
            <path d="M2649.98,1148.32C2649.98,1148.32 2612.4,1137.69 2603.45,1140.18C2594.5,1142.66 2563.84,1162.97 2568.15,1168.48C2572.46,1174 2599.47,1165.18 2611.91,1166.85C2624.34,1168.52 2633.95,1174.65 2642.9,1173.32C2651.85,1172 2661.21,1168.48 2661.21,1168.48L2649.98,1148.32Z" style="fill:rgb(255,178,125);fill-rule:nonzero;"/>
            <path d="M2649.98,1148.32C2649.98,1148.32 2631.59,1138.88 2626.36,1133.5C2625.71,1132.82 2624.59,1132.97 2624.08,1133.76C2622.68,1135.97 2621.37,1140.24 2627.82,1144.48C2637.1,1150.59 2649.98,1148.32 2649.98,1148.32Z" style="fill:rgb(255,178,125);fill-rule:nonzero;"/>
            <path d="M2476.33,1201.19L2651.64,1201.19C2651.64,1193.47 2645.38,1187.21 2637.66,1187.21L2476.33,1187.21L2476.33,1201.19Z" style="fill:rgb(237,125,43);fill-rule:nonzero;"/>
            <path d="M2476.83,1010.26L2205.79,1010.26L2270.8,1201.19L2543.6,1201.19L2476.83,1010.26Z" style="fill:rgb(237,125,43);fill-rule:nonzero;"/>
            <path d="M2201.79,1010.26L2266.82,1201.18L2539.61,1201.18L2472.84,1010.26L2201.79,1010.26Z" style="fill:rgb(249,151,70);fill-rule:nonzero;"/>
            <path d="M2347.93,1103.96C2349.61,1111.25 2356.89,1117.17 2364.19,1117.17C2371.48,1117.17 2376.03,1111.25 2374.34,1103.96C2372.66,1096.66 2365.38,1090.75 2358.09,1090.75C2350.79,1090.75 2346.24,1096.66 2347.93,1103.96Z" style="fill:rgb(249,221,191);fill-rule:nonzero;"/>
            <path d="M2201.79,1010.26L2266.82,1201.18L2447.47,1201.18C2327.8,1160.34 2295.95,1035.79 2290.6,1010.26L2201.79,1010.26Z" style="fill:rgb(237,137,62);fill-rule:nonzero;"/>
            <path d="M2988.66,1785.37C2985.23,1785.37 2982.3,1782.96 2981.72,1779.68L2947.68,1586.72L2898.71,1309.22L2885.02,1231.62L2919.89,1230.62L2925.95,1275.67L2968.43,1592.24L2993.62,1779.88C2994.01,1782.79 2991.68,1785.37 2988.66,1785.37Z" style="fill:rgb(149,192,244);fill-rule:nonzero;"/>
            <path d="M2925.95,1275.67C2903.35,1285.64 2898.71,1309.22 2898.71,1309.22L2885.02,1231.62L2919.89,1230.62L2925.95,1275.67Z" style="fill:rgb(120,172,234);fill-rule:nonzero;"/>
            <path d="M2121.2,1785.37C2124.62,1785.37 2127.56,1782.96 2128.14,1779.68L2162.18,1586.72L2211.15,1309.22L2224.84,1231.62L2189.96,1230.62L2183.91,1275.67L2141.43,1592.24L2116.24,1779.88C2115.85,1782.79 2118.18,1785.37 2121.2,1785.37Z" style="fill:rgb(149,192,244);fill-rule:nonzero;"/>
            <path d="M2183.91,1275.67C2206.51,1285.64 2211.15,1309.22 2211.15,1309.22L2224.84,1231.62L2189.96,1230.62L2183.91,1275.67Z" style="fill:rgb(120,172,234);fill-rule:nonzero;"/>
            <path d="M3011.93,1262.08L2118.82,1262.08C2107.12,1262.08 2097.55,1252.51 2097.55,1240.81L2097.55,1222.42C2097.55,1210.72 2107.12,1201.15 2118.82,1201.15L3011.93,1201.15C3023.63,1201.15 3033.2,1210.72 3033.2,1222.42L3033.2,1240.81C3033.2,1252.51 3023.63,1262.08 3011.93,1262.08Z" style="fill:rgb(120,172,234);fill-rule:nonzero;"/>
        </g>
    </g>
</svg>
