<svg id="svg" version="1.1" xmlns="http://www.w3.org/2000/svg" xmlns:xlink="http://www.w3.org/1999/xlink" width="400" height="225" viewBox="0, 0, 400,225"><g id="svgg"><path id="path0" d="M294.204 35.340 C 293.496 36.048,293.562 36.212,297.134 42.664 C 300.340 48.455,300.737 49.399,300.176 49.910 C 300.070 50.006,300.057 49.958,300.146 49.803 C 300.549 49.103,297.331 50.950,294.710 52.923 C 293.630 53.737,293.125 54.279,293.810 53.891 C 293.965 53.803,293.742 54.101,293.315 54.553 C 292.889 55.004,292.490 55.374,292.429 55.374 C 292.368 55.374,292.610 55.070,292.966 54.699 C 293.322 54.328,293.512 54.024,293.390 54.024 C 293.103 54.024,291.684 55.481,291.830 55.626 C 291.890 55.687,291.158 56.490,290.202 57.412 C 288.503 59.051,288.495 59.056,289.815 57.637 C 290.557 56.839,291.317 56.057,291.503 55.900 C 291.718 55.718,291.744 55.611,291.574 55.606 C 290.881 55.588,284.963 62.799,284.853 63.796 C 284.794 64.334,284.143 65.729,283.951 65.729 C 283.890 65.729,284.049 65.298,284.305 64.772 C 285.133 63.067,284.119 64.604,283.090 66.613 C 281.349 70.011,279.798 74.362,280.478 73.942 C 280.660 73.829,280.717 73.878,280.643 74.082 C 280.580 74.254,280.410 74.368,280.265 74.335 C 280.086 74.295,280.040 74.513,280.123 75.010 C 280.190 75.415,280.147 76.100,280.027 76.533 C 279.834 77.234,279.824 77.197,279.937 76.196 C 280.138 74.419,279.864 75.101,279.484 77.324 C 279.110 79.510,278.787 84.192,279.104 82.836 L 279.288 82.048 279.318 82.780 L 279.347 83.512 321.672 83.512 L 363.997 83.512 363.892 79.854 C 363.784 76.075,363.600 75.018,362.477 71.746 C 362.091 70.621,361.813 70.099,361.696 70.283 C 361.571 70.481,361.514 70.488,361.512 70.305 C 361.510 70.161,361.448 69.857,361.374 69.630 C 361.263 69.287,361.281 69.275,361.483 69.555 C 362.050 70.343,361.651 69.288,360.589 67.192 C 358.319 62.709,355.064 58.430,351.588 55.360 C 348.902 52.987,347.158 51.711,346.856 51.898 C 346.692 52.000,346.640 51.973,346.727 51.832 C 346.865 51.609,344.367 49.952,343.388 49.616 L 342.938 49.461 343.388 49.841 C 343.837 50.221,343.837 50.221,343.381 50.003 C 342.617 49.637,342.787 48.880,344.207 46.333 C 344.954 44.991,345.592 43.666,345.624 43.387 C 345.685 42.858,347.250 39.617,347.445 39.617 C 347.507 39.617,347.150 40.428,346.652 41.418 C 346.154 42.409,345.791 43.219,345.846 43.219 C 346.044 43.219,347.820 39.811,347.875 39.327 C 347.930 38.832,348.874 36.867,348.893 37.206 C 348.898 37.304,348.698 37.785,348.448 38.276 C 347.749 39.646,348.104 39.332,348.886 37.889 C 350.074 35.694,348.939 33.726,347.383 35.285 C 346.842 35.827,341.199 46.107,341.328 46.315 C 341.385 46.408,341.243 46.838,341.012 47.271 C 340.505 48.224,340.433 47.990,340.923 46.978 C 341.261 46.279,340.962 46.551,340.437 47.420 C 340.208 47.799,340.113 47.807,339.311 47.520 C 337.805 46.981,337.708 46.961,338.098 47.271 C 338.391 47.503,338.385 47.522,338.056 47.417 C 337.847 47.350,337.254 47.182,336.739 47.043 C 336.223 46.904,335.844 46.749,335.895 46.697 C 335.947 46.645,336.330 46.701,336.747 46.820 C 338.561 47.341,337.481 46.788,335.474 46.170 C 332.556 45.270,327.773 44.276,329.994 45.031 C 330.374 45.160,330.191 45.180,329.432 45.092 C 328.116 44.940,327.846 44.806,328.775 44.766 C 329.773 44.724,327.624 44.373,326.505 44.396 C 325.666 44.414,325.681 44.424,326.730 44.549 C 327.349 44.622,325.070 44.682,321.666 44.682 C 318.261 44.682,315.982 44.622,316.601 44.549 C 317.349 44.460,317.491 44.403,317.026 44.380 C 315.679 44.312,314.045 44.628,314.688 44.833 C 315.080 44.958,314.962 44.979,314.296 44.901 C 313.179 44.771,310.094 45.412,307.822 46.247 C 306.956 46.565,306.525 46.772,306.866 46.706 C 307.206 46.640,307.485 46.628,307.485 46.678 C 307.485 46.821,305.195 47.532,305.086 47.423 C 305.032 47.369,305.257 47.257,305.587 47.174 C 305.917 47.091,306.136 46.972,306.073 46.910 C 306.011 46.847,305.342 47.047,304.586 47.354 C 303.803 47.672,303.157 47.821,303.082 47.700 C 303.010 47.584,302.842 47.556,302.707 47.639 C 302.561 47.730,302.528 47.686,302.625 47.528 C 302.714 47.384,302.368 46.508,301.856 45.580 C 300.874 43.802,300.392 43.246,301.193 44.816 C 301.452 45.324,301.625 45.777,301.579 45.823 C 301.532 45.870,301.219 45.346,300.882 44.659 C 300.545 43.972,300.382 43.480,300.519 43.564 C 300.821 43.751,300.524 43.160,298.192 38.942 C 295.782 34.580,295.352 34.192,294.204 35.340 M295.217 35.278 C 294.969 35.339,294.615 35.505,294.429 35.646 C 294.135 35.870,294.131 35.852,294.400 35.509 C 294.570 35.293,294.925 35.127,295.188 35.141 C 295.643 35.166,295.644 35.173,295.217 35.278 M348.772 35.252 C 348.968 35.327,349.128 35.499,349.128 35.635 C 349.128 35.799,349.038 35.791,348.858 35.611 C 348.483 35.236,348.000 35.273,347.514 35.713 C 347.011 36.168,346.962 35.962,347.456 35.469 C 347.833 35.092,348.198 35.032,348.772 35.252 M296.792 36.916 C 297.229 37.783,297.535 38.492,297.473 38.492 C 297.411 38.492,297.004 37.783,296.567 36.916 C 296.131 36.050,295.824 35.340,295.886 35.340 C 295.948 35.340,296.356 36.050,296.792 36.916 M346.775 37.120 C 346.281 38.077,346.120 38.002,346.583 37.032 C 346.789 36.600,346.997 36.286,347.046 36.335 C 347.095 36.384,346.973 36.737,346.775 37.120 M296.208 40.405 C 296.208 40.529,295.863 39.972,295.442 39.167 C 295.020 38.362,294.676 37.603,294.676 37.479 C 294.676 37.355,295.020 37.912,295.442 38.717 C 295.863 39.522,296.208 40.281,296.208 40.405 M345.200 39.819 C 344.757 40.699,344.346 41.418,344.287 41.418 C 344.228 41.418,344.553 40.662,345.011 39.738 C 345.468 38.814,345.879 38.094,345.924 38.139 C 345.969 38.184,345.643 38.940,345.200 39.819 M299.085 41.080 C 299.521 41.947,299.782 42.555,299.664 42.431 C 299.547 42.307,299.028 41.396,298.512 40.405 C 297.996 39.415,297.736 38.807,297.933 39.055 C 298.131 39.302,298.649 40.214,299.085 41.080 M297.580 42.544 C 298.078 43.534,298.435 44.344,298.373 44.344 C 298.311 44.344,297.853 43.534,297.355 42.544 C 296.857 41.553,296.500 40.743,296.562 40.743 C 296.624 40.743,297.082 41.553,297.580 42.544 M343.007 43.782 C 342.521 44.710,342.077 45.470,342.020 45.470 C 341.897 45.470,343.233 42.774,343.554 42.375 C 343.992 41.831,343.884 42.109,343.007 43.782 M344.196 45.880 C 343.696 46.874,343.203 47.739,343.100 47.803 C 342.996 47.867,343.372 47.020,343.934 45.922 C 344.497 44.824,344.990 43.958,345.031 43.999 C 345.071 44.039,344.696 44.886,344.196 45.880 M319.696 44.287 C 320.779 44.328,322.552 44.328,323.635 44.287 C 324.719 44.246,323.832 44.212,321.666 44.212 C 319.499 44.212,318.613 44.246,319.696 44.287 M299.831 46.595 C 300.329 47.586,300.686 48.396,300.624 48.396 C 300.562 48.396,300.104 47.586,299.606 46.595 C 299.108 45.605,298.751 44.795,298.813 44.795 C 298.875 44.795,299.333 45.605,299.831 46.595 M335.284 46.370 C 335.568 46.492,335.610 46.564,335.397 46.564 C 335.211 46.564,334.856 46.477,334.609 46.370 C 334.325 46.248,334.284 46.177,334.496 46.177 C 334.682 46.177,335.037 46.264,335.284 46.370 M297.918 51.234 C 297.341 51.678,296.680 52.042,296.680 51.915 C 296.680 51.801,298.088 50.878,298.255 50.883 C 298.317 50.885,298.165 51.043,297.918 51.234 M296.230 52.325 C 296.230 52.381,295.774 52.740,295.217 53.123 C 294.660 53.507,294.204 53.770,294.204 53.709 C 294.204 53.615,296.009 52.262,296.173 52.233 C 296.204 52.227,296.230 52.269,296.230 52.325 M350.478 54.710 C 352.738 56.622,352.746 56.630,352.167 56.319 C 351.919 56.185,351.103 55.536,350.353 54.875 C 349.603 54.215,348.692 53.444,348.327 53.161 C 347.963 52.879,347.867 52.748,348.115 52.870 C 348.362 52.991,349.426 53.820,350.478 54.710 M356.071 60.551 C 356.544 61.263,356.522 61.252,355.848 60.439 C 355.437 59.944,354.542 58.923,353.859 58.170 L 352.617 56.802 354.082 58.283 C 354.888 59.097,355.783 60.118,356.071 60.551 M302.251 60.482 C 302.034 60.538,301.680 60.538,301.463 60.482 C 301.246 60.425,301.424 60.379,301.857 60.379 C 302.290 60.379,302.468 60.425,302.251 60.482 M341.362 60.534 L 340.461 60.678 341.587 60.813 C 342.206 60.887,342.915 61.020,343.163 61.108 C 343.537 61.242,343.556 61.225,343.275 61.006 C 343.044 60.825,343.031 60.767,343.236 60.821 C 343.400 60.865,343.533 60.999,343.531 61.120 C 343.529 61.241,343.719 61.543,343.952 61.791 C 344.185 62.040,344.530 62.597,344.717 63.029 C 344.918 63.491,345.062 63.647,345.067 63.407 C 345.072 63.182,344.969 62.777,344.838 62.506 C 344.623 62.060,344.630 62.051,344.920 62.409 C 345.255 62.823,345.302 65.803,344.978 66.126 C 344.888 66.217,344.875 65.987,344.950 65.616 C 345.080 64.970,345.076 64.965,344.844 65.504 C 344.710 65.813,344.277 66.411,343.882 66.832 C 343.135 67.626,343.426 67.588,344.394 66.764 C 344.799 66.420,344.865 66.401,344.639 66.696 C 344.253 67.198,342.901 68.178,343.150 67.775 C 343.289 67.550,343.207 67.521,342.797 67.652 C 341.840 67.957,340.366 67.808,339.501 67.320 C 338.700 66.866,338.686 66.865,339.192 67.299 C 339.484 67.550,339.627 67.755,339.508 67.755 C 339.390 67.755,339.110 67.552,338.886 67.304 C 338.662 67.057,338.547 66.854,338.630 66.854 C 338.714 66.854,338.567 66.431,338.303 65.914 C 337.442 64.228,337.971 62.441,339.671 61.283 C 340.627 60.633,340.314 60.622,339.266 61.270 C 338.828 61.541,338.549 61.632,338.649 61.471 C 338.943 60.995,340.627 60.334,341.474 60.363 L 342.262 60.390 341.362 60.534 M286.561 61.774 C 285.609 63.158,285.455 63.091,286.379 61.695 C 286.782 61.086,287.147 60.623,287.191 60.666 C 287.234 60.710,286.951 61.208,286.561 61.774 M303.203 60.741 C 303.061 60.788,303.260 61.018,303.645 61.252 C 304.550 61.802,304.818 61.785,304.139 61.219 C 303.847 60.976,303.702 60.777,303.816 60.777 C 303.930 60.777,304.321 61.096,304.685 61.487 C 305.049 61.877,305.219 62.125,305.065 62.036 C 304.691 61.823,304.710 62.007,305.146 62.851 C 305.400 63.342,305.470 63.861,305.378 64.584 C 305.179 66.156,305.051 66.890,304.970 66.933 C 304.929 66.954,304.651 67.173,304.351 67.419 C 304.051 67.666,303.890 67.723,303.994 67.548 C 304.140 67.299,304.086 67.267,303.751 67.402 C 302.572 67.879,301.945 67.960,301.133 67.741 C 300.659 67.614,300.179 67.566,300.067 67.635 C 299.955 67.704,299.624 67.532,299.330 67.251 C 299.036 66.971,298.953 66.853,299.145 66.989 C 299.982 67.582,300.122 67.549,299.518 66.900 C 299.160 66.515,298.761 66.221,298.631 66.246 C 298.501 66.271,298.364 66.089,298.327 65.841 L 298.259 65.391 298.487 65.841 C 298.690 66.243,298.703 66.230,298.601 65.729 C 298.538 65.419,298.475 64.963,298.461 64.716 C 298.440 64.341,298.406 64.360,298.255 64.828 C 298.108 65.290,298.074 65.209,298.069 64.378 C 298.063 63.580,298.107 63.460,298.274 63.815 C 298.437 64.162,298.460 64.084,298.374 63.478 C 298.267 62.717,298.500 62.021,298.866 62.009 C 299.147 62.000,300.306 61.177,300.195 61.066 C 300.140 61.011,299.808 61.138,299.457 61.348 L 298.818 61.730 299.381 61.265 C 299.754 60.956,300.133 60.839,300.506 60.918 C 300.835 60.988,300.961 60.960,300.810 60.851 C 300.662 60.744,301.175 60.662,302.006 60.660 C 302.806 60.657,303.344 60.694,303.203 60.741 M357.750 62.785 C 358.351 63.809,358.064 63.626,357.335 62.521 C 356.988 61.995,356.848 61.683,357.024 61.829 C 357.200 61.974,357.527 62.404,357.750 62.785 M337.966 62.609 C 337.878 62.751,337.733 63.435,337.644 64.129 C 337.493 65.302,337.480 65.325,337.452 64.449 C 337.423 63.533,337.728 62.352,337.993 62.352 C 338.065 62.352,338.053 62.468,337.966 62.609 M360.586 67.867 C 360.586 67.991,360.241 67.434,359.820 66.629 C 359.399 65.824,359.054 65.065,359.054 64.941 C 359.054 64.817,359.399 65.374,359.820 66.179 C 360.241 66.984,360.586 67.743,360.586 67.867 M282.676 68.374 C 282.309 69.237,281.966 69.587,282.266 68.791 C 282.548 68.045,282.710 67.755,282.845 67.755 C 282.897 67.755,282.821 68.033,282.676 68.374 M302.479 68.360 C 302.263 68.416,301.858 68.418,301.578 68.364 C 301.298 68.310,301.474 68.264,301.970 68.262 C 302.465 68.259,302.694 68.303,302.479 68.360 M341.981 68.364 C 341.702 68.417,341.246 68.417,340.968 68.364 C 340.689 68.310,340.917 68.266,341.474 68.266 C 342.032 68.266,342.259 68.310,341.981 68.364 M362.381 72.257 C 362.377 72.442,362.238 72.240,362.071 71.806 C 361.675 70.779,361.681 70.374,362.079 71.244 C 362.249 71.615,362.385 72.071,362.381 72.257 M363.632 77.096 L 363.765 77.997 363.428 76.984 C 363.030 75.788,363.018 75.700,363.291 75.982 C 363.406 76.100,363.559 76.601,363.632 77.096 M279.598 79.698 C 279.466 81.185,279.400 81.478,279.378 80.673 C 279.347 79.508,279.572 77.358,279.711 77.497 C 279.752 77.539,279.702 78.529,279.598 79.698 M364.041 79.347 C 364.044 79.842,364.090 80.019,364.143 79.739 C 364.197 79.459,364.195 79.053,364.139 78.838 C 364.083 78.623,364.039 78.852,364.041 79.347 M364.283 82.048 C 364.284 82.915,364.325 83.242,364.374 82.775 C 364.422 82.308,364.422 81.599,364.372 81.199 C 364.322 80.800,364.282 81.182,364.283 82.048 M263.478 85.624 C 261.158 86.188,257.281 89.174,257.643 90.117 C 257.714 90.303,257.647 90.690,257.493 90.977 C 257.339 91.265,257.087 91.956,256.933 92.514 C 256.779 93.072,256.648 93.326,256.642 93.078 C 256.637 92.831,256.766 92.273,256.929 91.840 C 257.501 90.326,257.538 90.157,257.156 90.822 C 256.174 92.525,256.168 92.691,256.165 115.041 C 256.162 139.695,256.063 138.655,258.671 141.484 C 259.909 142.827,263.178 144.809,262.593 143.863 C 262.483 143.684,262.606 143.678,263.029 143.839 C 263.354 143.962,264.044 144.078,264.562 144.097 L 265.504 144.131 264.491 144.288 C 263.662 144.417,263.845 144.451,265.504 144.476 C 267.644 144.509,268.771 144.343,268.317 144.063 C 268.145 143.957,268.217 143.858,268.524 143.778 C 268.809 143.703,268.938 143.744,268.852 143.883 C 268.655 144.202,269.605 143.893,270.514 143.343 C 270.917 143.099,271.203 142.828,271.149 142.742 C 271.096 142.656,271.595 142.043,272.259 141.380 C 272.923 140.717,273.587 139.881,273.736 139.523 C 273.884 139.165,274.051 138.917,274.106 138.972 C 274.161 139.027,274.093 139.284,273.955 139.542 C 273.817 139.800,273.764 140.011,273.837 140.011 C 273.910 140.011,274.243 139.429,274.576 138.717 L 275.183 137.423 275.183 115.014 L 275.183 92.605 274.347 90.928 C 273.528 89.285,272.271 87.684,271.954 87.879 C 271.866 87.934,271.543 87.772,271.237 87.519 L 270.681 87.060 271.356 87.437 L 272.032 87.815 271.471 87.328 C 269.541 85.651,266.252 84.950,263.478 85.624 M375.263 85.669 C 371.800 86.600,369.016 89.495,368.289 92.920 C 368.110 93.766,368.052 100.253,368.091 115.205 L 368.145 136.297 368.261 114.913 L 368.377 93.528 368.432 114.716 C 368.462 126.369,368.535 136.245,368.596 136.663 C 368.694 137.342,368.682 137.363,368.486 136.860 C 368.300 136.381,368.282 136.428,368.369 137.179 C 368.596 139.155,370.297 141.631,372.366 142.997 C 373.650 143.844,375.081 144.410,374.239 143.737 C 373.719 143.321,373.877 143.290,374.672 143.652 C 375.082 143.839,375.169 143.967,374.969 144.091 C 374.813 144.187,375.291 144.227,376.031 144.178 C 377.158 144.104,377.231 144.119,376.477 144.270 C 375.775 144.410,376.048 144.449,377.715 144.449 C 379.264 144.449,379.605 144.405,378.953 144.288 L 378.053 144.127 378.841 144.092 C 379.274 144.073,379.882 144.006,380.191 143.943 C 380.682 143.843,380.696 143.856,380.304 144.043 C 379.997 144.188,379.961 144.261,380.191 144.270 C 382.204 144.351,385.708 140.987,386.711 138.010 C 387.194 136.576,387.413 94.203,386.944 92.741 C 386.790 92.260,386.758 92.244,386.722 92.628 C 386.691 92.963,386.629 92.905,386.478 92.403 C 386.367 92.032,386.326 91.571,386.386 91.379 C 386.507 90.994,385.261 88.877,384.967 88.969 C 384.866 89.001,384.293 88.596,383.693 88.070 C 383.094 87.544,382.671 87.113,382.753 87.113 C 382.835 87.113,383.356 87.531,383.910 88.042 C 384.465 88.553,384.918 88.860,384.918 88.725 C 384.918 88.417,382.858 86.864,381.654 86.266 C 379.756 85.321,377.379 85.099,375.263 85.669 M266.878 85.724 C 266.753 85.926,264.754 85.875,264.543 85.665 C 264.473 85.595,264.996 85.537,265.705 85.537 C 266.413 85.537,266.941 85.621,266.878 85.724 M378.772 85.682 C 378.545 85.908,376.819 85.951,376.684 85.733 C 376.618 85.625,377.093 85.537,377.739 85.537 C 378.386 85.537,378.851 85.602,378.772 85.682 M373.326 86.925 C 372.831 87.182,372.248 87.548,372.030 87.739 C 371.813 87.930,371.575 88.026,371.503 87.954 C 371.358 87.809,373.637 86.437,374.001 86.450 C 374.125 86.454,373.821 86.668,373.326 86.925 M260.777 87.183 C 260.529 87.330,259.780 88.008,259.113 88.689 L 257.899 89.927 258.775 88.821 C 259.531 87.867,260.755 86.863,261.114 86.902 C 261.176 86.909,261.024 87.035,260.777 87.183 M278.952 118.636 C 278.904 146.331,278.940 150.435,279.239 151.584 C 279.582 152.902,280.191 154.248,279.910 153.067 C 279.794 152.579,279.810 152.559,280.031 152.912 C 280.171 153.136,280.233 153.456,280.169 153.623 C 279.824 154.522,282.638 157.461,284.823 158.484 C 286.776 159.398,288.106 159.595,292.321 159.595 L 296.005 159.595 296.009 170.006 C 296.014 180.752,296.141 182.794,296.916 184.546 C 297.464 185.786,299.067 187.957,299.434 187.957 C 299.579 187.957,299.330 187.577,298.882 187.113 C 297.995 186.196,296.895 184.280,296.922 183.703 C 296.931 183.505,297.058 183.647,297.204 184.018 C 297.705 185.295,298.307 186.271,299.114 187.113 C 299.559 187.577,299.836 187.957,299.729 187.957 C 299.237 187.957,300.441 188.868,301.652 189.411 C 304.169 190.541,306.981 190.633,309.085 189.656 C 309.505 189.461,309.661 189.354,309.433 189.418 C 308.350 189.723,307.918 189.729,308.723 189.428 C 309.218 189.243,309.826 188.972,310.073 188.826 C 310.490 188.580,310.499 188.590,310.186 188.969 C 309.861 189.362,309.876 189.363,310.593 188.992 C 311.481 188.533,313.112 187.099,313.112 186.777 C 313.112 186.652,312.658 186.967,312.104 187.478 C 311.550 187.989,311.029 188.407,310.947 188.407 C 310.865 188.407,311.287 187.977,311.884 187.451 C 312.482 186.925,313.073 186.494,313.198 186.494 C 313.322 186.494,313.628 186.140,313.878 185.706 C 314.298 184.976,314.301 184.943,313.911 185.256 C 313.513 185.575,313.507 185.566,313.796 185.102 C 313.965 184.831,314.174 184.654,314.261 184.708 C 315.047 185.193,315.232 182.798,315.311 171.131 L 315.389 159.595 321.679 159.595 L 327.968 159.595 327.970 170.118 C 327.971 176.343,328.068 181.239,328.207 182.105 C 328.420 183.426,329.352 185.931,329.632 185.931 C 329.693 185.931,329.539 185.467,329.288 184.900 C 329.037 184.332,328.876 183.824,328.930 183.769 C 329.064 183.635,329.878 185.754,329.814 186.070 C 329.765 186.314,330.481 187.058,330.546 186.832 C 330.564 186.770,331.023 187.099,331.565 187.563 C 332.108 188.028,332.483 188.407,332.399 188.407 C 332.315 188.407,331.841 188.041,331.346 187.593 C 330.850 187.146,330.445 186.880,330.445 187.004 C 330.445 188.401,336.145 190.703,338.649 190.317 C 339.737 190.150,341.766 189.525,341.638 189.396 C 341.588 189.347,341.222 189.419,340.824 189.558 C 340.426 189.697,340.057 189.766,340.004 189.713 C 339.951 189.660,340.412 189.455,341.029 189.257 C 341.664 189.054,342.087 189.002,342.004 189.137 C 341.659 189.694,343.840 188.221,344.633 187.361 C 347.174 184.603,347.327 183.649,347.327 170.501 L 347.327 159.595 351.010 159.595 C 355.483 159.595,359.932 158.644,359.932 157.689 C 359.932 157.618,359.531 157.764,359.041 158.015 C 358.551 158.265,358.070 158.465,357.972 158.459 C 357.874 158.454,358.247 158.212,358.801 157.923 C 359.354 157.633,359.918 157.439,360.053 157.491 C 360.860 157.800,363.822 153.555,364.091 151.702 C 364.167 151.181,364.149 151.098,364.037 151.449 C 363.946 151.735,363.899 137.376,363.932 119.541 L 363.992 87.113 321.669 87.113 C 298.392 87.113,279.359 87.189,279.374 87.282 C 279.389 87.375,279.364 101.531,279.319 118.739 L 279.237 150.028 279.122 118.514 L 279.007 87.001 278.952 118.636 M364.319 118.965 C 364.319 136.545,364.346 143.703,364.378 134.873 C 364.411 126.042,364.411 111.658,364.378 102.909 C 364.346 94.159,364.319 101.384,364.319 118.965 M274.087 90.827 C 274.378 91.446,274.614 92.105,274.613 92.290 C 274.611 92.476,274.365 92.034,274.066 91.307 C 273.768 90.581,273.289 89.721,273.003 89.396 L 272.482 88.805 273.020 89.253 C 273.316 89.500,273.796 90.208,274.087 90.827 M369.841 90.284 C 369.472 90.954,369.168 91.415,369.166 91.308 C 369.160 91.045,370.340 88.892,370.436 88.988 C 370.479 89.031,370.211 89.613,369.841 90.284 M386.888 125.757 C 386.855 131.802,386.827 126.922,386.827 114.913 C 386.827 102.904,386.855 97.958,386.888 103.922 C 386.921 109.886,386.921 119.712,386.888 125.757 M256.556 125.678 C 256.523 131.519,256.495 126.674,256.495 114.913 C 256.495 103.151,256.523 98.373,256.556 104.294 C 256.589 110.215,256.589 119.838,256.556 125.678 M274.733 137.310 C 274.530 138.233,274.348 138.051,274.536 137.113 C 274.615 136.718,274.726 136.441,274.784 136.498 C 274.841 136.556,274.818 136.921,274.733 137.310 M386.591 137.857 C 386.508 138.187,386.397 138.413,386.344 138.360 C 386.290 138.307,386.315 137.994,386.398 137.664 C 386.480 137.334,386.592 137.107,386.645 137.160 C 386.698 137.214,386.673 137.527,386.591 137.857 M258.119 140.089 C 258.515 140.553,258.514 140.557,258.096 140.232 C 257.630 139.871,256.844 138.306,256.853 137.760 C 256.856 137.575,257.051 137.915,257.286 138.517 C 257.521 139.119,257.896 139.826,258.119 140.089 M371.683 141.921 C 372.339 142.506,372.673 142.881,372.425 142.755 C 371.402 142.232,369.157 139.501,369.164 138.785 C 369.165 138.655,369.464 139.068,369.828 139.703 C 370.192 140.338,371.027 141.336,371.683 141.921 M385.454 140.068 C 384.961 140.902,384.095 141.885,383.479 142.309 C 382.925 142.690,382.971 142.606,383.702 141.907 C 384.209 141.421,384.803 140.746,385.022 140.405 C 385.411 139.801,385.784 139.509,385.454 140.068 M272.429 141.474 C 271.788 142.155,271.346 142.712,271.448 142.712 C 271.645 142.712,273.720 140.563,273.720 140.359 C 273.720 140.128,273.592 140.239,272.429 141.474 M259.215 141.513 C 259.562 141.967,259.730 142.268,259.590 142.181 C 259.302 142.003,258.327 140.687,258.484 140.687 C 258.539 140.687,258.868 141.058,259.215 141.513 M267.473 144.222 C 267.195 144.276,266.739 144.276,266.460 144.222 C 266.182 144.168,266.410 144.124,266.967 144.124 C 267.524 144.124,267.752 144.168,267.473 144.222 M279.639 151.379 C 279.723 152.103,279.699 152.344,279.574 152.054 C 279.388 151.624,279.260 149.964,279.428 150.159 C 279.473 150.211,279.567 150.760,279.639 151.379 M362.212 155.264 C 362.096 155.482,361.769 155.862,361.488 156.108 C 361.110 156.438,361.149 156.334,361.636 155.712 C 362.355 154.792,362.543 154.647,362.212 155.264 M282.082 156.041 C 282.360 156.431,282.471 156.678,282.328 156.590 C 282.186 156.502,281.842 156.111,281.564 155.721 C 281.287 155.331,281.176 155.084,281.318 155.172 C 281.461 155.260,281.804 155.651,282.082 156.041 M286.051 158.484 C 286.759 158.710,287.165 158.901,286.953 158.907 C 286.350 158.926,284.149 158.042,283.577 157.551 C 283.116 157.155,283.151 157.159,283.913 157.590 C 284.381 157.856,285.344 158.258,286.051 158.484 M294.047 159.087 C 292.908 159.128,290.983 159.128,289.770 159.087 C 288.556 159.047,289.488 159.014,291.840 159.013 C 294.192 159.013,295.185 159.046,294.047 159.087 M325.000 159.088 C 323.305 159.126,320.468 159.126,318.697 159.088 C 316.925 159.050,318.312 159.019,321.778 159.018 C 325.245 159.018,326.694 159.050,325.000 159.088 M353.686 159.087 C 352.541 159.128,350.667 159.128,349.522 159.087 C 348.376 159.046,349.313 159.013,351.604 159.013 C 353.894 159.013,354.831 159.046,353.686 159.087 M296.623 176.533 C 296.588 179.660,296.559 177.102,296.559 170.850 C 296.559 164.598,296.588 162.040,296.623 165.166 C 296.659 168.292,296.659 173.407,296.623 176.533 M314.856 176.968 C 314.821 180.226,314.792 177.625,314.792 171.187 C 314.792 164.750,314.821 162.083,314.856 165.263 C 314.892 168.442,314.892 173.709,314.856 176.968 M328.587 176.774 C 328.552 179.892,328.523 177.276,328.523 170.962 C 328.523 164.648,328.552 162.098,328.587 165.294 C 328.623 168.491,328.623 173.657,328.587 176.774 M346.820 176.968 C 346.785 180.226,346.756 177.625,346.756 171.187 C 346.756 164.750,346.785 162.083,346.820 165.263 C 346.855 168.442,346.856 173.709,346.820 176.968 M314.559 183.777 C 314.476 184.107,314.365 184.333,314.312 184.280 C 314.259 184.227,314.283 183.914,314.366 183.584 C 314.449 183.254,314.560 183.028,314.613 183.081 C 314.666 183.134,314.642 183.447,314.559 183.777 M346.427 184.018 C 346.075 185.084,345.913 184.923,346.246 183.838 C 346.387 183.380,346.546 183.049,346.599 183.103 C 346.653 183.156,346.575 183.568,346.427 184.018 M345.760 185.464 C 345.633 185.702,345.047 186.396,344.458 187.005 C 343.677 187.812,343.608 187.857,344.203 187.171 C 344.651 186.654,345.194 185.960,345.410 185.631 C 345.864 184.938,346.103 184.825,345.760 185.464 M302.463 189.314 C 303.058 189.547,303.393 189.739,303.208 189.743 C 302.706 189.751,301.040 188.950,300.829 188.600 C 300.676 188.345,300.706 188.344,301.013 188.593 C 301.215 188.757,301.868 189.082,302.463 189.314 M334.384 189.297 C 335.003 189.539,335.357 189.739,335.172 189.742 C 334.853 189.746,332.906 188.914,333.146 188.876 C 333.208 188.866,333.765 189.056,334.384 189.297 M306.753 189.923 C 306.165 189.970,305.203 189.970,304.615 189.923 C 304.026 189.877,304.508 189.839,305.684 189.839 C 306.860 189.839,307.341 189.877,306.753 189.923 M338.717 189.923 C 338.129 189.970,337.167 189.970,336.579 189.923 C 335.990 189.877,336.472 189.839,337.648 189.839 C 338.824 189.839,339.305 189.877,338.717 189.923 " stroke="none" fill="#a4c43c" fill-rule="evenodd"></path><path id="path1" d="M293.697 31.207 C 293.481 31.270,293.303 31.416,293.303 31.530 C 293.303 31.645,293.200 31.739,293.073 31.739 C 290.388 31.739,289.136 38.245,291.471 40.068 C 291.550 40.129,292.014 40.977,292.503 41.952 C 292.991 42.926,293.497 43.838,293.628 43.978 C 294.353 44.751,295.624 47.764,295.313 47.972 C 295.136 48.090,294.561 48.446,294.035 48.763 C 293.509 49.080,293.078 49.411,293.078 49.498 C 293.078 49.586,292.604 49.956,292.023 50.321 C 289.136 52.138,282.719 59.343,281.050 62.641 C 280.692 63.349,280.333 63.928,280.251 63.928 C 280.170 63.928,279.768 64.713,279.357 65.672 C 278.946 66.632,278.387 67.923,278.114 68.542 C 277.841 69.162,277.502 69.972,277.360 70.343 C 276.972 71.363,275.971 75.666,275.971 76.320 C 275.971 76.635,275.866 76.998,275.738 77.127 C 275.610 77.255,275.389 79.149,275.247 81.337 L 274.990 85.315 274.524 84.900 C 274.267 84.672,273.652 84.246,273.157 83.954 C 272.662 83.662,272.206 83.353,272.144 83.267 C 270.765 81.363,260.890 81.377,259.313 83.286 C 259.252 83.361,258.796 83.661,258.301 83.952 C 256.889 84.781,254.709 87.244,254.021 88.785 C 253.686 89.537,253.277 90.456,253.113 90.827 C 252.383 92.480,252.335 93.958,252.335 114.824 C 252.335 135.189,252.444 138.886,253.044 138.886 C 253.149 138.886,253.236 139.066,253.236 139.286 C 253.236 139.839,254.702 142.850,255.085 143.084 C 255.256 143.189,255.633 143.614,255.922 144.027 C 256.211 144.441,256.940 145.083,257.543 145.453 C 258.145 145.824,258.638 146.205,258.638 146.300 C 258.638 146.502,261.022 147.494,262.441 147.882 C 265.459 148.707,271.550 147.740,272.791 146.238 C 272.961 146.032,273.199 145.864,273.321 145.864 C 273.443 145.864,273.861 145.595,274.250 145.267 L 274.958 144.671 275.109 148.250 C 275.192 150.218,275.384 152.133,275.536 152.504 C 275.687 152.876,276.035 153.798,276.308 154.554 C 277.248 157.153,279.964 160.236,282.273 161.323 C 282.954 161.644,283.562 161.983,283.624 162.077 C 283.946 162.564,286.429 163.028,289.293 163.137 L 292.374 163.253 292.455 173.411 C 292.538 183.841,292.730 185.840,293.721 186.607 C 293.801 186.669,294.069 187.121,294.316 187.612 C 295.366 189.694,298.668 192.396,301.069 193.140 C 301.564 193.293,302.112 193.532,302.286 193.670 C 302.751 194.041,308.879 194.015,309.004 193.641 C 309.056 193.486,309.299 193.360,309.544 193.360 C 311.901 193.360,316.570 189.300,317.744 186.231 C 318.994 182.959,318.965 183.283,318.965 172.890 L 318.965 163.196 321.666 163.196 L 324.367 163.196 324.367 172.609 C 324.367 178.258,324.462 182.556,324.606 183.358 C 325.354 187.540,329.139 191.934,333.033 193.140 C 333.528 193.293,334.076 193.532,334.250 193.670 C 334.715 194.041,340.843 194.015,340.968 193.641 C 341.020 193.486,341.227 193.360,341.429 193.360 C 344.014 193.360,348.158 189.742,349.812 186.041 L 350.816 183.793 350.881 173.525 L 350.946 163.258 354.145 163.135 C 357.485 163.008,358.820 162.707,360.383 161.729 C 360.816 161.458,361.389 161.167,361.655 161.083 C 362.212 160.906,365.335 157.997,365.335 157.656 C 365.335 157.531,365.528 157.221,365.764 156.968 C 367.266 155.356,368.036 152.267,368.036 147.854 C 368.036 146.016,368.096 144.513,368.169 144.513 C 368.242 144.513,368.716 144.868,369.223 145.301 C 369.729 145.734,370.226 146.089,370.328 146.089 C 370.429 146.089,370.708 146.285,370.948 146.525 C 373.106 148.682,383.035 148.541,384.693 146.328 C 384.755 146.246,385.284 145.840,385.868 145.425 C 387.961 143.941,389.870 140.964,390.433 138.304 C 390.833 136.417,390.939 94.138,390.549 92.081 C 389.926 88.799,386.104 83.512,384.353 83.512 C 384.275 83.512,384.060 83.361,383.876 83.176 C 382.117 81.418,373.101 81.405,371.348 83.158 C 371.193 83.313,370.814 83.573,370.507 83.736 C 370.200 83.899,369.534 84.370,369.026 84.784 L 368.103 85.537 367.969 81.879 C 367.808 77.487,366.804 71.647,366.024 70.568 C 365.934 70.445,365.576 69.533,365.227 68.542 C 364.531 66.568,362.685 62.917,361.755 61.677 C 361.431 61.244,361.035 60.633,360.875 60.321 C 360.249 59.091,355.955 54.217,353.847 52.342 C 352.460 51.109,348.245 47.946,347.987 47.946 C 347.872 47.946,347.777 47.743,347.777 47.496 C 347.777 47.248,347.862 47.046,347.965 47.046 C 348.069 47.046,348.442 46.463,348.794 45.751 C 349.146 45.039,349.856 43.748,350.373 42.881 C 350.889 42.015,351.535 40.850,351.808 40.293 C 352.082 39.736,352.526 38.875,352.795 38.379 C 354.006 36.150,352.405 31.739,350.384 31.739 C 350.209 31.739,350.023 31.612,349.972 31.458 C 349.816 30.991,346.825 31.083,346.338 31.570 C 346.121 31.787,345.819 31.964,345.667 31.964 C 345.329 31.964,343.950 33.352,343.950 33.692 C 343.950 33.825,343.793 34.065,343.601 34.225 C 343.409 34.384,342.826 35.384,342.307 36.447 C 341.787 37.510,341.243 38.506,341.097 38.660 C 340.951 38.815,340.558 39.522,340.222 40.231 C 338.870 43.088,338.460 43.464,337.334 42.876 C 336.115 42.241,331.938 41.331,327.293 40.689 C 325.048 40.379,318.208 40.392,315.813 40.710 C 311.878 41.233,306.598 42.382,306.360 42.767 C 306.297 42.869,305.891 43.012,305.458 43.084 L 304.671 43.216 303.884 41.585 C 303.452 40.689,302.869 39.669,302.590 39.319 C 302.311 38.969,302.081 38.564,302.080 38.418 C 302.078 38.273,301.547 37.241,300.898 36.126 C 300.249 35.010,299.569 33.808,299.385 33.454 C 298.597 31.935,295.458 30.695,293.697 31.207 M296.052 35.284 C 296.240 35.501,297.338 37.400,298.493 39.505 C 302.011 45.917,303.136 47.836,303.345 47.782 C 303.455 47.753,305.002 47.219,306.783 46.596 C 316.236 43.284,327.201 43.284,336.635 46.595 C 340.649 48.005,339.868 48.560,343.757 41.531 C 347.621 34.547,347.952 34.164,349.166 35.263 C 349.883 35.912,349.652 36.493,346.201 42.724 C 342.353 49.673,342.539 49.141,343.749 49.759 C 355.189 55.595,363.507 68.331,364.358 81.314 L 364.502 83.512 321.669 83.512 L 278.835 83.512 278.995 81.343 C 279.936 68.513,287.099 57.159,298.514 50.402 C 299.610 49.754,300.506 49.118,300.506 48.989 C 300.506 48.860,298.987 46.010,297.130 42.656 C 295.273 39.302,293.754 36.385,293.754 36.174 C 293.754 35.140,295.380 34.510,296.052 35.284 M300.285 61.193 C 297.476 62.700,297.976 66.952,301.053 67.727 C 303.355 68.307,305.459 66.653,305.459 64.264 C 305.459 61.694,302.560 59.973,300.285 61.193 M339.671 61.283 C 336.899 63.170,337.503 67.037,340.681 67.753 C 343.175 68.316,345.595 65.872,344.887 63.508 C 344.169 61.114,341.557 60.000,339.671 61.283 M267.687 85.562 C 270.513 86.153,272.972 88.132,274.354 90.928 L 275.183 92.605 275.183 115.018 L 275.183 137.432 274.421 138.980 C 270.414 147.119,259.093 146.215,256.525 137.551 C 256.026 135.869,255.974 94.475,256.469 92.628 C 257.815 87.597,262.701 84.519,267.687 85.562 M379.561 85.565 C 382.935 86.280,385.720 88.798,386.731 92.049 C 387.430 94.293,387.411 135.931,386.711 138.010 C 383.595 147.260,370.062 146.434,368.264 136.885 C 367.932 135.121,367.955 94.495,368.289 92.920 C 369.363 87.858,374.516 84.496,379.561 85.565 M364.434 118.805 C 364.434 153.405,364.494 151.769,363.153 154.232 C 361.065 158.068,357.609 159.595,351.010 159.595 L 347.327 159.595 347.327 170.501 C 347.327 182.445,347.286 182.911,346.039 185.307 C 342.508 192.090,332.476 191.897,329.118 184.981 C 328.069 182.823,327.972 181.561,327.970 170.118 L 327.968 159.595 321.666 159.595 L 315.363 159.595 315.362 170.231 C 315.360 181.642,315.276 182.777,314.276 184.893 C 310.894 192.044,300.624 192.097,297.150 184.981 C 296.124 182.881,296.014 181.431,296.009 170.006 L 296.005 159.595 292.321 159.595 C 285.624 159.595,282.372 158.144,280.283 154.224 C 278.820 151.481,278.897 153.445,278.897 118.692 L 278.897 87.113 321.666 87.113 L 364.434 87.113 364.434 118.805 " stroke="none" fill="#f8f9f3" fill-rule="evenodd"></path><path id="path2" d="M294.400 35.509 C 294.131 35.852,294.135 35.870,294.429 35.646 C 294.615 35.505,294.969 35.339,295.217 35.278 C 295.644 35.173,295.643 35.166,295.188 35.141 C 294.925 35.127,294.570 35.293,294.400 35.509 M347.456 35.469 C 346.962 35.962,347.011 36.168,347.514 35.713 C 348.000 35.273,348.483 35.236,348.858 35.611 C 349.038 35.791,349.128 35.799,349.128 35.635 C 349.128 35.075,347.965 34.959,347.456 35.469 M296.567 36.916 C 297.004 37.783,297.411 38.492,297.473 38.492 C 297.535 38.492,297.229 37.783,296.792 36.916 C 296.356 36.050,295.948 35.340,295.886 35.340 C 295.824 35.340,296.131 36.050,296.567 36.916 M346.583 37.032 C 346.377 37.463,346.255 37.817,346.312 37.817 C 346.466 37.817,347.149 36.438,347.046 36.335 C 346.997 36.286,346.789 36.600,346.583 37.032 M348.270 38.165 C 347.592 39.561,347.667 39.756,348.366 38.414 C 348.678 37.813,348.895 37.284,348.848 37.237 C 348.801 37.190,348.541 37.607,348.270 38.165 M294.676 37.479 C 294.676 37.603,295.020 38.362,295.442 39.167 C 295.863 39.972,296.208 40.529,296.208 40.405 C 296.208 40.281,295.863 39.522,295.442 38.717 C 295.020 37.912,294.676 37.355,294.676 37.479 M345.011 39.738 C 344.553 40.662,344.228 41.418,344.287 41.418 C 344.437 41.418,346.024 38.239,345.924 38.139 C 345.879 38.094,345.468 38.814,345.011 39.738 M298.512 40.405 C 299.028 41.396,299.547 42.307,299.664 42.431 C 299.986 42.770,298.348 39.574,297.933 39.055 C 297.736 38.807,297.996 39.415,298.512 40.405 M346.415 41.441 C 345.910 42.445,345.534 43.302,345.579 43.346 C 345.623 43.391,346.084 42.570,346.604 41.522 C 347.124 40.475,347.500 39.617,347.440 39.617 C 347.381 39.617,346.919 40.438,346.415 41.441 M297.355 42.544 C 297.853 43.534,298.311 44.344,298.373 44.344 C 298.435 44.344,298.078 43.534,297.580 42.544 C 297.082 41.553,296.624 40.743,296.562 40.743 C 296.500 40.743,296.857 41.553,297.355 42.544 M343.554 42.375 C 343.233 42.774,341.897 45.470,342.020 45.470 C 342.077 45.470,342.521 44.710,343.007 43.782 C 343.884 42.109,343.992 41.831,343.554 42.375 M300.890 44.676 C 301.223 45.353,301.532 45.870,301.578 45.824 C 301.679 45.723,300.544 43.444,300.393 43.444 C 300.334 43.444,300.558 43.998,300.890 44.676 M343.934 45.922 C 343.372 47.020,342.996 47.867,343.100 47.803 C 343.328 47.662,345.135 44.103,345.031 43.999 C 344.990 43.958,344.497 44.824,343.934 45.922 M316.601 44.549 C 315.982 44.622,318.261 44.682,321.666 44.682 C 325.070 44.682,327.299 44.616,326.618 44.535 C 325.102 44.356,318.148 44.365,316.601 44.549 M299.606 46.595 C 300.104 47.586,300.562 48.396,300.624 48.396 C 300.686 48.396,300.329 47.586,299.831 46.595 C 299.333 45.605,298.875 44.795,298.813 44.795 C 298.751 44.795,299.108 45.605,299.606 46.595 M328.212 44.878 C 328.264 44.924,328.813 45.021,329.432 45.092 C 330.191 45.180,330.374 45.160,329.994 45.031 C 329.432 44.840,328.035 44.720,328.212 44.878 M334.609 46.370 C 334.856 46.477,335.211 46.564,335.397 46.564 C 335.610 46.564,335.568 46.492,335.284 46.370 C 335.037 46.264,334.682 46.177,334.496 46.177 C 334.284 46.177,334.325 46.248,334.609 46.370 M340.901 47.067 C 340.703 47.449,340.581 47.803,340.630 47.852 C 340.678 47.900,340.887 47.587,341.093 47.155 C 341.556 46.185,341.395 46.110,340.901 47.067 M306.074 46.981 C 305.484 47.178,305.042 47.380,305.093 47.430 C 305.195 47.533,307.485 46.817,307.485 46.682 C 307.485 46.543,307.215 46.600,306.074 46.981 M335.847 46.691 C 335.847 46.826,338.176 47.493,338.281 47.388 C 338.328 47.340,337.833 47.142,337.179 46.948 C 335.866 46.558,335.847 46.555,335.847 46.691 M297.411 51.348 C 296.644 51.840,296.396 52.170,297.074 51.797 C 297.590 51.513,298.399 50.888,298.255 50.883 C 298.194 50.881,297.814 51.091,297.411 51.348 M295.160 52.921 C 294.634 53.293,294.204 53.648,294.204 53.709 C 294.204 53.770,294.660 53.507,295.217 53.123 C 295.774 52.740,296.230 52.381,296.230 52.325 C 296.230 52.170,296.187 52.193,295.160 52.921 M348.327 53.161 C 348.692 53.444,349.603 54.215,350.353 54.875 C 351.422 55.817,353.048 57.003,352.504 56.445 C 351.970 55.896,348.466 53.042,348.115 52.870 C 347.867 52.748,347.963 52.879,348.327 53.161 M293.066 54.643 L 292.290 55.487 293.134 54.711 C 293.920 53.989,294.082 53.799,293.910 53.799 C 293.873 53.799,293.493 54.178,293.066 54.643 M291.503 55.900 C 290.914 56.398,288.473 58.976,288.589 58.976 C 288.650 58.976,289.455 58.216,290.377 57.288 C 291.892 55.762,292.392 55.146,291.503 55.900 M353.859 58.170 C 354.542 58.923,355.437 59.944,355.848 60.439 C 356.522 61.252,356.544 61.263,356.071 60.551 C 355.783 60.118,354.888 59.097,354.082 58.283 L 352.617 56.802 353.859 58.170 M301.463 60.482 C 301.680 60.538,302.034 60.538,302.251 60.482 C 302.468 60.425,302.290 60.379,301.857 60.379 C 301.424 60.379,301.246 60.425,301.463 60.482 M339.758 60.758 C 339.247 60.990,338.748 61.311,338.649 61.471 C 338.549 61.632,338.841 61.533,339.297 61.251 C 339.752 60.969,340.606 60.658,341.194 60.559 C 342.149 60.398,342.179 60.377,341.474 60.358 C 341.041 60.346,340.269 60.526,339.758 60.758 M286.379 61.695 C 285.976 62.304,285.693 62.802,285.750 62.802 C 285.903 62.802,287.282 60.758,287.191 60.666 C 287.147 60.623,286.782 61.086,286.379 61.695 M299.381 61.247 C 299.007 61.553,298.969 61.629,299.268 61.475 C 300.003 61.095,300.410 60.783,300.169 60.785 C 300.045 60.786,299.690 60.994,299.381 61.247 M303.678 60.833 C 303.730 60.864,304.127 61.193,304.559 61.564 L 305.346 62.240 304.685 61.508 C 304.321 61.106,303.925 60.777,303.803 60.777 C 303.682 60.777,303.626 60.802,303.678 60.833 M357.335 62.521 C 357.682 63.047,358.009 63.478,358.062 63.478 C 358.224 63.478,357.362 62.108,357.024 61.829 C 356.848 61.683,356.988 61.995,357.335 62.521 M298.474 62.365 C 298.338 62.619,298.260 62.927,298.300 63.050 C 298.341 63.172,298.491 62.964,298.633 62.587 C 298.929 61.804,298.840 61.680,298.474 62.365 M344.746 62.314 C 344.830 62.478,344.981 62.883,345.081 63.214 C 345.227 63.697,345.266 63.724,345.282 63.352 C 345.292 63.097,345.142 62.692,344.947 62.452 C 344.752 62.211,344.661 62.149,344.746 62.314 M337.642 62.930 C 337.521 63.247,337.436 63.931,337.452 64.449 C 337.480 65.325,337.493 65.302,337.644 64.129 C 337.733 63.435,337.878 62.751,337.966 62.609 C 338.053 62.468,338.065 62.352,337.993 62.352 C 337.921 62.352,337.763 62.612,337.642 62.930 M298.092 64.378 C 298.092 64.935,298.136 65.163,298.189 64.885 C 298.243 64.606,298.243 64.150,298.189 63.872 C 298.136 63.593,298.092 63.821,298.092 64.378 M284.299 64.828 C 284.047 65.324,283.891 65.729,283.953 65.729 C 284.014 65.729,284.272 65.324,284.524 64.828 C 284.777 64.333,284.933 63.928,284.871 63.928 C 284.809 63.928,284.552 64.333,284.299 64.828 M359.054 64.941 C 359.054 65.065,359.399 65.824,359.820 66.629 C 360.241 67.434,360.586 67.991,360.586 67.867 C 360.586 67.743,360.241 66.984,359.820 66.179 C 359.399 65.374,359.054 64.817,359.054 64.941 M304.432 67.116 C 303.771 67.827,303.771 67.827,304.380 67.397 C 304.715 67.161,305.041 66.840,305.104 66.685 C 305.279 66.258,305.154 66.338,304.432 67.116 M343.838 67.226 C 343.160 67.831,343.109 67.915,343.633 67.565 C 344.255 67.149,345.038 66.391,344.822 66.413 C 344.776 66.417,344.333 66.783,343.838 67.226 M298.912 66.936 C 299.212 67.305,300.056 67.863,300.056 67.692 C 300.056 67.649,299.727 67.373,299.325 67.079 C 298.872 66.747,298.715 66.693,298.912 66.936 M282.631 67.947 C 282.382 68.350,282.029 69.433,282.217 69.218 C 282.465 68.933,282.971 67.755,282.845 67.755 C 282.793 67.755,282.697 67.841,282.631 67.947 M301.578 68.364 C 301.858 68.418,302.263 68.416,302.479 68.360 C 302.694 68.303,302.465 68.259,301.970 68.262 C 301.474 68.264,301.298 68.310,301.578 68.364 M340.968 68.364 C 341.246 68.417,341.702 68.417,341.981 68.364 C 342.259 68.310,342.032 68.266,341.474 68.266 C 340.917 68.266,340.689 68.310,340.968 68.364 M361.769 70.793 C 361.768 70.917,361.904 71.373,362.071 71.806 C 362.238 72.240,362.377 72.442,362.381 72.257 C 362.385 72.071,362.249 71.615,362.079 71.244 C 361.909 70.872,361.769 70.670,361.769 70.793 M279.920 75.981 C 279.834 76.555,279.810 77.071,279.866 77.127 C 279.922 77.184,280.039 76.760,280.125 76.186 C 280.211 75.611,280.235 75.096,280.179 75.039 C 280.123 74.983,280.006 75.407,279.920 75.981 M363.087 75.869 C 363.089 75.925,363.242 76.427,363.428 76.984 L 363.765 77.997 363.632 77.096 C 363.529 76.402,363.070 75.368,363.087 75.869 M279.491 78.472 C 279.412 79.050,279.361 80.040,279.378 80.673 C 279.400 81.478,279.466 81.185,279.598 79.698 C 279.798 77.448,279.733 76.707,279.491 78.472 M363.929 80.810 C 363.994 82.234,364.083 83.441,364.128 83.493 C 364.277 83.665,364.172 80.489,363.991 79.347 C 363.876 78.624,363.854 79.147,363.929 80.810 M279.174 82.836 C 279.174 83.270,279.221 83.447,279.277 83.230 C 279.334 83.014,279.334 82.659,279.277 82.442 C 279.221 82.226,279.174 82.403,279.174 82.836 M264.543 85.665 C 264.754 85.875,266.753 85.926,266.878 85.724 C 266.941 85.621,266.413 85.537,265.705 85.537 C 264.996 85.537,264.473 85.595,264.543 85.665 M376.684 85.733 C 376.819 85.951,378.545 85.908,378.772 85.682 C 378.851 85.602,378.386 85.537,377.739 85.537 C 377.093 85.537,376.618 85.625,376.684 85.733 M372.573 87.132 C 371.912 87.511,371.430 87.881,371.503 87.954 C 371.575 88.026,371.813 87.930,372.030 87.739 C 372.248 87.548,372.831 87.182,373.326 86.925 C 373.821 86.668,374.125 86.454,374.001 86.450 C 373.877 86.446,373.235 86.752,372.573 87.132 M260.326 87.302 C 259.955 87.529,259.257 88.212,258.775 88.821 L 257.899 89.927 259.113 88.689 C 259.780 88.008,260.529 87.330,260.777 87.183 C 261.024 87.035,261.176 86.909,261.114 86.902 C 261.052 86.895,260.698 87.075,260.326 87.302 M279.122 118.514 C 279.122 135.826,279.172 149.941,279.233 149.880 C 279.381 149.731,279.386 87.302,279.238 87.154 C 279.174 87.090,279.122 101.202,279.122 118.514 M364.040 118.768 C 364.009 136.239,363.934 150.876,363.872 151.294 L 363.761 152.054 363.986 151.344 C 364.133 150.881,364.191 139.570,364.153 118.818 L 364.095 87.001 364.040 118.768 M382.667 87.157 C 384.107 88.496,384.959 89.157,384.243 88.381 C 383.810 87.911,383.253 87.420,383.005 87.289 C 382.757 87.159,382.606 87.099,382.667 87.157 M273.003 89.396 C 273.289 89.721,273.768 90.581,274.066 91.307 C 274.365 92.034,274.611 92.476,274.613 92.290 C 274.618 91.701,273.579 89.719,273.020 89.253 L 272.482 88.805 273.003 89.396 M369.761 90.012 C 369.431 90.618,369.163 91.201,369.166 91.308 C 369.168 91.415,369.472 90.954,369.841 90.284 C 370.211 89.613,370.479 89.031,370.436 88.988 C 370.394 88.946,370.090 89.407,369.761 90.012 M257.235 91.000 C 257.020 91.524,256.792 92.307,256.729 92.741 C 256.635 93.383,256.669 93.342,256.913 92.514 C 257.078 91.956,257.338 91.267,257.490 90.982 C 257.642 90.698,257.735 90.371,257.696 90.256 C 257.657 90.141,257.449 90.476,257.235 91.000 M386.307 91.615 C 386.319 92.200,386.673 93.161,386.681 92.628 C 386.685 92.380,386.600 91.975,386.494 91.728 C 386.376 91.452,386.303 91.408,386.307 91.615 M386.827 114.913 C 386.827 126.922,386.855 131.802,386.888 125.757 C 386.921 119.712,386.921 109.886,386.888 103.922 C 386.855 97.958,386.827 102.904,386.827 114.913 M256.495 114.913 C 256.495 126.674,256.523 131.519,256.556 125.678 C 256.589 119.838,256.589 110.215,256.556 104.294 C 256.523 98.373,256.495 103.151,256.495 114.913 M368.335 114.913 C 368.319 126.674,368.372 136.531,368.452 136.818 C 368.587 137.296,368.565 107.386,368.424 97.693 C 368.390 95.402,368.350 103.151,368.335 114.913 M274.536 137.113 C 274.348 138.051,274.530 138.233,274.733 137.310 C 274.818 136.921,274.841 136.556,274.784 136.498 C 274.726 136.441,274.615 136.718,274.536 137.113 M386.398 137.664 C 386.315 137.994,386.290 138.307,386.344 138.360 C 386.397 138.413,386.508 138.187,386.591 137.857 C 386.673 137.527,386.698 137.214,386.645 137.160 C 386.592 137.107,386.480 137.334,386.398 137.664 M256.853 137.760 C 256.844 138.306,257.630 139.871,258.096 140.232 C 258.514 140.557,258.515 140.553,258.119 140.089 C 257.896 139.826,257.521 139.119,257.286 138.517 C 257.051 137.915,256.856 137.575,256.853 137.760 M369.164 138.785 C 369.157 139.501,371.402 142.232,372.425 142.755 C 372.673 142.881,372.339 142.506,371.683 141.921 C 371.027 141.336,370.192 140.338,369.828 139.703 C 369.464 139.068,369.165 138.655,369.164 138.785 M273.738 139.517 C 273.591 139.872,272.894 140.753,272.188 141.475 C 271.483 142.197,271.130 142.637,271.405 142.453 C 272.421 141.771,274.380 139.246,274.106 138.972 C 274.051 138.917,273.885 139.162,273.738 139.517 M385.022 140.405 C 384.803 140.746,384.209 141.421,383.702 141.907 C 382.971 142.606,382.925 142.690,383.479 142.309 C 384.095 141.885,384.961 140.902,385.454 140.068 C 385.784 139.509,385.411 139.801,385.022 140.405 M258.858 141.355 C 259.120 141.723,259.449 142.095,259.590 142.181 C 259.730 142.268,259.562 141.967,259.215 141.513 C 258.463 140.526,258.179 140.401,258.858 141.355 M374.239 143.718 C 374.480 143.900,374.828 144.048,375.014 144.048 C 375.210 144.047,375.115 143.912,374.789 143.725 C 374.049 143.302,373.684 143.298,374.239 143.718 M262.626 143.842 C 262.776 144.004,263.485 144.165,264.201 144.199 L 265.504 144.262 264.241 144.083 C 263.547 143.985,262.838 143.824,262.666 143.725 C 262.416 143.583,262.408 143.607,262.626 143.842 M379.066 144.063 L 378.053 144.221 378.953 144.238 C 379.449 144.248,380.056 144.169,380.304 144.063 C 380.825 143.839,380.507 143.839,379.066 144.063 M266.460 144.222 C 266.739 144.276,267.195 144.276,267.473 144.222 C 267.752 144.168,267.524 144.124,266.967 144.124 C 266.410 144.124,266.182 144.168,266.460 144.222 M375.858 144.222 C 376.137 144.276,376.593 144.276,376.871 144.222 C 377.150 144.168,376.922 144.124,376.365 144.124 C 375.808 144.124,375.580 144.168,375.858 144.222 M279.363 150.835 C 279.372 151.258,279.467 151.806,279.574 152.054 C 279.699 152.344,279.723 152.103,279.639 151.379 C 279.484 150.040,279.341 149.758,279.363 150.835 M279.936 153.063 C 280.072 153.571,280.898 154.868,281.086 154.868 C 281.129 154.868,281.034 154.653,280.875 154.391 C 280.715 154.129,280.405 153.597,280.185 153.209 C 279.855 152.627,279.811 152.601,279.936 153.063 M361.636 155.712 C 361.149 156.334,361.110 156.438,361.488 156.108 C 361.939 155.714,362.534 154.868,362.360 154.868 C 362.325 154.868,361.999 155.248,361.636 155.712 M281.564 155.721 C 281.842 156.111,282.186 156.502,282.328 156.590 C 282.471 156.678,282.360 156.431,282.082 156.041 C 281.804 155.651,281.461 155.260,281.318 155.172 C 281.176 155.084,281.287 155.331,281.564 155.721 M283.577 157.551 C 284.149 158.042,286.350 158.926,286.953 158.907 C 287.165 158.901,286.759 158.710,286.051 158.484 C 285.344 158.258,284.381 157.856,283.913 157.590 C 283.151 157.159,283.116 157.155,283.577 157.551 M358.807 157.907 C 358.250 158.205,357.874 158.454,357.972 158.459 C 358.211 158.473,359.932 157.588,359.932 157.452 C 359.932 157.303,359.942 157.299,358.807 157.907 M289.770 159.087 C 290.983 159.128,292.908 159.128,294.047 159.087 C 295.185 159.046,294.192 159.013,291.840 159.013 C 289.488 159.014,288.556 159.047,289.770 159.087 M318.697 159.088 C 320.468 159.126,323.305 159.126,325.000 159.088 C 326.694 159.050,325.245 159.018,321.778 159.018 C 318.312 159.019,316.925 159.050,318.697 159.088 M349.522 159.087 C 350.667 159.128,352.541 159.128,353.686 159.087 C 354.831 159.046,353.894 159.013,351.604 159.013 C 349.313 159.013,348.376 159.046,349.522 159.087 M296.559 170.850 C 296.559 177.102,296.588 179.660,296.623 176.533 C 296.659 173.407,296.659 168.292,296.623 165.166 C 296.588 162.040,296.559 164.598,296.559 170.850 M314.792 171.187 C 314.792 177.625,314.821 180.226,314.856 176.968 C 314.892 173.709,314.892 168.442,314.856 165.263 C 314.821 162.083,314.792 164.750,314.792 171.187 M328.523 170.962 C 328.523 177.276,328.552 179.892,328.587 176.774 C 328.623 173.657,328.623 168.491,328.587 165.294 C 328.552 162.098,328.523 164.648,328.523 170.962 M346.756 171.187 C 346.756 177.625,346.785 180.226,346.820 176.968 C 346.856 173.709,346.855 168.442,346.820 165.263 C 346.785 162.083,346.756 164.750,346.756 171.187 M314.366 183.584 C 314.283 183.914,314.259 184.227,314.312 184.280 C 314.365 184.333,314.476 184.107,314.559 183.777 C 314.642 183.447,314.666 183.134,314.613 183.081 C 314.560 183.028,314.449 183.254,314.366 183.584 M346.246 183.838 C 345.913 184.923,346.075 185.084,346.427 184.018 C 346.575 183.568,346.653 183.156,346.599 183.103 C 346.546 183.049,346.387 183.380,346.246 183.838 M297.030 184.003 C 297.218 184.963,298.109 186.382,299.089 187.284 L 299.944 188.069 299.124 187.169 C 298.319 186.284,297.747 185.354,297.185 184.018 L 296.901 183.343 297.030 184.003 M328.982 184.131 C 329.185 184.805,329.743 185.931,329.875 185.931 C 329.978 185.931,329.104 183.862,328.924 183.680 C 328.863 183.618,328.889 183.821,328.982 184.131 M345.410 185.631 C 345.194 185.960,344.651 186.654,344.203 187.171 C 343.608 187.857,343.677 187.812,344.458 187.005 C 345.431 185.998,346.137 185.031,345.898 185.031 C 345.846 185.031,345.626 185.301,345.410 185.631 M311.874 187.439 C 311.255 188.010,310.951 188.369,311.199 188.236 C 311.627 188.006,313.311 186.372,313.100 186.390 C 313.045 186.395,312.493 186.867,311.874 187.439 M331.008 187.245 C 331.379 187.658,331.885 188.101,332.133 188.229 C 332.380 188.358,332.482 188.374,332.358 188.266 C 332.234 188.157,331.728 187.714,331.233 187.281 L 330.333 186.494 331.008 187.245 M300.829 188.600 C 301.040 188.950,302.706 189.751,303.208 189.743 C 303.393 189.739,303.058 189.547,302.463 189.314 C 301.868 189.082,301.215 188.757,301.013 188.593 C 300.706 188.344,300.676 188.345,300.829 188.600 M310.092 188.827 C 310.026 188.934,309.511 189.150,308.947 189.308 C 308.383 189.466,307.966 189.639,308.019 189.692 C 308.186 189.860,309.954 189.250,310.216 188.934 C 310.353 188.768,310.409 188.633,310.339 188.633 C 310.269 188.633,310.158 188.720,310.092 188.827 M333.934 189.320 C 334.429 189.554,334.986 189.744,335.172 189.742 C 335.357 189.739,335.003 189.539,334.384 189.297 C 332.975 188.747,332.747 188.759,333.934 189.320 M340.912 189.327 C 340.293 189.566,340.060 189.709,340.395 189.645 C 341.185 189.495,342.150 189.127,342.150 188.976 C 342.150 188.911,342.124 188.865,342.093 188.875 C 342.062 188.885,341.531 189.088,340.912 189.327 M304.615 189.923 C 305.203 189.970,306.165 189.970,306.753 189.923 C 307.341 189.877,306.860 189.839,305.684 189.839 C 304.508 189.839,304.026 189.877,304.615 189.923 M336.579 189.923 C 337.167 189.970,338.129 189.970,338.717 189.923 C 339.305 189.877,338.824 189.839,337.648 189.839 C 336.472 189.839,335.990 189.877,336.579 189.923 " stroke="none" fill="#a2c432" fill-rule="evenodd"></path><path id="path3" d="M122.566 31.295 C 122.195 31.397,121.232 31.642,120.428 31.840 C 116.865 32.717,112.407 34.624,109.690 36.436 C 108.922 36.948,108.213 37.367,108.114 37.367 C 108.016 37.368,107.549 37.723,107.078 38.155 C 106.607 38.588,106.146 38.942,106.053 38.942 C 105.887 38.942,102.916 41.801,101.643 43.187 C 100.595 44.328,98.546 47.209,97.762 48.643 C 97.532 49.065,97.165 49.676,96.946 50.003 C 96.727 50.330,96.185 51.495,95.741 52.592 C 95.298 53.689,94.849 54.695,94.744 54.827 C 93.919 55.871,92.833 63.495,93.088 66.460 L 93.238 68.205 95.071 68.200 C 97.083 68.195,99.801 67.870,100.506 67.549 C 100.754 67.437,101.868 67.074,102.983 66.743 C 104.097 66.412,105.414 65.911,105.909 65.631 C 108.750 64.021,109.770 63.406,110.073 63.119 C 110.259 62.943,111.032 62.344,111.792 61.788 C 113.400 60.611,117.945 55.957,118.801 54.610 C 119.125 54.102,119.605 53.433,119.869 53.123 C 120.732 52.111,122.864 48.318,123.475 46.708 C 123.804 45.841,124.217 44.828,124.393 44.457 C 125.360 42.412,126.269 35.501,125.956 32.575 L 125.794 31.064 124.518 31.087 C 123.816 31.099,122.938 31.193,122.566 31.295 M117.389 68.108 C 113.971 68.632,104.788 71.298,103.883 72.030 C 103.672 72.201,98.339 73.907,95.730 74.639 C 94.518 74.979,92.108 74.788,91.208 74.280 C 90.998 74.162,89.646 73.716,88.202 73.289 C 86.758 72.861,85.138 72.313,84.601 72.071 C 83.504 71.578,79.513 70.231,79.139 70.229 C 79.006 70.229,78.621 70.084,78.283 69.907 C 77.023 69.250,72.982 68.420,69.443 68.092 C 66.588 67.827,59.000 68.792,57.064 69.667 C 56.692 69.835,55.638 70.236,54.722 70.559 C 47.982 72.933,41.365 78.079,36.623 84.637 C 34.901 87.019,34.004 88.657,31.631 93.754 C 31.048 95.005,30.129 97.990,29.690 100.056 C 29.532 100.799,29.331 101.458,29.243 101.519 C 27.866 102.486,27.879 126.138,29.258 129.094 C 29.374 129.342,29.630 130.456,29.828 131.570 C 30.259 133.991,31.282 138.232,31.512 138.548 C 31.602 138.672,32.052 140.039,32.512 141.587 C 32.972 143.134,33.537 144.806,33.768 145.301 C 33.998 145.796,34.505 147.062,34.895 148.115 C 35.284 149.167,35.945 150.737,36.363 151.604 C 36.780 152.470,37.378 153.737,37.691 154.418 C 39.045 157.363,42.467 163.341,43.100 163.867 C 43.289 164.024,43.449 164.266,43.455 164.406 C 43.462 164.545,43.914 165.267,44.461 166.010 C 45.008 166.753,45.878 167.994,46.395 168.768 C 46.911 169.541,47.411 170.174,47.505 170.174 C 47.599 170.174,47.882 170.523,48.134 170.950 C 49.489 173.247,55.729 179.878,58.499 181.964 C 63.001 185.356,68.510 186.712,73.652 185.696 C 75.531 185.324,77.761 184.735,77.884 184.577 C 77.946 184.498,78.908 184.152,80.023 183.808 C 81.137 183.464,82.683 182.895,83.458 182.544 C 87.473 180.726,97.859 179.136,99.823 180.040 C 100.075 180.156,101.206 180.415,102.336 180.617 C 104.832 181.061,108.514 182.092,108.870 182.447 C 109.013 182.589,110.330 183.092,111.796 183.565 C 113.263 184.037,114.564 184.500,114.688 184.594 C 116.076 185.640,124.004 186.163,127.044 185.408 C 128.560 185.031,132.953 183.049,133.531 182.480 C 133.690 182.323,134.378 181.784,135.059 181.282 C 137.636 179.381,143.581 172.845,144.292 171.131 C 144.408 170.853,144.599 170.625,144.718 170.625 C 144.837 170.625,145.360 169.966,145.881 169.162 C 146.401 168.357,146.897 167.698,146.983 167.698 C 147.068 167.698,147.282 167.421,147.458 167.081 C 147.633 166.742,148.297 165.699,148.932 164.763 C 149.567 163.828,150.350 162.543,150.672 161.908 C 150.994 161.272,151.355 160.692,151.475 160.618 C 151.594 160.544,152.119 159.600,152.642 158.520 C 153.164 157.440,153.662 156.505,153.749 156.443 C 153.836 156.382,154.228 155.571,154.620 154.643 C 155.013 153.714,155.586 152.432,155.895 151.793 C 156.930 149.654,158.019 146.241,158.019 145.138 L 158.019 144.073 155.854 143.020 C 154.664 142.441,153.446 141.741,153.148 141.465 C 152.850 141.189,152.293 140.811,151.909 140.625 C 150.426 139.907,144.665 134.275,143.453 132.358 C 143.023 131.677,142.543 131.018,142.387 130.894 C 142.232 130.770,141.666 129.758,141.130 128.643 C 140.594 127.529,140.092 126.567,140.015 126.505 C 139.752 126.296,138.907 123.703,138.347 121.387 C 138.041 120.119,137.737 118.996,137.671 118.890 C 137.048 117.881,137.100 106.985,137.733 106.145 C 137.831 106.015,138.036 105.301,138.188 104.558 C 138.517 102.956,139.784 98.979,140.016 98.818 C 140.106 98.756,140.532 97.990,140.963 97.115 C 142.745 93.499,146.831 88.782,150.110 86.557 C 150.650 86.191,151.142 85.761,151.203 85.602 C 151.264 85.442,151.412 85.312,151.531 85.312 C 151.650 85.312,152.171 85.025,152.689 84.675 C 153.206 84.324,153.807 83.973,154.024 83.894 C 154.613 83.680,154.502 83.104,153.686 82.134 C 151.398 79.417,149.663 77.570,149.043 77.193 C 148.656 76.958,148.340 76.666,148.340 76.545 C 148.340 76.424,147.707 75.898,146.933 75.377 C 146.159 74.856,145.476 74.366,145.414 74.288 C 145.250 74.083,143.071 72.776,142.211 72.366 C 141.806 72.173,141.183 71.855,140.827 71.660 C 135.450 68.708,124.404 67.034,117.389 68.108 " stroke="none" fill="#040404" fill-rule="evenodd"></path></g></svg>